<?xml version="1.0" encoding="UTF-8" standalone="no"?>
<!DOCTYPE svg PUBLIC "-//W3C//DTD SVG 1.1//EN"
 "http://www.w3.org/Graphics/SVG/1.1/DTD/svg11.dtd">
<!-- Generated by graphviz version 2.40.1 (20161225.0304)
 -->
<!-- Title: dependencies Pages: 1 -->
<svg width="1335pt" height="211pt"
 viewBox="0.00 0.00 1335.00 211.00" xmlns="http://www.w3.org/2000/svg" xmlns:xlink="http://www.w3.org/1999/xlink">
<g id="graph0" class="graph" transform="scale(1 1) rotate(0) translate(4 207)">
<title>dependencies</title>
<polygon fill="#ffffff" stroke="transparent" points="-4,4 -4,-207 1331,-207 1331,4 -4,4"/>
<text text-anchor="start" x="642.5091" y="-42.4" font-family="sans-serif" font-weight="bold" font-size="14.00" fill="#000000">Legend</text>
<polygon fill="#ffffb3" stroke="transparent" points="429.5,-10 429.5,-30 449.5,-30 449.5,-10 429.5,-10"/>
<text text-anchor="start" x="453.129" y="-15.4" font-family="sans-serif" font-size="14.00" fill="#000000"> &#160;Declarations</text>
<polygon fill="#8dd3c7" stroke="transparent" points="542.5,-10 542.5,-30 562.5,-30 562.5,-10 542.5,-10"/>
<text text-anchor="start" x="566.2251" y="-15.4" font-family="sans-serif" font-size="14.00" fill="#000000"> &#160;Module</text>
<polygon fill="#80b1d3" stroke="transparent" points="628.5,-10 628.5,-30 648.5,-30 648.5,-10 628.5,-10"/>
<text text-anchor="start" x="652.2812" y="-15.4" font-family="sans-serif" font-size="14.00" fill="#000000"> &#160;Bootstrap</text>
<polygon fill="#fdb462" stroke="transparent" points="725.5,-10 725.5,-30 745.5,-30 745.5,-10 725.5,-10"/>
<text text-anchor="start" x="749.1732" y="-15.4" font-family="sans-serif" font-size="14.00" fill="#000000"> &#160;Providers</text>
<polygon fill="#fb8072" stroke="transparent" points="821.5,-10 821.5,-30 841.5,-30 841.5,-10 821.5,-10"/>
<text text-anchor="start" x="845.2258" y="-15.4" font-family="sans-serif" font-size="14.00" fill="#000000"> &#160;Exports</text>
<g id="clust1" class="cluster">
<title>cluster_ApiModule</title>
<polygon fill="none" stroke="#000000" stroke-dasharray="1,5" points="8,-70 8,-195 1319,-195 1319,-70 8,-70"/>
</g>
<g id="clust6" class="cluster">
<title>cluster_ApiModule_providers</title>
<polygon fill="none" stroke="#000000" points="16,-78 16,-130 1311,-130 1311,-78 16,-78"/>
</g>
<!-- AuthenticationService -->
<g id="node1" class="node">
<title>AuthenticationService</title>
<ellipse fill="#fdb462" stroke="#000000" cx="1206" cy="-104" rx="97.2683" ry="18"/>
<text text-anchor="middle" x="1206" y="-99.8" font-family="Times,serif" font-size="14.00" fill="#000000">AuthenticationService</text>
</g>
<!-- ApiModule -->
<g id="node9" class="node">
<title>ApiModule</title>
<polygon fill="#8dd3c7" stroke="#000000" points="679.0483,-187 676.0483,-191 655.0483,-191 652.0483,-187 598.9517,-187 598.9517,-151 679.0483,-151 679.0483,-187"/>
<text text-anchor="middle" x="639" y="-164.8" font-family="Times,serif" font-size="14.00" fill="#000000">ApiModule</text>
</g>
<!-- AuthenticationService&#45;&gt;ApiModule -->
<g id="edge1" class="edge">
<title>AuthenticationService&#45;&gt;ApiModule</title>
<path fill="none" stroke="#000000" d="M1206,-122.2921C1206,-144.2057 1206,-178 1206,-178 1206,-178 689.3227,-178 689.3227,-178"/>
<polygon fill="#000000" stroke="#000000" points="689.3227,-174.5001 679.3227,-178 689.3227,-181.5001 689.3227,-174.5001"/>
</g>
<!-- ContractService -->
<g id="node2" class="node">
<title>ContractService</title>
<ellipse fill="#fdb462" stroke="#000000" cx="1017" cy="-104" rx="73.49" ry="18"/>
<text text-anchor="middle" x="1017" y="-99.8" font-family="Times,serif" font-size="14.00" fill="#000000">ContractService</text>
</g>
<!-- ContractService&#45;&gt;ApiModule -->
<g id="edge2" class="edge">
<title>ContractService&#45;&gt;ApiModule</title>
<path fill="none" stroke="#000000" d="M1017,-122.1061C1017,-141.3391 1017,-169 1017,-169 1017,-169 689.0948,-169 689.0948,-169"/>
<polygon fill="#000000" stroke="#000000" points="689.0948,-165.5001 679.0948,-169 689.0947,-172.5001 689.0948,-165.5001"/>
</g>
<!-- LogsService -->
<g id="node3" class="node">
<title>LogsService</title>
<ellipse fill="#fdb462" stroke="#000000" cx="866" cy="-104" rx="59.1083" ry="18"/>
<text text-anchor="middle" x="866" y="-99.8" font-family="Times,serif" font-size="14.00" fill="#000000">LogsService</text>
</g>
<!-- LogsService&#45;&gt;ApiModule -->
<g id="edge3" class="edge">
<title>LogsService&#45;&gt;ApiModule</title>
<path fill="none" stroke="#000000" d="M866,-122.027C866,-138.3976 866,-160 866,-160 866,-160 689.0605,-160 689.0605,-160"/>
<polygon fill="#000000" stroke="#000000" points="689.0605,-156.5001 679.0605,-160 689.0605,-163.5001 689.0605,-156.5001"/>
</g>
<!-- MarketService -->
<g id="node4" class="node">
<title>MarketService</title>
<ellipse fill="#fdb462" stroke="#000000" cx="721" cy="-104" rx="67.7529" ry="18"/>
<text text-anchor="middle" x="721" y="-99.8" font-family="Times,serif" font-size="14.00" fill="#000000">MarketService</text>
</g>
<!-- MarketService&#45;&gt;ApiModule -->
<g id="edge4" class="edge">
<title>MarketService&#45;&gt;ApiModule</title>
<path fill="none" stroke="#000000" d="M666.1986,-114.7334C666.1986,-114.7334 666.1986,-140.8723 666.1986,-140.8723"/>
<polygon fill="#000000" stroke="#000000" points="662.6987,-140.8722 666.1986,-150.8723 669.6987,-140.8723 662.6987,-140.8722"/>
</g>
<!-- MessagesService -->
<g id="node5" class="node">
<title>MessagesService</title>
<ellipse fill="#fdb462" stroke="#000000" cx="558" cy="-104" rx="77.5627" ry="18"/>
<text text-anchor="middle" x="558" y="-99.8" font-family="Times,serif" font-size="14.00" fill="#000000">MessagesService</text>
</g>
<!-- MessagesService&#45;&gt;ApiModule -->
<g id="edge5" class="edge">
<title>MessagesService&#45;&gt;ApiModule</title>
<path fill="none" stroke="#000000" d="M617.1289,-115.922C617.1289,-115.922 617.1289,-140.7669 617.1289,-140.7669"/>
<polygon fill="#000000" stroke="#000000" points="613.629,-140.7669 617.1289,-150.7669 620.629,-140.7669 613.629,-140.7669"/>
</g>
<!-- OrdersService -->
<g id="node6" class="node">
<title>OrdersService</title>
<ellipse fill="#fdb462" stroke="#000000" cx="396" cy="-104" rx="66.0281" ry="18"/>
<text text-anchor="middle" x="396" y="-99.8" font-family="Times,serif" font-size="14.00" fill="#000000">OrdersService</text>
</g>
<!-- OrdersService&#45;&gt;ApiModule -->
<g id="edge6" class="edge">
<title>OrdersService&#45;&gt;ApiModule</title>
<path fill="none" stroke="#000000" d="M396,-122.027C396,-138.3976 396,-160 396,-160 396,-160 588.8735,-160 588.8735,-160"/>
<polygon fill="#000000" stroke="#000000" points="588.8735,-163.5001 598.8735,-160 588.8735,-156.5001 588.8735,-163.5001"/>
</g>
<!-- SignalsService -->
<g id="node7" class="node">
<title>SignalsService</title>
<ellipse fill="#fdb462" stroke="#000000" cx="243" cy="-104" rx="68.3536" ry="18"/>
<text text-anchor="middle" x="243" y="-99.8" font-family="Times,serif" font-size="14.00" fill="#000000">SignalsService</text>
</g>
<!-- SignalsService&#45;&gt;ApiModule -->
<g id="edge7" class="edge">
<title>SignalsService&#45;&gt;ApiModule</title>
<path fill="none" stroke="#000000" d="M243,-122.1061C243,-141.3391 243,-169 243,-169 243,-169 588.8502,-169 588.8502,-169"/>
<polygon fill="#000000" stroke="#000000" points="588.8502,-172.5001 598.8502,-169 588.8501,-165.5001 588.8502,-172.5001"/>
</g>
<!-- TradesService -->
<g id="node8" class="node">
<title>TradesService</title>
<ellipse fill="#fdb462" stroke="#000000" cx="90" cy="-104" rx="66.0281" ry="18"/>
<text text-anchor="middle" x="90" y="-99.8" font-family="Times,serif" font-size="14.00" fill="#000000">TradesService</text>
</g>
<!-- TradesService&#45;&gt;ApiModule -->
<g id="edge8" class="edge">
<title>TradesService&#45;&gt;ApiModule</title>
<path fill="none" stroke="#000000" d="M90,-122.2921C90,-144.2057 90,-178 90,-178 90,-178 588.6307,-178 588.6307,-178"/>
<polygon fill="#000000" stroke="#000000" points="588.6308,-181.5001 598.6307,-178 588.6307,-174.5001 588.6308,-181.5001"/>
</g>
</g>
</svg>
