<?xml version="1.0" encoding="UTF-8" standalone="no"?>
<!DOCTYPE svg PUBLIC "-//W3C//DTD SVG 1.1//EN"
 "http://www.w3.org/Graphics/SVG/1.1/DTD/svg11.dtd">
<!-- Generated by graphviz version 2.40.1 (20161225.0304)
 -->
<!-- Title: dependencies Pages: 1 -->
<svg width="504pt" height="284pt"
 viewBox="0.00 0.00 504.00 284.00" xmlns="http://www.w3.org/2000/svg" xmlns:xlink="http://www.w3.org/1999/xlink">
<g id="graph0" class="graph" transform="scale(1 1) rotate(0) translate(4 280)">
<title>dependencies</title>
<polygon fill="#ffffff" stroke="transparent" points="-4,4 -4,-280 500,-280 500,4 -4,4"/>
<text text-anchor="start" x="227.0091" y="-42.4" font-family="sans-serif" font-weight="bold" font-size="14.00" fill="#000000">Legend</text>
<polygon fill="#ffffb3" stroke="transparent" points="14,-10 14,-30 34,-30 34,-10 14,-10"/>
<text text-anchor="start" x="37.629" y="-15.4" font-family="sans-serif" font-size="14.00" fill="#000000"> &#160;Declarations</text>
<polygon fill="#8dd3c7" stroke="transparent" points="127,-10 127,-30 147,-30 147,-10 127,-10"/>
<text text-anchor="start" x="150.7251" y="-15.4" font-family="sans-serif" font-size="14.00" fill="#000000"> &#160;Module</text>
<polygon fill="#80b1d3" stroke="transparent" points="213,-10 213,-30 233,-30 233,-10 213,-10"/>
<text text-anchor="start" x="236.7812" y="-15.4" font-family="sans-serif" font-size="14.00" fill="#000000"> &#160;Bootstrap</text>
<polygon fill="#fdb462" stroke="transparent" points="310,-10 310,-30 330,-30 330,-10 310,-10"/>
<text text-anchor="start" x="333.6732" y="-15.4" font-family="sans-serif" font-size="14.00" fill="#000000"> &#160;Providers</text>
<polygon fill="#fb8072" stroke="transparent" points="406,-10 406,-30 426,-30 426,-10 406,-10"/>
<text text-anchor="start" x="429.7258" y="-15.4" font-family="sans-serif" font-size="14.00" fill="#000000"> &#160;Exports</text>
<g id="clust1" class="cluster">
<title>cluster_FgMaterialModule</title>
<polygon fill="none" stroke="#000000" stroke-dasharray="1,5" points="15,-70 15,-268 481,-268 481,-70 15,-70"/>
</g>
<g id="clust2" class="cluster">
<title>cluster_FgMaterialModule_declarations</title>
<polygon fill="none" stroke="#000000" points="233,-78 233,-130 473,-130 473,-78 233,-78"/>
</g>
<g id="clust5" class="cluster">
<title>cluster_FgMaterialModule_exports</title>
<polygon fill="none" stroke="#000000" points="126,-208 126,-260 370,-260 370,-208 126,-208"/>
</g>
<g id="clust7" class="cluster">
<title>cluster_FgMaterialModule_providers</title>
<polygon fill="none" stroke="#000000" points="23,-78 23,-130 225,-130 225,-78 23,-78"/>
</g>
<!-- FgAngularMaterialDemoComponent -->
<g id="node1" class="node">
<title>FgAngularMaterialDemoComponent</title>
<polygon fill="#ffffb3" stroke="#000000" points="464.6203,-122 241.3797,-122 241.3797,-86 464.6203,-86 464.6203,-122"/>
<text text-anchor="middle" x="353" y="-99.8" font-family="Times,serif" font-size="14.00" fill="#000000">FgAngularMaterialDemoComponent</text>
</g>
<!-- FgMaterialModule -->
<g id="node2" class="node">
<title>FgMaterialModule</title>
<polygon fill="#8dd3c7" stroke="#000000" points="308.7534,-187 305.7534,-191 284.7534,-191 281.7534,-187 187.2466,-187 187.2466,-151 308.7534,-151 308.7534,-187"/>
<text text-anchor="middle" x="248" y="-164.8" font-family="Times,serif" font-size="14.00" fill="#000000">FgMaterialModule</text>
</g>
<!-- FgAngularMaterialDemoComponent&#45;&gt;FgMaterialModule -->
<g id="edge1" class="edge">
<title>FgAngularMaterialDemoComponent&#45;&gt;FgMaterialModule</title>
<path fill="none" stroke="#000000" d="M275.0333,-122.1061C275.0333,-122.1061 275.0333,-140.991 275.0333,-140.991"/>
<polygon fill="#000000" stroke="#000000" points="271.5334,-140.9909 275.0333,-150.991 278.5334,-140.991 271.5334,-140.9909"/>
</g>
<!-- FgAngularMaterialDemoComponent  -->
<g id="node3" class="node">
<title>FgAngularMaterialDemoComponent </title>
<polygon fill="#fb8072" stroke="#000000" points="361.62,-252 134.38,-252 134.38,-216 361.62,-216 361.62,-252"/>
<text text-anchor="middle" x="248" y="-229.8" font-family="Times,serif" font-size="14.00" fill="#000000">FgAngularMaterialDemoComponent </text>
</g>
<!-- FgMaterialModule&#45;&gt;FgAngularMaterialDemoComponent  -->
<g id="edge2" class="edge">
<title>FgMaterialModule&#45;&gt;FgAngularMaterialDemoComponent </title>
<path fill="none" stroke="#000000" stroke-dasharray="5,2" d="M248,-187.1061C248,-187.1061 248,-205.991 248,-205.991"/>
<polygon fill="#000000" stroke="#000000" points="244.5001,-205.9909 248,-215.991 251.5001,-205.991 244.5001,-205.9909"/>
</g>
<!-- FgBreakpointService -->
<g id="node4" class="node">
<title>FgBreakpointService</title>
<ellipse fill="#fdb462" stroke="#000000" cx="124" cy="-104" rx="93.1968" ry="18"/>
<text text-anchor="middle" x="124" y="-99.8" font-family="Times,serif" font-size="14.00" fill="#000000">FgBreakpointService</text>
</g>
<!-- FgBreakpointService&#45;&gt;FgMaterialModule -->
<g id="edge3" class="edge">
<title>FgBreakpointService&#45;&gt;FgMaterialModule</title>
<path fill="none" stroke="#000000" d="M202.1109,-113.8721C202.1109,-113.8721 202.1109,-140.9074 202.1109,-140.9074"/>
<polygon fill="#000000" stroke="#000000" points="198.611,-140.9073 202.1109,-150.9074 205.611,-140.9074 198.611,-140.9073"/>
</g>
</g>
</svg>
