<?xml version="1.0" encoding="UTF-8" standalone="no"?>
<!DOCTYPE svg PUBLIC "-//W3C//DTD SVG 1.1//EN"
 "http://www.w3.org/Graphics/SVG/1.1/DTD/svg11.dtd">
<!-- Generated by graphviz version 2.40.1 (20161225.0304)
 -->
<!-- Title: dependencies Pages: 1 -->
<svg width="9771pt" height="284pt"
 viewBox="0.00 0.00 9771.00 284.00" xmlns="http://www.w3.org/2000/svg" xmlns:xlink="http://www.w3.org/1999/xlink">
<g id="graph0" class="graph" transform="scale(1 1) rotate(0) translate(4 280)">
<title>dependencies</title>
<polygon fill="#ffffff" stroke="transparent" points="-4,4 -4,-280 9767,-280 9767,4 -4,4"/>
<text text-anchor="start" x="4860.5091" y="-42.4" font-family="sans-serif" font-weight="bold" font-size="14.00" fill="#000000">Legend</text>
<polygon fill="#ffffb3" stroke="transparent" points="4647.5,-10 4647.5,-30 4667.5,-30 4667.5,-10 4647.5,-10"/>
<text text-anchor="start" x="4671.129" y="-15.4" font-family="sans-serif" font-size="14.00" fill="#000000"> &#160;Declarations</text>
<polygon fill="#8dd3c7" stroke="transparent" points="4760.5,-10 4760.5,-30 4780.5,-30 4780.5,-10 4760.5,-10"/>
<text text-anchor="start" x="4784.2251" y="-15.4" font-family="sans-serif" font-size="14.00" fill="#000000"> &#160;Module</text>
<polygon fill="#80b1d3" stroke="transparent" points="4846.5,-10 4846.5,-30 4866.5,-30 4866.5,-10 4846.5,-10"/>
<text text-anchor="start" x="4870.2812" y="-15.4" font-family="sans-serif" font-size="14.00" fill="#000000"> &#160;Bootstrap</text>
<polygon fill="#fdb462" stroke="transparent" points="4943.5,-10 4943.5,-30 4963.5,-30 4963.5,-10 4943.5,-10"/>
<text text-anchor="start" x="4967.1732" y="-15.4" font-family="sans-serif" font-size="14.00" fill="#000000"> &#160;Providers</text>
<polygon fill="#fb8072" stroke="transparent" points="5039.5,-10 5039.5,-30 5059.5,-30 5059.5,-10 5039.5,-10"/>
<text text-anchor="start" x="5063.2258" y="-15.4" font-family="sans-serif" font-size="14.00" fill="#000000"> &#160;Exports</text>
<g id="clust1" class="cluster">
<title>cluster_AppModule</title>
<polygon fill="none" stroke="#000000" stroke-dasharray="1,5" points="8,-70 8,-268 9755,-268 9755,-70 8,-70"/>
</g>
<g id="clust2" class="cluster">
<title>cluster_AppModule_declarations</title>
<polygon fill="none" stroke="#000000" points="2297,-78 2297,-130 9747,-130 9747,-78 2297,-78"/>
</g>
<g id="clust48" class="cluster">
<title>cluster_AppModule_imports</title>
<polygon fill="none" stroke="#000000" points="1750,-78 1750,-130 2289,-130 2289,-78 1750,-78"/>
</g>
<g id="clust50" class="cluster">
<title>cluster_AppModule_bootstrap</title>
<polygon fill="none" stroke="#000000" points="4950,-208 4950,-260 5074,-260 5074,-208 4950,-208"/>
</g>
<g id="clust51" class="cluster">
<title>cluster_AppModule_providers</title>
<polygon fill="none" stroke="#000000" points="16,-78 16,-130 1742,-130 1742,-78 16,-78"/>
</g>
<!-- AppComponent -->
<g id="node1" class="node">
<title>AppComponent</title>
<polygon fill="#ffffb3" stroke="#000000" points="9738.9399,-122 9633.0601,-122 9633.0601,-86 9738.9399,-86 9738.9399,-122"/>
<text text-anchor="middle" x="9686" y="-99.8" font-family="Times,serif" font-size="14.00" fill="#000000">AppComponent</text>
</g>
<!-- AppModule -->
<g id="node46" class="node">
<title>AppModule</title>
<polygon fill="#8dd3c7" stroke="#000000" points="5053.6571,-187 5050.6571,-191 5029.6571,-191 5026.6571,-187 4970.3429,-187 4970.3429,-151 5053.6571,-151 5053.6571,-187"/>
<text text-anchor="middle" x="5012" y="-164.8" font-family="Times,serif" font-size="14.00" fill="#000000">AppModule</text>
</g>
<!-- AppComponent&#45;&gt;AppModule -->
<g id="edge1" class="edge">
<title>AppComponent&#45;&gt;AppModule</title>
<path fill="none" stroke="#000000" d="M9686,-122.1985C9686,-146.3563 9686,-186 9686,-186 9686,-186 5063.8347,-186 5063.8347,-186"/>
<polygon fill="#000000" stroke="#000000" points="5063.8347,-182.5001 5053.8347,-186 5063.8347,-189.5001 5063.8347,-182.5001"/>
</g>
<!-- AsksViewComponent -->
<g id="node2" class="node">
<title>AsksViewComponent</title>
<polygon fill="#ffffb3" stroke="#000000" points="9614.647,-122 9475.353,-122 9475.353,-86 9614.647,-86 9614.647,-122"/>
<text text-anchor="middle" x="9545" y="-99.8" font-family="Times,serif" font-size="14.00" fill="#000000">AsksViewComponent</text>
</g>
<!-- AsksViewComponent&#45;&gt;AppModule -->
<g id="edge2" class="edge">
<title>AsksViewComponent&#45;&gt;AppModule</title>
<path fill="none" stroke="#000000" d="M9545,-122.3802C9545,-146.2785 9545,-185 9545,-185 9545,-185 5063.9804,-185 5063.9804,-185"/>
<polygon fill="#000000" stroke="#000000" points="5063.9804,-181.5001 5053.9804,-185 5063.9803,-188.5001 5063.9804,-181.5001"/>
</g>
<!-- BarStateComponent -->
<g id="node3" class="node">
<title>BarStateComponent</title>
<polygon fill="#ffffb3" stroke="#000000" points="9456.538,-122 9327.462,-122 9327.462,-86 9456.538,-86 9456.538,-122"/>
<text text-anchor="middle" x="9392" y="-99.8" font-family="Times,serif" font-size="14.00" fill="#000000">BarStateComponent</text>
</g>
<!-- BarStateComponent&#45;&gt;AppModule -->
<g id="edge3" class="edge">
<title>BarStateComponent&#45;&gt;AppModule</title>
<path fill="none" stroke="#000000" d="M9392,-122.1532C9392,-145.7566 9392,-184 9392,-184 9392,-184 5063.9458,-184 5063.9458,-184"/>
<polygon fill="#000000" stroke="#000000" points="5063.9459,-180.5001 5053.9458,-184 5063.9458,-187.5001 5063.9459,-180.5001"/>
</g>
<!-- BidsViewComponent -->
<g id="node4" class="node">
<title>BidsViewComponent</title>
<polygon fill="#ffffb3" stroke="#000000" points="9309.823,-122 9172.177,-122 9172.177,-86 9309.823,-86 9309.823,-122"/>
<text text-anchor="middle" x="9241" y="-99.8" font-family="Times,serif" font-size="14.00" fill="#000000">BidsViewComponent</text>
</g>
<!-- BidsViewComponent&#45;&gt;AppModule -->
<g id="edge4" class="edge">
<title>BidsViewComponent&#45;&gt;AppModule</title>
<path fill="none" stroke="#000000" d="M9241,-122.3228C9241,-145.6602 9241,-183 9241,-183 9241,-183 5063.8559,-183 5063.8559,-183"/>
<polygon fill="#000000" stroke="#000000" points="5063.8559,-179.5001 5053.8559,-183 5063.8559,-186.5001 5063.8559,-179.5001"/>
</g>
<!-- DashboardComponent -->
<g id="node5" class="node">
<title>DashboardComponent</title>
<polygon fill="#ffffb3" stroke="#000000" points="9153.9734,-122 9012.0266,-122 9012.0266,-86 9153.9734,-86 9153.9734,-122"/>
<text text-anchor="middle" x="9083" y="-99.8" font-family="Times,serif" font-size="14.00" fill="#000000">DashboardComponent</text>
</g>
<!-- DashboardComponent&#45;&gt;AppModule -->
<g id="edge5" class="edge">
<title>DashboardComponent&#45;&gt;AppModule</title>
<path fill="none" stroke="#000000" d="M9083,-122.2479C9083,-145.0179 9083,-181 9083,-181 9083,-181 5063.9529,-181 5063.9529,-181"/>
<polygon fill="#000000" stroke="#000000" points="5063.9529,-177.5001 5053.9529,-181 5063.9528,-184.5001 5063.9529,-177.5001"/>
</g>
<!-- DashboardViewComponent -->
<g id="node6" class="node">
<title>DashboardViewComponent</title>
<polygon fill="#ffffb3" stroke="#000000" points="8994.292,-122 8821.708,-122 8821.708,-86 8994.292,-86 8994.292,-122"/>
<text text-anchor="middle" x="8908" y="-99.8" font-family="Times,serif" font-size="14.00" fill="#000000">DashboardViewComponent</text>
</g>
<!-- DashboardViewComponent&#45;&gt;AppModule -->
<g id="edge6" class="edge">
<title>DashboardViewComponent&#45;&gt;AppModule</title>
<path fill="none" stroke="#000000" d="M8908,-122.0109C8908,-144.4852 8908,-180 8908,-180 8908,-180 5063.7695,-180 5063.7695,-180"/>
<polygon fill="#000000" stroke="#000000" points="5063.7695,-176.5001 5053.7695,-180 5063.7695,-183.5001 5063.7695,-176.5001"/>
</g>
<!-- FgActionsComponent -->
<g id="node7" class="node">
<title>FgActionsComponent</title>
<polygon fill="#ffffb3" stroke="#000000" points="8803.6624,-122 8664.3376,-122 8664.3376,-86 8803.6624,-86 8803.6624,-122"/>
<text text-anchor="middle" x="8734" y="-99.8" font-family="Times,serif" font-size="14.00" fill="#000000">FgActionsComponent</text>
</g>
<!-- FgActionsComponent&#45;&gt;AppModule -->
<g id="edge7" class="edge">
<title>FgActionsComponent&#45;&gt;AppModule</title>
<path fill="none" stroke="#000000" d="M8734,-122.1554C8734,-144.3519 8734,-179 8734,-179 8734,-179 5063.7998,-179 5063.7998,-179"/>
<polygon fill="#000000" stroke="#000000" points="5063.7998,-175.5001 5053.7998,-179 5063.7998,-182.5001 5063.7998,-175.5001"/>
</g>
<!-- FgCardComponent -->
<g id="node8" class="node">
<title>FgCardComponent</title>
<polygon fill="#ffffb3" stroke="#000000" points="8646.8272,-122 8523.1728,-122 8523.1728,-86 8646.8272,-86 8646.8272,-122"/>
<text text-anchor="middle" x="8585" y="-99.8" font-family="Times,serif" font-size="14.00" fill="#000000">FgCardComponent</text>
</g>
<!-- FgCardComponent&#45;&gt;AppModule -->
<g id="edge8" class="edge">
<title>FgCardComponent&#45;&gt;AppModule</title>
<path fill="none" stroke="#000000" d="M8585,-122.2921C8585,-144.2057 8585,-178 8585,-178 8585,-178 5063.6738,-178 5063.6738,-178"/>
<polygon fill="#000000" stroke="#000000" points="5063.6738,-174.5001 5053.6738,-178 5063.6738,-181.5001 5063.6738,-174.5001"/>
</g>
<!-- FgEnumPipe -->
<g id="node9" class="node">
<title>FgEnumPipe</title>
<polygon fill="#ffffb3" stroke="#000000" points="8505.6137,-122 8416.3863,-122 8416.3863,-86 8505.6137,-86 8505.6137,-122"/>
<text text-anchor="middle" x="8461" y="-99.8" font-family="Times,serif" font-size="14.00" fill="#000000">FgEnumPipe</text>
</g>
<!-- FgEnumPipe&#45;&gt;AppModule -->
<g id="edge9" class="edge">
<title>FgEnumPipe&#45;&gt;AppModule</title>
<path fill="none" stroke="#000000" d="M8461,-122.1686C8461,-143.498 8461,-176 8461,-176 8461,-176 5063.7481,-176 5063.7481,-176"/>
<polygon fill="#000000" stroke="#000000" points="5063.7481,-172.5001 5053.7481,-176 5063.748,-179.5001 5063.7481,-172.5001"/>
</g>
<!-- FgInputComponent -->
<g id="node10" class="node">
<title>FgInputComponent</title>
<polygon fill="#ffffb3" stroke="#000000" points="8398.6666,-122 8273.3334,-122 8273.3334,-86 8398.6666,-86 8398.6666,-122"/>
<text text-anchor="middle" x="8336" y="-99.8" font-family="Times,serif" font-size="14.00" fill="#000000">FgInputComponent</text>
</g>
<!-- FgInputComponent&#45;&gt;AppModule -->
<g id="edge10" class="edge">
<title>FgInputComponent&#45;&gt;AppModule</title>
<path fill="none" stroke="#000000" d="M8336,-122.2843C8336,-143.3211 8336,-175 8336,-175 8336,-175 5063.7263,-175 5063.7263,-175"/>
<polygon fill="#000000" stroke="#000000" points="5063.7263,-171.5001 5053.7263,-175 5063.7263,-178.5001 5063.7263,-171.5001"/>
</g>
<!-- FooterComponent -->
<g id="node11" class="node">
<title>FooterComponent</title>
<polygon fill="#ffffb3" stroke="#000000" points="8254.8809,-122 8137.1191,-122 8137.1191,-86 8254.8809,-86 8254.8809,-122"/>
<text text-anchor="middle" x="8196" y="-99.8" font-family="Times,serif" font-size="14.00" fill="#000000">FooterComponent</text>
</g>
<!-- FooterComponent&#45;&gt;AppModule -->
<g id="edge11" class="edge">
<title>FooterComponent&#45;&gt;AppModule</title>
<path fill="none" stroke="#000000" d="M8196,-122.0267C8196,-142.7672 8196,-174 8196,-174 8196,-174 5063.7156,-174 5063.7156,-174"/>
<polygon fill="#000000" stroke="#000000" points="5063.7157,-170.5001 5053.7156,-174 5063.7156,-177.5001 5063.7157,-170.5001"/>
</g>
<!-- GraphComponent -->
<g id="node12" class="node">
<title>GraphComponent</title>
<polygon fill="#ffffb3" stroke="#000000" points="8119.3146,-122 8002.6854,-122 8002.6854,-86 8119.3146,-86 8119.3146,-122"/>
<text text-anchor="middle" x="8061" y="-99.8" font-family="Times,serif" font-size="14.00" fill="#000000">GraphComponent</text>
</g>
<!-- GraphComponent&#45;&gt;AppModule -->
<g id="edge12" class="edge">
<title>GraphComponent&#45;&gt;AppModule</title>
<path fill="none" stroke="#000000" d="M8061,-122.1289C8061,-142.5724 8061,-173 8061,-173 8061,-173 5063.9413,-173 5063.9413,-173"/>
<polygon fill="#000000" stroke="#000000" points="5063.9413,-169.5001 5053.9413,-173 5063.9413,-176.5001 5063.9413,-169.5001"/>
</g>
<!-- GraphPortfolioComponent -->
<g id="node13" class="node">
<title>GraphPortfolioComponent</title>
<polygon fill="#ffffb3" stroke="#000000" points="7985.0898,-122 7818.9102,-122 7818.9102,-86 7985.0898,-86 7985.0898,-122"/>
<text text-anchor="middle" x="7902" y="-99.8" font-family="Times,serif" font-size="14.00" fill="#000000">GraphPortfolioComponent</text>
</g>
<!-- GraphPortfolioComponent&#45;&gt;AppModule -->
<g id="edge13" class="edge">
<title>GraphPortfolioComponent&#45;&gt;AppModule</title>
<path fill="none" stroke="#000000" d="M7902,-122.308C7902,-142.1455 7902,-171 7902,-171 7902,-171 5063.6881,-171 5063.6881,-171"/>
<polygon fill="#000000" stroke="#000000" points="5063.6882,-167.5001 5053.6881,-171 5063.6881,-174.5001 5063.6882,-167.5001"/>
</g>
<!-- GraphProductHistoryComponent -->
<g id="node14" class="node">
<title>GraphProductHistoryComponent</title>
<polygon fill="#ffffb3" stroke="#000000" points="7800.8557,-122 7599.1443,-122 7599.1443,-86 7800.8557,-86 7800.8557,-122"/>
<text text-anchor="middle" x="7700" y="-99.8" font-family="Times,serif" font-size="14.00" fill="#000000">GraphProductHistoryComponent</text>
</g>
<!-- GraphProductHistoryComponent&#45;&gt;AppModule -->
<g id="edge14" class="edge">
<title>GraphProductHistoryComponent&#45;&gt;AppModule</title>
<path fill="none" stroke="#000000" d="M7700,-122.0348C7700,-141.5762 7700,-170 7700,-170 7700,-170 5063.6826,-170 5063.6826,-170"/>
<polygon fill="#000000" stroke="#000000" points="5063.6826,-166.5001 5053.6826,-170 5063.6826,-173.5001 5063.6826,-166.5001"/>
</g>
<!-- GraphSignalHistoryComponent -->
<g id="node15" class="node">
<title>GraphSignalHistoryComponent</title>
<polygon fill="#ffffb3" stroke="#000000" points="7581.0856,-122 7386.9144,-122 7386.9144,-86 7581.0856,-86 7581.0856,-122"/>
<text text-anchor="middle" x="7484" y="-99.8" font-family="Times,serif" font-size="14.00" fill="#000000">GraphSignalHistoryComponent</text>
</g>
<!-- GraphSignalHistoryComponent&#45;&gt;AppModule -->
<g id="edge15" class="edge">
<title>GraphSignalHistoryComponent&#45;&gt;AppModule</title>
<path fill="none" stroke="#000000" d="M7484,-122.1061C7484,-141.3391 7484,-169 7484,-169 7484,-169 5063.869,-169 5063.869,-169"/>
<polygon fill="#000000" stroke="#000000" points="5063.869,-165.5001 5053.869,-169 5063.8689,-172.5001 5063.869,-165.5001"/>
</g>
<!-- HeaderComponent -->
<g id="node16" class="node">
<title>HeaderComponent</title>
<polygon fill="#ffffb3" stroke="#000000" points="7368.7437,-122 7247.2563,-122 7247.2563,-86 7368.7437,-86 7368.7437,-122"/>
<text text-anchor="middle" x="7308" y="-99.8" font-family="Times,serif" font-size="14.00" fill="#000000">HeaderComponent</text>
</g>
<!-- HeaderComponent&#45;&gt;AppModule -->
<g id="edge16" class="edge">
<title>HeaderComponent&#45;&gt;AppModule</title>
<path fill="none" stroke="#000000" d="M7308,-122.1686C7308,-141.0898 7308,-168 7308,-168 7308,-168 5063.8113,-168 5063.8113,-168"/>
<polygon fill="#000000" stroke="#000000" points="5063.8114,-164.5001 5053.8113,-168 5063.8113,-171.5001 5063.8114,-164.5001"/>
</g>
<!-- LoginViewComponent -->
<g id="node17" class="node">
<title>LoginViewComponent</title>
<polygon fill="#ffffb3" stroke="#000000" points="7229.594,-122 7084.406,-122 7084.406,-86 7229.594,-86 7229.594,-122"/>
<text text-anchor="middle" x="7157" y="-99.8" font-family="Times,serif" font-size="14.00" fill="#000000">LoginViewComponent</text>
</g>
<!-- LoginViewComponent&#45;&gt;AppModule -->
<g id="edge17" class="edge">
<title>LoginViewComponent&#45;&gt;AppModule</title>
<path fill="none" stroke="#000000" d="M7157,-122.2667C7157,-140.5552 7157,-166 7157,-166 7157,-166 5063.8854,-166 5063.8854,-166"/>
<polygon fill="#000000" stroke="#000000" points="5063.8854,-162.5001 5053.8854,-166 5063.8854,-169.5001 5063.8854,-162.5001"/>
</g>
<!-- ModalAddOrderComponent -->
<g id="node18" class="node">
<title>ModalAddOrderComponent</title>
<polygon fill="#ffffb3" stroke="#000000" points="7066.1316,-122 6891.8684,-122 6891.8684,-86 7066.1316,-86 7066.1316,-122"/>
<text text-anchor="middle" x="6979" y="-99.8" font-family="Times,serif" font-size="14.00" fill="#000000">ModalAddOrderComponent</text>
</g>
<!-- ModalAddOrderComponent&#45;&gt;AppModule -->
<g id="edge18" class="edge">
<title>ModalAddOrderComponent&#45;&gt;AppModule</title>
<path fill="none" stroke="#000000" d="M6979,-122.302C6979,-140.2699 6979,-165 6979,-165 6979,-165 5063.9936,-165 5063.9936,-165"/>
<polygon fill="#000000" stroke="#000000" points="5063.9936,-161.5001 5053.9936,-165 5063.9936,-168.5001 5063.9936,-161.5001"/>
</g>
<!-- ModalApiKeyComponent -->
<g id="node19" class="node">
<title>ModalApiKeyComponent</title>
<polygon fill="#ffffb3" stroke="#000000" points="6874.2007,-122 6711.7993,-122 6711.7993,-86 6874.2007,-86 6874.2007,-122"/>
<text text-anchor="middle" x="6793" y="-99.8" font-family="Times,serif" font-size="14.00" fill="#000000">ModalApiKeyComponent</text>
</g>
<!-- ModalApiKeyComponent&#45;&gt;AppModule -->
<g id="edge19" class="edge">
<title>ModalApiKeyComponent&#45;&gt;AppModule</title>
<path fill="none" stroke="#000000" d="M6793,-122.002C6793,-139.6754 6793,-164 6793,-164 6793,-164 5063.8344,-164 5063.8344,-164"/>
<polygon fill="#000000" stroke="#000000" points="5063.8344,-160.5001 5053.8344,-164 5063.8343,-167.5001 5063.8344,-160.5001"/>
</g>
<!-- ModalComponent -->
<g id="node20" class="node">
<title>ModalComponent</title>
<polygon fill="#ffffb3" stroke="#000000" points="6693.8823,-122 6576.1177,-122 6576.1177,-86 6693.8823,-86 6693.8823,-122"/>
<text text-anchor="middle" x="6635" y="-99.8" font-family="Times,serif" font-size="14.00" fill="#000000">ModalComponent</text>
</g>
<!-- ModalComponent&#45;&gt;AppModule -->
<g id="edge20" class="edge">
<title>ModalComponent&#45;&gt;AppModule</title>
<path fill="none" stroke="#000000" d="M6635,-122.0225C6635,-139.3734 6635,-163 6635,-163 6635,-163 5063.7503,-163 5063.7503,-163"/>
<polygon fill="#000000" stroke="#000000" points="5063.7503,-159.5001 5053.7503,-163 5063.7503,-166.5001 5063.7503,-159.5001"/>
</g>
<!-- ModalHelpComponent -->
<g id="node21" class="node">
<title>ModalHelpComponent</title>
<polygon fill="#ffffb3" stroke="#000000" points="6558.594,-122 6413.406,-122 6413.406,-86 6558.594,-86 6558.594,-122"/>
<text text-anchor="middle" x="6486" y="-99.8" font-family="Times,serif" font-size="14.00" fill="#000000">ModalHelpComponent</text>
</g>
<!-- ModalHelpComponent&#45;&gt;AppModule -->
<g id="edge21" class="edge">
<title>ModalHelpComponent&#45;&gt;AppModule</title>
<path fill="none" stroke="#000000" d="M6486,-122.0352C6486,-138.7344 6486,-161 6486,-161 6486,-161 5063.7396,-161 5063.7396,-161"/>
<polygon fill="#000000" stroke="#000000" points="5063.7396,-157.5001 5053.7396,-161 5063.7396,-164.5001 5063.7396,-157.5001"/>
</g>
<!-- ModalSettingsComponent -->
<g id="node22" class="node">
<title>ModalSettingsComponent</title>
<polygon fill="#ffffb3" stroke="#000000" points="6395.4958,-122 6232.5042,-122 6232.5042,-86 6395.4958,-86 6395.4958,-122"/>
<text text-anchor="middle" x="6314" y="-99.8" font-family="Times,serif" font-size="14.00" fill="#000000">ModalSettingsComponent</text>
</g>
<!-- ModalSettingsComponent&#45;&gt;AppModule -->
<g id="edge22" class="edge">
<title>ModalSettingsComponent&#45;&gt;AppModule</title>
<path fill="none" stroke="#000000" d="M6314,-122.027C6314,-138.3976 6314,-160 6314,-160 6314,-160 5063.8452,-160 5063.8452,-160"/>
<polygon fill="#000000" stroke="#000000" points="5063.8453,-156.5001 5053.8452,-160 5063.8452,-163.5001 5063.8453,-156.5001"/>
</g>
<!-- OrderbookViewComponent -->
<g id="node23" class="node">
<title>OrderbookViewComponent</title>
<polygon fill="#ffffb3" stroke="#000000" points="6214.2934,-122 6041.7066,-122 6041.7066,-86 6214.2934,-86 6214.2934,-122"/>
<text text-anchor="middle" x="6128" y="-99.8" font-family="Times,serif" font-size="14.00" fill="#000000">OrderbookViewComponent</text>
</g>
<!-- OrderbookViewComponent&#45;&gt;AppModule -->
<g id="edge23" class="edge">
<title>OrderbookViewComponent&#45;&gt;AppModule</title>
<path fill="none" stroke="#000000" d="M6128,-122.0091C6128,-138.0494 6128,-159 6128,-159 6128,-159 5063.7117,-159 5063.7117,-159"/>
<polygon fill="#000000" stroke="#000000" points="5063.7118,-155.5001 5053.7117,-159 5063.7117,-162.5001 5063.7118,-155.5001"/>
</g>
<!-- OrdersViewComponent -->
<g id="node24" class="node">
<title>OrdersViewComponent</title>
<polygon fill="#ffffb3" stroke="#000000" points="6023.738,-122 5874.262,-122 5874.262,-86 6023.738,-86 6023.738,-122"/>
<text text-anchor="middle" x="5949" y="-99.8" font-family="Times,serif" font-size="14.00" fill="#000000">OrdersViewComponent</text>
</g>
<!-- OrdersViewComponent&#45;&gt;AppModule -->
<g id="edge24" class="edge">
<title>OrdersViewComponent&#45;&gt;AppModule</title>
<path fill="none" stroke="#000000" d="M5949,-122.2819C5949,-137.9478 5949,-158 5949,-158 5949,-158 5063.7755,-158 5063.7755,-158"/>
<polygon fill="#000000" stroke="#000000" points="5063.7755,-154.5001 5053.7755,-158 5063.7755,-161.5001 5063.7755,-154.5001"/>
</g>
<!-- PbIconValidationComponent -->
<g id="node25" class="node">
<title>PbIconValidationComponent</title>
<polygon fill="#ffffb3" stroke="#000000" points="5856.0884,-122 5675.9116,-122 5675.9116,-86 5856.0884,-86 5856.0884,-122"/>
<text text-anchor="middle" x="5766" y="-99.8" font-family="Times,serif" font-size="14.00" fill="#000000">PbIconValidationComponent</text>
</g>
<!-- PbIconValidationComponent&#45;&gt;AppModule -->
<g id="edge25" class="edge">
<title>PbIconValidationComponent&#45;&gt;AppModule</title>
<path fill="none" stroke="#000000" d="M5766,-122.1871C5766,-137.1824 5766,-156 5766,-156 5766,-156 5063.8828,-156 5063.8828,-156"/>
<polygon fill="#000000" stroke="#000000" points="5063.8828,-152.5001 5053.8828,-156 5063.8827,-159.5001 5063.8828,-152.5001"/>
</g>
<!-- PbSidePipe -->
<g id="node26" class="node">
<title>PbSidePipe</title>
<polygon fill="#ffffb3" stroke="#000000" points="5658.0594,-122 5577.9406,-122 5577.9406,-86 5658.0594,-86 5658.0594,-122"/>
<text text-anchor="middle" x="5618" y="-99.8" font-family="Times,serif" font-size="14.00" fill="#000000">PbSidePipe</text>
</g>
<!-- PbSidePipe&#45;&gt;AppModule -->
<g id="edge26" class="edge">
<title>PbSidePipe&#45;&gt;AppModule</title>
<path fill="none" stroke="#000000" d="M5618,-122.1243C5618,-136.7832 5618,-155 5618,-155 5618,-155 5064.1316,-155 5064.1316,-155"/>
<polygon fill="#000000" stroke="#000000" points="5064.1316,-151.5001 5054.1316,-155 5064.1316,-158.5001 5064.1316,-151.5001"/>
</g>
<!-- PortfolioViewComponent -->
<g id="node27" class="node">
<title>PortfolioViewComponent</title>
<polygon fill="#ffffb3" stroke="#000000" points="5559.927,-122 5398.073,-122 5398.073,-86 5559.927,-86 5559.927,-122"/>
<text text-anchor="middle" x="5479" y="-99.8" font-family="Times,serif" font-size="14.00" fill="#000000">PortfolioViewComponent</text>
</g>
<!-- PortfolioViewComponent&#45;&gt;AppModule -->
<g id="edge27" class="edge">
<title>PortfolioViewComponent&#45;&gt;AppModule</title>
<path fill="none" stroke="#000000" d="M5479,-122.0511C5479,-136.373 5479,-154 5479,-154 5479,-154 5063.8541,-154 5063.8541,-154"/>
<polygon fill="#000000" stroke="#000000" points="5063.8542,-150.5001 5053.8541,-154 5063.8541,-157.5001 5063.8542,-150.5001"/>
</g>
<!-- ProductHistoryViewComponent -->
<g id="node28" class="node">
<title>ProductHistoryViewComponent</title>
<polygon fill="#ffffb3" stroke="#000000" points="5380.6923,-122 5183.3077,-122 5183.3077,-86 5380.6923,-86 5380.6923,-122"/>
<text text-anchor="middle" x="5282" y="-99.8" font-family="Times,serif" font-size="14.00" fill="#000000">ProductHistoryViewComponent</text>
</g>
<!-- ProductHistoryViewComponent&#45;&gt;AppModule -->
<g id="edge28" class="edge">
<title>ProductHistoryViewComponent&#45;&gt;AppModule</title>
<path fill="none" stroke="#000000" d="M5282,-122.2458C5282,-136.1772 5282,-153 5282,-153 5282,-153 5063.8913,-153 5063.8913,-153"/>
<polygon fill="#000000" stroke="#000000" points="5063.8913,-149.5001 5053.8913,-153 5063.8912,-156.5001 5063.8913,-149.5001"/>
</g>
<!-- PwaInstallComponent -->
<g id="node29" class="node">
<title>PwaInstallComponent</title>
<polygon fill="#ffffb3" stroke="#000000" points="5165.4285,-122 5024.5715,-122 5024.5715,-86 5165.4285,-86 5165.4285,-122"/>
<text text-anchor="middle" x="5095" y="-99.8" font-family="Times,serif" font-size="14.00" fill="#000000">PwaInstallComponent</text>
</g>
<!-- PwaInstallComponent&#45;&gt;AppModule -->
<g id="edge29" class="edge">
<title>PwaInstallComponent&#45;&gt;AppModule</title>
<path fill="none" stroke="#000000" d="M5039.3072,-122.1061C5039.3072,-122.1061 5039.3072,-140.991 5039.3072,-140.991"/>
<polygon fill="#000000" stroke="#000000" points="5035.8072,-140.9909 5039.3072,-150.991 5042.8072,-140.991 5035.8072,-140.9909"/>
</g>
<!-- SignalsViewComponent -->
<g id="node30" class="node">
<title>SignalsViewComponent</title>
<polygon fill="#ffffb3" stroke="#000000" points="5006.3739,-122 4853.6261,-122 4853.6261,-86 5006.3739,-86 5006.3739,-122"/>
<text text-anchor="middle" x="4930" y="-99.8" font-family="Times,serif" font-size="14.00" fill="#000000">SignalsViewComponent</text>
</g>
<!-- SignalsViewComponent&#45;&gt;AppModule -->
<g id="edge30" class="edge">
<title>SignalsViewComponent&#45;&gt;AppModule</title>
<path fill="none" stroke="#000000" d="M4988.3044,-122.1061C4988.3044,-122.1061 4988.3044,-140.991 4988.3044,-140.991"/>
<polygon fill="#000000" stroke="#000000" points="4984.8044,-140.9909 4988.3044,-150.991 4991.8044,-140.991 4984.8044,-140.9909"/>
</g>
<!-- TabApiKeyComponent -->
<g id="node31" class="node">
<title>TabApiKeyComponent</title>
<polygon fill="#ffffb3" stroke="#000000" points="4835.9186,-122 4688.0814,-122 4688.0814,-86 4835.9186,-86 4835.9186,-122"/>
<text text-anchor="middle" x="4762" y="-99.8" font-family="Times,serif" font-size="14.00" fill="#000000">TabApiKeyComponent</text>
</g>
<!-- TabApiKeyComponent&#45;&gt;AppModule -->
<g id="edge31" class="edge">
<title>TabApiKeyComponent&#45;&gt;AppModule</title>
<path fill="none" stroke="#000000" d="M4762,-122.2458C4762,-136.1772 4762,-153 4762,-153 4762,-153 4960.1556,-153 4960.1556,-153"/>
<polygon fill="#000000" stroke="#000000" points="4960.1557,-156.5001 4970.1556,-153 4960.1556,-149.5001 4960.1557,-156.5001"/>
</g>
<!-- TabLoggingComponent -->
<g id="node32" class="node">
<title>TabLoggingComponent</title>
<polygon fill="#ffffb3" stroke="#000000" points="4670.0435,-122 4519.9565,-122 4519.9565,-86 4670.0435,-86 4670.0435,-122"/>
<text text-anchor="middle" x="4595" y="-99.8" font-family="Times,serif" font-size="14.00" fill="#000000">TabLoggingComponent</text>
</g>
<!-- TabLoggingComponent&#45;&gt;AppModule -->
<g id="edge32" class="edge">
<title>TabLoggingComponent&#45;&gt;AppModule</title>
<path fill="none" stroke="#000000" d="M4595,-122.0511C4595,-136.373 4595,-154 4595,-154 4595,-154 4960.1072,-154 4960.1072,-154"/>
<polygon fill="#000000" stroke="#000000" points="4960.1072,-157.5001 4970.1072,-154 4960.1071,-150.5001 4960.1072,-157.5001"/>
</g>
<!-- TabProductionComponent -->
<g id="node33" class="node">
<title>TabProductionComponent</title>
<polygon fill="#ffffb3" stroke="#000000" points="4501.0392,-122 4336.9608,-122 4336.9608,-86 4501.0392,-86 4501.0392,-122"/>
<text text-anchor="middle" x="4419" y="-99.8" font-family="Times,serif" font-size="14.00" fill="#000000">TabProductionComponent</text>
</g>
<!-- TabProductionComponent&#45;&gt;AppModule -->
<g id="edge33" class="edge">
<title>TabProductionComponent&#45;&gt;AppModule</title>
<path fill="none" stroke="#000000" d="M4446.4231,-122.1243C4446.4231,-136.7832 4446.4231,-155 4446.4231,-155 4446.4231,-155 4959.9519,-155 4959.9519,-155"/>
<polygon fill="#000000" stroke="#000000" points="4959.9519,-158.5001 4969.9519,-155 4959.9518,-151.5001 4959.9519,-158.5001"/>
</g>
<!-- TabProductionComponent&#45;&gt;AppModule -->
<g id="edge34" class="edge">
<title>TabProductionComponent&#45;&gt;AppModule</title>
<path fill="none" stroke="#000000" d="M4391.5769,-122.1871C4391.5769,-137.1824 4391.5769,-156 4391.5769,-156 4391.5769,-156 4960.3289,-156 4960.3289,-156"/>
<polygon fill="#000000" stroke="#000000" points="4960.3289,-159.5001 4970.3289,-156 4960.3289,-152.5001 4960.3289,-159.5001"/>
</g>
<!-- TabTestComponent -->
<g id="node34" class="node">
<title>TabTestComponent</title>
<polygon fill="#ffffb3" stroke="#000000" points="4318.7022,-122 4191.2978,-122 4191.2978,-86 4318.7022,-86 4318.7022,-122"/>
<text text-anchor="middle" x="4255" y="-99.8" font-family="Times,serif" font-size="14.00" fill="#000000">TabTestComponent</text>
</g>
<!-- TabTestComponent&#45;&gt;AppModule -->
<g id="edge35" class="edge">
<title>TabTestComponent&#45;&gt;AppModule</title>
<path fill="none" stroke="#000000" d="M4255,-122.2819C4255,-137.9478 4255,-158 4255,-158 4255,-158 4960.2221,-158 4960.2221,-158"/>
<polygon fill="#000000" stroke="#000000" points="4960.2221,-161.5001 4970.2221,-158 4960.2221,-154.5001 4960.2221,-161.5001"/>
</g>
<!-- TableAddOrderComponent -->
<g id="node35" class="node">
<title>TableAddOrderComponent</title>
<polygon fill="#ffffb3" stroke="#000000" points="4172.9538,-122 4003.0462,-122 4003.0462,-86 4172.9538,-86 4172.9538,-122"/>
<text text-anchor="middle" x="4088" y="-99.8" font-family="Times,serif" font-size="14.00" fill="#000000">TableAddOrderComponent</text>
</g>
<!-- TableAddOrderComponent&#45;&gt;AppModule -->
<g id="edge36" class="edge">
<title>TableAddOrderComponent&#45;&gt;AppModule</title>
<path fill="none" stroke="#000000" d="M4088,-122.0091C4088,-138.0494 4088,-159 4088,-159 4088,-159 4960.2001,-159 4960.2001,-159"/>
<polygon fill="#000000" stroke="#000000" points="4960.2001,-162.5001 4970.2001,-159 4960.2001,-155.5001 4960.2001,-162.5001"/>
</g>
<!-- TableAsksComponent -->
<g id="node36" class="node">
<title>TableAsksComponent</title>
<polygon fill="#ffffb3" stroke="#000000" points="3984.7007,-122 3843.2993,-122 3843.2993,-86 3984.7007,-86 3984.7007,-122"/>
<text text-anchor="middle" x="3914" y="-99.8" font-family="Times,serif" font-size="14.00" fill="#000000">TableAsksComponent</text>
</g>
<!-- TableAsksComponent&#45;&gt;AppModule -->
<g id="edge37" class="edge">
<title>TableAsksComponent&#45;&gt;AppModule</title>
<path fill="none" stroke="#000000" d="M3914,-122.027C3914,-138.3976 3914,-160 3914,-160 3914,-160 4960.2979,-160 4960.2979,-160"/>
<polygon fill="#000000" stroke="#000000" points="4960.2979,-163.5001 4970.2979,-160 4960.2978,-156.5001 4960.2979,-163.5001"/>
</g>
<!-- TableBidsComponent -->
<g id="node37" class="node">
<title>TableBidsComponent</title>
<polygon fill="#ffffb3" stroke="#000000" points="3825.3767,-122 3686.6233,-122 3686.6233,-86 3825.3767,-86 3825.3767,-122"/>
<text text-anchor="middle" x="3756" y="-99.8" font-family="Times,serif" font-size="14.00" fill="#000000">TableBidsComponent</text>
</g>
<!-- TableBidsComponent&#45;&gt;AppModule -->
<g id="edge38" class="edge">
<title>TableBidsComponent&#45;&gt;AppModule</title>
<path fill="none" stroke="#000000" d="M3756,-122.0352C3756,-138.7344 3756,-161 3756,-161 3756,-161 4960.2106,-161 4960.2106,-161"/>
<polygon fill="#000000" stroke="#000000" points="4960.2107,-164.5001 4970.2106,-161 4960.2106,-157.5001 4960.2107,-164.5001"/>
</g>
<!-- TableComponent -->
<g id="node38" class="node">
<title>TableComponent</title>
<polygon fill="#ffffb3" stroke="#000000" points="3668.705,-122 3555.295,-122 3555.295,-86 3668.705,-86 3668.705,-122"/>
<text text-anchor="middle" x="3612" y="-99.8" font-family="Times,serif" font-size="14.00" fill="#000000">TableComponent</text>
</g>
<!-- TableComponent&#45;&gt;AppModule -->
<g id="edge39" class="edge">
<title>TableComponent&#45;&gt;AppModule</title>
<path fill="none" stroke="#000000" d="M3612,-122.0225C3612,-139.3734 3612,-163 3612,-163 3612,-163 4960.1008,-163 4960.1008,-163"/>
<polygon fill="#000000" stroke="#000000" points="4960.1008,-166.5001 4970.1008,-163 4960.1007,-159.5001 4960.1008,-166.5001"/>
</g>
<!-- TableContractDetailsComponent -->
<g id="node39" class="node">
<title>TableContractDetailsComponent</title>
<polygon fill="#ffffb3" stroke="#000000" points="3537.5646,-122 3336.4354,-122 3336.4354,-86 3537.5646,-86 3537.5646,-122"/>
<text text-anchor="middle" x="3437" y="-99.8" font-family="Times,serif" font-size="14.00" fill="#000000">TableContractDetailsComponent</text>
</g>
<!-- TableContractDetailsComponent&#45;&gt;AppModule -->
<g id="edge40" class="edge">
<title>TableContractDetailsComponent&#45;&gt;AppModule</title>
<path fill="none" stroke="#000000" d="M3437,-122.002C3437,-139.6754 3437,-164 3437,-164 3437,-164 4960.2783,-164 4960.2783,-164"/>
<polygon fill="#000000" stroke="#000000" points="4960.2783,-167.5001 4970.2783,-164 4960.2782,-160.5001 4960.2783,-167.5001"/>
</g>
<!-- TableLogsComponent -->
<g id="node40" class="node">
<title>TableLogsComponent</title>
<polygon fill="#ffffb3" stroke="#000000" points="3318.7021,-122 3177.2979,-122 3177.2979,-86 3318.7021,-86 3318.7021,-122"/>
<text text-anchor="middle" x="3248" y="-99.8" font-family="Times,serif" font-size="14.00" fill="#000000">TableLogsComponent</text>
</g>
<!-- TableLogsComponent&#45;&gt;AppModule -->
<g id="edge41" class="edge">
<title>TableLogsComponent&#45;&gt;AppModule</title>
<path fill="none" stroke="#000000" d="M3248,-122.302C3248,-140.2699 3248,-165 3248,-165 3248,-165 4960.1351,-165 4960.1351,-165"/>
<polygon fill="#000000" stroke="#000000" points="4960.1352,-168.5001 4970.1351,-165 4960.1351,-161.5001 4960.1352,-168.5001"/>
</g>
<!-- TableOrderbookComponent -->
<g id="node41" class="node">
<title>TableOrderbookComponent</title>
<polygon fill="#ffffb3" stroke="#000000" points="3158.8473,-122 2985.1527,-122 2985.1527,-86 3158.8473,-86 3158.8473,-122"/>
<text text-anchor="middle" x="3072" y="-99.8" font-family="Times,serif" font-size="14.00" fill="#000000">TableOrderbookComponent</text>
</g>
<!-- TableOrderbookComponent&#45;&gt;AppModule -->
<g id="edge42" class="edge">
<title>TableOrderbookComponent&#45;&gt;AppModule</title>
<path fill="none" stroke="#000000" d="M3072,-122.2667C3072,-140.5552 3072,-166 3072,-166 3072,-166 4960.1306,-166 4960.1306,-166"/>
<polygon fill="#000000" stroke="#000000" points="4960.1307,-169.5001 4970.1306,-166 4960.1306,-162.5001 4960.1307,-169.5001"/>
</g>
<!-- TableOrdersComponent -->
<g id="node42" class="node">
<title>TableOrdersComponent</title>
<polygon fill="#ffffb3" stroke="#000000" points="2966.7921,-122 2815.2079,-122 2815.2079,-86 2966.7921,-86 2966.7921,-122"/>
<text text-anchor="middle" x="2891" y="-99.8" font-family="Times,serif" font-size="14.00" fill="#000000">TableOrdersComponent</text>
</g>
<!-- TableOrdersComponent&#45;&gt;AppModule -->
<g id="edge43" class="edge">
<title>TableOrdersComponent&#45;&gt;AppModule</title>
<path fill="none" stroke="#000000" d="M2891,-122.1686C2891,-141.0898 2891,-168 2891,-168 2891,-168 4960.109,-168 4960.109,-168"/>
<polygon fill="#000000" stroke="#000000" points="4960.109,-171.5001 4970.109,-168 4960.109,-164.5001 4960.109,-171.5001"/>
</g>
<!-- TableSignalsComponent -->
<g id="node43" class="node">
<title>TableSignalsComponent</title>
<polygon fill="#ffffb3" stroke="#000000" points="2797.4284,-122 2642.5716,-122 2642.5716,-86 2797.4284,-86 2797.4284,-122"/>
<text text-anchor="middle" x="2720" y="-99.8" font-family="Times,serif" font-size="14.00" fill="#000000">TableSignalsComponent</text>
</g>
<!-- TableSignalsComponent&#45;&gt;AppModule -->
<g id="edge44" class="edge">
<title>TableSignalsComponent&#45;&gt;AppModule</title>
<path fill="none" stroke="#000000" d="M2720,-122.1061C2720,-141.3391 2720,-169 2720,-169 2720,-169 4960.2615,-169 4960.2615,-169"/>
<polygon fill="#000000" stroke="#000000" points="4960.2615,-172.5001 4970.2615,-169 4960.2615,-165.5001 4960.2615,-172.5001"/>
</g>
<!-- TableTradesComponent -->
<g id="node44" class="node">
<title>TableTradesComponent</title>
<polygon fill="#ffffb3" stroke="#000000" points="2624.7921,-122 2473.2079,-122 2473.2079,-86 2624.7921,-86 2624.7921,-122"/>
<text text-anchor="middle" x="2549" y="-99.8" font-family="Times,serif" font-size="14.00" fill="#000000">TableTradesComponent</text>
</g>
<!-- TableTradesComponent&#45;&gt;AppModule -->
<g id="edge45" class="edge">
<title>TableTradesComponent&#45;&gt;AppModule</title>
<path fill="none" stroke="#000000" d="M2549,-122.0348C2549,-141.5762 2549,-170 2549,-170 2549,-170 4960.2835,-170 4960.2835,-170"/>
<polygon fill="#000000" stroke="#000000" points="4960.2835,-173.5001 4970.2835,-170 4960.2834,-166.5001 4960.2835,-173.5001"/>
</g>
<!-- TradesViewComponent -->
<g id="node45" class="node">
<title>TradesViewComponent</title>
<polygon fill="#ffffb3" stroke="#000000" points="2454.738,-122 2305.262,-122 2305.262,-86 2454.738,-86 2454.738,-122"/>
<text text-anchor="middle" x="2380" y="-99.8" font-family="Times,serif" font-size="14.00" fill="#000000">TradesViewComponent</text>
</g>
<!-- TradesViewComponent&#45;&gt;AppModule -->
<g id="edge46" class="edge">
<title>TradesViewComponent&#45;&gt;AppModule</title>
<path fill="none" stroke="#000000" d="M2380,-122.308C2380,-142.1455 2380,-171 2380,-171 2380,-171 4960.1261,-171 4960.1261,-171"/>
<polygon fill="#000000" stroke="#000000" points="4960.1262,-174.5001 4970.1261,-171 4960.1261,-167.5001 4960.1262,-174.5001"/>
</g>
<!-- AppComponent  -->
<g id="node51" class="node">
<title>AppComponent </title>
<polygon fill="#80b1d3" stroke="#000000" points="5066.439,-252 4957.561,-252 4957.561,-216 5066.439,-216 5066.439,-252"/>
<text text-anchor="middle" x="5012" y="-229.8" font-family="Times,serif" font-size="14.00" fill="#000000">AppComponent </text>
</g>
<!-- AppModule&#45;&gt;AppComponent  -->
<g id="edge51" class="edge">
<title>AppModule&#45;&gt;AppComponent </title>
<path fill="none" stroke="#000000" stroke-dasharray="1,5" d="M5012,-187.1061C5012,-187.1061 5012,-205.991 5012,-205.991"/>
<polygon fill="#000000" stroke="#000000" points="5008.5001,-205.9909 5012,-215.991 5015.5001,-205.991 5008.5001,-205.9909"/>
</g>
<!-- ApiModule -->
<g id="node47" class="node">
<title>ApiModule</title>
<polygon fill="#8dd3c7" stroke="#000000" points="2281.0483,-122 2278.0483,-126 2257.0483,-126 2254.0483,-122 2200.9517,-122 2200.9517,-86 2281.0483,-86 2281.0483,-122"/>
<text text-anchor="middle" x="2241" y="-99.8" font-family="Times,serif" font-size="14.00" fill="#000000">ApiModule</text>
</g>
<!-- ApiModule&#45;&gt;AppModule -->
<g id="edge47" class="edge">
<title>ApiModule&#45;&gt;AppModule</title>
<path fill="none" stroke="#000000" d="M2241,-122.1289C2241,-142.5724 2241,-173 2241,-173 2241,-173 4960.1324,-173 4960.1324,-173"/>
<polygon fill="#000000" stroke="#000000" points="4960.1324,-176.5001 4970.1324,-173 4960.1324,-169.5001 4960.1324,-176.5001"/>
</g>
<!-- FgGlobalScopeModule -->
<g id="node48" class="node">
<title>FgGlobalScopeModule</title>
<polygon fill="#8dd3c7" stroke="#000000" points="2182.147,-122 2179.147,-126 2158.147,-126 2155.147,-122 2035.853,-122 2035.853,-86 2182.147,-86 2182.147,-122"/>
<text text-anchor="middle" x="2109" y="-99.8" font-family="Times,serif" font-size="14.00" fill="#000000">FgGlobalScopeModule</text>
</g>
<!-- FgGlobalScopeModule&#45;&gt;AppModule -->
<g id="edge48" class="edge">
<title>FgGlobalScopeModule&#45;&gt;AppModule</title>
<path fill="none" stroke="#000000" d="M2109,-122.0267C2109,-142.7672 2109,-174 2109,-174 2109,-174 4960.1243,-174 4960.1243,-174"/>
<polygon fill="#000000" stroke="#000000" points="4960.1244,-177.5001 4970.1243,-174 4960.1243,-170.5001 4960.1244,-177.5001"/>
</g>
<!-- FgGraphqlModule -->
<g id="node49" class="node">
<title>FgGraphqlModule</title>
<polygon fill="#8dd3c7" stroke="#000000" points="2018.205,-122 2015.205,-126 1994.205,-126 1991.205,-122 1897.795,-122 1897.795,-86 2018.205,-86 2018.205,-122"/>
<text text-anchor="middle" x="1958" y="-99.8" font-family="Times,serif" font-size="14.00" fill="#000000">FgGraphqlModule</text>
</g>
<!-- FgGraphqlModule&#45;&gt;AppModule -->
<g id="edge49" class="edge">
<title>FgGraphqlModule&#45;&gt;AppModule</title>
<path fill="none" stroke="#000000" d="M1958,-122.2843C1958,-143.3211 1958,-175 1958,-175 1958,-175 4960.2781,-175 4960.2781,-175"/>
<polygon fill="#000000" stroke="#000000" points="4960.2782,-178.5001 4970.2781,-175 4960.2781,-171.5001 4960.2782,-178.5001"/>
</g>
<!-- FgMaterialModule -->
<g id="node50" class="node">
<title>FgMaterialModule</title>
<polygon fill="#8dd3c7" stroke="#000000" points="1879.7534,-122 1876.7534,-126 1855.7534,-126 1852.7534,-122 1758.2466,-122 1758.2466,-86 1879.7534,-86 1879.7534,-122"/>
<text text-anchor="middle" x="1819" y="-99.8" font-family="Times,serif" font-size="14.00" fill="#000000">FgMaterialModule</text>
</g>
<!-- FgMaterialModule&#45;&gt;AppModule -->
<g id="edge50" class="edge">
<title>FgMaterialModule&#45;&gt;AppModule</title>
<path fill="none" stroke="#000000" d="M1819,-122.1686C1819,-143.498 1819,-176 1819,-176 1819,-176 4960.1665,-176 4960.1665,-176"/>
<polygon fill="#000000" stroke="#000000" points="4960.1665,-179.5001 4970.1665,-176 4960.1664,-172.5001 4960.1665,-179.5001"/>
</g>
<!-- AsyncUrlApiKeyRespondsValidator -->
<g id="node52" class="node">
<title>AsyncUrlApiKeyRespondsValidator</title>
<ellipse fill="#fdb462" stroke="#000000" cx="1581" cy="-104" rx="153.3331" ry="18"/>
<text text-anchor="middle" x="1581" y="-99.8" font-family="Times,serif" font-size="14.00" fill="#000000">AsyncUrlApiKeyRespondsValidator</text>
</g>
<!-- AsyncUrlApiKeyRespondsValidator&#45;&gt;AppModule -->
<g id="edge52" class="edge">
<title>AsyncUrlApiKeyRespondsValidator&#45;&gt;AppModule</title>
<path fill="none" stroke="#000000" d="M1581,-122.2921C1581,-144.2057 1581,-178 1581,-178 1581,-178 4960.1641,-178 4960.1641,-178"/>
<polygon fill="#000000" stroke="#000000" points="4960.1641,-181.5001 4970.1641,-178 4960.1641,-174.5001 4960.1641,-181.5001"/>
</g>
<!-- AsyncUrlRespondsValidator -->
<g id="node53" class="node">
<title>AsyncUrlRespondsValidator</title>
<ellipse fill="#fdb462" stroke="#000000" cx="1287" cy="-104" rx="122.6929" ry="18"/>
<text text-anchor="middle" x="1287" y="-99.8" font-family="Times,serif" font-size="14.00" fill="#000000">AsyncUrlRespondsValidator</text>
</g>
<!-- AsyncUrlRespondsValidator&#45;&gt;AppModule -->
<g id="edge53" class="edge">
<title>AsyncUrlRespondsValidator&#45;&gt;AppModule</title>
<path fill="none" stroke="#000000" d="M1287,-122.1554C1287,-144.3519 1287,-179 1287,-179 1287,-179 4960.1665,-179 4960.1665,-179"/>
<polygon fill="#000000" stroke="#000000" points="4960.1665,-182.5001 4970.1665,-179 4960.1665,-175.5001 4960.1665,-182.5001"/>
</g>
<!-- FgAppService -->
<g id="node54" class="node">
<title>FgAppService</title>
<ellipse fill="#fdb462" stroke="#000000" cx="1080" cy="-104" rx="66.6344" ry="18"/>
<text text-anchor="middle" x="1080" y="-99.8" font-family="Times,serif" font-size="14.00" fill="#000000">FgAppService</text>
</g>
<!-- FgAppService&#45;&gt;AppModule -->
<g id="edge54" class="edge">
<title>FgAppService&#45;&gt;AppModule</title>
<path fill="none" stroke="#000000" d="M1080,-122.0109C1080,-144.4852 1080,-180 1080,-180 1080,-180 4960.174,-180 4960.174,-180"/>
<polygon fill="#000000" stroke="#000000" points="4960.1741,-183.5001 4970.174,-180 4960.174,-176.5001 4960.1741,-183.5001"/>
</g>
<!-- FgComponentBaseService -->
<g id="node55" class="node">
<title>FgComponentBaseService</title>
<ellipse fill="#fdb462" stroke="#000000" cx="881" cy="-104" rx="114.046" ry="18"/>
<text text-anchor="middle" x="881" y="-99.8" font-family="Times,serif" font-size="14.00" fill="#000000">FgComponentBaseService</text>
</g>
<!-- FgComponentBaseService&#45;&gt;AppModule -->
<g id="edge55" class="edge">
<title>FgComponentBaseService&#45;&gt;AppModule</title>
<path fill="none" stroke="#000000" d="M881,-122.2479C881,-145.0179 881,-181 881,-181 881,-181 4960.1068,-181 4960.1068,-181"/>
<polygon fill="#000000" stroke="#000000" points="4960.1068,-184.5001 4970.1068,-181 4960.1068,-177.5001 4960.1068,-184.5001"/>
</g>
<!-- FgEventService -->
<g id="node56" class="node">
<title>FgEventService</title>
<ellipse fill="#fdb462" stroke="#000000" cx="676" cy="-104" rx="72.9315" ry="18"/>
<text text-anchor="middle" x="676" y="-99.8" font-family="Times,serif" font-size="14.00" fill="#000000">FgEventService</text>
</g>
<!-- FgEventService&#45;&gt;AppModule -->
<g id="edge56" class="edge">
<title>FgEventService&#45;&gt;AppModule</title>
<path fill="none" stroke="#000000" d="M676,-122.3228C676,-145.6602 676,-183 676,-183 676,-183 4960.13,-183 4960.13,-183"/>
<polygon fill="#000000" stroke="#000000" points="4960.13,-186.5001 4970.13,-183 4960.13,-179.5001 4960.13,-186.5001"/>
</g>
<!-- FgKeyboardService -->
<g id="node57" class="node">
<title>FgKeyboardService</title>
<ellipse fill="#fdb462" stroke="#000000" cx="497" cy="-104" rx="88.0249" ry="18"/>
<text text-anchor="middle" x="497" y="-99.8" font-family="Times,serif" font-size="14.00" fill="#000000">FgKeyboardService</text>
</g>
<!-- FgKeyboardService&#45;&gt;AppModule -->
<g id="edge57" class="edge">
<title>FgKeyboardService&#45;&gt;AppModule</title>
<path fill="none" stroke="#000000" d="M497,-122.1532C497,-145.7566 497,-184 497,-184 497,-184 4960.1863,-184 4960.1863,-184"/>
<polygon fill="#000000" stroke="#000000" points="4960.1864,-187.5001 4970.1863,-184 4960.1863,-180.5001 4960.1864,-187.5001"/>
</g>
<!-- PbDataService -->
<g id="node58" class="node">
<title>PbDataService</title>
<ellipse fill="#fdb462" stroke="#000000" cx="322" cy="-104" rx="68.3343" ry="18"/>
<text text-anchor="middle" x="322" y="-99.8" font-family="Times,serif" font-size="14.00" fill="#000000">PbDataService</text>
</g>
<!-- PbDataService&#45;&gt;AppModule -->
<g id="edge58" class="edge">
<title>PbDataService&#45;&gt;AppModule</title>
<path fill="none" stroke="#000000" d="M322,-122.3802C322,-146.2785 322,-185 322,-185 322,-185 4960.0221,-185 4960.0221,-185"/>
<polygon fill="#000000" stroke="#000000" points="4960.0221,-188.5001 4970.0221,-185 4960.0221,-181.5001 4960.0221,-188.5001"/>
</g>
<!-- SyncUrlsEqualValidator -->
<g id="node59" class="node">
<title>SyncUrlsEqualValidator</title>
<ellipse fill="#fdb462" stroke="#000000" cx="130" cy="-104" rx="105.9363" ry="18"/>
<text text-anchor="middle" x="130" y="-99.8" font-family="Times,serif" font-size="14.00" fill="#000000">SyncUrlsEqualValidator</text>
</g>
<!-- SyncUrlsEqualValidator&#45;&gt;AppModule -->
<g id="edge59" class="edge">
<title>SyncUrlsEqualValidator&#45;&gt;AppModule</title>
<path fill="none" stroke="#000000" d="M130,-122.1985C130,-146.3563 130,-186 130,-186 130,-186 4960.1638,-186 4960.1638,-186"/>
<polygon fill="#000000" stroke="#000000" points="4960.1638,-189.5001 4970.1638,-186 4960.1637,-182.5001 4960.1638,-189.5001"/>
</g>
</g>
</svg>
