<?xml version="1.0" encoding="UTF-8" standalone="no"?>
<!DOCTYPE svg PUBLIC "-//W3C//DTD SVG 1.1//EN"
 "http://www.w3.org/Graphics/SVG/1.1/DTD/svg11.dtd">
<!-- Generated by graphviz version 2.40.1 (20161225.0304)
 -->
<!-- Title: dependencies Pages: 1 -->
<svg width="10421pt" height="284pt"
 viewBox="0.00 0.00 10421.00 284.00" xmlns="http://www.w3.org/2000/svg" xmlns:xlink="http://www.w3.org/1999/xlink">
<g id="graph0" class="graph" transform="scale(1 1) rotate(0) translate(4 280)">
<title>dependencies</title>
<polygon fill="#ffffff" stroke="transparent" points="-4,4 -4,-280 10417,-280 10417,4 -4,4"/>
<text text-anchor="start" x="5185.5091" y="-42.4" font-family="sans-serif" font-weight="bold" font-size="14.00" fill="#000000">Legend</text>
<polygon fill="#ffffb3" stroke="transparent" points="4972.5,-10 4972.5,-30 4992.5,-30 4992.5,-10 4972.5,-10"/>
<text text-anchor="start" x="4996.129" y="-15.4" font-family="sans-serif" font-size="14.00" fill="#000000"> &#160;Declarations</text>
<polygon fill="#8dd3c7" stroke="transparent" points="5085.5,-10 5085.5,-30 5105.5,-30 5105.5,-10 5085.5,-10"/>
<text text-anchor="start" x="5109.2251" y="-15.4" font-family="sans-serif" font-size="14.00" fill="#000000"> &#160;Module</text>
<polygon fill="#80b1d3" stroke="transparent" points="5171.5,-10 5171.5,-30 5191.5,-30 5191.5,-10 5171.5,-10"/>
<text text-anchor="start" x="5195.2812" y="-15.4" font-family="sans-serif" font-size="14.00" fill="#000000"> &#160;Bootstrap</text>
<polygon fill="#fdb462" stroke="transparent" points="5268.5,-10 5268.5,-30 5288.5,-30 5288.5,-10 5268.5,-10"/>
<text text-anchor="start" x="5292.1732" y="-15.4" font-family="sans-serif" font-size="14.00" fill="#000000"> &#160;Providers</text>
<polygon fill="#fb8072" stroke="transparent" points="5364.5,-10 5364.5,-30 5384.5,-30 5384.5,-10 5364.5,-10"/>
<text text-anchor="start" x="5388.2258" y="-15.4" font-family="sans-serif" font-size="14.00" fill="#000000"> &#160;Exports</text>
<g id="clust1" class="cluster">
<title>cluster_AppModule</title>
<polygon fill="none" stroke="#000000" stroke-dasharray="1,5" points="8,-70 8,-268 10405,-268 10405,-70 8,-70"/>
</g>
<g id="clust2" class="cluster">
<title>cluster_AppModule_declarations</title>
<polygon fill="none" stroke="#000000" points="2067,-78 2067,-130 10397,-130 10397,-78 2067,-78"/>
</g>
<g id="clust53" class="cluster">
<title>cluster_AppModule_imports</title>
<polygon fill="none" stroke="#000000" points="1520,-78 1520,-130 2059,-130 2059,-78 1520,-78"/>
</g>
<g id="clust55" class="cluster">
<title>cluster_AppModule_bootstrap</title>
<polygon fill="none" stroke="#000000" points="5242,-208 5242,-260 5366,-260 5366,-208 5242,-208"/>
</g>
<g id="clust56" class="cluster">
<title>cluster_AppModule_providers</title>
<polygon fill="none" stroke="#000000" points="16,-78 16,-130 1512,-130 1512,-78 16,-78"/>
</g>
<!-- AppComponent -->
<g id="node1" class="node">
<title>AppComponent</title>
<polygon fill="#ffffb3" stroke="#000000" points="10388.9399,-122 10283.0601,-122 10283.0601,-86 10388.9399,-86 10388.9399,-122"/>
<text text-anchor="middle" x="10336" y="-99.8" font-family="Times,serif" font-size="14.00" fill="#000000">AppComponent</text>
</g>
<!-- AppModule -->
<g id="node51" class="node">
<title>AppModule</title>
<polygon fill="#8dd3c7" stroke="#000000" points="5345.6571,-187 5342.6571,-191 5321.6571,-191 5318.6571,-187 5262.3429,-187 5262.3429,-151 5345.6571,-151 5345.6571,-187"/>
<text text-anchor="middle" x="5304" y="-164.8" font-family="Times,serif" font-size="14.00" fill="#000000">AppModule</text>
</g>
<!-- AppComponent&#45;&gt;AppModule -->
<g id="edge1" class="edge">
<title>AppComponent&#45;&gt;AppModule</title>
<path fill="none" stroke="#000000" d="M10336,-122.1985C10336,-146.3563 10336,-186 10336,-186 10336,-186 5355.9905,-186 5355.9905,-186"/>
<polygon fill="#000000" stroke="#000000" points="5355.9905,-182.5001 5345.9905,-186 5355.9905,-189.5001 5355.9905,-182.5001"/>
</g>
<!-- AsksViewComponent -->
<g id="node2" class="node">
<title>AsksViewComponent</title>
<polygon fill="#ffffb3" stroke="#000000" points="10264.647,-122 10125.353,-122 10125.353,-86 10264.647,-86 10264.647,-122"/>
<text text-anchor="middle" x="10195" y="-99.8" font-family="Times,serif" font-size="14.00" fill="#000000">AsksViewComponent</text>
</g>
<!-- AsksViewComponent&#45;&gt;AppModule -->
<g id="edge2" class="edge">
<title>AsksViewComponent&#45;&gt;AppModule</title>
<path fill="none" stroke="#000000" d="M10195,-122.3802C10195,-146.2785 10195,-185 10195,-185 10195,-185 5355.9134,-185 5355.9134,-185"/>
<polygon fill="#000000" stroke="#000000" points="5355.9134,-181.5001 5345.9134,-185 5355.9133,-188.5001 5355.9134,-181.5001"/>
</g>
<!-- BarStateComponent -->
<g id="node3" class="node">
<title>BarStateComponent</title>
<polygon fill="#ffffb3" stroke="#000000" points="10106.538,-122 9977.462,-122 9977.462,-86 10106.538,-86 10106.538,-122"/>
<text text-anchor="middle" x="10042" y="-99.8" font-family="Times,serif" font-size="14.00" fill="#000000">BarStateComponent</text>
</g>
<!-- BarStateComponent&#45;&gt;AppModule -->
<g id="edge3" class="edge">
<title>BarStateComponent&#45;&gt;AppModule</title>
<path fill="none" stroke="#000000" d="M10042,-122.1532C10042,-145.7566 10042,-184 10042,-184 10042,-184 5355.6809,-184 5355.6809,-184"/>
<polygon fill="#000000" stroke="#000000" points="5355.6809,-180.5001 5345.6809,-184 5355.6809,-187.5001 5355.6809,-180.5001"/>
</g>
<!-- BidsViewComponent -->
<g id="node4" class="node">
<title>BidsViewComponent</title>
<polygon fill="#ffffb3" stroke="#000000" points="9959.823,-122 9822.177,-122 9822.177,-86 9959.823,-86 9959.823,-122"/>
<text text-anchor="middle" x="9891" y="-99.8" font-family="Times,serif" font-size="14.00" fill="#000000">BidsViewComponent</text>
</g>
<!-- BidsViewComponent&#45;&gt;AppModule -->
<g id="edge4" class="edge">
<title>BidsViewComponent&#45;&gt;AppModule</title>
<path fill="none" stroke="#000000" d="M9891,-122.3228C9891,-145.6602 9891,-183 9891,-183 9891,-183 5355.7653,-183 5355.7653,-183"/>
<polygon fill="#000000" stroke="#000000" points="5355.7654,-179.5001 5345.7653,-183 5355.7653,-186.5001 5355.7654,-179.5001"/>
</g>
<!-- DashboardComponent -->
<g id="node5" class="node">
<title>DashboardComponent</title>
<polygon fill="#ffffb3" stroke="#000000" points="9803.9734,-122 9662.0266,-122 9662.0266,-86 9803.9734,-86 9803.9734,-122"/>
<text text-anchor="middle" x="9733" y="-99.8" font-family="Times,serif" font-size="14.00" fill="#000000">DashboardComponent</text>
</g>
<!-- DashboardComponent&#45;&gt;AppModule -->
<g id="edge5" class="edge">
<title>DashboardComponent&#45;&gt;AppModule</title>
<path fill="none" stroke="#000000" d="M9733,-122.0908C9733,-145.1328 9733,-182 9733,-182 9733,-182 5355.7133,-182 5355.7133,-182"/>
<polygon fill="#000000" stroke="#000000" points="5355.7134,-178.5001 5345.7133,-182 5355.7133,-185.5001 5355.7134,-178.5001"/>
</g>
<!-- DashboardViewComponent -->
<g id="node6" class="node">
<title>DashboardViewComponent</title>
<polygon fill="#ffffb3" stroke="#000000" points="9644.292,-122 9471.708,-122 9471.708,-86 9644.292,-86 9644.292,-122"/>
<text text-anchor="middle" x="9558" y="-99.8" font-family="Times,serif" font-size="14.00" fill="#000000">DashboardViewComponent</text>
</g>
<!-- DashboardViewComponent&#45;&gt;AppModule -->
<g id="edge6" class="edge">
<title>DashboardViewComponent&#45;&gt;AppModule</title>
<path fill="none" stroke="#000000" d="M9558,-122.2479C9558,-145.0179 9558,-181 9558,-181 9558,-181 5355.7603,-181 5355.7603,-181"/>
<polygon fill="#000000" stroke="#000000" points="5355.7603,-177.5001 5345.7603,-181 5355.7602,-184.5001 5355.7603,-177.5001"/>
</g>
<!-- FgActionsComponent -->
<g id="node7" class="node">
<title>FgActionsComponent</title>
<polygon fill="#ffffb3" stroke="#000000" points="9453.6624,-122 9314.3376,-122 9314.3376,-86 9453.6624,-86 9453.6624,-122"/>
<text text-anchor="middle" x="9384" y="-99.8" font-family="Times,serif" font-size="14.00" fill="#000000">FgActionsComponent</text>
</g>
<!-- FgActionsComponent&#45;&gt;AppModule -->
<g id="edge7" class="edge">
<title>FgActionsComponent&#45;&gt;AppModule</title>
<path fill="none" stroke="#000000" d="M9384,-122.1554C9384,-144.3519 9384,-179 9384,-179 9384,-179 5355.7102,-179 5355.7102,-179"/>
<polygon fill="#000000" stroke="#000000" points="5355.7102,-175.5001 5345.7102,-179 5355.7101,-182.5001 5355.7102,-175.5001"/>
</g>
<!-- FgCardComponent -->
<g id="node8" class="node">
<title>FgCardComponent</title>
<polygon fill="#ffffb3" stroke="#000000" points="9296.8272,-122 9173.1728,-122 9173.1728,-86 9296.8272,-86 9296.8272,-122"/>
<text text-anchor="middle" x="9235" y="-99.8" font-family="Times,serif" font-size="14.00" fill="#000000">FgCardComponent</text>
</g>
<!-- FgCardComponent&#45;&gt;AppModule -->
<g id="edge8" class="edge">
<title>FgCardComponent&#45;&gt;AppModule</title>
<path fill="none" stroke="#000000" d="M9235,-122.2921C9235,-144.2057 9235,-178 9235,-178 9235,-178 5355.8153,-178 5355.8153,-178"/>
<polygon fill="#000000" stroke="#000000" points="5355.8154,-174.5001 5345.8153,-178 5355.8153,-181.5001 5355.8154,-174.5001"/>
</g>
<!-- FgEnumPipe -->
<g id="node9" class="node">
<title>FgEnumPipe</title>
<polygon fill="#ffffb3" stroke="#000000" points="9155.6137,-122 9066.3863,-122 9066.3863,-86 9155.6137,-86 9155.6137,-122"/>
<text text-anchor="middle" x="9111" y="-99.8" font-family="Times,serif" font-size="14.00" fill="#000000">FgEnumPipe</text>
</g>
<!-- FgEnumPipe&#45;&gt;AppModule -->
<g id="edge9" class="edge">
<title>FgEnumPipe&#45;&gt;AppModule</title>
<path fill="none" stroke="#000000" d="M9111,-122.0449C9111,-143.6623 9111,-177 9111,-177 9111,-177 5355.7795,-177 5355.7795,-177"/>
<polygon fill="#000000" stroke="#000000" points="5355.7795,-173.5001 5345.7795,-177 5355.7795,-180.5001 5355.7795,-173.5001"/>
</g>
<!-- FgInputComponent -->
<g id="node10" class="node">
<title>FgInputComponent</title>
<polygon fill="#ffffb3" stroke="#000000" points="9048.6666,-122 8923.3334,-122 8923.3334,-86 9048.6666,-86 9048.6666,-122"/>
<text text-anchor="middle" x="8986" y="-99.8" font-family="Times,serif" font-size="14.00" fill="#000000">FgInputComponent</text>
</g>
<!-- FgInputComponent&#45;&gt;AppModule -->
<g id="edge10" class="edge">
<title>FgInputComponent&#45;&gt;AppModule</title>
<path fill="none" stroke="#000000" d="M8986,-122.1686C8986,-143.498 8986,-176 8986,-176 8986,-176 5355.6672,-176 5355.6672,-176"/>
<polygon fill="#000000" stroke="#000000" points="5355.6672,-172.5001 5345.6672,-176 5355.6672,-179.5001 5355.6672,-172.5001"/>
</g>
<!-- FlexDashboardComponent -->
<g id="node11" class="node">
<title>FlexDashboardComponent</title>
<polygon fill="#ffffb3" stroke="#000000" points="8905.3613,-122 8738.6387,-122 8738.6387,-86 8905.3613,-86 8905.3613,-122"/>
<text text-anchor="middle" x="8822" y="-99.8" font-family="Times,serif" font-size="14.00" fill="#000000">FlexDashboardComponent</text>
</g>
<!-- FlexDashboardComponent&#45;&gt;AppModule -->
<g id="edge11" class="edge">
<title>FlexDashboardComponent&#45;&gt;AppModule</title>
<path fill="none" stroke="#000000" d="M8822,-122.2843C8822,-143.3211 8822,-175 8822,-175 8822,-175 5355.9596,-175 5355.9596,-175"/>
<polygon fill="#000000" stroke="#000000" points="5355.9596,-171.5001 5345.9596,-175 5355.9595,-178.5001 5355.9596,-171.5001"/>
</g>
<!-- FooterComponent -->
<g id="node12" class="node">
<title>FooterComponent</title>
<polygon fill="#ffffb3" stroke="#000000" points="8720.8809,-122 8603.1191,-122 8603.1191,-86 8720.8809,-86 8720.8809,-122"/>
<text text-anchor="middle" x="8662" y="-99.8" font-family="Times,serif" font-size="14.00" fill="#000000">FooterComponent</text>
</g>
<!-- FooterComponent&#45;&gt;AppModule -->
<g id="edge12" class="edge">
<title>FooterComponent&#45;&gt;AppModule</title>
<path fill="none" stroke="#000000" d="M8662,-122.0267C8662,-142.7672 8662,-174 8662,-174 8662,-174 5355.8497,-174 5355.8497,-174"/>
<polygon fill="#000000" stroke="#000000" points="5355.8497,-170.5001 5345.8497,-174 5355.8497,-177.5001 5355.8497,-170.5001"/>
</g>
<!-- GraphComponent -->
<g id="node13" class="node">
<title>GraphComponent</title>
<polygon fill="#ffffb3" stroke="#000000" points="8585.3146,-122 8468.6854,-122 8468.6854,-86 8585.3146,-86 8585.3146,-122"/>
<text text-anchor="middle" x="8527" y="-99.8" font-family="Times,serif" font-size="14.00" fill="#000000">GraphComponent</text>
</g>
<!-- GraphComponent&#45;&gt;AppModule -->
<g id="edge13" class="edge">
<title>GraphComponent&#45;&gt;AppModule</title>
<path fill="none" stroke="#000000" d="M8527,-122.2228C8527,-142.3652 8527,-172 8527,-172 8527,-172 5355.9294,-172 5355.9294,-172"/>
<polygon fill="#000000" stroke="#000000" points="5355.9294,-168.5001 5345.9294,-172 5355.9294,-175.5001 5355.9294,-168.5001"/>
</g>
<!-- GraphPortfolioComponent -->
<g id="node14" class="node">
<title>GraphPortfolioComponent</title>
<polygon fill="#ffffb3" stroke="#000000" points="8451.0898,-122 8284.9102,-122 8284.9102,-86 8451.0898,-86 8451.0898,-122"/>
<text text-anchor="middle" x="8368" y="-99.8" font-family="Times,serif" font-size="14.00" fill="#000000">GraphPortfolioComponent</text>
</g>
<!-- GraphPortfolioComponent&#45;&gt;AppModule -->
<g id="edge14" class="edge">
<title>GraphPortfolioComponent&#45;&gt;AppModule</title>
<path fill="none" stroke="#000000" d="M8368,-122.308C8368,-142.1455 8368,-171 8368,-171 8368,-171 5355.8585,-171 5355.8585,-171"/>
<polygon fill="#000000" stroke="#000000" points="5355.8585,-167.5001 5345.8585,-171 5355.8584,-174.5001 5355.8585,-167.5001"/>
</g>
<!-- GraphProductHistoryComponent -->
<g id="node15" class="node">
<title>GraphProductHistoryComponent</title>
<polygon fill="#ffffb3" stroke="#000000" points="8266.8557,-122 8065.1443,-122 8065.1443,-86 8266.8557,-86 8266.8557,-122"/>
<text text-anchor="middle" x="8166" y="-99.8" font-family="Times,serif" font-size="14.00" fill="#000000">GraphProductHistoryComponent</text>
</g>
<!-- GraphProductHistoryComponent&#45;&gt;AppModule -->
<g id="edge15" class="edge">
<title>GraphProductHistoryComponent&#45;&gt;AppModule</title>
<path fill="none" stroke="#000000" d="M8166,-122.0348C8166,-141.5762 8166,-170 8166,-170 8166,-170 5355.8394,-170 5355.8394,-170"/>
<polygon fill="#000000" stroke="#000000" points="5355.8394,-166.5001 5345.8394,-170 5355.8393,-173.5001 5355.8394,-166.5001"/>
</g>
<!-- GraphSignalHistoryComponent -->
<g id="node16" class="node">
<title>GraphSignalHistoryComponent</title>
<polygon fill="#ffffb3" stroke="#000000" points="8047.0856,-122 7852.9144,-122 7852.9144,-86 8047.0856,-86 8047.0856,-122"/>
<text text-anchor="middle" x="7950" y="-99.8" font-family="Times,serif" font-size="14.00" fill="#000000">GraphSignalHistoryComponent</text>
</g>
<!-- GraphSignalHistoryComponent&#45;&gt;AppModule -->
<g id="edge16" class="edge">
<title>GraphSignalHistoryComponent&#45;&gt;AppModule</title>
<path fill="none" stroke="#000000" d="M7950,-122.1061C7950,-141.3391 7950,-169 7950,-169 7950,-169 5355.8291,-169 5355.8291,-169"/>
<polygon fill="#000000" stroke="#000000" points="5355.8291,-165.5001 5345.8291,-169 5355.829,-172.5001 5355.8291,-165.5001"/>
</g>
<!-- HeaderComponent -->
<g id="node17" class="node">
<title>HeaderComponent</title>
<polygon fill="#ffffb3" stroke="#000000" points="7834.7437,-122 7713.2563,-122 7713.2563,-86 7834.7437,-86 7834.7437,-122"/>
<text text-anchor="middle" x="7774" y="-99.8" font-family="Times,serif" font-size="14.00" fill="#000000">HeaderComponent</text>
</g>
<!-- HeaderComponent&#45;&gt;AppModule -->
<g id="edge17" class="edge">
<title>HeaderComponent&#45;&gt;AppModule</title>
<path fill="none" stroke="#000000" d="M7774,-122.1686C7774,-141.0898 7774,-168 7774,-168 7774,-168 5355.8351,-168 5355.8351,-168"/>
<polygon fill="#000000" stroke="#000000" points="5355.8351,-164.5001 5345.8351,-168 5355.8351,-171.5001 5355.8351,-164.5001"/>
</g>
<!-- LoadingIndicatorComponent -->
<g id="node18" class="node">
<title>LoadingIndicatorComponent</title>
<polygon fill="#ffffb3" stroke="#000000" points="7695.0224,-122 7516.9776,-122 7516.9776,-86 7695.0224,-86 7695.0224,-122"/>
<text text-anchor="middle" x="7606" y="-99.8" font-family="Times,serif" font-size="14.00" fill="#000000">LoadingIndicatorComponent</text>
</g>
<!-- LoadingIndicatorComponent&#45;&gt;AppModule -->
<g id="edge18" class="edge">
<title>LoadingIndicatorComponent&#45;&gt;AppModule</title>
<path fill="none" stroke="#000000" d="M7606,-122.2222C7606,-140.8285 7606,-167 7606,-167 7606,-167 5355.9206,-167 5355.9206,-167"/>
<polygon fill="#000000" stroke="#000000" points="5355.9206,-163.5001 5345.9206,-167 5355.9206,-170.5001 5355.9206,-163.5001"/>
</g>
<!-- LoginViewComponent -->
<g id="node19" class="node">
<title>LoginViewComponent</title>
<polygon fill="#ffffb3" stroke="#000000" points="7498.594,-122 7353.406,-122 7353.406,-86 7498.594,-86 7498.594,-122"/>
<text text-anchor="middle" x="7426" y="-99.8" font-family="Times,serif" font-size="14.00" fill="#000000">LoginViewComponent</text>
</g>
<!-- LoginViewComponent&#45;&gt;AppModule -->
<g id="edge19" class="edge">
<title>LoginViewComponent&#45;&gt;AppModule</title>
<path fill="none" stroke="#000000" d="M7426,-122.302C7426,-140.2699 7426,-165 7426,-165 7426,-165 5355.9108,-165 5355.9108,-165"/>
<polygon fill="#000000" stroke="#000000" points="5355.9108,-161.5001 5345.9108,-165 5355.9107,-168.5001 5355.9108,-161.5001"/>
</g>
<!-- MatTableComponent -->
<g id="node20" class="node">
<title>MatTableComponent</title>
<polygon fill="#ffffb3" stroke="#000000" points="7335.7548,-122 7200.2452,-122 7200.2452,-86 7335.7548,-86 7335.7548,-122"/>
<text text-anchor="middle" x="7268" y="-99.8" font-family="Times,serif" font-size="14.00" fill="#000000">MatTableComponent</text>
</g>
<!-- MatTableComponent&#45;&gt;AppModule -->
<g id="edge20" class="edge">
<title>MatTableComponent&#45;&gt;AppModule</title>
<path fill="none" stroke="#000000" d="M7268,-122.002C7268,-139.6754 7268,-164 7268,-164 7268,-164 5355.9295,-164 5355.9295,-164"/>
<polygon fill="#000000" stroke="#000000" points="5355.9296,-160.5001 5345.9295,-164 5355.9295,-167.5001 5355.9296,-160.5001"/>
</g>
<!-- ModalAddOrderComponent -->
<g id="node21" class="node">
<title>ModalAddOrderComponent</title>
<polygon fill="#ffffb3" stroke="#000000" points="7182.1316,-122 7007.8684,-122 7007.8684,-86 7182.1316,-86 7182.1316,-122"/>
<text text-anchor="middle" x="7095" y="-99.8" font-family="Times,serif" font-size="14.00" fill="#000000">ModalAddOrderComponent</text>
</g>
<!-- ModalAddOrderComponent&#45;&gt;AppModule -->
<g id="edge21" class="edge">
<title>ModalAddOrderComponent&#45;&gt;AppModule</title>
<path fill="none" stroke="#000000" d="M7095,-122.0225C7095,-139.3734 7095,-163 7095,-163 7095,-163 5356.0692,-163 5356.0692,-163"/>
<polygon fill="#000000" stroke="#000000" points="5356.0693,-159.5001 5346.0692,-163 5356.0692,-166.5001 5356.0693,-159.5001"/>
</g>
<!-- ModalApiKeyComponent -->
<g id="node22" class="node">
<title>ModalApiKeyComponent</title>
<polygon fill="#ffffb3" stroke="#000000" points="6990.2007,-122 6827.7993,-122 6827.7993,-86 6990.2007,-86 6990.2007,-122"/>
<text text-anchor="middle" x="6909" y="-99.8" font-family="Times,serif" font-size="14.00" fill="#000000">ModalApiKeyComponent</text>
</g>
<!-- ModalApiKeyComponent&#45;&gt;AppModule -->
<g id="edge22" class="edge">
<title>ModalApiKeyComponent&#45;&gt;AppModule</title>
<path fill="none" stroke="#000000" d="M6909,-122.0336C6909,-139.0597 6909,-162 6909,-162 6909,-162 5355.6951,-162 5355.6951,-162"/>
<polygon fill="#000000" stroke="#000000" points="5355.6952,-158.5001 5345.6951,-162 5355.6951,-165.5001 5355.6952,-158.5001"/>
</g>
<!-- ModalComponent -->
<g id="node23" class="node">
<title>ModalComponent</title>
<polygon fill="#ffffb3" stroke="#000000" points="6809.8823,-122 6692.1177,-122 6692.1177,-86 6809.8823,-86 6809.8823,-122"/>
<text text-anchor="middle" x="6751" y="-99.8" font-family="Times,serif" font-size="14.00" fill="#000000">ModalComponent</text>
</g>
<!-- ModalComponent&#45;&gt;AppModule -->
<g id="edge23" class="edge">
<title>ModalComponent&#45;&gt;AppModule</title>
<path fill="none" stroke="#000000" d="M6751,-122.0352C6751,-138.7344 6751,-161 6751,-161 6751,-161 5355.7454,-161 5355.7454,-161"/>
<polygon fill="#000000" stroke="#000000" points="5355.7454,-157.5001 5345.7454,-161 5355.7453,-164.5001 5355.7454,-157.5001"/>
</g>
<!-- ModalHelpComponent -->
<g id="node24" class="node">
<title>ModalHelpComponent</title>
<polygon fill="#ffffb3" stroke="#000000" points="6674.594,-122 6529.406,-122 6529.406,-86 6674.594,-86 6674.594,-122"/>
<text text-anchor="middle" x="6602" y="-99.8" font-family="Times,serif" font-size="14.00" fill="#000000">ModalHelpComponent</text>
</g>
<!-- ModalHelpComponent&#45;&gt;AppModule -->
<g id="edge24" class="edge">
<title>ModalHelpComponent&#45;&gt;AppModule</title>
<path fill="none" stroke="#000000" d="M6602,-122.027C6602,-138.3976 6602,-160 6602,-160 6602,-160 5355.7167,-160 5355.7167,-160"/>
<polygon fill="#000000" stroke="#000000" points="5355.7167,-156.5001 5345.7167,-160 5355.7166,-163.5001 5355.7167,-156.5001"/>
</g>
<!-- ModalSettingsComponent -->
<g id="node25" class="node">
<title>ModalSettingsComponent</title>
<polygon fill="#ffffb3" stroke="#000000" points="6511.4958,-122 6348.5042,-122 6348.5042,-86 6511.4958,-86 6511.4958,-122"/>
<text text-anchor="middle" x="6430" y="-99.8" font-family="Times,serif" font-size="14.00" fill="#000000">ModalSettingsComponent</text>
</g>
<!-- ModalSettingsComponent&#45;&gt;AppModule -->
<g id="edge25" class="edge">
<title>ModalSettingsComponent&#45;&gt;AppModule</title>
<path fill="none" stroke="#000000" d="M6430,-122.2819C6430,-137.9478 6430,-158 6430,-158 6430,-158 5355.7473,-158 5355.7473,-158"/>
<polygon fill="#000000" stroke="#000000" points="5355.7473,-154.5001 5345.7473,-158 5355.7473,-161.5001 5355.7473,-154.5001"/>
</g>
<!-- OrderbookViewComponent -->
<g id="node26" class="node">
<title>OrderbookViewComponent</title>
<polygon fill="#ffffb3" stroke="#000000" points="6330.2934,-122 6157.7066,-122 6157.7066,-86 6330.2934,-86 6330.2934,-122"/>
<text text-anchor="middle" x="6244" y="-99.8" font-family="Times,serif" font-size="14.00" fill="#000000">OrderbookViewComponent</text>
</g>
<!-- OrderbookViewComponent&#45;&gt;AppModule -->
<g id="edge26" class="edge">
<title>OrderbookViewComponent&#45;&gt;AppModule</title>
<path fill="none" stroke="#000000" d="M6244,-122.2396C6244,-137.5706 6244,-157 6244,-157 6244,-157 5355.9092,-157 5355.9092,-157"/>
<polygon fill="#000000" stroke="#000000" points="5355.9093,-153.5001 5345.9092,-157 5355.9092,-160.5001 5355.9093,-153.5001"/>
</g>
<!-- OrdersViewComponent -->
<g id="node27" class="node">
<title>OrdersViewComponent</title>
<polygon fill="#ffffb3" stroke="#000000" points="6139.738,-122 5990.262,-122 5990.262,-86 6139.738,-86 6139.738,-122"/>
<text text-anchor="middle" x="6065" y="-99.8" font-family="Times,serif" font-size="14.00" fill="#000000">OrdersViewComponent</text>
</g>
<!-- OrdersViewComponent&#45;&gt;AppModule -->
<g id="edge27" class="edge">
<title>OrdersViewComponent&#45;&gt;AppModule</title>
<path fill="none" stroke="#000000" d="M6065,-122.1871C6065,-137.1824 6065,-156 6065,-156 6065,-156 5355.7265,-156 5355.7265,-156"/>
<polygon fill="#000000" stroke="#000000" points="5355.7265,-152.5001 5345.7265,-156 5355.7264,-159.5001 5355.7265,-152.5001"/>
</g>
<!-- PbIconValidationComponent -->
<g id="node28" class="node">
<title>PbIconValidationComponent</title>
<polygon fill="#ffffb3" stroke="#000000" points="5972.0884,-122 5791.9116,-122 5791.9116,-86 5972.0884,-86 5972.0884,-122"/>
<text text-anchor="middle" x="5882" y="-99.8" font-family="Times,serif" font-size="14.00" fill="#000000">PbIconValidationComponent</text>
</g>
<!-- PbIconValidationComponent&#45;&gt;AppModule -->
<g id="edge28" class="edge">
<title>PbIconValidationComponent&#45;&gt;AppModule</title>
<path fill="none" stroke="#000000" d="M5882,-122.1243C5882,-136.7832 5882,-155 5882,-155 5882,-155 5356.0339,-155 5356.0339,-155"/>
<polygon fill="#000000" stroke="#000000" points="5356.034,-151.5001 5346.0339,-155 5356.0339,-158.5001 5356.034,-151.5001"/>
</g>
<!-- PbSidePipe -->
<g id="node29" class="node">
<title>PbSidePipe</title>
<polygon fill="#ffffb3" stroke="#000000" points="5774.0594,-122 5693.9406,-122 5693.9406,-86 5774.0594,-86 5774.0594,-122"/>
<text text-anchor="middle" x="5734" y="-99.8" font-family="Times,serif" font-size="14.00" fill="#000000">PbSidePipe</text>
</g>
<!-- PbSidePipe&#45;&gt;AppModule -->
<g id="edge29" class="edge">
<title>PbSidePipe&#45;&gt;AppModule</title>
<path fill="none" stroke="#000000" d="M5734,-122.0511C5734,-136.373 5734,-154 5734,-154 5734,-154 5356.0131,-154 5356.0131,-154"/>
<polygon fill="#000000" stroke="#000000" points="5356.0132,-150.5001 5346.0131,-154 5356.0131,-157.5001 5356.0132,-150.5001"/>
</g>
<!-- PortfolioViewComponent -->
<g id="node30" class="node">
<title>PortfolioViewComponent</title>
<polygon fill="#ffffb3" stroke="#000000" points="5675.927,-122 5514.073,-122 5514.073,-86 5675.927,-86 5675.927,-122"/>
<text text-anchor="middle" x="5595" y="-99.8" font-family="Times,serif" font-size="14.00" fill="#000000">PortfolioViewComponent</text>
</g>
<!-- PortfolioViewComponent&#45;&gt;AppModule -->
<g id="edge30" class="edge">
<title>PortfolioViewComponent&#45;&gt;AppModule</title>
<path fill="none" stroke="#000000" d="M5595,-122.2458C5595,-136.1772 5595,-153 5595,-153 5595,-153 5355.6932,-153 5355.6932,-153"/>
<polygon fill="#000000" stroke="#000000" points="5355.6932,-149.5001 5345.6932,-153 5355.6932,-156.5001 5355.6932,-149.5001"/>
</g>
<!-- ProductHistoryViewComponent -->
<g id="node31" class="node">
<title>ProductHistoryViewComponent</title>
<polygon fill="#ffffb3" stroke="#000000" points="5496.6923,-122 5299.3077,-122 5299.3077,-86 5496.6923,-86 5496.6923,-122"/>
<text text-anchor="middle" x="5398" y="-99.8" font-family="Times,serif" font-size="14.00" fill="#000000">ProductHistoryViewComponent</text>
</g>
<!-- ProductHistoryViewComponent&#45;&gt;AppModule -->
<g id="edge31" class="edge">
<title>ProductHistoryViewComponent&#45;&gt;AppModule</title>
<path fill="none" stroke="#000000" d="M5322.6161,-122.1061C5322.6161,-122.1061 5322.6161,-140.991 5322.6161,-140.991"/>
<polygon fill="#000000" stroke="#000000" points="5319.1161,-140.9909 5322.6161,-150.991 5326.1161,-140.991 5319.1161,-140.9909"/>
</g>
<!-- PwaInstallComponent -->
<g id="node32" class="node">
<title>PwaInstallComponent</title>
<polygon fill="#ffffb3" stroke="#000000" points="5281.4285,-122 5140.5715,-122 5140.5715,-86 5281.4285,-86 5281.4285,-122"/>
<text text-anchor="middle" x="5211" y="-99.8" font-family="Times,serif" font-size="14.00" fill="#000000">PwaInstallComponent</text>
</g>
<!-- PwaInstallComponent&#45;&gt;AppModule -->
<g id="edge32" class="edge">
<title>PwaInstallComponent&#45;&gt;AppModule</title>
<path fill="none" stroke="#000000" d="M5271.6928,-122.1061C5271.6928,-122.1061 5271.6928,-140.991 5271.6928,-140.991"/>
<polygon fill="#000000" stroke="#000000" points="5268.1929,-140.9909 5271.6928,-150.991 5275.1929,-140.991 5268.1929,-140.9909"/>
</g>
<!-- PwaOfflineComponent -->
<g id="node33" class="node">
<title>PwaOfflineComponent</title>
<polygon fill="#ffffb3" stroke="#000000" points="5122.8599,-122 4977.1401,-122 4977.1401,-86 5122.8599,-86 5122.8599,-122"/>
<text text-anchor="middle" x="5050" y="-99.8" font-family="Times,serif" font-size="14.00" fill="#000000">PwaOfflineComponent</text>
</g>
<!-- PwaOfflineComponent&#45;&gt;AppModule -->
<g id="edge33" class="edge">
<title>PwaOfflineComponent&#45;&gt;AppModule</title>
<path fill="none" stroke="#000000" d="M5050,-122.2458C5050,-136.1772 5050,-153 5050,-153 5050,-153 5252.3415,-153 5252.3415,-153"/>
<polygon fill="#000000" stroke="#000000" points="5252.3415,-156.5001 5262.3415,-153 5252.3415,-149.5001 5252.3415,-156.5001"/>
</g>
<!-- SignalsViewComponent -->
<g id="node34" class="node">
<title>SignalsViewComponent</title>
<polygon fill="#ffffb3" stroke="#000000" points="4959.3739,-122 4806.6261,-122 4806.6261,-86 4959.3739,-86 4959.3739,-122"/>
<text text-anchor="middle" x="4883" y="-99.8" font-family="Times,serif" font-size="14.00" fill="#000000">SignalsViewComponent</text>
</g>
<!-- SignalsViewComponent&#45;&gt;AppModule -->
<g id="edge34" class="edge">
<title>SignalsViewComponent&#45;&gt;AppModule</title>
<path fill="none" stroke="#000000" d="M4883,-122.0511C4883,-136.373 4883,-154 4883,-154 4883,-154 5252.0938,-154 5252.0938,-154"/>
<polygon fill="#000000" stroke="#000000" points="5252.0938,-157.5001 5262.0938,-154 5252.0937,-150.5001 5252.0938,-157.5001"/>
</g>
<!-- SyncMatchFieldlValidator -->
<g id="node35" class="node">
<title>SyncMatchFieldlValidator</title>
<polygon fill="#ffffb3" stroke="#000000" points="4788.7991,-122 4623.2009,-122 4623.2009,-86 4788.7991,-86 4788.7991,-122"/>
<text text-anchor="middle" x="4706" y="-99.8" font-family="Times,serif" font-size="14.00" fill="#000000">SyncMatchFieldlValidator</text>
</g>
<!-- SyncMatchFieldlValidator&#45;&gt;AppModule -->
<g id="edge35" class="edge">
<title>SyncMatchFieldlValidator&#45;&gt;AppModule</title>
<path fill="none" stroke="#000000" d="M4706,-122.1243C4706,-136.7832 4706,-155 4706,-155 4706,-155 5251.9498,-155 5251.9498,-155"/>
<polygon fill="#000000" stroke="#000000" points="5251.9498,-158.5001 5261.9498,-155 5251.9498,-151.5001 5251.9498,-158.5001"/>
</g>
<!-- TabApiKeyComponent -->
<g id="node36" class="node">
<title>TabApiKeyComponent</title>
<polygon fill="#ffffb3" stroke="#000000" points="4605.9186,-122 4458.0814,-122 4458.0814,-86 4605.9186,-86 4605.9186,-122"/>
<text text-anchor="middle" x="4532" y="-99.8" font-family="Times,serif" font-size="14.00" fill="#000000">TabApiKeyComponent</text>
</g>
<!-- TabApiKeyComponent&#45;&gt;AppModule -->
<g id="edge36" class="edge">
<title>TabApiKeyComponent&#45;&gt;AppModule</title>
<path fill="none" stroke="#000000" d="M4532,-122.1871C4532,-137.1824 4532,-156 4532,-156 4532,-156 5252.2202,-156 5252.2202,-156"/>
<polygon fill="#000000" stroke="#000000" points="5252.2202,-159.5001 5262.2202,-156 5252.2202,-152.5001 5252.2202,-159.5001"/>
</g>
<!-- TabLoggingComponent -->
<g id="node37" class="node">
<title>TabLoggingComponent</title>
<polygon fill="#ffffb3" stroke="#000000" points="4440.0435,-122 4289.9565,-122 4289.9565,-86 4440.0435,-86 4440.0435,-122"/>
<text text-anchor="middle" x="4365" y="-99.8" font-family="Times,serif" font-size="14.00" fill="#000000">TabLoggingComponent</text>
</g>
<!-- TabLoggingComponent&#45;&gt;AppModule -->
<g id="edge37" class="edge">
<title>TabLoggingComponent&#45;&gt;AppModule</title>
<path fill="none" stroke="#000000" d="M4365,-122.2396C4365,-137.5706 4365,-157 4365,-157 4365,-157 5252.1353,-157 5252.1353,-157"/>
<polygon fill="#000000" stroke="#000000" points="5252.1354,-160.5001 5262.1353,-157 5252.1353,-153.5001 5252.1354,-160.5001"/>
</g>
<!-- TabProductionComponent -->
<g id="node38" class="node">
<title>TabProductionComponent</title>
<polygon fill="#ffffb3" stroke="#000000" points="4271.0392,-122 4106.9608,-122 4106.9608,-86 4271.0392,-86 4271.0392,-122"/>
<text text-anchor="middle" x="4189" y="-99.8" font-family="Times,serif" font-size="14.00" fill="#000000">TabProductionComponent</text>
</g>
<!-- TabProductionComponent&#45;&gt;AppModule -->
<g id="edge38" class="edge">
<title>TabProductionComponent&#45;&gt;AppModule</title>
<path fill="none" stroke="#000000" d="M4161.5769,-122.027C4161.5769,-138.3976 4161.5769,-160 4161.5769,-160 4161.5769,-160 5252.3263,-160 5252.3263,-160"/>
<polygon fill="#000000" stroke="#000000" points="5252.3263,-163.5001 5262.3263,-160 5252.3263,-156.5001 5252.3263,-163.5001"/>
</g>
<!-- TabProductionComponent&#45;&gt;AppModule -->
<g id="edge39" class="edge">
<title>TabProductionComponent&#45;&gt;AppModule</title>
<path fill="none" stroke="#000000" d="M4216.4231,-122.2819C4216.4231,-137.9478 4216.4231,-158 4216.4231,-158 4216.4231,-158 5252.0321,-158 5252.0321,-158"/>
<polygon fill="#000000" stroke="#000000" points="5252.0321,-161.5001 5262.0321,-158 5252.0321,-154.5001 5252.0321,-161.5001"/>
</g>
<!-- TabTestComponent -->
<g id="node39" class="node">
<title>TabTestComponent</title>
<polygon fill="#ffffb3" stroke="#000000" points="4088.7022,-122 3961.2978,-122 3961.2978,-86 4088.7022,-86 4088.7022,-122"/>
<text text-anchor="middle" x="4025" y="-99.8" font-family="Times,serif" font-size="14.00" fill="#000000">TabTestComponent</text>
</g>
<!-- TabTestComponent&#45;&gt;AppModule -->
<g id="edge40" class="edge">
<title>TabTestComponent&#45;&gt;AppModule</title>
<path fill="none" stroke="#000000" d="M4025,-122.0352C4025,-138.7344 4025,-161 4025,-161 4025,-161 5252.1725,-161 5252.1725,-161"/>
<polygon fill="#000000" stroke="#000000" points="5252.1726,-164.5001 5262.1725,-161 5252.1725,-157.5001 5252.1726,-164.5001"/>
</g>
<!-- TableAddOrderComponent -->
<g id="node40" class="node">
<title>TableAddOrderComponent</title>
<polygon fill="#ffffb3" stroke="#000000" points="3942.9538,-122 3773.0462,-122 3773.0462,-86 3942.9538,-86 3942.9538,-122"/>
<text text-anchor="middle" x="3858" y="-99.8" font-family="Times,serif" font-size="14.00" fill="#000000">TableAddOrderComponent</text>
</g>
<!-- TableAddOrderComponent&#45;&gt;AppModule -->
<g id="edge41" class="edge">
<title>TableAddOrderComponent&#45;&gt;AppModule</title>
<path fill="none" stroke="#000000" d="M3858,-122.0336C3858,-139.0597 3858,-162 3858,-162 3858,-162 5252.2835,-162 5252.2835,-162"/>
<polygon fill="#000000" stroke="#000000" points="5252.2835,-165.5001 5262.2835,-162 5252.2834,-158.5001 5252.2835,-165.5001"/>
</g>
<!-- TableAsksComponent -->
<g id="node41" class="node">
<title>TableAsksComponent</title>
<polygon fill="#ffffb3" stroke="#000000" points="3754.7007,-122 3613.2993,-122 3613.2993,-86 3754.7007,-86 3754.7007,-122"/>
<text text-anchor="middle" x="3684" y="-99.8" font-family="Times,serif" font-size="14.00" fill="#000000">TableAsksComponent</text>
</g>
<!-- TableAsksComponent&#45;&gt;AppModule -->
<g id="edge42" class="edge">
<title>TableAsksComponent&#45;&gt;AppModule</title>
<path fill="none" stroke="#000000" d="M3684,-122.0225C3684,-139.3734 3684,-163 3684,-163 3684,-163 5252.3269,-163 5252.3269,-163"/>
<polygon fill="#000000" stroke="#000000" points="5252.3269,-166.5001 5262.3269,-163 5252.3268,-159.5001 5252.3269,-166.5001"/>
</g>
<!-- TableBidsComponent -->
<g id="node42" class="node">
<title>TableBidsComponent</title>
<polygon fill="#ffffb3" stroke="#000000" points="3595.3767,-122 3456.6233,-122 3456.6233,-86 3595.3767,-86 3595.3767,-122"/>
<text text-anchor="middle" x="3526" y="-99.8" font-family="Times,serif" font-size="14.00" fill="#000000">TableBidsComponent</text>
</g>
<!-- TableBidsComponent&#45;&gt;AppModule -->
<g id="edge43" class="edge">
<title>TableBidsComponent&#45;&gt;AppModule</title>
<path fill="none" stroke="#000000" d="M3526,-122.002C3526,-139.6754 3526,-164 3526,-164 3526,-164 5252.2361,-164 5252.2361,-164"/>
<polygon fill="#000000" stroke="#000000" points="5252.2361,-167.5001 5262.2361,-164 5252.2361,-160.5001 5252.2361,-167.5001"/>
</g>
<!-- TableComponent -->
<g id="node43" class="node">
<title>TableComponent</title>
<polygon fill="#ffffb3" stroke="#000000" points="3438.705,-122 3325.295,-122 3325.295,-86 3438.705,-86 3438.705,-122"/>
<text text-anchor="middle" x="3382" y="-99.8" font-family="Times,serif" font-size="14.00" fill="#000000">TableComponent</text>
</g>
<!-- TableComponent&#45;&gt;AppModule -->
<g id="edge44" class="edge">
<title>TableComponent&#45;&gt;AppModule</title>
<path fill="none" stroke="#000000" d="M3382,-122.302C3382,-140.2699 3382,-165 3382,-165 3382,-165 5252.0688,-165 5252.0688,-165"/>
<polygon fill="#000000" stroke="#000000" points="5252.0689,-168.5001 5262.0688,-165 5252.0688,-161.5001 5252.0689,-168.5001"/>
</g>
<!-- TableContractDetailsComponent -->
<g id="node44" class="node">
<title>TableContractDetailsComponent</title>
<polygon fill="#ffffb3" stroke="#000000" points="3307.5646,-122 3106.4354,-122 3106.4354,-86 3307.5646,-86 3307.5646,-122"/>
<text text-anchor="middle" x="3207" y="-99.8" font-family="Times,serif" font-size="14.00" fill="#000000">TableContractDetailsComponent</text>
</g>
<!-- TableContractDetailsComponent&#45;&gt;AppModule -->
<g id="edge45" class="edge">
<title>TableContractDetailsComponent&#45;&gt;AppModule</title>
<path fill="none" stroke="#000000" d="M3207,-122.2222C3207,-140.8285 3207,-167 3207,-167 3207,-167 5252.1116,-167 5252.1116,-167"/>
<polygon fill="#000000" stroke="#000000" points="5252.1117,-170.5001 5262.1116,-167 5252.1116,-163.5001 5252.1117,-170.5001"/>
</g>
<!-- TableLogsComponent -->
<g id="node45" class="node">
<title>TableLogsComponent</title>
<polygon fill="#ffffb3" stroke="#000000" points="3088.7021,-122 2947.2979,-122 2947.2979,-86 3088.7021,-86 3088.7021,-122"/>
<text text-anchor="middle" x="3018" y="-99.8" font-family="Times,serif" font-size="14.00" fill="#000000">TableLogsComponent</text>
</g>
<!-- TableLogsComponent&#45;&gt;AppModule -->
<g id="edge46" class="edge">
<title>TableLogsComponent&#45;&gt;AppModule</title>
<path fill="none" stroke="#000000" d="M3018,-122.1686C3018,-141.0898 3018,-168 3018,-168 3018,-168 5251.876,-168 5251.876,-168"/>
<polygon fill="#000000" stroke="#000000" points="5251.8761,-171.5001 5261.876,-168 5251.876,-164.5001 5251.8761,-171.5001"/>
</g>
<!-- TableOrderbookComponent -->
<g id="node46" class="node">
<title>TableOrderbookComponent</title>
<polygon fill="#ffffb3" stroke="#000000" points="2928.8473,-122 2755.1527,-122 2755.1527,-86 2928.8473,-86 2928.8473,-122"/>
<text text-anchor="middle" x="2842" y="-99.8" font-family="Times,serif" font-size="14.00" fill="#000000">TableOrderbookComponent</text>
</g>
<!-- TableOrderbookComponent&#45;&gt;AppModule -->
<g id="edge47" class="edge">
<title>TableOrderbookComponent&#45;&gt;AppModule</title>
<path fill="none" stroke="#000000" d="M2842,-122.1061C2842,-141.3391 2842,-169 2842,-169 2842,-169 5252.3004,-169 5252.3004,-169"/>
<polygon fill="#000000" stroke="#000000" points="5252.3004,-172.5001 5262.3004,-169 5252.3004,-165.5001 5252.3004,-172.5001"/>
</g>
<!-- TableOrdersComponent -->
<g id="node47" class="node">
<title>TableOrdersComponent</title>
<polygon fill="#ffffb3" stroke="#000000" points="2736.7921,-122 2585.2079,-122 2585.2079,-86 2736.7921,-86 2736.7921,-122"/>
<text text-anchor="middle" x="2661" y="-99.8" font-family="Times,serif" font-size="14.00" fill="#000000">TableOrdersComponent</text>
</g>
<!-- TableOrdersComponent&#45;&gt;AppModule -->
<g id="edge48" class="edge">
<title>TableOrdersComponent&#45;&gt;AppModule</title>
<path fill="none" stroke="#000000" d="M2661,-122.0348C2661,-141.5762 2661,-170 2661,-170 2661,-170 5252.2184,-170 5252.2184,-170"/>
<polygon fill="#000000" stroke="#000000" points="5252.2184,-173.5001 5262.2184,-170 5252.2183,-166.5001 5252.2184,-173.5001"/>
</g>
<!-- TableSignalsComponent -->
<g id="node48" class="node">
<title>TableSignalsComponent</title>
<polygon fill="#ffffb3" stroke="#000000" points="2567.4284,-122 2412.5716,-122 2412.5716,-86 2567.4284,-86 2567.4284,-122"/>
<text text-anchor="middle" x="2490" y="-99.8" font-family="Times,serif" font-size="14.00" fill="#000000">TableSignalsComponent</text>
</g>
<!-- TableSignalsComponent&#45;&gt;AppModule -->
<g id="edge49" class="edge">
<title>TableSignalsComponent&#45;&gt;AppModule</title>
<path fill="none" stroke="#000000" d="M2490,-122.308C2490,-142.1455 2490,-171 2490,-171 2490,-171 5252.3131,-171 5252.3131,-171"/>
<polygon fill="#000000" stroke="#000000" points="5252.3131,-174.5001 5262.3131,-171 5252.313,-167.5001 5252.3131,-174.5001"/>
</g>
<!-- TableTradesComponent -->
<g id="node49" class="node">
<title>TableTradesComponent</title>
<polygon fill="#ffffb3" stroke="#000000" points="2394.7921,-122 2243.2079,-122 2243.2079,-86 2394.7921,-86 2394.7921,-122"/>
<text text-anchor="middle" x="2319" y="-99.8" font-family="Times,serif" font-size="14.00" fill="#000000">TableTradesComponent</text>
</g>
<!-- TableTradesComponent&#45;&gt;AppModule -->
<g id="edge50" class="edge">
<title>TableTradesComponent&#45;&gt;AppModule</title>
<path fill="none" stroke="#000000" d="M2319,-122.2228C2319,-142.3652 2319,-172 2319,-172 2319,-172 5252.0885,-172 5252.0885,-172"/>
<polygon fill="#000000" stroke="#000000" points="5252.0885,-175.5001 5262.0885,-172 5252.0884,-168.5001 5252.0885,-175.5001"/>
</g>
<!-- TradesViewComponent -->
<g id="node50" class="node">
<title>TradesViewComponent</title>
<polygon fill="#ffffb3" stroke="#000000" points="2224.738,-122 2075.262,-122 2075.262,-86 2224.738,-86 2224.738,-122"/>
<text text-anchor="middle" x="2150" y="-99.8" font-family="Times,serif" font-size="14.00" fill="#000000">TradesViewComponent</text>
</g>
<!-- TradesViewComponent&#45;&gt;AppModule -->
<g id="edge51" class="edge">
<title>TradesViewComponent&#45;&gt;AppModule</title>
<path fill="none" stroke="#000000" d="M2150,-122.0267C2150,-142.7672 2150,-174 2150,-174 2150,-174 5252.0928,-174 5252.0928,-174"/>
<polygon fill="#000000" stroke="#000000" points="5252.0929,-177.5001 5262.0928,-174 5252.0928,-170.5001 5252.0929,-177.5001"/>
</g>
<!-- AppComponent  -->
<g id="node56" class="node">
<title>AppComponent </title>
<polygon fill="#80b1d3" stroke="#000000" points="5358.439,-252 5249.561,-252 5249.561,-216 5358.439,-216 5358.439,-252"/>
<text text-anchor="middle" x="5304" y="-229.8" font-family="Times,serif" font-size="14.00" fill="#000000">AppComponent </text>
</g>
<!-- AppModule&#45;&gt;AppComponent  -->
<g id="edge56" class="edge">
<title>AppModule&#45;&gt;AppComponent </title>
<path fill="none" stroke="#000000" stroke-dasharray="1,5" d="M5304,-187.1061C5304,-187.1061 5304,-205.991 5304,-205.991"/>
<polygon fill="#000000" stroke="#000000" points="5300.5001,-205.9909 5304,-215.991 5307.5001,-205.991 5300.5001,-205.9909"/>
</g>
<!-- ApiModule -->
<g id="node52" class="node">
<title>ApiModule</title>
<polygon fill="#8dd3c7" stroke="#000000" points="2051.0483,-122 2048.0483,-126 2027.0483,-126 2024.0483,-122 1970.9517,-122 1970.9517,-86 2051.0483,-86 2051.0483,-122"/>
<text text-anchor="middle" x="2011" y="-99.8" font-family="Times,serif" font-size="14.00" fill="#000000">ApiModule</text>
</g>
<!-- ApiModule&#45;&gt;AppModule -->
<g id="edge52" class="edge">
<title>ApiModule&#45;&gt;AppModule</title>
<path fill="none" stroke="#000000" d="M2011,-122.2843C2011,-143.3211 2011,-175 2011,-175 2011,-175 5252.0647,-175 5252.0647,-175"/>
<polygon fill="#000000" stroke="#000000" points="5252.0648,-178.5001 5262.0647,-175 5252.0647,-171.5001 5252.0648,-178.5001"/>
</g>
<!-- FgGlobalScopeModule -->
<g id="node53" class="node">
<title>FgGlobalScopeModule</title>
<polygon fill="#8dd3c7" stroke="#000000" points="1952.147,-122 1949.147,-126 1928.147,-126 1925.147,-122 1805.853,-122 1805.853,-86 1952.147,-86 1952.147,-122"/>
<text text-anchor="middle" x="1879" y="-99.8" font-family="Times,serif" font-size="14.00" fill="#000000">FgGlobalScopeModule</text>
</g>
<!-- FgGlobalScopeModule&#45;&gt;AppModule -->
<g id="edge53" class="edge">
<title>FgGlobalScopeModule&#45;&gt;AppModule</title>
<path fill="none" stroke="#000000" d="M1879,-122.1686C1879,-143.498 1879,-176 1879,-176 1879,-176 5252.2373,-176 5252.2373,-176"/>
<polygon fill="#000000" stroke="#000000" points="5252.2373,-179.5001 5262.2373,-176 5252.2372,-172.5001 5252.2373,-179.5001"/>
</g>
<!-- FgGraphqlModule -->
<g id="node54" class="node">
<title>FgGraphqlModule</title>
<polygon fill="#8dd3c7" stroke="#000000" points="1788.205,-122 1785.205,-126 1764.205,-126 1761.205,-122 1667.795,-122 1667.795,-86 1788.205,-86 1788.205,-122"/>
<text text-anchor="middle" x="1728" y="-99.8" font-family="Times,serif" font-size="14.00" fill="#000000">FgGraphqlModule</text>
</g>
<!-- FgGraphqlModule&#45;&gt;AppModule -->
<g id="edge54" class="edge">
<title>FgGraphqlModule&#45;&gt;AppModule</title>
<path fill="none" stroke="#000000" d="M1728,-122.0449C1728,-143.6623 1728,-177 1728,-177 1728,-177 5252.2912,-177 5252.2912,-177"/>
<polygon fill="#000000" stroke="#000000" points="5252.2913,-180.5001 5262.2912,-177 5252.2912,-173.5001 5252.2913,-180.5001"/>
</g>
<!-- FgMaterialModule -->
<g id="node55" class="node">
<title>FgMaterialModule</title>
<polygon fill="#8dd3c7" stroke="#000000" points="1649.7534,-122 1646.7534,-126 1625.7534,-126 1622.7534,-122 1528.2466,-122 1528.2466,-86 1649.7534,-86 1649.7534,-122"/>
<text text-anchor="middle" x="1589" y="-99.8" font-family="Times,serif" font-size="14.00" fill="#000000">FgMaterialModule</text>
</g>
<!-- FgMaterialModule&#45;&gt;AppModule -->
<g id="edge55" class="edge">
<title>FgMaterialModule&#45;&gt;AppModule</title>
<path fill="none" stroke="#000000" d="M1589,-122.2921C1589,-144.2057 1589,-178 1589,-178 1589,-178 5252.2788,-178 5252.2788,-178"/>
<polygon fill="#000000" stroke="#000000" points="5252.2788,-181.5001 5262.2788,-178 5252.2788,-174.5001 5252.2788,-181.5001"/>
</g>
<!-- AsyncUrlApiKeyRespondsValidator -->
<g id="node57" class="node">
<title>AsyncUrlApiKeyRespondsValidator</title>
<ellipse fill="#fdb462" stroke="#000000" cx="1351" cy="-104" rx="153.3331" ry="18"/>
<text text-anchor="middle" x="1351" y="-99.8" font-family="Times,serif" font-size="14.00" fill="#000000">AsyncUrlApiKeyRespondsValidator</text>
</g>
<!-- AsyncUrlApiKeyRespondsValidator&#45;&gt;AppModule -->
<g id="edge57" class="edge">
<title>AsyncUrlApiKeyRespondsValidator&#45;&gt;AppModule</title>
<path fill="none" stroke="#000000" d="M1351,-122.1554C1351,-144.3519 1351,-179 1351,-179 1351,-179 5252.2806,-179 5252.2806,-179"/>
<polygon fill="#000000" stroke="#000000" points="5252.2807,-182.5001 5262.2806,-179 5252.2806,-175.5001 5252.2807,-182.5001"/>
</g>
<!-- AsyncUrlRespondsValidator -->
<g id="node58" class="node">
<title>AsyncUrlRespondsValidator</title>
<ellipse fill="#fdb462" stroke="#000000" cx="1057" cy="-104" rx="122.6929" ry="18"/>
<text text-anchor="middle" x="1057" y="-99.8" font-family="Times,serif" font-size="14.00" fill="#000000">AsyncUrlRespondsValidator</text>
</g>
<!-- AsyncUrlRespondsValidator&#45;&gt;AppModule -->
<g id="edge58" class="edge">
<title>AsyncUrlRespondsValidator&#45;&gt;AppModule</title>
<path fill="none" stroke="#000000" d="M1057,-122.2479C1057,-145.0179 1057,-181 1057,-181 1057,-181 5252.3084,-181 5252.3084,-181"/>
<polygon fill="#000000" stroke="#000000" points="5252.3085,-184.5001 5262.3084,-181 5252.3084,-177.5001 5252.3085,-184.5001"/>
</g>
<!-- FgAppService -->
<g id="node59" class="node">
<title>FgAppService</title>
<ellipse fill="#fdb462" stroke="#000000" cx="850" cy="-104" rx="66.6344" ry="18"/>
<text text-anchor="middle" x="850" y="-99.8" font-family="Times,serif" font-size="14.00" fill="#000000">FgAppService</text>
</g>
<!-- FgAppService&#45;&gt;AppModule -->
<g id="edge59" class="edge">
<title>FgAppService&#45;&gt;AppModule</title>
<path fill="none" stroke="#000000" d="M850,-122.0908C850,-145.1328 850,-182 850,-182 850,-182 5252.0512,-182 5252.0512,-182"/>
<polygon fill="#000000" stroke="#000000" points="5252.0512,-185.5001 5262.0512,-182 5252.0512,-178.5001 5252.0512,-185.5001"/>
</g>
<!-- FgComponentBaseService -->
<g id="node60" class="node">
<title>FgComponentBaseService</title>
<ellipse fill="#fdb462" stroke="#000000" cx="651" cy="-104" rx="114.046" ry="18"/>
<text text-anchor="middle" x="651" y="-99.8" font-family="Times,serif" font-size="14.00" fill="#000000">FgComponentBaseService</text>
</g>
<!-- FgComponentBaseService&#45;&gt;AppModule -->
<g id="edge60" class="edge">
<title>FgComponentBaseService&#45;&gt;AppModule</title>
<path fill="none" stroke="#000000" d="M651,-122.3228C651,-145.6602 651,-183 651,-183 651,-183 5251.9942,-183 5251.9942,-183"/>
<polygon fill="#000000" stroke="#000000" points="5251.9943,-186.5001 5261.9942,-183 5251.9942,-179.5001 5251.9943,-186.5001"/>
</g>
<!-- FgEventService -->
<g id="node61" class="node">
<title>FgEventService</title>
<ellipse fill="#fdb462" stroke="#000000" cx="446" cy="-104" rx="72.9315" ry="18"/>
<text text-anchor="middle" x="446" y="-99.8" font-family="Times,serif" font-size="14.00" fill="#000000">FgEventService</text>
</g>
<!-- FgEventService&#45;&gt;AppModule -->
<g id="edge61" class="edge">
<title>FgEventService&#45;&gt;AppModule</title>
<path fill="none" stroke="#000000" d="M446,-122.1532C446,-145.7566 446,-184 446,-184 446,-184 5252.0023,-184 5252.0023,-184"/>
<polygon fill="#000000" stroke="#000000" points="5252.0023,-187.5001 5262.0023,-184 5252.0023,-180.5001 5252.0023,-187.5001"/>
</g>
<!-- FgKeyboardService -->
<g id="node62" class="node">
<title>FgKeyboardService</title>
<ellipse fill="#fdb462" stroke="#000000" cx="267" cy="-104" rx="88.0249" ry="18"/>
<text text-anchor="middle" x="267" y="-99.8" font-family="Times,serif" font-size="14.00" fill="#000000">FgKeyboardService</text>
</g>
<!-- FgKeyboardService&#45;&gt;AppModule -->
<g id="edge62" class="edge">
<title>FgKeyboardService&#45;&gt;AppModule</title>
<path fill="none" stroke="#000000" d="M267,-122.3802C267,-146.2785 267,-185 267,-185 267,-185 5252.342,-185 5252.342,-185"/>
<polygon fill="#000000" stroke="#000000" points="5252.342,-188.5001 5262.342,-185 5252.3419,-181.5001 5252.342,-188.5001"/>
</g>
<!-- PbDataService -->
<g id="node63" class="node">
<title>PbDataService</title>
<ellipse fill="#fdb462" stroke="#000000" cx="92" cy="-104" rx="68.3343" ry="18"/>
<text text-anchor="middle" x="92" y="-99.8" font-family="Times,serif" font-size="14.00" fill="#000000">PbDataService</text>
</g>
<!-- PbDataService&#45;&gt;AppModule -->
<g id="edge63" class="edge">
<title>PbDataService&#45;&gt;AppModule</title>
<path fill="none" stroke="#000000" d="M92,-122.1985C92,-146.3563 92,-186 92,-186 92,-186 5252.0463,-186 5252.0463,-186"/>
<polygon fill="#000000" stroke="#000000" points="5252.0463,-189.5001 5262.0463,-186 5252.0463,-182.5001 5252.0463,-189.5001"/>
</g>
</g>
</svg>
