<?xml version="1.0" encoding="UTF-8" standalone="no"?>
<!DOCTYPE svg PUBLIC "-//W3C//DTD SVG 1.1//EN"
 "http://www.w3.org/Graphics/SVG/1.1/DTD/svg11.dtd">
<!-- Generated by graphviz version 2.40.1 (20161225.0304)
 -->
<!-- Title: dependencies Pages: 1 -->
<svg width="7027pt" height="284pt"
 viewBox="0.00 0.00 7027.00 284.00" xmlns="http://www.w3.org/2000/svg" xmlns:xlink="http://www.w3.org/1999/xlink">
<g id="graph0" class="graph" transform="scale(1 1) rotate(0) translate(4 280)">
<title>dependencies</title>
<polygon fill="#ffffff" stroke="transparent" points="-4,4 -4,-280 7023,-280 7023,4 -4,4"/>
<text text-anchor="start" x="3488.5091" y="-42.4" font-family="sans-serif" font-weight="bold" font-size="14.00" fill="#000000">Legend</text>
<polygon fill="#ffffb3" stroke="transparent" points="3275.5,-10 3275.5,-30 3295.5,-30 3295.5,-10 3275.5,-10"/>
<text text-anchor="start" x="3299.129" y="-15.4" font-family="sans-serif" font-size="14.00" fill="#000000"> &#160;Declarations</text>
<polygon fill="#8dd3c7" stroke="transparent" points="3388.5,-10 3388.5,-30 3408.5,-30 3408.5,-10 3388.5,-10"/>
<text text-anchor="start" x="3412.2251" y="-15.4" font-family="sans-serif" font-size="14.00" fill="#000000"> &#160;Module</text>
<polygon fill="#80b1d3" stroke="transparent" points="3474.5,-10 3474.5,-30 3494.5,-30 3494.5,-10 3474.5,-10"/>
<text text-anchor="start" x="3498.2812" y="-15.4" font-family="sans-serif" font-size="14.00" fill="#000000"> &#160;Bootstrap</text>
<polygon fill="#fdb462" stroke="transparent" points="3571.5,-10 3571.5,-30 3591.5,-30 3591.5,-10 3571.5,-10"/>
<text text-anchor="start" x="3595.1732" y="-15.4" font-family="sans-serif" font-size="14.00" fill="#000000"> &#160;Providers</text>
<polygon fill="#fb8072" stroke="transparent" points="3667.5,-10 3667.5,-30 3687.5,-30 3687.5,-10 3667.5,-10"/>
<text text-anchor="start" x="3691.2258" y="-15.4" font-family="sans-serif" font-size="14.00" fill="#000000"> &#160;Exports</text>
<g id="clust1" class="cluster">
<title>cluster_AppModule</title>
<polygon fill="none" stroke="#000000" stroke-dasharray="1,5" points="8,-70 8,-268 7011,-268 7011,-70 8,-70"/>
</g>
<g id="clust2" class="cluster">
<title>cluster_AppModule_declarations</title>
<polygon fill="none" stroke="#000000" points="828,-78 828,-130 7003,-130 7003,-78 828,-78"/>
</g>
<g id="clust40" class="cluster">
<title>cluster_AppModule_imports</title>
<polygon fill="none" stroke="#000000" points="584,-78 584,-130 820,-130 820,-78 584,-78"/>
</g>
<g id="clust42" class="cluster">
<title>cluster_AppModule_bootstrap</title>
<polygon fill="none" stroke="#000000" points="3415,-208 3415,-260 3539,-260 3539,-208 3415,-208"/>
</g>
<g id="clust43" class="cluster">
<title>cluster_AppModule_providers</title>
<polygon fill="none" stroke="#000000" points="16,-78 16,-130 576,-130 576,-78 16,-78"/>
</g>
<!-- AppComponent -->
<g id="node1" class="node">
<title>AppComponent</title>
<polygon fill="#ffffb3" stroke="#000000" points="6994.9399,-122 6889.0601,-122 6889.0601,-86 6994.9399,-86 6994.9399,-122"/>
<text text-anchor="middle" x="6942" y="-99.8" font-family="Times,serif" font-size="14.00" fill="#000000">AppComponent</text>
</g>
<!-- AppModule -->
<g id="node38" class="node">
<title>AppModule</title>
<polygon fill="#8dd3c7" stroke="#000000" points="3518.6571,-187 3515.6571,-191 3494.6571,-191 3491.6571,-187 3435.3429,-187 3435.3429,-151 3518.6571,-151 3518.6571,-187"/>
<text text-anchor="middle" x="3477" y="-164.8" font-family="Times,serif" font-size="14.00" fill="#000000">AppModule</text>
</g>
<!-- AppComponent&#45;&gt;AppModule -->
<g id="edge1" class="edge">
<title>AppComponent&#45;&gt;AppModule</title>
<path fill="none" stroke="#000000" d="M6942,-122.1985C6942,-146.3563 6942,-186 6942,-186 6942,-186 3528.9417,-186 3528.9417,-186"/>
<polygon fill="#000000" stroke="#000000" points="3528.9418,-182.5001 3518.9417,-186 3528.9417,-189.5001 3528.9418,-182.5001"/>
</g>
<!-- AsksViewComponent -->
<g id="node2" class="node">
<title>AsksViewComponent</title>
<polygon fill="#ffffb3" stroke="#000000" points="6870.647,-122 6731.353,-122 6731.353,-86 6870.647,-86 6870.647,-122"/>
<text text-anchor="middle" x="6801" y="-99.8" font-family="Times,serif" font-size="14.00" fill="#000000">AsksViewComponent</text>
</g>
<!-- AsksViewComponent&#45;&gt;AppModule -->
<g id="edge2" class="edge">
<title>AsksViewComponent&#45;&gt;AppModule</title>
<path fill="none" stroke="#000000" d="M6801,-122.1532C6801,-145.7566 6801,-184 6801,-184 6801,-184 3528.7263,-184 3528.7263,-184"/>
<polygon fill="#000000" stroke="#000000" points="3528.7263,-180.5001 3518.7263,-184 3528.7263,-187.5001 3528.7263,-180.5001"/>
</g>
<!-- BarActionComponent -->
<g id="node3" class="node">
<title>BarActionComponent</title>
<polygon fill="#ffffb3" stroke="#000000" points="6712.647,-122 6573.353,-122 6573.353,-86 6712.647,-86 6712.647,-122"/>
<text text-anchor="middle" x="6643" y="-99.8" font-family="Times,serif" font-size="14.00" fill="#000000">BarActionComponent</text>
</g>
<!-- BarActionComponent&#45;&gt;AppModule -->
<g id="edge3" class="edge">
<title>BarActionComponent&#45;&gt;AppModule</title>
<path fill="none" stroke="#000000" d="M6643,-122.3228C6643,-145.6602 6643,-183 6643,-183 6643,-183 3528.7727,-183 3528.7727,-183"/>
<polygon fill="#000000" stroke="#000000" points="3528.7728,-179.5001 3518.7727,-183 3528.7727,-186.5001 3528.7728,-179.5001"/>
</g>
<!-- BarStatusComponent -->
<g id="node4" class="node">
<title>BarStatusComponent</title>
<polygon fill="#ffffb3" stroke="#000000" points="6554.7674,-122 6419.2326,-122 6419.2326,-86 6554.7674,-86 6554.7674,-122"/>
<text text-anchor="middle" x="6487" y="-99.8" font-family="Times,serif" font-size="14.00" fill="#000000">BarStatusComponent</text>
</g>
<!-- BarStatusComponent&#45;&gt;AppModule -->
<g id="edge4" class="edge">
<title>BarStatusComponent&#45;&gt;AppModule</title>
<path fill="none" stroke="#000000" d="M6487,-122.2479C6487,-145.0179 6487,-181 6487,-181 6487,-181 3528.6898,-181 3528.6898,-181"/>
<polygon fill="#000000" stroke="#000000" points="3528.6898,-177.5001 3518.6898,-181 3528.6898,-184.5001 3528.6898,-177.5001"/>
</g>
<!-- BidsViewComponent -->
<g id="node5" class="node">
<title>BidsViewComponent</title>
<polygon fill="#ffffb3" stroke="#000000" points="6400.823,-122 6263.177,-122 6263.177,-86 6400.823,-86 6400.823,-122"/>
<text text-anchor="middle" x="6332" y="-99.8" font-family="Times,serif" font-size="14.00" fill="#000000">BidsViewComponent</text>
</g>
<!-- BidsViewComponent&#45;&gt;AppModule -->
<g id="edge5" class="edge">
<title>BidsViewComponent&#45;&gt;AppModule</title>
<path fill="none" stroke="#000000" d="M6332,-122.1554C6332,-144.3519 6332,-179 6332,-179 6332,-179 3528.737,-179 3528.737,-179"/>
<polygon fill="#000000" stroke="#000000" points="3528.7371,-175.5001 3518.737,-179 3528.737,-182.5001 3528.7371,-175.5001"/>
</g>
<!-- CardDashboardComponent -->
<g id="node6" class="node">
<title>CardDashboardComponent</title>
<polygon fill="#ffffb3" stroke="#000000" points="6245.6853,-122 6076.3147,-122 6076.3147,-86 6245.6853,-86 6245.6853,-122"/>
<text text-anchor="middle" x="6161" y="-99.8" font-family="Times,serif" font-size="14.00" fill="#000000">CardDashboardComponent</text>
</g>
<!-- CardDashboardComponent&#45;&gt;AppModule -->
<g id="edge6" class="edge">
<title>CardDashboardComponent&#45;&gt;AppModule</title>
<path fill="none" stroke="#000000" d="M6161,-122.2921C6161,-144.2057 6161,-178 6161,-178 6161,-178 3528.8895,-178 3528.8895,-178"/>
<polygon fill="#000000" stroke="#000000" points="3528.8895,-174.5001 3518.8895,-178 3528.8895,-181.5001 3528.8895,-174.5001"/>
</g>
<!-- CardViewComponent -->
<g id="node7" class="node">
<title>CardViewComponent</title>
<polygon fill="#ffffb3" stroke="#000000" points="6058.3627,-122 5919.6373,-122 5919.6373,-86 6058.3627,-86 6058.3627,-122"/>
<text text-anchor="middle" x="5989" y="-99.8" font-family="Times,serif" font-size="14.00" fill="#000000">CardViewComponent</text>
</g>
<!-- CardViewComponent&#45;&gt;AppModule -->
<g id="edge7" class="edge">
<title>CardViewComponent&#45;&gt;AppModule</title>
<path fill="none" stroke="#000000" d="M5989,-122.1686C5989,-143.498 5989,-176 5989,-176 5989,-176 3528.7639,-176 3528.7639,-176"/>
<polygon fill="#000000" stroke="#000000" points="3528.764,-172.5001 3518.7639,-176 3528.7639,-179.5001 3528.764,-172.5001"/>
</g>
<!-- DashboardComponent -->
<g id="node8" class="node">
<title>DashboardComponent</title>
<polygon fill="#ffffb3" stroke="#000000" points="5901.9734,-122 5760.0266,-122 5760.0266,-86 5901.9734,-86 5901.9734,-122"/>
<text text-anchor="middle" x="5831" y="-99.8" font-family="Times,serif" font-size="14.00" fill="#000000">DashboardComponent</text>
</g>
<!-- DashboardComponent&#45;&gt;AppModule -->
<g id="edge8" class="edge">
<title>DashboardComponent&#45;&gt;AppModule</title>
<path fill="none" stroke="#000000" d="M5831,-122.0267C5831,-142.7672 5831,-174 5831,-174 5831,-174 3528.8571,-174 3528.8571,-174"/>
<polygon fill="#000000" stroke="#000000" points="3528.8572,-170.5001 3518.8571,-174 3528.8571,-177.5001 3528.8572,-170.5001"/>
</g>
<!-- DashboardViewComponent -->
<g id="node9" class="node">
<title>DashboardViewComponent</title>
<polygon fill="#ffffb3" stroke="#000000" points="5742.292,-122 5569.708,-122 5569.708,-86 5742.292,-86 5742.292,-122"/>
<text text-anchor="middle" x="5656" y="-99.8" font-family="Times,serif" font-size="14.00" fill="#000000">DashboardViewComponent</text>
</g>
<!-- DashboardViewComponent&#45;&gt;AppModule -->
<g id="edge9" class="edge">
<title>DashboardViewComponent&#45;&gt;AppModule</title>
<path fill="none" stroke="#000000" d="M5656,-122.1289C5656,-142.5724 5656,-173 5656,-173 5656,-173 3529.0647,-173 3529.0647,-173"/>
<polygon fill="#000000" stroke="#000000" points="3529.0647,-169.5001 3519.0647,-173 3529.0647,-176.5001 3529.0647,-169.5001"/>
</g>
<!-- FgActionsComponent -->
<g id="node10" class="node">
<title>FgActionsComponent</title>
<polygon fill="#ffffb3" stroke="#000000" points="5551.6624,-122 5412.3376,-122 5412.3376,-86 5551.6624,-86 5551.6624,-122"/>
<text text-anchor="middle" x="5482" y="-99.8" font-family="Times,serif" font-size="14.00" fill="#000000">FgActionsComponent</text>
</g>
<!-- FgActionsComponent&#45;&gt;AppModule -->
<g id="edge10" class="edge">
<title>FgActionsComponent&#45;&gt;AppModule</title>
<path fill="none" stroke="#000000" d="M5482,-122.308C5482,-142.1455 5482,-171 5482,-171 5482,-171 3528.8773,-171 3528.8773,-171"/>
<polygon fill="#000000" stroke="#000000" points="3528.8773,-167.5001 3518.8773,-171 3528.8772,-174.5001 3528.8773,-167.5001"/>
</g>
<!-- FooterComponent -->
<g id="node11" class="node">
<title>FooterComponent</title>
<polygon fill="#ffffb3" stroke="#000000" points="5393.8809,-122 5276.1191,-122 5276.1191,-86 5393.8809,-86 5393.8809,-122"/>
<text text-anchor="middle" x="5335" y="-99.8" font-family="Times,serif" font-size="14.00" fill="#000000">FooterComponent</text>
</g>
<!-- FooterComponent&#45;&gt;AppModule -->
<g id="edge11" class="edge">
<title>FooterComponent&#45;&gt;AppModule</title>
<path fill="none" stroke="#000000" d="M5335,-122.1061C5335,-141.3391 5335,-169 5335,-169 5335,-169 3528.8539,-169 3528.8539,-169"/>
<polygon fill="#000000" stroke="#000000" points="3528.8539,-165.5001 3518.8539,-169 3528.8538,-172.5001 3528.8539,-165.5001"/>
</g>
<!-- GraphComponent -->
<g id="node12" class="node">
<title>GraphComponent</title>
<polygon fill="#ffffb3" stroke="#000000" points="5258.3146,-122 5141.6854,-122 5141.6854,-86 5258.3146,-86 5258.3146,-122"/>
<text text-anchor="middle" x="5200" y="-99.8" font-family="Times,serif" font-size="14.00" fill="#000000">GraphComponent</text>
</g>
<!-- GraphComponent&#45;&gt;AppModule -->
<g id="edge12" class="edge">
<title>GraphComponent&#45;&gt;AppModule</title>
<path fill="none" stroke="#000000" d="M5200,-122.1686C5200,-141.0898 5200,-168 5200,-168 5200,-168 3528.7375,-168 3528.7375,-168"/>
<polygon fill="#000000" stroke="#000000" points="3528.7376,-164.5001 3518.7375,-168 3528.7375,-171.5001 3528.7376,-164.5001"/>
</g>
<!-- GraphPortfolioComponent -->
<g id="node13" class="node">
<title>GraphPortfolioComponent</title>
<polygon fill="#ffffb3" stroke="#000000" points="5124.0898,-122 4957.9102,-122 4957.9102,-86 5124.0898,-86 5124.0898,-122"/>
<text text-anchor="middle" x="5041" y="-99.8" font-family="Times,serif" font-size="14.00" fill="#000000">GraphPortfolioComponent</text>
</g>
<!-- GraphPortfolioComponent&#45;&gt;AppModule -->
<g id="edge13" class="edge">
<title>GraphPortfolioComponent&#45;&gt;AppModule</title>
<path fill="none" stroke="#000000" d="M5041,-122.2667C5041,-140.5552 5041,-166 5041,-166 5041,-166 3528.8332,-166 3528.8332,-166"/>
<polygon fill="#000000" stroke="#000000" points="3528.8333,-162.5001 3518.8332,-166 3528.8332,-169.5001 3528.8333,-162.5001"/>
</g>
<!-- GraphProductHistoryComponent -->
<g id="node14" class="node">
<title>GraphProductHistoryComponent</title>
<polygon fill="#ffffb3" stroke="#000000" points="4939.8557,-122 4738.1443,-122 4738.1443,-86 4939.8557,-86 4939.8557,-122"/>
<text text-anchor="middle" x="4839" y="-99.8" font-family="Times,serif" font-size="14.00" fill="#000000">GraphProductHistoryComponent</text>
</g>
<!-- GraphProductHistoryComponent&#45;&gt;AppModule -->
<g id="edge14" class="edge">
<title>GraphProductHistoryComponent&#45;&gt;AppModule</title>
<path fill="none" stroke="#000000" d="M4839,-122.302C4839,-140.2699 4839,-165 4839,-165 4839,-165 3528.8798,-165 3528.8798,-165"/>
<polygon fill="#000000" stroke="#000000" points="3528.8798,-161.5001 3518.8798,-165 3528.8797,-168.5001 3528.8798,-161.5001"/>
</g>
<!-- HeaderComponent -->
<g id="node15" class="node">
<title>HeaderComponent</title>
<polygon fill="#ffffb3" stroke="#000000" points="4719.7437,-122 4598.2563,-122 4598.2563,-86 4719.7437,-86 4719.7437,-122"/>
<text text-anchor="middle" x="4659" y="-99.8" font-family="Times,serif" font-size="14.00" fill="#000000">HeaderComponent</text>
</g>
<!-- HeaderComponent&#45;&gt;AppModule -->
<g id="edge15" class="edge">
<title>HeaderComponent&#45;&gt;AppModule</title>
<path fill="none" stroke="#000000" d="M4659,-122.0225C4659,-139.3734 4659,-163 4659,-163 4659,-163 3528.7208,-163 3528.7208,-163"/>
<polygon fill="#000000" stroke="#000000" points="3528.7209,-159.5001 3518.7208,-163 3528.7208,-166.5001 3528.7209,-159.5001"/>
</g>
<!-- ModalComponent -->
<g id="node16" class="node">
<title>ModalComponent</title>
<polygon fill="#ffffb3" stroke="#000000" points="4579.8823,-122 4462.1177,-122 4462.1177,-86 4579.8823,-86 4579.8823,-122"/>
<text text-anchor="middle" x="4521" y="-99.8" font-family="Times,serif" font-size="14.00" fill="#000000">ModalComponent</text>
</g>
<!-- ModalComponent&#45;&gt;AppModule -->
<g id="edge16" class="edge">
<title>ModalComponent&#45;&gt;AppModule</title>
<path fill="none" stroke="#000000" d="M4521,-122.0352C4521,-138.7344 4521,-161 4521,-161 4521,-161 3528.8941,-161 3528.8941,-161"/>
<polygon fill="#000000" stroke="#000000" points="3528.8941,-157.5001 3518.8941,-161 3528.8941,-164.5001 3528.8941,-157.5001"/>
</g>
<!-- ModalLoginComponent -->
<g id="node17" class="node">
<title>ModalLoginComponent</title>
<polygon fill="#ffffb3" stroke="#000000" points="4443.8258,-122 4292.1742,-122 4292.1742,-86 4443.8258,-86 4443.8258,-122"/>
<text text-anchor="middle" x="4368" y="-99.8" font-family="Times,serif" font-size="14.00" fill="#000000">ModalLoginComponent</text>
</g>
<!-- ModalLoginComponent&#45;&gt;AppModule -->
<g id="edge17" class="edge">
<title>ModalLoginComponent&#45;&gt;AppModule</title>
<path fill="none" stroke="#000000" d="M4368,-122.027C4368,-138.3976 4368,-160 4368,-160 4368,-160 3528.7797,-160 3528.7797,-160"/>
<polygon fill="#000000" stroke="#000000" points="3528.7797,-156.5001 3518.7797,-160 3528.7797,-163.5001 3528.7797,-156.5001"/>
</g>
<!-- ModalLogoutComponent -->
<g id="node18" class="node">
<title>ModalLogoutComponent</title>
<polygon fill="#ffffb3" stroke="#000000" points="4274.3257,-122 4115.6743,-122 4115.6743,-86 4274.3257,-86 4274.3257,-122"/>
<text text-anchor="middle" x="4195" y="-99.8" font-family="Times,serif" font-size="14.00" fill="#000000">ModalLogoutComponent</text>
</g>
<!-- ModalLogoutComponent&#45;&gt;AppModule -->
<g id="edge18" class="edge">
<title>ModalLogoutComponent&#45;&gt;AppModule</title>
<path fill="none" stroke="#000000" d="M4195,-122.2819C4195,-137.9478 4195,-158 4195,-158 4195,-158 3528.7062,-158 3528.7062,-158"/>
<polygon fill="#000000" stroke="#000000" points="3528.7062,-154.5001 3518.7062,-158 3528.7061,-161.5001 3528.7062,-154.5001"/>
</g>
<!-- ModalSettingsComponent -->
<g id="node19" class="node">
<title>ModalSettingsComponent</title>
<polygon fill="#ffffb3" stroke="#000000" points="4097.4958,-122 3934.5042,-122 3934.5042,-86 4097.4958,-86 4097.4958,-122"/>
<text text-anchor="middle" x="4016" y="-99.8" font-family="Times,serif" font-size="14.00" fill="#000000">ModalSettingsComponent</text>
</g>
<!-- ModalSettingsComponent&#45;&gt;AppModule -->
<g id="edge19" class="edge">
<title>ModalSettingsComponent&#45;&gt;AppModule</title>
<path fill="none" stroke="#000000" d="M4016,-122.1871C4016,-137.1824 4016,-156 4016,-156 4016,-156 3528.8459,-156 3528.8459,-156"/>
<polygon fill="#000000" stroke="#000000" points="3528.846,-152.5001 3518.8459,-156 3528.8459,-159.5001 3528.846,-152.5001"/>
</g>
<!-- OrderbookViewComponent -->
<g id="node20" class="node">
<title>OrderbookViewComponent</title>
<polygon fill="#ffffb3" stroke="#000000" points="3916.2934,-122 3743.7066,-122 3743.7066,-86 3916.2934,-86 3916.2934,-122"/>
<text text-anchor="middle" x="3830" y="-99.8" font-family="Times,serif" font-size="14.00" fill="#000000">OrderbookViewComponent</text>
</g>
<!-- OrderbookViewComponent&#45;&gt;AppModule -->
<g id="edge20" class="edge">
<title>OrderbookViewComponent&#45;&gt;AppModule</title>
<path fill="none" stroke="#000000" d="M3830,-122.1243C3830,-136.7832 3830,-155 3830,-155 3830,-155 3528.8799,-155 3528.8799,-155"/>
<polygon fill="#000000" stroke="#000000" points="3528.88,-151.5001 3518.8799,-155 3528.8799,-158.5001 3528.88,-151.5001"/>
</g>
<!-- OrdersViewComponent -->
<g id="node21" class="node">
<title>OrdersViewComponent</title>
<polygon fill="#ffffb3" stroke="#000000" points="3725.738,-122 3576.262,-122 3576.262,-86 3725.738,-86 3725.738,-122"/>
<text text-anchor="middle" x="3651" y="-99.8" font-family="Times,serif" font-size="14.00" fill="#000000">OrdersViewComponent</text>
</g>
<!-- OrdersViewComponent&#45;&gt;AppModule -->
<g id="edge21" class="edge">
<title>OrdersViewComponent&#45;&gt;AppModule</title>
<path fill="none" stroke="#000000" d="M3651,-122.2458C3651,-136.1772 3651,-153 3651,-153 3651,-153 3528.6773,-153 3528.6773,-153"/>
<polygon fill="#000000" stroke="#000000" points="3528.6774,-149.5001 3518.6773,-153 3528.6773,-156.5001 3528.6774,-149.5001"/>
</g>
<!-- PortfolioViewComponent -->
<g id="node22" class="node">
<title>PortfolioViewComponent</title>
<polygon fill="#ffffb3" stroke="#000000" points="3557.927,-122 3396.073,-122 3396.073,-86 3557.927,-86 3557.927,-122"/>
<text text-anchor="middle" x="3477" y="-99.8" font-family="Times,serif" font-size="14.00" fill="#000000">PortfolioViewComponent</text>
</g>
<!-- PortfolioViewComponent&#45;&gt;AppModule -->
<g id="edge22" class="edge">
<title>PortfolioViewComponent&#45;&gt;AppModule</title>
<path fill="none" stroke="#000000" d="M3477,-122.1061C3477,-122.1061 3477,-140.991 3477,-140.991"/>
<polygon fill="#000000" stroke="#000000" points="3473.5001,-140.9909 3477,-150.991 3480.5001,-140.991 3473.5001,-140.9909"/>
</g>
<!-- ProductHistoryViewComponent -->
<g id="node23" class="node">
<title>ProductHistoryViewComponent</title>
<polygon fill="#ffffb3" stroke="#000000" points="3378.6923,-122 3181.3077,-122 3181.3077,-86 3378.6923,-86 3378.6923,-122"/>
<text text-anchor="middle" x="3280" y="-99.8" font-family="Times,serif" font-size="14.00" fill="#000000">ProductHistoryViewComponent</text>
</g>
<!-- ProductHistoryViewComponent&#45;&gt;AppModule -->
<g id="edge23" class="edge">
<title>ProductHistoryViewComponent&#45;&gt;AppModule</title>
<path fill="none" stroke="#000000" d="M3280,-122.2458C3280,-136.1772 3280,-153 3280,-153 3280,-153 3425.2214,-153 3425.2214,-153"/>
<polygon fill="#000000" stroke="#000000" points="3425.2214,-156.5001 3435.2214,-153 3425.2213,-149.5001 3425.2214,-156.5001"/>
</g>
<!-- SignalsViewComponent -->
<g id="node24" class="node">
<title>SignalsViewComponent</title>
<polygon fill="#ffffb3" stroke="#000000" points="3163.3739,-122 3010.6261,-122 3010.6261,-86 3163.3739,-86 3163.3739,-122"/>
<text text-anchor="middle" x="3087" y="-99.8" font-family="Times,serif" font-size="14.00" fill="#000000">SignalsViewComponent</text>
</g>
<!-- SignalsViewComponent&#45;&gt;AppModule -->
<g id="edge24" class="edge">
<title>SignalsViewComponent&#45;&gt;AppModule</title>
<path fill="none" stroke="#000000" d="M3087,-122.1243C3087,-136.7832 3087,-155 3087,-155 3087,-155 3425.2632,-155 3425.2632,-155"/>
<polygon fill="#000000" stroke="#000000" points="3425.2632,-158.5001 3435.2632,-155 3425.2631,-151.5001 3425.2632,-158.5001"/>
</g>
<!-- SwitchDayNightComponent -->
<g id="node25" class="node">
<title>SwitchDayNightComponent</title>
<polygon fill="#ffffb3" stroke="#000000" points="2992.9269,-122 2817.0731,-122 2817.0731,-86 2992.9269,-86 2992.9269,-122"/>
<text text-anchor="middle" x="2905" y="-99.8" font-family="Times,serif" font-size="14.00" fill="#000000">SwitchDayNightComponent</text>
</g>
<!-- SwitchDayNightComponent&#45;&gt;AppModule -->
<g id="edge25" class="edge">
<title>SwitchDayNightComponent&#45;&gt;AppModule</title>
<path fill="none" stroke="#000000" d="M2905,-122.1871C2905,-137.1824 2905,-156 2905,-156 2905,-156 3424.9395,-156 3424.9395,-156"/>
<polygon fill="#000000" stroke="#000000" points="3424.9395,-159.5001 3434.9395,-156 3424.9394,-152.5001 3424.9395,-159.5001"/>
</g>
<!-- TabApiKeyComponent -->
<g id="node26" class="node">
<title>TabApiKeyComponent</title>
<polygon fill="#ffffb3" stroke="#000000" points="2799.9186,-122 2652.0814,-122 2652.0814,-86 2799.9186,-86 2799.9186,-122"/>
<text text-anchor="middle" x="2726" y="-99.8" font-family="Times,serif" font-size="14.00" fill="#000000">TabApiKeyComponent</text>
</g>
<!-- TabApiKeyComponent&#45;&gt;AppModule -->
<g id="edge26" class="edge">
<title>TabApiKeyComponent&#45;&gt;AppModule</title>
<path fill="none" stroke="#000000" d="M2726,-122.2819C2726,-137.9478 2726,-158 2726,-158 2726,-158 3425.2839,-158 3425.2839,-158"/>
<polygon fill="#000000" stroke="#000000" points="3425.2839,-161.5001 3435.2839,-158 3425.2838,-154.5001 3425.2839,-161.5001"/>
</g>
<!-- TabLoggingComponent -->
<g id="node27" class="node">
<title>TabLoggingComponent</title>
<polygon fill="#ffffb3" stroke="#000000" points="2634.0435,-122 2483.9565,-122 2483.9565,-86 2634.0435,-86 2634.0435,-122"/>
<text text-anchor="middle" x="2559" y="-99.8" font-family="Times,serif" font-size="14.00" fill="#000000">TabLoggingComponent</text>
</g>
<!-- TabLoggingComponent&#45;&gt;AppModule -->
<g id="edge27" class="edge">
<title>TabLoggingComponent&#45;&gt;AppModule</title>
<path fill="none" stroke="#000000" d="M2559,-122.027C2559,-138.3976 2559,-160 2559,-160 2559,-160 3425.17,-160 3425.17,-160"/>
<polygon fill="#000000" stroke="#000000" points="3425.17,-163.5001 3435.17,-160 3425.17,-156.5001 3425.17,-163.5001"/>
</g>
<!-- TabProductionComponent -->
<g id="node28" class="node">
<title>TabProductionComponent</title>
<polygon fill="#ffffb3" stroke="#000000" points="2465.0392,-122 2300.9608,-122 2300.9608,-86 2465.0392,-86 2465.0392,-122"/>
<text text-anchor="middle" x="2383" y="-99.8" font-family="Times,serif" font-size="14.00" fill="#000000">TabProductionComponent</text>
</g>
<!-- TabProductionComponent&#45;&gt;AppModule -->
<g id="edge28" class="edge">
<title>TabProductionComponent&#45;&gt;AppModule</title>
<path fill="none" stroke="#000000" d="M2355.5769,-122.0225C2355.5769,-139.3734 2355.5769,-163 2355.5769,-163 2355.5769,-163 3425.0856,-163 3425.0856,-163"/>
<polygon fill="#000000" stroke="#000000" points="3425.0856,-166.5001 3435.0856,-163 3425.0856,-159.5001 3425.0856,-166.5001"/>
</g>
<!-- TabProductionComponent&#45;&gt;AppModule -->
<g id="edge29" class="edge">
<title>TabProductionComponent&#45;&gt;AppModule</title>
<path fill="none" stroke="#000000" d="M2410.4231,-122.0352C2410.4231,-138.7344 2410.4231,-161 2410.4231,-161 2410.4231,-161 3425.1889,-161 3425.1889,-161"/>
<polygon fill="#000000" stroke="#000000" points="3425.189,-164.5001 3435.1889,-161 3425.1889,-157.5001 3425.189,-164.5001"/>
</g>
<!-- TabTestComponent -->
<g id="node29" class="node">
<title>TabTestComponent</title>
<polygon fill="#ffffb3" stroke="#000000" points="2282.7022,-122 2155.2978,-122 2155.2978,-86 2282.7022,-86 2282.7022,-122"/>
<text text-anchor="middle" x="2219" y="-99.8" font-family="Times,serif" font-size="14.00" fill="#000000">TabTestComponent</text>
</g>
<!-- TabTestComponent&#45;&gt;AppModule -->
<g id="edge30" class="edge">
<title>TabTestComponent&#45;&gt;AppModule</title>
<path fill="none" stroke="#000000" d="M2219,-122.302C2219,-140.2699 2219,-165 2219,-165 2219,-165 3425.1441,-165 3425.1441,-165"/>
<polygon fill="#000000" stroke="#000000" points="3425.1441,-168.5001 3435.1441,-165 3425.1441,-161.5001 3425.1441,-168.5001"/>
</g>
<!-- TableAsksComponent -->
<g id="node30" class="node">
<title>TableAsksComponent</title>
<polygon fill="#ffffb3" stroke="#000000" points="2137.7007,-122 1996.2993,-122 1996.2993,-86 2137.7007,-86 2137.7007,-122"/>
<text text-anchor="middle" x="2067" y="-99.8" font-family="Times,serif" font-size="14.00" fill="#000000">TableAsksComponent</text>
</g>
<!-- TableAsksComponent&#45;&gt;AppModule -->
<g id="edge31" class="edge">
<title>TableAsksComponent&#45;&gt;AppModule</title>
<path fill="none" stroke="#000000" d="M2067,-122.2667C2067,-140.5552 2067,-166 2067,-166 2067,-166 3425.184,-166 3425.184,-166"/>
<polygon fill="#000000" stroke="#000000" points="3425.1841,-169.5001 3435.184,-166 3425.184,-162.5001 3425.1841,-169.5001"/>
</g>
<!-- TableBidsComponent -->
<g id="node31" class="node">
<title>TableBidsComponent</title>
<polygon fill="#ffffb3" stroke="#000000" points="1978.3767,-122 1839.6233,-122 1839.6233,-86 1978.3767,-86 1978.3767,-122"/>
<text text-anchor="middle" x="1909" y="-99.8" font-family="Times,serif" font-size="14.00" fill="#000000">TableBidsComponent</text>
</g>
<!-- TableBidsComponent&#45;&gt;AppModule -->
<g id="edge32" class="edge">
<title>TableBidsComponent&#45;&gt;AppModule</title>
<path fill="none" stroke="#000000" d="M1909,-122.1686C1909,-141.0898 1909,-168 1909,-168 1909,-168 3425.0598,-168 3425.0598,-168"/>
<polygon fill="#000000" stroke="#000000" points="3425.0598,-171.5001 3435.0598,-168 3425.0598,-164.5001 3425.0598,-171.5001"/>
</g>
<!-- TableComponent -->
<g id="node32" class="node">
<title>TableComponent</title>
<polygon fill="#ffffb3" stroke="#000000" points="1821.705,-122 1708.295,-122 1708.295,-86 1821.705,-86 1821.705,-122"/>
<text text-anchor="middle" x="1765" y="-99.8" font-family="Times,serif" font-size="14.00" fill="#000000">TableComponent</text>
</g>
<!-- TableComponent&#45;&gt;AppModule -->
<g id="edge33" class="edge">
<title>TableComponent&#45;&gt;AppModule</title>
<path fill="none" stroke="#000000" d="M1765,-122.1061C1765,-141.3391 1765,-169 1765,-169 1765,-169 3425.1058,-169 3425.1058,-169"/>
<polygon fill="#000000" stroke="#000000" points="3425.1058,-172.5001 3435.1058,-169 3425.1058,-165.5001 3425.1058,-172.5001"/>
</g>
<!-- TableOrderbookComponent -->
<g id="node33" class="node">
<title>TableOrderbookComponent</title>
<polygon fill="#ffffb3" stroke="#000000" points="1689.8473,-122 1516.1527,-122 1516.1527,-86 1689.8473,-86 1689.8473,-122"/>
<text text-anchor="middle" x="1603" y="-99.8" font-family="Times,serif" font-size="14.00" fill="#000000">TableOrderbookComponent</text>
</g>
<!-- TableOrderbookComponent&#45;&gt;AppModule -->
<g id="edge34" class="edge">
<title>TableOrderbookComponent&#45;&gt;AppModule</title>
<path fill="none" stroke="#000000" d="M1603,-122.308C1603,-142.1455 1603,-171 1603,-171 1603,-171 3425.2314,-171 3425.2314,-171"/>
<polygon fill="#000000" stroke="#000000" points="3425.2314,-174.5001 3435.2314,-171 3425.2313,-167.5001 3425.2314,-174.5001"/>
</g>
<!-- TableOrdersComponent -->
<g id="node34" class="node">
<title>TableOrdersComponent</title>
<polygon fill="#ffffb3" stroke="#000000" points="1497.7921,-122 1346.2079,-122 1346.2079,-86 1497.7921,-86 1497.7921,-122"/>
<text text-anchor="middle" x="1422" y="-99.8" font-family="Times,serif" font-size="14.00" fill="#000000">TableOrdersComponent</text>
</g>
<!-- TableOrdersComponent&#45;&gt;AppModule -->
<g id="edge35" class="edge">
<title>TableOrdersComponent&#45;&gt;AppModule</title>
<path fill="none" stroke="#000000" d="M1422,-122.1289C1422,-142.5724 1422,-173 1422,-173 1422,-173 3425.0194,-173 3425.0194,-173"/>
<polygon fill="#000000" stroke="#000000" points="3425.0194,-176.5001 3435.0194,-173 3425.0193,-169.5001 3425.0194,-176.5001"/>
</g>
<!-- TableSignalsComponent -->
<g id="node35" class="node">
<title>TableSignalsComponent</title>
<polygon fill="#ffffb3" stroke="#000000" points="1328.4284,-122 1173.5716,-122 1173.5716,-86 1328.4284,-86 1328.4284,-122"/>
<text text-anchor="middle" x="1251" y="-99.8" font-family="Times,serif" font-size="14.00" fill="#000000">TableSignalsComponent</text>
</g>
<!-- TableSignalsComponent&#45;&gt;AppModule -->
<g id="edge36" class="edge">
<title>TableSignalsComponent&#45;&gt;AppModule</title>
<path fill="none" stroke="#000000" d="M1251,-122.0267C1251,-142.7672 1251,-174 1251,-174 1251,-174 3425.0101,-174 3425.0101,-174"/>
<polygon fill="#000000" stroke="#000000" points="3425.0102,-177.5001 3435.0101,-174 3425.0101,-170.5001 3425.0102,-177.5001"/>
</g>
<!-- TableTradesComponent -->
<g id="node36" class="node">
<title>TableTradesComponent</title>
<polygon fill="#ffffb3" stroke="#000000" points="1155.7921,-122 1004.2079,-122 1004.2079,-86 1155.7921,-86 1155.7921,-122"/>
<text text-anchor="middle" x="1080" y="-99.8" font-family="Times,serif" font-size="14.00" fill="#000000">TableTradesComponent</text>
</g>
<!-- TableTradesComponent&#45;&gt;AppModule -->
<g id="edge37" class="edge">
<title>TableTradesComponent&#45;&gt;AppModule</title>
<path fill="none" stroke="#000000" d="M1080,-122.1686C1080,-143.498 1080,-176 1080,-176 1080,-176 3425.1423,-176 3425.1423,-176"/>
<polygon fill="#000000" stroke="#000000" points="3425.1424,-179.5001 3435.1423,-176 3425.1423,-172.5001 3425.1424,-179.5001"/>
</g>
<!-- TradesViewComponent -->
<g id="node37" class="node">
<title>TradesViewComponent</title>
<polygon fill="#ffffb3" stroke="#000000" points="985.738,-122 836.262,-122 836.262,-86 985.738,-86 985.738,-122"/>
<text text-anchor="middle" x="911" y="-99.8" font-family="Times,serif" font-size="14.00" fill="#000000">TradesViewComponent</text>
</g>
<!-- TradesViewComponent&#45;&gt;AppModule -->
<g id="edge38" class="edge">
<title>TradesViewComponent&#45;&gt;AppModule</title>
<path fill="none" stroke="#000000" d="M911,-122.2921C911,-144.2057 911,-178 911,-178 911,-178 3425.1306,-178 3425.1306,-178"/>
<polygon fill="#000000" stroke="#000000" points="3425.1306,-181.5001 3435.1306,-178 3425.1306,-174.5001 3425.1306,-181.5001"/>
</g>
<!-- AppComponent  -->
<g id="node41" class="node">
<title>AppComponent </title>
<polygon fill="#80b1d3" stroke="#000000" points="3531.439,-252 3422.561,-252 3422.561,-216 3531.439,-216 3531.439,-252"/>
<text text-anchor="middle" x="3477" y="-229.8" font-family="Times,serif" font-size="14.00" fill="#000000">AppComponent </text>
</g>
<!-- AppModule&#45;&gt;AppComponent  -->
<g id="edge41" class="edge">
<title>AppModule&#45;&gt;AppComponent </title>
<path fill="none" stroke="#000000" stroke-dasharray="1,5" d="M3477,-187.1061C3477,-187.1061 3477,-205.991 3477,-205.991"/>
<polygon fill="#000000" stroke="#000000" points="3473.5001,-205.9909 3477,-215.991 3480.5001,-205.991 3473.5001,-205.9909"/>
</g>
<!-- ApiModule -->
<g id="node39" class="node">
<title>ApiModule</title>
<polygon fill="#8dd3c7" stroke="#000000" points="812.0483,-122 809.0483,-126 788.0483,-126 785.0483,-122 731.9517,-122 731.9517,-86 812.0483,-86 812.0483,-122"/>
<text text-anchor="middle" x="772" y="-99.8" font-family="Times,serif" font-size="14.00" fill="#000000">ApiModule</text>
</g>
<!-- ApiModule&#45;&gt;AppModule -->
<g id="edge39" class="edge">
<title>ApiModule&#45;&gt;AppModule</title>
<path fill="none" stroke="#000000" d="M772,-122.1554C772,-144.3519 772,-179 772,-179 772,-179 3425.324,-179 3425.324,-179"/>
<polygon fill="#000000" stroke="#000000" points="3425.324,-182.5001 3435.324,-179 3425.3239,-175.5001 3425.324,-182.5001"/>
</g>
<!-- FgMaterialModule -->
<g id="node40" class="node">
<title>FgMaterialModule</title>
<polygon fill="#8dd3c7" stroke="#000000" points="713.7534,-122 710.7534,-126 689.7534,-126 686.7534,-122 592.2466,-122 592.2466,-86 713.7534,-86 713.7534,-122"/>
<text text-anchor="middle" x="653" y="-99.8" font-family="Times,serif" font-size="14.00" fill="#000000">FgMaterialModule</text>
</g>
<!-- FgMaterialModule&#45;&gt;AppModule -->
<g id="edge40" class="edge">
<title>FgMaterialModule&#45;&gt;AppModule</title>
<path fill="none" stroke="#000000" d="M653,-122.2479C653,-145.0179 653,-181 653,-181 653,-181 3425.1649,-181 3425.1649,-181"/>
<polygon fill="#000000" stroke="#000000" points="3425.165,-184.5001 3435.1649,-181 3425.1649,-177.5001 3425.165,-184.5001"/>
</g>
<!-- FgAppService -->
<g id="node42" class="node">
<title>FgAppService</title>
<ellipse fill="#fdb462" stroke="#000000" cx="501" cy="-104" rx="66.6344" ry="18"/>
<text text-anchor="middle" x="501" y="-99.8" font-family="Times,serif" font-size="14.00" fill="#000000">FgAppService</text>
</g>
<!-- FgAppService&#45;&gt;AppModule -->
<g id="edge42" class="edge">
<title>FgAppService&#45;&gt;AppModule</title>
<path fill="none" stroke="#000000" d="M501,-122.3228C501,-145.6602 501,-183 501,-183 501,-183 3425.2148,-183 3425.2148,-183"/>
<polygon fill="#000000" stroke="#000000" points="3425.2149,-186.5001 3435.2148,-183 3425.2148,-179.5001 3425.2149,-186.5001"/>
</g>
<!-- FgComponentBaseService -->
<g id="node43" class="node">
<title>FgComponentBaseService</title>
<ellipse fill="#fdb462" stroke="#000000" cx="302" cy="-104" rx="114.046" ry="18"/>
<text text-anchor="middle" x="302" y="-99.8" font-family="Times,serif" font-size="14.00" fill="#000000">FgComponentBaseService</text>
</g>
<!-- FgComponentBaseService&#45;&gt;AppModule -->
<g id="edge43" class="edge">
<title>FgComponentBaseService&#45;&gt;AppModule</title>
<path fill="none" stroke="#000000" d="M302,-122.1532C302,-145.7566 302,-184 302,-184 302,-184 3425.1085,-184 3425.1085,-184"/>
<polygon fill="#000000" stroke="#000000" points="3425.1086,-187.5001 3435.1085,-184 3425.1085,-180.5001 3425.1086,-187.5001"/>
</g>
<!-- FgEventService -->
<g id="node44" class="node">
<title>FgEventService</title>
<ellipse fill="#fdb462" stroke="#000000" cx="97" cy="-104" rx="72.9315" ry="18"/>
<text text-anchor="middle" x="97" y="-99.8" font-family="Times,serif" font-size="14.00" fill="#000000">FgEventService</text>
</g>
<!-- FgEventService&#45;&gt;AppModule -->
<g id="edge44" class="edge">
<title>FgEventService&#45;&gt;AppModule</title>
<path fill="none" stroke="#000000" d="M97,-122.1985C97,-146.3563 97,-186 97,-186 97,-186 3425.1805,-186 3425.1805,-186"/>
<polygon fill="#000000" stroke="#000000" points="3425.1805,-189.5001 3435.1805,-186 3425.1804,-182.5001 3425.1805,-189.5001"/>
</g>
</g>
</svg>
