<?xml version="1.0" encoding="UTF-8" standalone="no"?>
<!DOCTYPE svg PUBLIC "-//W3C//DTD SVG 1.1//EN"
 "http://www.w3.org/Graphics/SVG/1.1/DTD/svg11.dtd">
<!-- Generated by graphviz version 2.40.1 (20161225.0304)
 -->
<!-- Title: dependencies Pages: 1 -->
<svg width="7627pt" height="284pt"
 viewBox="0.00 0.00 7627.00 284.00" xmlns="http://www.w3.org/2000/svg" xmlns:xlink="http://www.w3.org/1999/xlink">
<g id="graph0" class="graph" transform="scale(1 1) rotate(0) translate(4 280)">
<title>dependencies</title>
<polygon fill="#ffffff" stroke="transparent" points="-4,4 -4,-280 7623,-280 7623,4 -4,4"/>
<text text-anchor="start" x="3788.5091" y="-42.4" font-family="sans-serif" font-weight="bold" font-size="14.00" fill="#000000">Legend</text>
<polygon fill="#ffffb3" stroke="transparent" points="3575.5,-10 3575.5,-30 3595.5,-30 3595.5,-10 3575.5,-10"/>
<text text-anchor="start" x="3599.129" y="-15.4" font-family="sans-serif" font-size="14.00" fill="#000000"> &#160;Declarations</text>
<polygon fill="#8dd3c7" stroke="transparent" points="3688.5,-10 3688.5,-30 3708.5,-30 3708.5,-10 3688.5,-10"/>
<text text-anchor="start" x="3712.2251" y="-15.4" font-family="sans-serif" font-size="14.00" fill="#000000"> &#160;Module</text>
<polygon fill="#80b1d3" stroke="transparent" points="3774.5,-10 3774.5,-30 3794.5,-30 3794.5,-10 3774.5,-10"/>
<text text-anchor="start" x="3798.2812" y="-15.4" font-family="sans-serif" font-size="14.00" fill="#000000"> &#160;Bootstrap</text>
<polygon fill="#fdb462" stroke="transparent" points="3871.5,-10 3871.5,-30 3891.5,-30 3891.5,-10 3871.5,-10"/>
<text text-anchor="start" x="3895.1732" y="-15.4" font-family="sans-serif" font-size="14.00" fill="#000000"> &#160;Providers</text>
<polygon fill="#fb8072" stroke="transparent" points="3967.5,-10 3967.5,-30 3987.5,-30 3987.5,-10 3967.5,-10"/>
<text text-anchor="start" x="3991.2258" y="-15.4" font-family="sans-serif" font-size="14.00" fill="#000000"> &#160;Exports</text>
<g id="clust1" class="cluster">
<title>cluster_AppModule</title>
<polygon fill="none" stroke="#000000" stroke-dasharray="1,5" points="8,-70 8,-268 7611,-268 7611,-70 8,-70"/>
</g>
<g id="clust2" class="cluster">
<title>cluster_AppModule_declarations</title>
<polygon fill="none" stroke="#000000" points="1147,-78 1147,-130 7603,-130 7603,-78 1147,-78"/>
</g>
<g id="clust42" class="cluster">
<title>cluster_AppModule_imports</title>
<polygon fill="none" stroke="#000000" points="738,-78 738,-130 1139,-130 1139,-78 738,-78"/>
</g>
<g id="clust44" class="cluster">
<title>cluster_AppModule_bootstrap</title>
<polygon fill="none" stroke="#000000" points="3698,-208 3698,-260 3822,-260 3822,-208 3698,-208"/>
</g>
<g id="clust45" class="cluster">
<title>cluster_AppModule_providers</title>
<polygon fill="none" stroke="#000000" points="16,-78 16,-130 730,-130 730,-78 16,-78"/>
</g>
<!-- AppComponent -->
<g id="node1" class="node">
<title>AppComponent</title>
<polygon fill="#ffffb3" stroke="#000000" points="7594.9399,-122 7489.0601,-122 7489.0601,-86 7594.9399,-86 7594.9399,-122"/>
<text text-anchor="middle" x="7542" y="-99.8" font-family="Times,serif" font-size="14.00" fill="#000000">AppComponent</text>
</g>
<!-- AppModule -->
<g id="node40" class="node">
<title>AppModule</title>
<polygon fill="#8dd3c7" stroke="#000000" points="3801.6571,-187 3798.6571,-191 3777.6571,-191 3774.6571,-187 3718.3429,-187 3718.3429,-151 3801.6571,-151 3801.6571,-187"/>
<text text-anchor="middle" x="3760" y="-164.8" font-family="Times,serif" font-size="14.00" fill="#000000">AppModule</text>
</g>
<!-- AppComponent&#45;&gt;AppModule -->
<g id="edge1" class="edge">
<title>AppComponent&#45;&gt;AppModule</title>
<path fill="none" stroke="#000000" d="M7542,-122.1985C7542,-146.3563 7542,-186 7542,-186 7542,-186 3811.8268,-186 3811.8268,-186"/>
<polygon fill="#000000" stroke="#000000" points="3811.8268,-182.5001 3801.8268,-186 3811.8267,-189.5001 3811.8268,-182.5001"/>
</g>
<!-- AsksViewComponent -->
<g id="node2" class="node">
<title>AsksViewComponent</title>
<polygon fill="#ffffb3" stroke="#000000" points="7470.647,-122 7331.353,-122 7331.353,-86 7470.647,-86 7470.647,-122"/>
<text text-anchor="middle" x="7401" y="-99.8" font-family="Times,serif" font-size="14.00" fill="#000000">AsksViewComponent</text>
</g>
<!-- AsksViewComponent&#45;&gt;AppModule -->
<g id="edge2" class="edge">
<title>AsksViewComponent&#45;&gt;AppModule</title>
<path fill="none" stroke="#000000" d="M7401,-122.1532C7401,-145.7566 7401,-184 7401,-184 7401,-184 3811.8328,-184 3811.8328,-184"/>
<polygon fill="#000000" stroke="#000000" points="3811.8328,-180.5001 3801.8328,-184 3811.8328,-187.5001 3811.8328,-180.5001"/>
</g>
<!-- BarActionComponent -->
<g id="node3" class="node">
<title>BarActionComponent</title>
<polygon fill="#ffffb3" stroke="#000000" points="7312.647,-122 7173.353,-122 7173.353,-86 7312.647,-86 7312.647,-122"/>
<text text-anchor="middle" x="7243" y="-99.8" font-family="Times,serif" font-size="14.00" fill="#000000">BarActionComponent</text>
</g>
<!-- BarActionComponent&#45;&gt;AppModule -->
<g id="edge3" class="edge">
<title>BarActionComponent&#45;&gt;AppModule</title>
<path fill="none" stroke="#000000" d="M7243,-122.3228C7243,-145.6602 7243,-183 7243,-183 7243,-183 3811.8503,-183 3811.8503,-183"/>
<polygon fill="#000000" stroke="#000000" points="3811.8504,-179.5001 3801.8503,-183 3811.8503,-186.5001 3811.8504,-179.5001"/>
</g>
<!-- BarStateComponent -->
<g id="node4" class="node">
<title>BarStateComponent</title>
<polygon fill="#ffffb3" stroke="#000000" points="7154.538,-122 7025.462,-122 7025.462,-86 7154.538,-86 7154.538,-122"/>
<text text-anchor="middle" x="7090" y="-99.8" font-family="Times,serif" font-size="14.00" fill="#000000">BarStateComponent</text>
</g>
<!-- BarStateComponent&#45;&gt;AppModule -->
<g id="edge4" class="edge">
<title>BarStateComponent&#45;&gt;AppModule</title>
<path fill="none" stroke="#000000" d="M7090,-122.2479C7090,-145.0179 7090,-181 7090,-181 7090,-181 3811.8016,-181 3811.8016,-181"/>
<polygon fill="#000000" stroke="#000000" points="3811.8016,-177.5001 3801.8016,-181 3811.8016,-184.5001 3811.8016,-177.5001"/>
</g>
<!-- BidsViewComponent -->
<g id="node5" class="node">
<title>BidsViewComponent</title>
<polygon fill="#ffffb3" stroke="#000000" points="7007.823,-122 6870.177,-122 6870.177,-86 7007.823,-86 7007.823,-122"/>
<text text-anchor="middle" x="6939" y="-99.8" font-family="Times,serif" font-size="14.00" fill="#000000">BidsViewComponent</text>
</g>
<!-- BidsViewComponent&#45;&gt;AppModule -->
<g id="edge5" class="edge">
<title>BidsViewComponent&#45;&gt;AppModule</title>
<path fill="none" stroke="#000000" d="M6939,-122.0109C6939,-144.4852 6939,-180 6939,-180 6939,-180 3811.9442,-180 3811.9442,-180"/>
<polygon fill="#000000" stroke="#000000" points="3811.9443,-176.5001 3801.9442,-180 3811.9442,-183.5001 3811.9443,-176.5001"/>
</g>
<!-- DashboardComponent -->
<g id="node6" class="node">
<title>DashboardComponent</title>
<polygon fill="#ffffb3" stroke="#000000" points="6851.9734,-122 6710.0266,-122 6710.0266,-86 6851.9734,-86 6851.9734,-122"/>
<text text-anchor="middle" x="6781" y="-99.8" font-family="Times,serif" font-size="14.00" fill="#000000">DashboardComponent</text>
</g>
<!-- DashboardComponent&#45;&gt;AppModule -->
<g id="edge6" class="edge">
<title>DashboardComponent&#45;&gt;AppModule</title>
<path fill="none" stroke="#000000" d="M6781,-122.2921C6781,-144.2057 6781,-178 6781,-178 6781,-178 3811.8422,-178 3811.8422,-178"/>
<polygon fill="#000000" stroke="#000000" points="3811.8422,-174.5001 3801.8422,-178 3811.8421,-181.5001 3811.8422,-174.5001"/>
</g>
<!-- DashboardViewComponent -->
<g id="node7" class="node">
<title>DashboardViewComponent</title>
<polygon fill="#ffffb3" stroke="#000000" points="6692.292,-122 6519.708,-122 6519.708,-86 6692.292,-86 6692.292,-122"/>
<text text-anchor="middle" x="6606" y="-99.8" font-family="Times,serif" font-size="14.00" fill="#000000">DashboardViewComponent</text>
</g>
<!-- DashboardViewComponent&#45;&gt;AppModule -->
<g id="edge7" class="edge">
<title>DashboardViewComponent&#45;&gt;AppModule</title>
<path fill="none" stroke="#000000" d="M6606,-122.0449C6606,-143.6623 6606,-177 6606,-177 6606,-177 3811.8828,-177 3811.8828,-177"/>
<polygon fill="#000000" stroke="#000000" points="3811.8828,-173.5001 3801.8828,-177 3811.8828,-180.5001 3811.8828,-173.5001"/>
</g>
<!-- FgActionsComponent -->
<g id="node8" class="node">
<title>FgActionsComponent</title>
<polygon fill="#ffffb3" stroke="#000000" points="6501.6624,-122 6362.3376,-122 6362.3376,-86 6501.6624,-86 6501.6624,-122"/>
<text text-anchor="middle" x="6432" y="-99.8" font-family="Times,serif" font-size="14.00" fill="#000000">FgActionsComponent</text>
</g>
<!-- FgActionsComponent&#45;&gt;AppModule -->
<g id="edge8" class="edge">
<title>FgActionsComponent&#45;&gt;AppModule</title>
<path fill="none" stroke="#000000" d="M6432,-122.2843C6432,-143.3211 6432,-175 6432,-175 6432,-175 3811.7022,-175 3811.7022,-175"/>
<polygon fill="#000000" stroke="#000000" points="3811.7022,-171.5001 3801.7022,-175 3811.7022,-178.5001 3811.7022,-171.5001"/>
</g>
<!-- FooterComponent -->
<g id="node9" class="node">
<title>FooterComponent</title>
<polygon fill="#ffffb3" stroke="#000000" points="6343.8809,-122 6226.1191,-122 6226.1191,-86 6343.8809,-86 6343.8809,-122"/>
<text text-anchor="middle" x="6285" y="-99.8" font-family="Times,serif" font-size="14.00" fill="#000000">FooterComponent</text>
</g>
<!-- FooterComponent&#45;&gt;AppModule -->
<g id="edge9" class="edge">
<title>FooterComponent&#45;&gt;AppModule</title>
<path fill="none" stroke="#000000" d="M6285,-122.0267C6285,-142.7672 6285,-174 6285,-174 6285,-174 3811.7194,-174 3811.7194,-174"/>
<polygon fill="#000000" stroke="#000000" points="3811.7195,-170.5001 3801.7194,-174 3811.7194,-177.5001 3811.7195,-170.5001"/>
</g>
<!-- GraphComponent -->
<g id="node10" class="node">
<title>GraphComponent</title>
<polygon fill="#ffffb3" stroke="#000000" points="6208.3146,-122 6091.6854,-122 6091.6854,-86 6208.3146,-86 6208.3146,-122"/>
<text text-anchor="middle" x="6150" y="-99.8" font-family="Times,serif" font-size="14.00" fill="#000000">GraphComponent</text>
</g>
<!-- GraphComponent&#45;&gt;AppModule -->
<g id="edge10" class="edge">
<title>GraphComponent&#45;&gt;AppModule</title>
<path fill="none" stroke="#000000" d="M6150,-122.2228C6150,-142.3652 6150,-172 6150,-172 6150,-172 3811.7354,-172 3811.7354,-172"/>
<polygon fill="#000000" stroke="#000000" points="3811.7355,-168.5001 3801.7354,-172 3811.7354,-175.5001 3811.7355,-168.5001"/>
</g>
<!-- GraphPortfolioComponent -->
<g id="node11" class="node">
<title>GraphPortfolioComponent</title>
<polygon fill="#ffffb3" stroke="#000000" points="6074.0898,-122 5907.9102,-122 5907.9102,-86 6074.0898,-86 6074.0898,-122"/>
<text text-anchor="middle" x="5991" y="-99.8" font-family="Times,serif" font-size="14.00" fill="#000000">GraphPortfolioComponent</text>
</g>
<!-- GraphPortfolioComponent&#45;&gt;AppModule -->
<g id="edge11" class="edge">
<title>GraphPortfolioComponent&#45;&gt;AppModule</title>
<path fill="none" stroke="#000000" d="M5991,-122.308C5991,-142.1455 5991,-171 5991,-171 5991,-171 3812.0842,-171 3812.0842,-171"/>
<polygon fill="#000000" stroke="#000000" points="3812.0842,-167.5001 3802.0842,-171 3812.0841,-174.5001 3812.0842,-167.5001"/>
</g>
<!-- GraphProductHistoryComponent -->
<g id="node12" class="node">
<title>GraphProductHistoryComponent</title>
<polygon fill="#ffffb3" stroke="#000000" points="5889.8557,-122 5688.1443,-122 5688.1443,-86 5889.8557,-86 5889.8557,-122"/>
<text text-anchor="middle" x="5789" y="-99.8" font-family="Times,serif" font-size="14.00" fill="#000000">GraphProductHistoryComponent</text>
</g>
<!-- GraphProductHistoryComponent&#45;&gt;AppModule -->
<g id="edge12" class="edge">
<title>GraphProductHistoryComponent&#45;&gt;AppModule</title>
<path fill="none" stroke="#000000" d="M5789,-122.1061C5789,-141.3391 5789,-169 5789,-169 5789,-169 3811.9128,-169 3811.9128,-169"/>
<polygon fill="#000000" stroke="#000000" points="3811.9128,-165.5001 3801.9128,-169 3811.9128,-172.5001 3811.9128,-165.5001"/>
</g>
<!-- HeaderComponent -->
<g id="node13" class="node">
<title>HeaderComponent</title>
<polygon fill="#ffffb3" stroke="#000000" points="5669.7437,-122 5548.2563,-122 5548.2563,-86 5669.7437,-86 5669.7437,-122"/>
<text text-anchor="middle" x="5609" y="-99.8" font-family="Times,serif" font-size="14.00" fill="#000000">HeaderComponent</text>
</g>
<!-- HeaderComponent&#45;&gt;AppModule -->
<g id="edge13" class="edge">
<title>HeaderComponent&#45;&gt;AppModule</title>
<path fill="none" stroke="#000000" d="M5609,-122.1686C5609,-141.0898 5609,-168 5609,-168 5609,-168 3812.093,-168 3812.093,-168"/>
<polygon fill="#000000" stroke="#000000" points="3812.093,-164.5001 3802.093,-168 3812.093,-171.5001 3812.093,-164.5001"/>
</g>
<!-- ModalAddOrderComponent -->
<g id="node14" class="node">
<title>ModalAddOrderComponent</title>
<polygon fill="#ffffb3" stroke="#000000" points="5530.1316,-122 5355.8684,-122 5355.8684,-86 5530.1316,-86 5530.1316,-122"/>
<text text-anchor="middle" x="5443" y="-99.8" font-family="Times,serif" font-size="14.00" fill="#000000">ModalAddOrderComponent</text>
</g>
<!-- ModalAddOrderComponent&#45;&gt;AppModule -->
<g id="edge14" class="edge">
<title>ModalAddOrderComponent&#45;&gt;AppModule</title>
<path fill="none" stroke="#000000" d="M5443,-122.2667C5443,-140.5552 5443,-166 5443,-166 5443,-166 3812.0224,-166 3812.0224,-166"/>
<polygon fill="#000000" stroke="#000000" points="3812.0224,-162.5001 3802.0224,-166 3812.0223,-169.5001 3812.0224,-162.5001"/>
</g>
<!-- ModalComponent -->
<g id="node15" class="node">
<title>ModalComponent</title>
<polygon fill="#ffffb3" stroke="#000000" points="5337.8823,-122 5220.1177,-122 5220.1177,-86 5337.8823,-86 5337.8823,-122"/>
<text text-anchor="middle" x="5279" y="-99.8" font-family="Times,serif" font-size="14.00" fill="#000000">ModalComponent</text>
</g>
<!-- ModalComponent&#45;&gt;AppModule -->
<g id="edge15" class="edge">
<title>ModalComponent&#45;&gt;AppModule</title>
<path fill="none" stroke="#000000" d="M5279,-122.302C5279,-140.2699 5279,-165 5279,-165 5279,-165 3811.8139,-165 3811.8139,-165"/>
<polygon fill="#000000" stroke="#000000" points="3811.8139,-161.5001 3801.8139,-165 3811.8139,-168.5001 3811.8139,-161.5001"/>
</g>
<!-- ModalHelpComponent -->
<g id="node16" class="node">
<title>ModalHelpComponent</title>
<polygon fill="#ffffb3" stroke="#000000" points="5202.594,-122 5057.406,-122 5057.406,-86 5202.594,-86 5202.594,-122"/>
<text text-anchor="middle" x="5130" y="-99.8" font-family="Times,serif" font-size="14.00" fill="#000000">ModalHelpComponent</text>
</g>
<!-- ModalHelpComponent&#45;&gt;AppModule -->
<g id="edge16" class="edge">
<title>ModalHelpComponent&#45;&gt;AppModule</title>
<path fill="none" stroke="#000000" d="M5130,-122.0225C5130,-139.3734 5130,-163 5130,-163 5130,-163 3811.7494,-163 3811.7494,-163"/>
<polygon fill="#000000" stroke="#000000" points="3811.7495,-159.5001 3801.7494,-163 3811.7494,-166.5001 3811.7495,-159.5001"/>
</g>
<!-- ModalMarketComponent -->
<g id="node17" class="node">
<title>ModalMarketComponent</title>
<polygon fill="#ffffb3" stroke="#000000" points="5039.3075,-122 4880.6925,-122 4880.6925,-86 5039.3075,-86 5039.3075,-122"/>
<text text-anchor="middle" x="4960" y="-99.8" font-family="Times,serif" font-size="14.00" fill="#000000">ModalMarketComponent</text>
</g>
<!-- ModalMarketComponent&#45;&gt;AppModule -->
<g id="edge17" class="edge">
<title>ModalMarketComponent&#45;&gt;AppModule</title>
<path fill="none" stroke="#000000" d="M4960,-122.0336C4960,-139.0597 4960,-162 4960,-162 4960,-162 3812.005,-162 3812.005,-162"/>
<polygon fill="#000000" stroke="#000000" points="3812.005,-158.5001 3802.005,-162 3812.005,-165.5001 3812.005,-158.5001"/>
</g>
<!-- ModalSettingsComponent -->
<g id="node18" class="node">
<title>ModalSettingsComponent</title>
<polygon fill="#ffffb3" stroke="#000000" points="4862.4958,-122 4699.5042,-122 4699.5042,-86 4862.4958,-86 4862.4958,-122"/>
<text text-anchor="middle" x="4781" y="-99.8" font-family="Times,serif" font-size="14.00" fill="#000000">ModalSettingsComponent</text>
</g>
<!-- ModalSettingsComponent&#45;&gt;AppModule -->
<g id="edge18" class="edge">
<title>ModalSettingsComponent&#45;&gt;AppModule</title>
<path fill="none" stroke="#000000" d="M4781,-122.027C4781,-138.3976 4781,-160 4781,-160 4781,-160 3811.9279,-160 3811.9279,-160"/>
<polygon fill="#000000" stroke="#000000" points="3811.9279,-156.5001 3801.9279,-160 3811.9278,-163.5001 3811.9279,-156.5001"/>
</g>
<!-- OrderbookViewComponent -->
<g id="node19" class="node">
<title>OrderbookViewComponent</title>
<polygon fill="#ffffb3" stroke="#000000" points="4681.2934,-122 4508.7066,-122 4508.7066,-86 4681.2934,-86 4681.2934,-122"/>
<text text-anchor="middle" x="4595" y="-99.8" font-family="Times,serif" font-size="14.00" fill="#000000">OrderbookViewComponent</text>
</g>
<!-- OrderbookViewComponent&#45;&gt;AppModule -->
<g id="edge19" class="edge">
<title>OrderbookViewComponent&#45;&gt;AppModule</title>
<path fill="none" stroke="#000000" d="M4595,-122.0091C4595,-138.0494 4595,-159 4595,-159 4595,-159 3811.6935,-159 3811.6935,-159"/>
<polygon fill="#000000" stroke="#000000" points="3811.6935,-155.5001 3801.6935,-159 3811.6934,-162.5001 3811.6935,-155.5001"/>
</g>
<!-- OrdersViewComponent -->
<g id="node20" class="node">
<title>OrdersViewComponent</title>
<polygon fill="#ffffb3" stroke="#000000" points="4490.738,-122 4341.262,-122 4341.262,-86 4490.738,-86 4490.738,-122"/>
<text text-anchor="middle" x="4416" y="-99.8" font-family="Times,serif" font-size="14.00" fill="#000000">OrdersViewComponent</text>
</g>
<!-- OrdersViewComponent&#45;&gt;AppModule -->
<g id="edge20" class="edge">
<title>OrdersViewComponent&#45;&gt;AppModule</title>
<path fill="none" stroke="#000000" d="M4416,-122.2396C4416,-137.5706 4416,-157 4416,-157 4416,-157 3811.7832,-157 3811.7832,-157"/>
<polygon fill="#000000" stroke="#000000" points="3811.7832,-153.5001 3801.7832,-157 3811.7832,-160.5001 3811.7832,-153.5001"/>
</g>
<!-- PbSidePipe -->
<g id="node21" class="node">
<title>PbSidePipe</title>
<polygon fill="#ffffb3" stroke="#000000" points="4323.0594,-122 4242.9406,-122 4242.9406,-86 4323.0594,-86 4323.0594,-122"/>
<text text-anchor="middle" x="4283" y="-99.8" font-family="Times,serif" font-size="14.00" fill="#000000">PbSidePipe</text>
</g>
<!-- PbSidePipe&#45;&gt;AppModule -->
<g id="edge21" class="edge">
<title>PbSidePipe&#45;&gt;AppModule</title>
<path fill="none" stroke="#000000" d="M4283,-122.1871C4283,-137.1824 4283,-156 4283,-156 4283,-156 3811.9152,-156 3811.9152,-156"/>
<polygon fill="#000000" stroke="#000000" points="3811.9152,-152.5001 3801.9152,-156 3811.9152,-159.5001 3811.9152,-152.5001"/>
</g>
<!-- PortfolioViewComponent -->
<g id="node22" class="node">
<title>PortfolioViewComponent</title>
<polygon fill="#ffffb3" stroke="#000000" points="4224.927,-122 4063.073,-122 4063.073,-86 4224.927,-86 4224.927,-122"/>
<text text-anchor="middle" x="4144" y="-99.8" font-family="Times,serif" font-size="14.00" fill="#000000">PortfolioViewComponent</text>
</g>
<!-- PortfolioViewComponent&#45;&gt;AppModule -->
<g id="edge22" class="edge">
<title>PortfolioViewComponent&#45;&gt;AppModule</title>
<path fill="none" stroke="#000000" d="M4144,-122.0511C4144,-136.373 4144,-154 4144,-154 4144,-154 3811.8257,-154 3811.8257,-154"/>
<polygon fill="#000000" stroke="#000000" points="3811.8258,-150.5001 3801.8257,-154 3811.8257,-157.5001 3811.8258,-150.5001"/>
</g>
<!-- ProductHistoryViewComponent -->
<g id="node23" class="node">
<title>ProductHistoryViewComponent</title>
<polygon fill="#ffffb3" stroke="#000000" points="4045.6923,-122 3848.3077,-122 3848.3077,-86 4045.6923,-86 4045.6923,-122"/>
<text text-anchor="middle" x="3947" y="-99.8" font-family="Times,serif" font-size="14.00" fill="#000000">ProductHistoryViewComponent</text>
</g>
<!-- ProductHistoryViewComponent&#45;&gt;AppModule -->
<g id="edge23" class="edge">
<title>ProductHistoryViewComponent&#45;&gt;AppModule</title>
<path fill="none" stroke="#000000" d="M3947,-122.2458C3947,-136.1772 3947,-153 3947,-153 3947,-153 3811.9665,-153 3811.9665,-153"/>
<polygon fill="#000000" stroke="#000000" points="3811.9665,-149.5001 3801.9665,-153 3811.9664,-156.5001 3811.9665,-149.5001"/>
</g>
<!-- PwaInstallComponent -->
<g id="node24" class="node">
<title>PwaInstallComponent</title>
<polygon fill="#ffffb3" stroke="#000000" points="3830.4285,-122 3689.5715,-122 3689.5715,-86 3830.4285,-86 3830.4285,-122"/>
<text text-anchor="middle" x="3760" y="-99.8" font-family="Times,serif" font-size="14.00" fill="#000000">PwaInstallComponent</text>
</g>
<!-- PwaInstallComponent&#45;&gt;AppModule -->
<g id="edge24" class="edge">
<title>PwaInstallComponent&#45;&gt;AppModule</title>
<path fill="none" stroke="#000000" d="M3760,-122.1061C3760,-122.1061 3760,-140.991 3760,-140.991"/>
<polygon fill="#000000" stroke="#000000" points="3756.5001,-140.9909 3760,-150.991 3763.5001,-140.991 3756.5001,-140.9909"/>
</g>
<!-- SignalsViewComponent -->
<g id="node25" class="node">
<title>SignalsViewComponent</title>
<polygon fill="#ffffb3" stroke="#000000" points="3671.3739,-122 3518.6261,-122 3518.6261,-86 3671.3739,-86 3671.3739,-122"/>
<text text-anchor="middle" x="3595" y="-99.8" font-family="Times,serif" font-size="14.00" fill="#000000">SignalsViewComponent</text>
</g>
<!-- SignalsViewComponent&#45;&gt;AppModule -->
<g id="edge25" class="edge">
<title>SignalsViewComponent&#45;&gt;AppModule</title>
<path fill="none" stroke="#000000" d="M3595,-122.2458C3595,-136.1772 3595,-153 3595,-153 3595,-153 3707.9366,-153 3707.9366,-153"/>
<polygon fill="#000000" stroke="#000000" points="3707.9366,-156.5001 3717.9366,-153 3707.9366,-149.5001 3707.9366,-156.5001"/>
</g>
<!-- SwitchDayNightComponent -->
<g id="node26" class="node">
<title>SwitchDayNightComponent</title>
<polygon fill="#ffffb3" stroke="#000000" points="3500.9269,-122 3325.0731,-122 3325.0731,-86 3500.9269,-86 3500.9269,-122"/>
<text text-anchor="middle" x="3413" y="-99.8" font-family="Times,serif" font-size="14.00" fill="#000000">SwitchDayNightComponent</text>
</g>
<!-- SwitchDayNightComponent&#45;&gt;AppModule -->
<g id="edge26" class="edge">
<title>SwitchDayNightComponent&#45;&gt;AppModule</title>
<path fill="none" stroke="#000000" d="M3413,-122.0511C3413,-136.373 3413,-154 3413,-154 3413,-154 3708.1437,-154 3708.1437,-154"/>
<polygon fill="#000000" stroke="#000000" points="3708.1437,-157.5001 3718.1437,-154 3708.1437,-150.5001 3708.1437,-157.5001"/>
</g>
<!-- TabApiKeyComponent -->
<g id="node27" class="node">
<title>TabApiKeyComponent</title>
<polygon fill="#ffffb3" stroke="#000000" points="3307.9186,-122 3160.0814,-122 3160.0814,-86 3307.9186,-86 3307.9186,-122"/>
<text text-anchor="middle" x="3234" y="-99.8" font-family="Times,serif" font-size="14.00" fill="#000000">TabApiKeyComponent</text>
</g>
<!-- TabApiKeyComponent&#45;&gt;AppModule -->
<g id="edge27" class="edge">
<title>TabApiKeyComponent&#45;&gt;AppModule</title>
<path fill="none" stroke="#000000" d="M3234,-122.1871C3234,-137.1824 3234,-156 3234,-156 3234,-156 3708.286,-156 3708.286,-156"/>
<polygon fill="#000000" stroke="#000000" points="3708.286,-159.5001 3718.286,-156 3708.286,-152.5001 3708.286,-159.5001"/>
</g>
<!-- TabLoggingComponent -->
<g id="node28" class="node">
<title>TabLoggingComponent</title>
<polygon fill="#ffffb3" stroke="#000000" points="3142.0435,-122 2991.9565,-122 2991.9565,-86 3142.0435,-86 3142.0435,-122"/>
<text text-anchor="middle" x="3067" y="-99.8" font-family="Times,serif" font-size="14.00" fill="#000000">TabLoggingComponent</text>
</g>
<!-- TabLoggingComponent&#45;&gt;AppModule -->
<g id="edge28" class="edge">
<title>TabLoggingComponent&#45;&gt;AppModule</title>
<path fill="none" stroke="#000000" d="M3067,-122.2396C3067,-137.5706 3067,-157 3067,-157 3067,-157 3708.2104,-157 3708.2104,-157"/>
<polygon fill="#000000" stroke="#000000" points="3708.2104,-160.5001 3718.2104,-157 3708.2103,-153.5001 3708.2104,-160.5001"/>
</g>
<!-- TabProductionComponent -->
<g id="node29" class="node">
<title>TabProductionComponent</title>
<polygon fill="#ffffb3" stroke="#000000" points="2973.0392,-122 2808.9608,-122 2808.9608,-86 2973.0392,-86 2973.0392,-122"/>
<text text-anchor="middle" x="2891" y="-99.8" font-family="Times,serif" font-size="14.00" fill="#000000">TabProductionComponent</text>
</g>
<!-- TabProductionComponent&#45;&gt;AppModule -->
<g id="edge29" class="edge">
<title>TabProductionComponent&#45;&gt;AppModule</title>
<path fill="none" stroke="#000000" d="M2918.4231,-122.0091C2918.4231,-138.0494 2918.4231,-159 2918.4231,-159 2918.4231,-159 3708.2661,-159 3708.2661,-159"/>
<polygon fill="#000000" stroke="#000000" points="3708.2661,-162.5001 3718.2661,-159 3708.266,-155.5001 3708.2661,-162.5001"/>
</g>
<!-- TabProductionComponent&#45;&gt;AppModule -->
<g id="edge30" class="edge">
<title>TabProductionComponent&#45;&gt;AppModule</title>
<path fill="none" stroke="#000000" d="M2863.5769,-122.027C2863.5769,-138.3976 2863.5769,-160 2863.5769,-160 2863.5769,-160 3708.2642,-160 3708.2642,-160"/>
<polygon fill="#000000" stroke="#000000" points="3708.2643,-163.5001 3718.2642,-160 3708.2642,-156.5001 3708.2643,-163.5001"/>
</g>
<!-- TabTestComponent -->
<g id="node30" class="node">
<title>TabTestComponent</title>
<polygon fill="#ffffb3" stroke="#000000" points="2790.7022,-122 2663.2978,-122 2663.2978,-86 2790.7022,-86 2790.7022,-122"/>
<text text-anchor="middle" x="2727" y="-99.8" font-family="Times,serif" font-size="14.00" fill="#000000">TabTestComponent</text>
</g>
<!-- TabTestComponent&#45;&gt;AppModule -->
<g id="edge31" class="edge">
<title>TabTestComponent&#45;&gt;AppModule</title>
<path fill="none" stroke="#000000" d="M2727,-122.0336C2727,-139.0597 2727,-162 2727,-162 2727,-162 3708.2258,-162 3708.2258,-162"/>
<polygon fill="#000000" stroke="#000000" points="3708.2258,-165.5001 3718.2258,-162 3708.2257,-158.5001 3708.2258,-165.5001"/>
</g>
<!-- TableAddOrderComponent -->
<g id="node31" class="node">
<title>TableAddOrderComponent</title>
<polygon fill="#ffffb3" stroke="#000000" points="2644.9538,-122 2475.0462,-122 2475.0462,-86 2644.9538,-86 2644.9538,-122"/>
<text text-anchor="middle" x="2560" y="-99.8" font-family="Times,serif" font-size="14.00" fill="#000000">TableAddOrderComponent</text>
</g>
<!-- TableAddOrderComponent&#45;&gt;AppModule -->
<g id="edge32" class="edge">
<title>TableAddOrderComponent&#45;&gt;AppModule</title>
<path fill="none" stroke="#000000" d="M2560,-122.0225C2560,-139.3734 2560,-163 2560,-163 2560,-163 3707.995,-163 3707.995,-163"/>
<polygon fill="#000000" stroke="#000000" points="3707.995,-166.5001 3717.995,-163 3707.995,-159.5001 3707.995,-166.5001"/>
</g>
<!-- TableAsksComponent -->
<g id="node32" class="node">
<title>TableAsksComponent</title>
<polygon fill="#ffffb3" stroke="#000000" points="2456.7007,-122 2315.2993,-122 2315.2993,-86 2456.7007,-86 2456.7007,-122"/>
<text text-anchor="middle" x="2386" y="-99.8" font-family="Times,serif" font-size="14.00" fill="#000000">TableAsksComponent</text>
</g>
<!-- TableAsksComponent&#45;&gt;AppModule -->
<g id="edge33" class="edge">
<title>TableAsksComponent&#45;&gt;AppModule</title>
<path fill="none" stroke="#000000" d="M2386,-122.302C2386,-140.2699 2386,-165 2386,-165 2386,-165 3708.1287,-165 3708.1287,-165"/>
<polygon fill="#000000" stroke="#000000" points="3708.1287,-168.5001 3718.1287,-165 3708.1286,-161.5001 3708.1287,-168.5001"/>
</g>
<!-- TableBidsComponent -->
<g id="node33" class="node">
<title>TableBidsComponent</title>
<polygon fill="#ffffb3" stroke="#000000" points="2297.3767,-122 2158.6233,-122 2158.6233,-86 2297.3767,-86 2297.3767,-122"/>
<text text-anchor="middle" x="2228" y="-99.8" font-family="Times,serif" font-size="14.00" fill="#000000">TableBidsComponent</text>
</g>
<!-- TableBidsComponent&#45;&gt;AppModule -->
<g id="edge34" class="edge">
<title>TableBidsComponent&#45;&gt;AppModule</title>
<path fill="none" stroke="#000000" d="M2228,-122.2667C2228,-140.5552 2228,-166 2228,-166 2228,-166 3708.2282,-166 3708.2282,-166"/>
<polygon fill="#000000" stroke="#000000" points="3708.2282,-169.5001 3718.2282,-166 3708.2281,-162.5001 3708.2282,-169.5001"/>
</g>
<!-- TableComponent -->
<g id="node34" class="node">
<title>TableComponent</title>
<polygon fill="#ffffb3" stroke="#000000" points="2140.705,-122 2027.295,-122 2027.295,-86 2140.705,-86 2140.705,-122"/>
<text text-anchor="middle" x="2084" y="-99.8" font-family="Times,serif" font-size="14.00" fill="#000000">TableComponent</text>
</g>
<!-- TableComponent&#45;&gt;AppModule -->
<g id="edge35" class="edge">
<title>TableComponent&#45;&gt;AppModule</title>
<path fill="none" stroke="#000000" d="M2084,-122.1686C2084,-141.0898 2084,-168 2084,-168 2084,-168 3708.1524,-168 3708.1524,-168"/>
<polygon fill="#000000" stroke="#000000" points="3708.1524,-171.5001 3718.1524,-168 3708.1524,-164.5001 3708.1524,-171.5001"/>
</g>
<!-- TableOrderbookComponent -->
<g id="node35" class="node">
<title>TableOrderbookComponent</title>
<polygon fill="#ffffb3" stroke="#000000" points="2008.8473,-122 1835.1527,-122 1835.1527,-86 2008.8473,-86 2008.8473,-122"/>
<text text-anchor="middle" x="1922" y="-99.8" font-family="Times,serif" font-size="14.00" fill="#000000">TableOrderbookComponent</text>
</g>
<!-- TableOrderbookComponent&#45;&gt;AppModule -->
<g id="edge36" class="edge">
<title>TableOrderbookComponent&#45;&gt;AppModule</title>
<path fill="none" stroke="#000000" d="M1922,-122.1061C1922,-141.3391 1922,-169 1922,-169 1922,-169 3708.1574,-169 3708.1574,-169"/>
<polygon fill="#000000" stroke="#000000" points="3708.1575,-172.5001 3718.1574,-169 3708.1574,-165.5001 3708.1575,-172.5001"/>
</g>
<!-- TableOrdersComponent -->
<g id="node36" class="node">
<title>TableOrdersComponent</title>
<polygon fill="#ffffb3" stroke="#000000" points="1816.7921,-122 1665.2079,-122 1665.2079,-86 1816.7921,-86 1816.7921,-122"/>
<text text-anchor="middle" x="1741" y="-99.8" font-family="Times,serif" font-size="14.00" fill="#000000">TableOrdersComponent</text>
</g>
<!-- TableOrdersComponent&#45;&gt;AppModule -->
<g id="edge37" class="edge">
<title>TableOrdersComponent&#45;&gt;AppModule</title>
<path fill="none" stroke="#000000" d="M1741,-122.308C1741,-142.1455 1741,-171 1741,-171 1741,-171 3708.2938,-171 3708.2938,-171"/>
<polygon fill="#000000" stroke="#000000" points="3708.2938,-174.5001 3718.2938,-171 3708.2937,-167.5001 3708.2938,-174.5001"/>
</g>
<!-- TableSignalsComponent -->
<g id="node37" class="node">
<title>TableSignalsComponent</title>
<polygon fill="#ffffb3" stroke="#000000" points="1647.4284,-122 1492.5716,-122 1492.5716,-86 1647.4284,-86 1647.4284,-122"/>
<text text-anchor="middle" x="1570" y="-99.8" font-family="Times,serif" font-size="14.00" fill="#000000">TableSignalsComponent</text>
</g>
<!-- TableSignalsComponent&#45;&gt;AppModule -->
<g id="edge38" class="edge">
<title>TableSignalsComponent&#45;&gt;AppModule</title>
<path fill="none" stroke="#000000" d="M1570,-122.2228C1570,-142.3652 1570,-172 1570,-172 1570,-172 3708.2074,-172 3708.2074,-172"/>
<polygon fill="#000000" stroke="#000000" points="3708.2074,-175.5001 3718.2074,-172 3708.2074,-168.5001 3708.2074,-175.5001"/>
</g>
<!-- TableTradesComponent -->
<g id="node38" class="node">
<title>TableTradesComponent</title>
<polygon fill="#ffffb3" stroke="#000000" points="1474.7921,-122 1323.2079,-122 1323.2079,-86 1474.7921,-86 1474.7921,-122"/>
<text text-anchor="middle" x="1399" y="-99.8" font-family="Times,serif" font-size="14.00" fill="#000000">TableTradesComponent</text>
</g>
<!-- TableTradesComponent&#45;&gt;AppModule -->
<g id="edge39" class="edge">
<title>TableTradesComponent&#45;&gt;AppModule</title>
<path fill="none" stroke="#000000" d="M1399,-122.0267C1399,-142.7672 1399,-174 1399,-174 1399,-174 3708.27,-174 3708.27,-174"/>
<polygon fill="#000000" stroke="#000000" points="3708.27,-177.5001 3718.27,-174 3708.2699,-170.5001 3708.27,-177.5001"/>
</g>
<!-- TradesViewComponent -->
<g id="node39" class="node">
<title>TradesViewComponent</title>
<polygon fill="#ffffb3" stroke="#000000" points="1304.738,-122 1155.262,-122 1155.262,-86 1304.738,-86 1304.738,-122"/>
<text text-anchor="middle" x="1230" y="-99.8" font-family="Times,serif" font-size="14.00" fill="#000000">TradesViewComponent</text>
</g>
<!-- TradesViewComponent&#45;&gt;AppModule -->
<g id="edge40" class="edge">
<title>TradesViewComponent&#45;&gt;AppModule</title>
<path fill="none" stroke="#000000" d="M1230,-122.2843C1230,-143.3211 1230,-175 1230,-175 1230,-175 3708.198,-175 3708.198,-175"/>
<polygon fill="#000000" stroke="#000000" points="3708.198,-178.5001 3718.198,-175 3708.1979,-171.5001 3708.198,-178.5001"/>
</g>
<!-- AppComponent  -->
<g id="node44" class="node">
<title>AppComponent </title>
<polygon fill="#80b1d3" stroke="#000000" points="3814.439,-252 3705.561,-252 3705.561,-216 3814.439,-216 3814.439,-252"/>
<text text-anchor="middle" x="3760" y="-229.8" font-family="Times,serif" font-size="14.00" fill="#000000">AppComponent </text>
</g>
<!-- AppModule&#45;&gt;AppComponent  -->
<g id="edge44" class="edge">
<title>AppModule&#45;&gt;AppComponent </title>
<path fill="none" stroke="#000000" stroke-dasharray="1,5" d="M3760,-187.1061C3760,-187.1061 3760,-205.991 3760,-205.991"/>
<polygon fill="#000000" stroke="#000000" points="3756.5001,-205.9909 3760,-215.991 3763.5001,-205.991 3756.5001,-205.9909"/>
</g>
<!-- ApiModule -->
<g id="node41" class="node">
<title>ApiModule</title>
<polygon fill="#8dd3c7" stroke="#000000" points="1131.0483,-122 1128.0483,-126 1107.0483,-126 1104.0483,-122 1050.9517,-122 1050.9517,-86 1131.0483,-86 1131.0483,-122"/>
<text text-anchor="middle" x="1091" y="-99.8" font-family="Times,serif" font-size="14.00" fill="#000000">ApiModule</text>
</g>
<!-- ApiModule&#45;&gt;AppModule -->
<g id="edge41" class="edge">
<title>ApiModule&#45;&gt;AppModule</title>
<path fill="none" stroke="#000000" d="M1091,-122.0449C1091,-143.6623 1091,-177 1091,-177 1091,-177 3708.0764,-177 3708.0764,-177"/>
<polygon fill="#000000" stroke="#000000" points="3708.0764,-180.5001 3718.0764,-177 3708.0763,-173.5001 3708.0764,-180.5001"/>
</g>
<!-- FgGlobalScopeModule -->
<g id="node42" class="node">
<title>FgGlobalScopeModule</title>
<polygon fill="#8dd3c7" stroke="#000000" points="1032.147,-122 1029.147,-126 1008.147,-126 1005.147,-122 885.853,-122 885.853,-86 1032.147,-86 1032.147,-122"/>
<text text-anchor="middle" x="959" y="-99.8" font-family="Times,serif" font-size="14.00" fill="#000000">FgGlobalScopeModule</text>
</g>
<!-- FgGlobalScopeModule&#45;&gt;AppModule -->
<g id="edge42" class="edge">
<title>FgGlobalScopeModule&#45;&gt;AppModule</title>
<path fill="none" stroke="#000000" d="M959,-122.2921C959,-144.2057 959,-178 959,-178 959,-178 3708.231,-178 3708.231,-178"/>
<polygon fill="#000000" stroke="#000000" points="3708.231,-181.5001 3718.231,-178 3708.231,-174.5001 3708.231,-181.5001"/>
</g>
<!-- FgMaterialModule -->
<g id="node43" class="node">
<title>FgMaterialModule</title>
<polygon fill="#8dd3c7" stroke="#000000" points="867.7534,-122 864.7534,-126 843.7534,-126 840.7534,-122 746.2466,-122 746.2466,-86 867.7534,-86 867.7534,-122"/>
<text text-anchor="middle" x="807" y="-99.8" font-family="Times,serif" font-size="14.00" fill="#000000">FgMaterialModule</text>
</g>
<!-- FgMaterialModule&#45;&gt;AppModule -->
<g id="edge43" class="edge">
<title>FgMaterialModule&#45;&gt;AppModule</title>
<path fill="none" stroke="#000000" d="M807,-122.0109C807,-144.4852 807,-180 807,-180 807,-180 3708.2555,-180 3708.2555,-180"/>
<polygon fill="#000000" stroke="#000000" points="3708.2555,-183.5001 3718.2555,-180 3708.2554,-176.5001 3708.2555,-183.5001"/>
</g>
<!-- FgAppService -->
<g id="node45" class="node">
<title>FgAppService</title>
<ellipse fill="#fdb462" stroke="#000000" cx="655" cy="-104" rx="66.6344" ry="18"/>
<text text-anchor="middle" x="655" y="-99.8" font-family="Times,serif" font-size="14.00" fill="#000000">FgAppService</text>
</g>
<!-- FgAppService&#45;&gt;AppModule -->
<g id="edge45" class="edge">
<title>FgAppService&#45;&gt;AppModule</title>
<path fill="none" stroke="#000000" d="M655,-122.2479C655,-145.0179 655,-181 655,-181 655,-181 3708.1646,-181 3708.1646,-181"/>
<polygon fill="#000000" stroke="#000000" points="3708.1646,-184.5001 3718.1646,-181 3708.1645,-177.5001 3708.1646,-184.5001"/>
</g>
<!-- FgComponentBaseService -->
<g id="node46" class="node">
<title>FgComponentBaseService</title>
<ellipse fill="#fdb462" stroke="#000000" cx="456" cy="-104" rx="114.046" ry="18"/>
<text text-anchor="middle" x="456" y="-99.8" font-family="Times,serif" font-size="14.00" fill="#000000">FgComponentBaseService</text>
</g>
<!-- FgComponentBaseService&#45;&gt;AppModule -->
<g id="edge46" class="edge">
<title>FgComponentBaseService&#45;&gt;AppModule</title>
<path fill="none" stroke="#000000" d="M456,-122.3228C456,-145.6602 456,-183 456,-183 456,-183 3708.2252,-183 3708.2252,-183"/>
<polygon fill="#000000" stroke="#000000" points="3708.2253,-186.5001 3718.2252,-183 3708.2252,-179.5001 3708.2253,-186.5001"/>
</g>
<!-- FgEventService -->
<g id="node47" class="node">
<title>FgEventService</title>
<ellipse fill="#fdb462" stroke="#000000" cx="251" cy="-104" rx="72.9315" ry="18"/>
<text text-anchor="middle" x="251" y="-99.8" font-family="Times,serif" font-size="14.00" fill="#000000">FgEventService</text>
</g>
<!-- FgEventService&#45;&gt;AppModule -->
<g id="edge47" class="edge">
<title>FgEventService&#45;&gt;AppModule</title>
<path fill="none" stroke="#000000" d="M251,-122.1532C251,-145.7566 251,-184 251,-184 251,-184 3708.1478,-184 3708.1478,-184"/>
<polygon fill="#000000" stroke="#000000" points="3708.1478,-187.5001 3718.1478,-184 3708.1477,-180.5001 3708.1478,-187.5001"/>
</g>
<!-- PbDataService -->
<g id="node48" class="node">
<title>PbDataService</title>
<ellipse fill="#fdb462" stroke="#000000" cx="92" cy="-104" rx="68.3343" ry="18"/>
<text text-anchor="middle" x="92" y="-99.8" font-family="Times,serif" font-size="14.00" fill="#000000">PbDataService</text>
</g>
<!-- PbDataService&#45;&gt;AppModule -->
<g id="edge48" class="edge">
<title>PbDataService&#45;&gt;AppModule</title>
<path fill="none" stroke="#000000" d="M92,-122.1985C92,-146.3563 92,-186 92,-186 92,-186 3708.1747,-186 3708.1747,-186"/>
<polygon fill="#000000" stroke="#000000" points="3708.1747,-189.5001 3718.1747,-186 3708.1747,-182.5001 3708.1747,-189.5001"/>
</g>
</g>
</svg>
