<?xml version="1.0" encoding="UTF-8" standalone="no"?>
<!DOCTYPE svg PUBLIC "-//W3C//DTD SVG 1.1//EN"
 "http://www.w3.org/Graphics/SVG/1.1/DTD/svg11.dtd">
<!-- Generated by graphviz version 2.40.1 (20161225.0304)
 -->
<!-- Title: dependencies Pages: 1 -->
<svg width="4540pt" height="284pt"
 viewBox="0.00 0.00 4540.00 284.00" xmlns="http://www.w3.org/2000/svg" xmlns:xlink="http://www.w3.org/1999/xlink">
<g id="graph0" class="graph" transform="scale(1 1) rotate(0) translate(4 280)">
<title>dependencies</title>
<polygon fill="#ffffff" stroke="transparent" points="-4,4 -4,-280 4536,-280 4536,4 -4,4"/>
<text text-anchor="start" x="2245.0091" y="-42.4" font-family="sans-serif" font-weight="bold" font-size="14.00" fill="#000000">Legend</text>
<polygon fill="#ffffb3" stroke="transparent" points="2032,-10 2032,-30 2052,-30 2052,-10 2032,-10"/>
<text text-anchor="start" x="2055.629" y="-15.4" font-family="sans-serif" font-size="14.00" fill="#000000"> &#160;Declarations</text>
<polygon fill="#8dd3c7" stroke="transparent" points="2145,-10 2145,-30 2165,-30 2165,-10 2145,-10"/>
<text text-anchor="start" x="2168.7251" y="-15.4" font-family="sans-serif" font-size="14.00" fill="#000000"> &#160;Module</text>
<polygon fill="#80b1d3" stroke="transparent" points="2231,-10 2231,-30 2251,-30 2251,-10 2231,-10"/>
<text text-anchor="start" x="2254.7812" y="-15.4" font-family="sans-serif" font-size="14.00" fill="#000000"> &#160;Bootstrap</text>
<polygon fill="#fdb462" stroke="transparent" points="2328,-10 2328,-30 2348,-30 2348,-10 2328,-10"/>
<text text-anchor="start" x="2351.6732" y="-15.4" font-family="sans-serif" font-size="14.00" fill="#000000"> &#160;Providers</text>
<polygon fill="#fb8072" stroke="transparent" points="2424,-10 2424,-30 2444,-30 2444,-10 2424,-10"/>
<text text-anchor="start" x="2447.7258" y="-15.4" font-family="sans-serif" font-size="14.00" fill="#000000"> &#160;Exports</text>
<g id="clust1" class="cluster">
<title>cluster_AppModule</title>
<polygon fill="none" stroke="#000000" stroke-dasharray="1,5" points="8,-70 8,-268 4524,-268 4524,-70 8,-70"/>
</g>
<g id="clust2" class="cluster">
<title>cluster_AppModule_declarations</title>
<polygon fill="none" stroke="#000000" points="162,-78 162,-130 4516,-130 4516,-78 162,-78"/>
</g>
<g id="clust30" class="cluster">
<title>cluster_AppModule_imports</title>
<polygon fill="none" stroke="#000000" points="16,-78 16,-130 154,-130 154,-78 16,-78"/>
</g>
<g id="clust32" class="cluster">
<title>cluster_AppModule_bootstrap</title>
<polygon fill="none" stroke="#000000" points="2136,-208 2136,-260 2260,-260 2260,-208 2136,-208"/>
</g>
<!-- AppComponent -->
<g id="node1" class="node">
<title>AppComponent</title>
<polygon fill="#ffffb3" stroke="#000000" points="4507.9399,-122 4402.0601,-122 4402.0601,-86 4507.9399,-86 4507.9399,-122"/>
<text text-anchor="middle" x="4455" y="-99.8" font-family="Times,serif" font-size="14.00" fill="#000000">AppComponent</text>
</g>
<!-- AppModule -->
<g id="node28" class="node">
<title>AppModule</title>
<polygon fill="#8dd3c7" stroke="#000000" points="2239.6571,-187 2236.6571,-191 2215.6571,-191 2212.6571,-187 2156.3429,-187 2156.3429,-151 2239.6571,-151 2239.6571,-187"/>
<text text-anchor="middle" x="2198" y="-164.8" font-family="Times,serif" font-size="14.00" fill="#000000">AppModule</text>
</g>
<!-- AppComponent&#45;&gt;AppModule -->
<g id="edge1" class="edge">
<title>AppComponent&#45;&gt;AppModule</title>
<path fill="none" stroke="#000000" d="M4455,-122.3802C4455,-146.2785 4455,-185 4455,-185 4455,-185 2250.0808,-185 2250.0808,-185"/>
<polygon fill="#000000" stroke="#000000" points="2250.0808,-181.5001 2240.0808,-185 2250.0807,-188.5001 2250.0808,-181.5001"/>
</g>
<!-- AsksComponent -->
<g id="node2" class="node">
<title>AsksComponent</title>
<polygon fill="#ffffb3" stroke="#000000" points="4384.8287,-122 4275.1713,-122 4275.1713,-86 4384.8287,-86 4384.8287,-122"/>
<text text-anchor="middle" x="4330" y="-99.8" font-family="Times,serif" font-size="14.00" fill="#000000">AsksComponent</text>
</g>
<!-- AsksComponent&#45;&gt;AppModule -->
<g id="edge2" class="edge">
<title>AsksComponent&#45;&gt;AppModule</title>
<path fill="none" stroke="#000000" d="M4330,-122.3228C4330,-145.6602 4330,-183 4330,-183 4330,-183 2250.1083,-183 2250.1083,-183"/>
<polygon fill="#000000" stroke="#000000" points="2250.1083,-179.5001 2240.1083,-183 2250.1082,-186.5001 2250.1083,-179.5001"/>
</g>
<!-- BarHeaderComponent -->
<g id="node3" class="node">
<title>BarHeaderComponent</title>
<polygon fill="#ffffb3" stroke="#000000" points="4256.9552,-122 4115.0448,-122 4115.0448,-86 4256.9552,-86 4256.9552,-122"/>
<text text-anchor="middle" x="4186" y="-99.8" font-family="Times,serif" font-size="14.00" fill="#000000">BarHeaderComponent</text>
</g>
<!-- BarHeaderComponent&#45;&gt;AppModule -->
<g id="edge3" class="edge">
<title>BarHeaderComponent&#45;&gt;AppModule</title>
<path fill="none" stroke="#000000" d="M4186,-122.0109C4186,-144.4852 4186,-180 4186,-180 4186,-180 2249.9809,-180 2249.9809,-180"/>
<polygon fill="#000000" stroke="#000000" points="2249.9809,-176.5001 2239.9809,-180 2249.9809,-183.5001 2249.9809,-176.5001"/>
</g>
<!-- BarStatusComponent -->
<g id="node4" class="node">
<title>BarStatusComponent</title>
<polygon fill="#ffffb3" stroke="#000000" points="4096.7674,-122 3961.2326,-122 3961.2326,-86 4096.7674,-86 4096.7674,-122"/>
<text text-anchor="middle" x="4029" y="-99.8" font-family="Times,serif" font-size="14.00" fill="#000000">BarStatusComponent</text>
</g>
<!-- BarStatusComponent&#45;&gt;AppModule -->
<g id="edge4" class="edge">
<title>BarStatusComponent&#45;&gt;AppModule</title>
<path fill="none" stroke="#000000" d="M4029,-122.2921C4029,-144.2057 4029,-178 4029,-178 4029,-178 2249.6832,-178 2249.6832,-178"/>
<polygon fill="#000000" stroke="#000000" points="2249.6833,-174.5001 2239.6832,-178 2249.6832,-181.5001 2249.6833,-174.5001"/>
</g>
<!-- BidsComponent -->
<g id="node5" class="node">
<title>BidsComponent</title>
<polygon fill="#ffffb3" stroke="#000000" points="3943.5042,-122 3836.4958,-122 3836.4958,-86 3943.5042,-86 3943.5042,-122"/>
<text text-anchor="middle" x="3890" y="-99.8" font-family="Times,serif" font-size="14.00" fill="#000000">BidsComponent</text>
</g>
<!-- BidsComponent&#45;&gt;AppModule -->
<g id="edge5" class="edge">
<title>BidsComponent&#45;&gt;AppModule</title>
<path fill="none" stroke="#000000" d="M3890,-122.2843C3890,-143.3211 3890,-175 3890,-175 3890,-175 2249.825,-175 2249.825,-175"/>
<polygon fill="#000000" stroke="#000000" points="2249.825,-171.5001 2239.825,-175 2249.8249,-178.5001 2249.825,-171.5001"/>
</g>
<!-- DashboardComponent -->
<g id="node6" class="node">
<title>DashboardComponent</title>
<polygon fill="#ffffb3" stroke="#000000" points="3818.9734,-122 3677.0266,-122 3677.0266,-86 3818.9734,-86 3818.9734,-122"/>
<text text-anchor="middle" x="3748" y="-99.8" font-family="Times,serif" font-size="14.00" fill="#000000">DashboardComponent</text>
</g>
<!-- DashboardComponent&#45;&gt;AppModule -->
<g id="edge6" class="edge">
<title>DashboardComponent&#45;&gt;AppModule</title>
<path fill="none" stroke="#000000" d="M3748,-122.1289C3748,-142.5724 3748,-173 3748,-173 3748,-173 2249.8598,-173 2249.8598,-173"/>
<polygon fill="#000000" stroke="#000000" points="2249.8598,-169.5001 2239.8598,-173 2249.8598,-176.5001 2249.8598,-169.5001"/>
</g>
<!-- GraphPortfolioComponent -->
<g id="node7" class="node">
<title>GraphPortfolioComponent</title>
<polygon fill="#ffffb3" stroke="#000000" points="3659.0898,-122 3492.9102,-122 3492.9102,-86 3659.0898,-86 3659.0898,-122"/>
<text text-anchor="middle" x="3576" y="-99.8" font-family="Times,serif" font-size="14.00" fill="#000000">GraphPortfolioComponent</text>
</g>
<!-- GraphPortfolioComponent&#45;&gt;AppModule -->
<g id="edge7" class="edge">
<title>GraphPortfolioComponent&#45;&gt;AppModule</title>
<path fill="none" stroke="#000000" d="M3576,-122.308C3576,-142.1455 3576,-171 3576,-171 3576,-171 2249.9932,-171 2249.9932,-171"/>
<polygon fill="#000000" stroke="#000000" points="2249.9933,-167.5001 2239.9932,-171 2249.9932,-174.5001 2249.9933,-167.5001"/>
</g>
<!-- GraphProductHistoryComponent -->
<g id="node8" class="node">
<title>GraphProductHistoryComponent</title>
<polygon fill="#ffffb3" stroke="#000000" points="3474.8557,-122 3273.1443,-122 3273.1443,-86 3474.8557,-86 3474.8557,-122"/>
<text text-anchor="middle" x="3374" y="-99.8" font-family="Times,serif" font-size="14.00" fill="#000000">GraphProductHistoryComponent</text>
</g>
<!-- GraphProductHistoryComponent&#45;&gt;AppModule -->
<g id="edge8" class="edge">
<title>GraphProductHistoryComponent&#45;&gt;AppModule</title>
<path fill="none" stroke="#000000" d="M3374,-122.1686C3374,-141.0898 3374,-168 3374,-168 3374,-168 2249.8545,-168 2249.8545,-168"/>
<polygon fill="#000000" stroke="#000000" points="2249.8545,-164.5001 2239.8545,-168 2249.8544,-171.5001 2249.8545,-164.5001"/>
</g>
<!-- ModalLoginComponent -->
<g id="node9" class="node">
<title>ModalLoginComponent</title>
<polygon fill="#ffffb3" stroke="#000000" points="3254.8258,-122 3103.1742,-122 3103.1742,-86 3254.8258,-86 3254.8258,-122"/>
<text text-anchor="middle" x="3179" y="-99.8" font-family="Times,serif" font-size="14.00" fill="#000000">ModalLoginComponent</text>
</g>
<!-- ModalLoginComponent&#45;&gt;AppModule -->
<g id="edge9" class="edge">
<title>ModalLoginComponent&#45;&gt;AppModule</title>
<path fill="none" stroke="#000000" d="M3179,-122.2667C3179,-140.5552 3179,-166 3179,-166 3179,-166 2249.8385,-166 2249.8385,-166"/>
<polygon fill="#000000" stroke="#000000" points="2249.8386,-162.5001 2239.8385,-166 2249.8385,-169.5001 2249.8386,-162.5001"/>
</g>
<!-- ModalLogoutComponent -->
<g id="node10" class="node">
<title>ModalLogoutComponent</title>
<polygon fill="#ffffb3" stroke="#000000" points="3085.3257,-122 2926.6743,-122 2926.6743,-86 3085.3257,-86 3085.3257,-122"/>
<text text-anchor="middle" x="3006" y="-99.8" font-family="Times,serif" font-size="14.00" fill="#000000">ModalLogoutComponent</text>
</g>
<!-- ModalLogoutComponent&#45;&gt;AppModule -->
<g id="edge10" class="edge">
<title>ModalLogoutComponent&#45;&gt;AppModule</title>
<path fill="none" stroke="#000000" d="M3006,-122.0225C3006,-139.3734 3006,-163 3006,-163 3006,-163 2249.7401,-163 2249.7401,-163"/>
<polygon fill="#000000" stroke="#000000" points="2249.7402,-159.5001 2239.7401,-163 2249.7401,-166.5001 2249.7402,-159.5001"/>
</g>
<!-- ModalSettingsComponent -->
<g id="node11" class="node">
<title>ModalSettingsComponent</title>
<polygon fill="#ffffb3" stroke="#000000" points="2908.4958,-122 2745.5042,-122 2745.5042,-86 2908.4958,-86 2908.4958,-122"/>
<text text-anchor="middle" x="2827" y="-99.8" font-family="Times,serif" font-size="14.00" fill="#000000">ModalSettingsComponent</text>
</g>
<!-- ModalSettingsComponent&#45;&gt;AppModule -->
<g id="edge11" class="edge">
<title>ModalSettingsComponent&#45;&gt;AppModule</title>
<path fill="none" stroke="#000000" d="M2827,-122.0352C2827,-138.7344 2827,-161 2827,-161 2827,-161 2249.7576,-161 2249.7576,-161"/>
<polygon fill="#000000" stroke="#000000" points="2249.7576,-157.5001 2239.7576,-161 2249.7575,-164.5001 2249.7576,-157.5001"/>
</g>
<!-- OrderbookComponent -->
<g id="node12" class="node">
<title>OrderbookComponent</title>
<polygon fill="#ffffb3" stroke="#000000" points="2727.9748,-122 2586.0252,-122 2586.0252,-86 2727.9748,-86 2727.9748,-122"/>
<text text-anchor="middle" x="2657" y="-99.8" font-family="Times,serif" font-size="14.00" fill="#000000">OrderbookComponent</text>
</g>
<!-- OrderbookComponent&#45;&gt;AppModule -->
<g id="edge12" class="edge">
<title>OrderbookComponent&#45;&gt;AppModule</title>
<path fill="none" stroke="#000000" d="M2657,-122.0091C2657,-138.0494 2657,-159 2657,-159 2657,-159 2249.95,-159 2249.95,-159"/>
<polygon fill="#000000" stroke="#000000" points="2249.95,-155.5001 2239.95,-159 2249.95,-162.5001 2249.95,-155.5001"/>
</g>
<!-- OrdersComponent -->
<g id="node13" class="node">
<title>OrdersComponent</title>
<polygon fill="#ffffb3" stroke="#000000" points="2567.9201,-122 2448.0799,-122 2448.0799,-86 2567.9201,-86 2567.9201,-122"/>
<text text-anchor="middle" x="2508" y="-99.8" font-family="Times,serif" font-size="14.00" fill="#000000">OrdersComponent</text>
</g>
<!-- OrdersComponent&#45;&gt;AppModule -->
<g id="edge13" class="edge">
<title>OrdersComponent&#45;&gt;AppModule</title>
<path fill="none" stroke="#000000" d="M2508,-122.1871C2508,-137.1824 2508,-156 2508,-156 2508,-156 2249.808,-156 2249.808,-156"/>
<polygon fill="#000000" stroke="#000000" points="2249.808,-152.5001 2239.808,-156 2249.8079,-159.5001 2249.808,-152.5001"/>
</g>
<!-- PortfolioComponent -->
<g id="node14" class="node">
<title>PortfolioComponent</title>
<polygon fill="#ffffb3" stroke="#000000" points="2430.608,-122 2299.392,-122 2299.392,-86 2430.608,-86 2430.608,-122"/>
<text text-anchor="middle" x="2365" y="-99.8" font-family="Times,serif" font-size="14.00" fill="#000000">PortfolioComponent</text>
</g>
<!-- PortfolioComponent&#45;&gt;AppModule -->
<g id="edge14" class="edge">
<title>PortfolioComponent&#45;&gt;AppModule</title>
<path fill="none" stroke="#000000" d="M2365,-122.0511C2365,-136.373 2365,-154 2365,-154 2365,-154 2249.7104,-154 2249.7104,-154"/>
<polygon fill="#000000" stroke="#000000" points="2249.7104,-150.5001 2239.7104,-154 2249.7103,-157.5001 2249.7104,-150.5001"/>
</g>
<!-- ProductHistoryComponent -->
<g id="node15" class="node">
<title>ProductHistoryComponent</title>
<polygon fill="#ffffb3" stroke="#000000" points="2281.3738,-122 2114.6262,-122 2114.6262,-86 2281.3738,-86 2281.3738,-122"/>
<text text-anchor="middle" x="2198" y="-99.8" font-family="Times,serif" font-size="14.00" fill="#000000">ProductHistoryComponent</text>
</g>
<!-- ProductHistoryComponent&#45;&gt;AppModule -->
<g id="edge15" class="edge">
<title>ProductHistoryComponent&#45;&gt;AppModule</title>
<path fill="none" stroke="#000000" d="M2198,-122.1061C2198,-122.1061 2198,-140.991 2198,-140.991"/>
<polygon fill="#000000" stroke="#000000" points="2194.5001,-140.9909 2198,-150.991 2201.5001,-140.991 2194.5001,-140.9909"/>
</g>
<!-- SignalsComponent -->
<g id="node16" class="node">
<title>SignalsComponent</title>
<polygon fill="#ffffb3" stroke="#000000" points="2096.0562,-122 1973.9438,-122 1973.9438,-86 2096.0562,-86 2096.0562,-122"/>
<text text-anchor="middle" x="2035" y="-99.8" font-family="Times,serif" font-size="14.00" fill="#000000">SignalsComponent</text>
</g>
<!-- SignalsComponent&#45;&gt;AppModule -->
<g id="edge16" class="edge">
<title>SignalsComponent&#45;&gt;AppModule</title>
<path fill="none" stroke="#000000" d="M2035,-122.0511C2035,-136.373 2035,-154 2035,-154 2035,-154 2146.0234,-154 2146.0234,-154"/>
<polygon fill="#000000" stroke="#000000" points="2146.0235,-157.5001 2156.0234,-154 2146.0234,-150.5001 2146.0235,-157.5001"/>
</g>
<!-- TabApiKeyComponent -->
<g id="node17" class="node">
<title>TabApiKeyComponent</title>
<polygon fill="#ffffb3" stroke="#000000" points="1955.9186,-122 1808.0814,-122 1808.0814,-86 1955.9186,-86 1955.9186,-122"/>
<text text-anchor="middle" x="1882" y="-99.8" font-family="Times,serif" font-size="14.00" fill="#000000">TabApiKeyComponent</text>
</g>
<!-- TabApiKeyComponent&#45;&gt;AppModule -->
<g id="edge17" class="edge">
<title>TabApiKeyComponent&#45;&gt;AppModule</title>
<path fill="none" stroke="#000000" d="M1882,-122.1871C1882,-137.1824 1882,-156 1882,-156 1882,-156 2146.0376,-156 2146.0376,-156"/>
<polygon fill="#000000" stroke="#000000" points="2146.0377,-159.5001 2156.0376,-156 2146.0376,-152.5001 2146.0377,-159.5001"/>
</g>
<!-- TabLoggingComponent -->
<g id="node18" class="node">
<title>TabLoggingComponent</title>
<polygon fill="#ffffb3" stroke="#000000" points="1790.0435,-122 1639.9565,-122 1639.9565,-86 1790.0435,-86 1790.0435,-122"/>
<text text-anchor="middle" x="1715" y="-99.8" font-family="Times,serif" font-size="14.00" fill="#000000">TabLoggingComponent</text>
</g>
<!-- TabLoggingComponent&#45;&gt;AppModule -->
<g id="edge18" class="edge">
<title>TabLoggingComponent&#45;&gt;AppModule</title>
<path fill="none" stroke="#000000" d="M1715,-122.0091C1715,-138.0494 1715,-159 1715,-159 1715,-159 2145.9819,-159 2145.9819,-159"/>
<polygon fill="#000000" stroke="#000000" points="2145.9819,-162.5001 2155.9819,-159 2145.9818,-155.5001 2145.9819,-162.5001"/>
</g>
<!-- TabProductionComponent -->
<g id="node19" class="node">
<title>TabProductionComponent</title>
<polygon fill="#ffffb3" stroke="#000000" points="1621.0392,-122 1456.9608,-122 1456.9608,-86 1621.0392,-86 1621.0392,-122"/>
<text text-anchor="middle" x="1539" y="-99.8" font-family="Times,serif" font-size="14.00" fill="#000000">TabProductionComponent</text>
</g>
<!-- TabProductionComponent&#45;&gt;AppModule -->
<g id="edge19" class="edge">
<title>TabProductionComponent&#45;&gt;AppModule</title>
<path fill="none" stroke="#000000" d="M1511.5769,-122.0225C1511.5769,-139.3734 1511.5769,-163 1511.5769,-163 1511.5769,-163 2146.0945,-163 2146.0945,-163"/>
<polygon fill="#000000" stroke="#000000" points="2146.0945,-166.5001 2156.0945,-163 2146.0944,-159.5001 2146.0945,-166.5001"/>
</g>
<!-- TabProductionComponent&#45;&gt;AppModule -->
<g id="edge20" class="edge">
<title>TabProductionComponent&#45;&gt;AppModule</title>
<path fill="none" stroke="#000000" d="M1566.4231,-122.0352C1566.4231,-138.7344 1566.4231,-161 1566.4231,-161 1566.4231,-161 2146.0714,-161 2146.0714,-161"/>
<polygon fill="#000000" stroke="#000000" points="2146.0714,-164.5001 2156.0714,-161 2146.0713,-157.5001 2146.0714,-164.5001"/>
</g>
<!-- TabTestComponent -->
<g id="node20" class="node">
<title>TabTestComponent</title>
<polygon fill="#ffffb3" stroke="#000000" points="1438.7022,-122 1311.2978,-122 1311.2978,-86 1438.7022,-86 1438.7022,-122"/>
<text text-anchor="middle" x="1375" y="-99.8" font-family="Times,serif" font-size="14.00" fill="#000000">TabTestComponent</text>
</g>
<!-- TabTestComponent&#45;&gt;AppModule -->
<g id="edge21" class="edge">
<title>TabTestComponent&#45;&gt;AppModule</title>
<path fill="none" stroke="#000000" d="M1375,-122.2667C1375,-140.5552 1375,-166 1375,-166 1375,-166 2146.34,-166 2146.34,-166"/>
<polygon fill="#000000" stroke="#000000" points="2146.34,-169.5001 2156.34,-166 2146.34,-162.5001 2146.34,-169.5001"/>
</g>
<!-- TableAsksComponent -->
<g id="node21" class="node">
<title>TableAsksComponent</title>
<polygon fill="#ffffb3" stroke="#000000" points="1293.7007,-122 1152.2993,-122 1152.2993,-86 1293.7007,-86 1293.7007,-122"/>
<text text-anchor="middle" x="1223" y="-99.8" font-family="Times,serif" font-size="14.00" fill="#000000">TableAsksComponent</text>
</g>
<!-- TableAsksComponent&#45;&gt;AppModule -->
<g id="edge22" class="edge">
<title>TableAsksComponent&#45;&gt;AppModule</title>
<path fill="none" stroke="#000000" d="M1223,-122.1686C1223,-141.0898 1223,-168 1223,-168 1223,-168 2146.1055,-168 2146.1055,-168"/>
<polygon fill="#000000" stroke="#000000" points="2146.1055,-171.5001 2156.1055,-168 2146.1054,-164.5001 2146.1055,-171.5001"/>
</g>
<!-- TableBestBidComponent -->
<g id="node22" class="node">
<title>TableBestBidComponent</title>
<polygon fill="#ffffb3" stroke="#000000" points="1134.3187,-122 975.6813,-122 975.6813,-86 1134.3187,-86 1134.3187,-122"/>
<text text-anchor="middle" x="1055" y="-99.8" font-family="Times,serif" font-size="14.00" fill="#000000">TableBestBidComponent</text>
</g>
<!-- TableBestBidComponent&#45;&gt;AppModule -->
<g id="edge23" class="edge">
<title>TableBestBidComponent&#45;&gt;AppModule</title>
<path fill="none" stroke="#000000" d="M1055,-122.308C1055,-142.1455 1055,-171 1055,-171 1055,-171 2146.3052,-171 2146.3052,-171"/>
<polygon fill="#000000" stroke="#000000" points="2146.3053,-174.5001 2156.3052,-171 2146.3052,-167.5001 2146.3053,-174.5001"/>
</g>
<!-- TableBidsComponent -->
<g id="node23" class="node">
<title>TableBidsComponent</title>
<polygon fill="#ffffb3" stroke="#000000" points="957.3767,-122 818.6233,-122 818.6233,-86 957.3767,-86 957.3767,-122"/>
<text text-anchor="middle" x="888" y="-99.8" font-family="Times,serif" font-size="14.00" fill="#000000">TableBidsComponent</text>
</g>
<!-- TableBidsComponent&#45;&gt;AppModule -->
<g id="edge24" class="edge">
<title>TableBidsComponent&#45;&gt;AppModule</title>
<path fill="none" stroke="#000000" d="M888,-122.1289C888,-142.5724 888,-173 888,-173 888,-173 2146.2649,-173 2146.2649,-173"/>
<polygon fill="#000000" stroke="#000000" points="2146.2649,-176.5001 2156.2649,-173 2146.2649,-169.5001 2146.2649,-176.5001"/>
</g>
<!-- TableOrdersComponent -->
<g id="node24" class="node">
<title>TableOrdersComponent</title>
<polygon fill="#ffffb3" stroke="#000000" points="800.7921,-122 649.2079,-122 649.2079,-86 800.7921,-86 800.7921,-122"/>
<text text-anchor="middle" x="725" y="-99.8" font-family="Times,serif" font-size="14.00" fill="#000000">TableOrdersComponent</text>
</g>
<!-- TableOrdersComponent&#45;&gt;AppModule -->
<g id="edge25" class="edge">
<title>TableOrdersComponent&#45;&gt;AppModule</title>
<path fill="none" stroke="#000000" d="M725,-122.2843C725,-143.3211 725,-175 725,-175 725,-175 2146.2887,-175 2146.2887,-175"/>
<polygon fill="#000000" stroke="#000000" points="2146.2888,-178.5001 2156.2887,-175 2146.2887,-171.5001 2146.2888,-178.5001"/>
</g>
<!-- TableSignalsComponent -->
<g id="node25" class="node">
<title>TableSignalsComponent</title>
<polygon fill="#ffffb3" stroke="#000000" points="631.4284,-122 476.5716,-122 476.5716,-86 631.4284,-86 631.4284,-122"/>
<text text-anchor="middle" x="554" y="-99.8" font-family="Times,serif" font-size="14.00" fill="#000000">TableSignalsComponent</text>
</g>
<!-- TableSignalsComponent&#45;&gt;AppModule -->
<g id="edge26" class="edge">
<title>TableSignalsComponent&#45;&gt;AppModule</title>
<path fill="none" stroke="#000000" d="M554,-122.2921C554,-144.2057 554,-178 554,-178 554,-178 2146.1254,-178 2146.1254,-178"/>
<polygon fill="#000000" stroke="#000000" points="2146.1254,-181.5001 2156.1254,-178 2146.1253,-174.5001 2146.1254,-181.5001"/>
</g>
<!-- TableTradesComponent -->
<g id="node26" class="node">
<title>TableTradesComponent</title>
<polygon fill="#ffffb3" stroke="#000000" points="458.7921,-122 307.2079,-122 307.2079,-86 458.7921,-86 458.7921,-122"/>
<text text-anchor="middle" x="383" y="-99.8" font-family="Times,serif" font-size="14.00" fill="#000000">TableTradesComponent</text>
</g>
<!-- TableTradesComponent&#45;&gt;AppModule -->
<g id="edge27" class="edge">
<title>TableTradesComponent&#45;&gt;AppModule</title>
<path fill="none" stroke="#000000" d="M383,-122.0109C383,-144.4852 383,-180 383,-180 383,-180 2146.2451,-180 2146.2451,-180"/>
<polygon fill="#000000" stroke="#000000" points="2146.2452,-183.5001 2156.2451,-180 2146.2451,-176.5001 2146.2452,-183.5001"/>
</g>
<!-- TradesComponent -->
<g id="node27" class="node">
<title>TradesComponent</title>
<polygon fill="#ffffb3" stroke="#000000" points="289.9201,-122 170.0799,-122 170.0799,-86 289.9201,-86 289.9201,-122"/>
<text text-anchor="middle" x="230" y="-99.8" font-family="Times,serif" font-size="14.00" fill="#000000">TradesComponent</text>
</g>
<!-- TradesComponent&#45;&gt;AppModule -->
<g id="edge28" class="edge">
<title>TradesComponent&#45;&gt;AppModule</title>
<path fill="none" stroke="#000000" d="M230,-122.3228C230,-145.6602 230,-183 230,-183 230,-183 2145.9851,-183 2145.9851,-183"/>
<polygon fill="#000000" stroke="#000000" points="2145.9851,-186.5001 2155.9851,-183 2145.985,-179.5001 2145.9851,-186.5001"/>
</g>
<!-- AppComponent  -->
<g id="node30" class="node">
<title>AppComponent </title>
<polygon fill="#80b1d3" stroke="#000000" points="2252.439,-252 2143.561,-252 2143.561,-216 2252.439,-216 2252.439,-252"/>
<text text-anchor="middle" x="2198" y="-229.8" font-family="Times,serif" font-size="14.00" fill="#000000">AppComponent </text>
</g>
<!-- AppModule&#45;&gt;AppComponent  -->
<g id="edge30" class="edge">
<title>AppModule&#45;&gt;AppComponent </title>
<path fill="none" stroke="#000000" stroke-dasharray="1,5" d="M2198,-187.1061C2198,-187.1061 2198,-205.991 2198,-205.991"/>
<polygon fill="#000000" stroke="#000000" points="2194.5001,-205.9909 2198,-215.991 2201.5001,-205.991 2194.5001,-205.9909"/>
</g>
<!-- FgMaterialModule -->
<g id="node29" class="node">
<title>FgMaterialModule</title>
<polygon fill="#8dd3c7" stroke="#000000" points="145.7534,-122 142.7534,-126 121.7534,-126 118.7534,-122 24.2466,-122 24.2466,-86 145.7534,-86 145.7534,-122"/>
<text text-anchor="middle" x="85" y="-99.8" font-family="Times,serif" font-size="14.00" fill="#000000">FgMaterialModule</text>
</g>
<!-- FgMaterialModule&#45;&gt;AppModule -->
<g id="edge29" class="edge">
<title>FgMaterialModule&#45;&gt;AppModule</title>
<path fill="none" stroke="#000000" d="M85,-122.3802C85,-146.2785 85,-185 85,-185 85,-185 2146.267,-185 2146.267,-185"/>
<polygon fill="#000000" stroke="#000000" points="2146.267,-188.5001 2156.267,-185 2146.267,-181.5001 2146.267,-188.5001"/>
</g>
</g>
</svg>
