<?xml version="1.0" encoding="UTF-8" standalone="no"?>
<!DOCTYPE svg PUBLIC "-//W3C//DTD SVG 1.1//EN"
 "http://www.w3.org/Graphics/SVG/1.1/DTD/svg11.dtd">
<!-- Generated by graphviz version 2.40.1 (20161225.0304)
 -->
<!-- Title: dependencies Pages: 1 -->
<svg width="6613pt" height="284pt"
 viewBox="0.00 0.00 6613.00 284.00" xmlns="http://www.w3.org/2000/svg" xmlns:xlink="http://www.w3.org/1999/xlink">
<g id="graph0" class="graph" transform="scale(1 1) rotate(0) translate(4 280)">
<title>dependencies</title>
<polygon fill="#ffffff" stroke="transparent" points="-4,4 -4,-280 6609,-280 6609,4 -4,4"/>
<text text-anchor="start" x="3281.5091" y="-42.4" font-family="sans-serif" font-weight="bold" font-size="14.00" fill="#000000">Legend</text>
<polygon fill="#ffffb3" stroke="transparent" points="3068.5,-10 3068.5,-30 3088.5,-30 3088.5,-10 3068.5,-10"/>
<text text-anchor="start" x="3092.129" y="-15.4" font-family="sans-serif" font-size="14.00" fill="#000000"> &#160;Declarations</text>
<polygon fill="#8dd3c7" stroke="transparent" points="3181.5,-10 3181.5,-30 3201.5,-30 3201.5,-10 3181.5,-10"/>
<text text-anchor="start" x="3205.2251" y="-15.4" font-family="sans-serif" font-size="14.00" fill="#000000"> &#160;Module</text>
<polygon fill="#80b1d3" stroke="transparent" points="3267.5,-10 3267.5,-30 3287.5,-30 3287.5,-10 3267.5,-10"/>
<text text-anchor="start" x="3291.2812" y="-15.4" font-family="sans-serif" font-size="14.00" fill="#000000"> &#160;Bootstrap</text>
<polygon fill="#fdb462" stroke="transparent" points="3364.5,-10 3364.5,-30 3384.5,-30 3384.5,-10 3364.5,-10"/>
<text text-anchor="start" x="3388.1732" y="-15.4" font-family="sans-serif" font-size="14.00" fill="#000000"> &#160;Providers</text>
<polygon fill="#fb8072" stroke="transparent" points="3460.5,-10 3460.5,-30 3480.5,-30 3480.5,-10 3460.5,-10"/>
<text text-anchor="start" x="3484.2258" y="-15.4" font-family="sans-serif" font-size="14.00" fill="#000000"> &#160;Exports</text>
<g id="clust1" class="cluster">
<title>cluster_AppModule</title>
<polygon fill="none" stroke="#000000" stroke-dasharray="1,5" points="8,-70 8,-268 6597,-268 6597,-70 8,-70"/>
</g>
<g id="clust2" class="cluster">
<title>cluster_AppModule_declarations</title>
<polygon fill="none" stroke="#000000" points="730,-78 730,-130 6589,-130 6589,-78 730,-78"/>
</g>
<g id="clust38" class="cluster">
<title>cluster_AppModule_imports</title>
<polygon fill="none" stroke="#000000" points="584,-78 584,-130 722,-130 722,-78 584,-78"/>
</g>
<g id="clust40" class="cluster">
<title>cluster_AppModule_bootstrap</title>
<polygon fill="none" stroke="#000000" points="3218,-208 3218,-260 3342,-260 3342,-208 3218,-208"/>
</g>
<g id="clust41" class="cluster">
<title>cluster_AppModule_providers</title>
<polygon fill="none" stroke="#000000" points="16,-78 16,-130 576,-130 576,-78 16,-78"/>
</g>
<!-- AppComponent -->
<g id="node1" class="node">
<title>AppComponent</title>
<polygon fill="#ffffb3" stroke="#000000" points="6580.9399,-122 6475.0601,-122 6475.0601,-86 6580.9399,-86 6580.9399,-122"/>
<text text-anchor="middle" x="6528" y="-99.8" font-family="Times,serif" font-size="14.00" fill="#000000">AppComponent</text>
</g>
<!-- AppModule -->
<g id="node36" class="node">
<title>AppModule</title>
<polygon fill="#8dd3c7" stroke="#000000" points="3321.6571,-187 3318.6571,-191 3297.6571,-191 3294.6571,-187 3238.3429,-187 3238.3429,-151 3321.6571,-151 3321.6571,-187"/>
<text text-anchor="middle" x="3280" y="-164.8" font-family="Times,serif" font-size="14.00" fill="#000000">AppModule</text>
</g>
<!-- AppComponent&#45;&gt;AppModule -->
<g id="edge1" class="edge">
<title>AppComponent&#45;&gt;AppModule</title>
<path fill="none" stroke="#000000" d="M6528,-122.1985C6528,-146.3563 6528,-186 6528,-186 6528,-186 3331.6587,-186 3331.6587,-186"/>
<polygon fill="#000000" stroke="#000000" points="3331.6587,-182.5001 3321.6587,-186 3331.6586,-189.5001 3331.6587,-182.5001"/>
</g>
<!-- AsksViewComponent -->
<g id="node2" class="node">
<title>AsksViewComponent</title>
<polygon fill="#ffffb3" stroke="#000000" points="6456.647,-122 6317.353,-122 6317.353,-86 6456.647,-86 6456.647,-122"/>
<text text-anchor="middle" x="6387" y="-99.8" font-family="Times,serif" font-size="14.00" fill="#000000">AsksViewComponent</text>
</g>
<!-- AsksViewComponent&#45;&gt;AppModule -->
<g id="edge2" class="edge">
<title>AsksViewComponent&#45;&gt;AppModule</title>
<path fill="none" stroke="#000000" d="M6387,-122.1532C6387,-145.7566 6387,-184 6387,-184 6387,-184 3331.8624,-184 3331.8624,-184"/>
<polygon fill="#000000" stroke="#000000" points="3331.8624,-180.5001 3321.8624,-184 3331.8623,-187.5001 3331.8624,-180.5001"/>
</g>
<!-- BarStatusComponent -->
<g id="node3" class="node">
<title>BarStatusComponent</title>
<polygon fill="#ffffb3" stroke="#000000" points="6298.7674,-122 6163.2326,-122 6163.2326,-86 6298.7674,-86 6298.7674,-122"/>
<text text-anchor="middle" x="6231" y="-99.8" font-family="Times,serif" font-size="14.00" fill="#000000">BarStatusComponent</text>
</g>
<!-- BarStatusComponent&#45;&gt;AppModule -->
<g id="edge3" class="edge">
<title>BarStatusComponent&#45;&gt;AppModule</title>
<path fill="none" stroke="#000000" d="M6231,-122.0908C6231,-145.1328 6231,-182 6231,-182 6231,-182 3331.7163,-182 3331.7163,-182"/>
<polygon fill="#000000" stroke="#000000" points="3331.7163,-178.5001 3321.7163,-182 3331.7162,-185.5001 3331.7163,-178.5001"/>
</g>
<!-- BidsViewComponent -->
<g id="node4" class="node">
<title>BidsViewComponent</title>
<polygon fill="#ffffb3" stroke="#000000" points="6144.823,-122 6007.177,-122 6007.177,-86 6144.823,-86 6144.823,-122"/>
<text text-anchor="middle" x="6076" y="-99.8" font-family="Times,serif" font-size="14.00" fill="#000000">BidsViewComponent</text>
</g>
<!-- BidsViewComponent&#45;&gt;AppModule -->
<g id="edge4" class="edge">
<title>BidsViewComponent&#45;&gt;AppModule</title>
<path fill="none" stroke="#000000" d="M6076,-122.0109C6076,-144.4852 6076,-180 6076,-180 6076,-180 3331.6944,-180 3331.6944,-180"/>
<polygon fill="#000000" stroke="#000000" points="3331.6945,-176.5001 3321.6944,-180 3331.6944,-183.5001 3331.6945,-176.5001"/>
</g>
<!-- CardDashboardComponent -->
<g id="node5" class="node">
<title>CardDashboardComponent</title>
<polygon fill="#ffffb3" stroke="#000000" points="5989.6853,-122 5820.3147,-122 5820.3147,-86 5989.6853,-86 5989.6853,-122"/>
<text text-anchor="middle" x="5905" y="-99.8" font-family="Times,serif" font-size="14.00" fill="#000000">CardDashboardComponent</text>
</g>
<!-- CardDashboardComponent&#45;&gt;AppModule -->
<g id="edge5" class="edge">
<title>CardDashboardComponent&#45;&gt;AppModule</title>
<path fill="none" stroke="#000000" d="M5905,-122.2921C5905,-144.2057 5905,-178 5905,-178 5905,-178 3331.7625,-178 3331.7625,-178"/>
<polygon fill="#000000" stroke="#000000" points="3331.7625,-174.5001 3321.7625,-178 3331.7625,-181.5001 3331.7625,-174.5001"/>
</g>
<!-- CardViewComponent -->
<g id="node6" class="node">
<title>CardViewComponent</title>
<polygon fill="#ffffb3" stroke="#000000" points="5802.3627,-122 5663.6373,-122 5663.6373,-86 5802.3627,-86 5802.3627,-122"/>
<text text-anchor="middle" x="5733" y="-99.8" font-family="Times,serif" font-size="14.00" fill="#000000">CardViewComponent</text>
</g>
<!-- CardViewComponent&#45;&gt;AppModule -->
<g id="edge6" class="edge">
<title>CardViewComponent&#45;&gt;AppModule</title>
<path fill="none" stroke="#000000" d="M5733,-122.0449C5733,-143.6623 5733,-177 5733,-177 5733,-177 3331.8034,-177 3331.8034,-177"/>
<polygon fill="#000000" stroke="#000000" points="3331.8034,-173.5001 3321.8034,-177 3331.8033,-180.5001 3331.8034,-173.5001"/>
</g>
<!-- DashboardComponent -->
<g id="node7" class="node">
<title>DashboardComponent</title>
<polygon fill="#ffffb3" stroke="#000000" points="5645.9734,-122 5504.0266,-122 5504.0266,-86 5645.9734,-86 5645.9734,-122"/>
<text text-anchor="middle" x="5575" y="-99.8" font-family="Times,serif" font-size="14.00" fill="#000000">DashboardComponent</text>
</g>
<!-- DashboardComponent&#45;&gt;AppModule -->
<g id="edge7" class="edge">
<title>DashboardComponent&#45;&gt;AppModule</title>
<path fill="none" stroke="#000000" d="M5575,-122.2843C5575,-143.3211 5575,-175 5575,-175 5575,-175 3331.7931,-175 3331.7931,-175"/>
<polygon fill="#000000" stroke="#000000" points="3331.7932,-171.5001 3321.7931,-175 3331.7931,-178.5001 3331.7932,-171.5001"/>
</g>
<!-- DashboardViewComponent -->
<g id="node8" class="node">
<title>DashboardViewComponent</title>
<polygon fill="#ffffb3" stroke="#000000" points="5486.292,-122 5313.708,-122 5313.708,-86 5486.292,-86 5486.292,-122"/>
<text text-anchor="middle" x="5400" y="-99.8" font-family="Times,serif" font-size="14.00" fill="#000000">DashboardViewComponent</text>
</g>
<!-- DashboardViewComponent&#45;&gt;AppModule -->
<g id="edge8" class="edge">
<title>DashboardViewComponent&#45;&gt;AppModule</title>
<path fill="none" stroke="#000000" d="M5400,-122.1289C5400,-142.5724 5400,-173 5400,-173 5400,-173 3331.8713,-173 3331.8713,-173"/>
<polygon fill="#000000" stroke="#000000" points="3331.8713,-169.5001 3321.8713,-173 3331.8712,-176.5001 3331.8713,-169.5001"/>
</g>
<!-- FooterComponent -->
<g id="node9" class="node">
<title>FooterComponent</title>
<polygon fill="#ffffb3" stroke="#000000" points="5295.8809,-122 5178.1191,-122 5178.1191,-86 5295.8809,-86 5295.8809,-122"/>
<text text-anchor="middle" x="5237" y="-99.8" font-family="Times,serif" font-size="14.00" fill="#000000">FooterComponent</text>
</g>
<!-- FooterComponent&#45;&gt;AppModule -->
<g id="edge9" class="edge">
<title>FooterComponent&#45;&gt;AppModule</title>
<path fill="none" stroke="#000000" d="M5237,-122.308C5237,-142.1455 5237,-171 5237,-171 5237,-171 3331.7801,-171 3331.7801,-171"/>
<polygon fill="#000000" stroke="#000000" points="3331.7801,-167.5001 3321.7801,-171 3331.7801,-174.5001 3331.7801,-167.5001"/>
</g>
<!-- GraphComponent -->
<g id="node10" class="node">
<title>GraphComponent</title>
<polygon fill="#ffffb3" stroke="#000000" points="5160.3146,-122 5043.6854,-122 5043.6854,-86 5160.3146,-86 5160.3146,-122"/>
<text text-anchor="middle" x="5102" y="-99.8" font-family="Times,serif" font-size="14.00" fill="#000000">GraphComponent</text>
</g>
<!-- GraphComponent&#45;&gt;AppModule -->
<g id="edge10" class="edge">
<title>GraphComponent&#45;&gt;AppModule</title>
<path fill="none" stroke="#000000" d="M5102,-122.1061C5102,-141.3391 5102,-169 5102,-169 5102,-169 3331.9159,-169 3331.9159,-169"/>
<polygon fill="#000000" stroke="#000000" points="3331.9159,-165.5001 3321.9159,-169 3331.9159,-172.5001 3331.9159,-165.5001"/>
</g>
<!-- GraphPortfolioComponent -->
<g id="node11" class="node">
<title>GraphPortfolioComponent</title>
<polygon fill="#ffffb3" stroke="#000000" points="5026.0898,-122 4859.9102,-122 4859.9102,-86 5026.0898,-86 5026.0898,-122"/>
<text text-anchor="middle" x="4943" y="-99.8" font-family="Times,serif" font-size="14.00" fill="#000000">GraphPortfolioComponent</text>
</g>
<!-- GraphPortfolioComponent&#45;&gt;AppModule -->
<g id="edge11" class="edge">
<title>GraphPortfolioComponent&#45;&gt;AppModule</title>
<path fill="none" stroke="#000000" d="M4943,-122.1686C4943,-141.0898 4943,-168 4943,-168 4943,-168 3331.9398,-168 3331.9398,-168"/>
<polygon fill="#000000" stroke="#000000" points="3331.9399,-164.5001 3321.9398,-168 3331.9398,-171.5001 3331.9399,-164.5001"/>
</g>
<!-- GraphProductHistoryComponent -->
<g id="node12" class="node">
<title>GraphProductHistoryComponent</title>
<polygon fill="#ffffb3" stroke="#000000" points="4841.8557,-122 4640.1443,-122 4640.1443,-86 4841.8557,-86 4841.8557,-122"/>
<text text-anchor="middle" x="4741" y="-99.8" font-family="Times,serif" font-size="14.00" fill="#000000">GraphProductHistoryComponent</text>
</g>
<!-- GraphProductHistoryComponent&#45;&gt;AppModule -->
<g id="edge12" class="edge">
<title>GraphProductHistoryComponent&#45;&gt;AppModule</title>
<path fill="none" stroke="#000000" d="M4741,-122.2667C4741,-140.5552 4741,-166 4741,-166 4741,-166 3331.7595,-166 3331.7595,-166"/>
<polygon fill="#000000" stroke="#000000" points="3331.7596,-162.5001 3321.7595,-166 3331.7595,-169.5001 3331.7596,-162.5001"/>
</g>
<!-- HeaderComponent -->
<g id="node13" class="node">
<title>HeaderComponent</title>
<polygon fill="#ffffb3" stroke="#000000" points="4621.7437,-122 4500.2563,-122 4500.2563,-86 4621.7437,-86 4621.7437,-122"/>
<text text-anchor="middle" x="4561" y="-99.8" font-family="Times,serif" font-size="14.00" fill="#000000">HeaderComponent</text>
</g>
<!-- HeaderComponent&#45;&gt;AppModule -->
<g id="edge13" class="edge">
<title>HeaderComponent&#45;&gt;AppModule</title>
<path fill="none" stroke="#000000" d="M4561,-122.002C4561,-139.6754 4561,-164 4561,-164 4561,-164 3331.8929,-164 3331.8929,-164"/>
<polygon fill="#000000" stroke="#000000" points="3331.8929,-160.5001 3321.8929,-164 3331.8928,-167.5001 3331.8929,-160.5001"/>
</g>
<!-- ModalComponent -->
<g id="node14" class="node">
<title>ModalComponent</title>
<polygon fill="#ffffb3" stroke="#000000" points="4481.8823,-122 4364.1177,-122 4364.1177,-86 4481.8823,-86 4481.8823,-122"/>
<text text-anchor="middle" x="4423" y="-99.8" font-family="Times,serif" font-size="14.00" fill="#000000">ModalComponent</text>
</g>
<!-- ModalComponent&#45;&gt;AppModule -->
<g id="edge14" class="edge">
<title>ModalComponent&#45;&gt;AppModule</title>
<path fill="none" stroke="#000000" d="M4423,-122.0336C4423,-139.0597 4423,-162 4423,-162 4423,-162 3331.6948,-162 3331.6948,-162"/>
<polygon fill="#000000" stroke="#000000" points="3331.6948,-158.5001 3321.6948,-162 3331.6947,-165.5001 3331.6948,-158.5001"/>
</g>
<!-- ModalLoginComponent -->
<g id="node15" class="node">
<title>ModalLoginComponent</title>
<polygon fill="#ffffb3" stroke="#000000" points="4345.8258,-122 4194.1742,-122 4194.1742,-86 4345.8258,-86 4345.8258,-122"/>
<text text-anchor="middle" x="4270" y="-99.8" font-family="Times,serif" font-size="14.00" fill="#000000">ModalLoginComponent</text>
</g>
<!-- ModalLoginComponent&#45;&gt;AppModule -->
<g id="edge15" class="edge">
<title>ModalLoginComponent&#45;&gt;AppModule</title>
<path fill="none" stroke="#000000" d="M4270,-122.027C4270,-138.3976 4270,-160 4270,-160 4270,-160 3331.9067,-160 3331.9067,-160"/>
<polygon fill="#000000" stroke="#000000" points="3331.9068,-156.5001 3321.9067,-160 3331.9067,-163.5001 3331.9068,-156.5001"/>
</g>
<!-- ModalLogoutComponent -->
<g id="node16" class="node">
<title>ModalLogoutComponent</title>
<polygon fill="#ffffb3" stroke="#000000" points="4176.3257,-122 4017.6743,-122 4017.6743,-86 4176.3257,-86 4176.3257,-122"/>
<text text-anchor="middle" x="4097" y="-99.8" font-family="Times,serif" font-size="14.00" fill="#000000">ModalLogoutComponent</text>
</g>
<!-- ModalLogoutComponent&#45;&gt;AppModule -->
<g id="edge16" class="edge">
<title>ModalLogoutComponent&#45;&gt;AppModule</title>
<path fill="none" stroke="#000000" d="M4097,-122.0091C4097,-138.0494 4097,-159 4097,-159 4097,-159 3331.9213,-159 3331.9213,-159"/>
<polygon fill="#000000" stroke="#000000" points="3331.9213,-155.5001 3321.9213,-159 3331.9213,-162.5001 3331.9213,-155.5001"/>
</g>
<!-- ModalSettingsComponent -->
<g id="node17" class="node">
<title>ModalSettingsComponent</title>
<polygon fill="#ffffb3" stroke="#000000" points="3999.4958,-122 3836.5042,-122 3836.5042,-86 3999.4958,-86 3999.4958,-122"/>
<text text-anchor="middle" x="3918" y="-99.8" font-family="Times,serif" font-size="14.00" fill="#000000">ModalSettingsComponent</text>
</g>
<!-- ModalSettingsComponent&#45;&gt;AppModule -->
<g id="edge17" class="edge">
<title>ModalSettingsComponent&#45;&gt;AppModule</title>
<path fill="none" stroke="#000000" d="M3918,-122.2396C3918,-137.5706 3918,-157 3918,-157 3918,-157 3331.861,-157 3331.861,-157"/>
<polygon fill="#000000" stroke="#000000" points="3331.861,-153.5001 3321.861,-157 3331.8609,-160.5001 3331.861,-153.5001"/>
</g>
<!-- OrderbookViewComponent -->
<g id="node18" class="node">
<title>OrderbookViewComponent</title>
<polygon fill="#ffffb3" stroke="#000000" points="3818.2934,-122 3645.7066,-122 3645.7066,-86 3818.2934,-86 3818.2934,-122"/>
<text text-anchor="middle" x="3732" y="-99.8" font-family="Times,serif" font-size="14.00" fill="#000000">OrderbookViewComponent</text>
</g>
<!-- OrderbookViewComponent&#45;&gt;AppModule -->
<g id="edge18" class="edge">
<title>OrderbookViewComponent&#45;&gt;AppModule</title>
<path fill="none" stroke="#000000" d="M3732,-122.1243C3732,-136.7832 3732,-155 3732,-155 3732,-155 3331.7129,-155 3331.7129,-155"/>
<polygon fill="#000000" stroke="#000000" points="3331.7129,-151.5001 3321.7129,-155 3331.7129,-158.5001 3331.7129,-151.5001"/>
</g>
<!-- OrdersViewComponent -->
<g id="node19" class="node">
<title>OrdersViewComponent</title>
<polygon fill="#ffffb3" stroke="#000000" points="3627.738,-122 3478.262,-122 3478.262,-86 3627.738,-86 3627.738,-122"/>
<text text-anchor="middle" x="3553" y="-99.8" font-family="Times,serif" font-size="14.00" fill="#000000">OrdersViewComponent</text>
</g>
<!-- OrdersViewComponent&#45;&gt;AppModule -->
<g id="edge19" class="edge">
<title>OrdersViewComponent&#45;&gt;AppModule</title>
<path fill="none" stroke="#000000" d="M3553,-122.2458C3553,-136.1772 3553,-153 3553,-153 3553,-153 3331.76,-153 3331.76,-153"/>
<polygon fill="#000000" stroke="#000000" points="3331.76,-149.5001 3321.76,-153 3331.76,-156.5001 3331.76,-149.5001"/>
</g>
<!-- PortfolioViewComponent -->
<g id="node20" class="node">
<title>PortfolioViewComponent</title>
<polygon fill="#ffffb3" stroke="#000000" points="3459.927,-122 3298.073,-122 3298.073,-86 3459.927,-86 3459.927,-122"/>
<text text-anchor="middle" x="3379" y="-99.8" font-family="Times,serif" font-size="14.00" fill="#000000">PortfolioViewComponent</text>
</g>
<!-- PortfolioViewComponent&#45;&gt;AppModule -->
<g id="edge20" class="edge">
<title>PortfolioViewComponent&#45;&gt;AppModule</title>
<path fill="none" stroke="#000000" d="M3310.0575,-122.1061C3310.0575,-122.1061 3310.0575,-140.991 3310.0575,-140.991"/>
<polygon fill="#000000" stroke="#000000" points="3306.5576,-140.9909 3310.0575,-150.991 3313.5576,-140.991 3306.5576,-140.9909"/>
</g>
<!-- ProductHistoryViewComponent -->
<g id="node21" class="node">
<title>ProductHistoryViewComponent</title>
<polygon fill="#ffffb3" stroke="#000000" points="3280.6923,-122 3083.3077,-122 3083.3077,-86 3280.6923,-86 3280.6923,-122"/>
<text text-anchor="middle" x="3182" y="-99.8" font-family="Times,serif" font-size="14.00" fill="#000000">ProductHistoryViewComponent</text>
</g>
<!-- ProductHistoryViewComponent&#45;&gt;AppModule -->
<g id="edge21" class="edge">
<title>ProductHistoryViewComponent&#45;&gt;AppModule</title>
<path fill="none" stroke="#000000" d="M3259.384,-122.1061C3259.384,-122.1061 3259.384,-140.991 3259.384,-140.991"/>
<polygon fill="#000000" stroke="#000000" points="3255.884,-140.9909 3259.384,-150.991 3262.884,-140.991 3255.884,-140.9909"/>
</g>
<!-- SignalsViewComponent -->
<g id="node22" class="node">
<title>SignalsViewComponent</title>
<polygon fill="#ffffb3" stroke="#000000" points="3065.3739,-122 2912.6261,-122 2912.6261,-86 3065.3739,-86 3065.3739,-122"/>
<text text-anchor="middle" x="2989" y="-99.8" font-family="Times,serif" font-size="14.00" fill="#000000">SignalsViewComponent</text>
</g>
<!-- SignalsViewComponent&#45;&gt;AppModule -->
<g id="edge22" class="edge">
<title>SignalsViewComponent&#45;&gt;AppModule</title>
<path fill="none" stroke="#000000" d="M2989,-122.2458C2989,-136.1772 2989,-153 2989,-153 2989,-153 3228.3068,-153 3228.3068,-153"/>
<polygon fill="#000000" stroke="#000000" points="3228.3068,-156.5001 3238.3068,-153 3228.3068,-149.5001 3228.3068,-156.5001"/>
</g>
<!-- SwitchDayNightComponent -->
<g id="node23" class="node">
<title>SwitchDayNightComponent</title>
<polygon fill="#ffffb3" stroke="#000000" points="2894.9269,-122 2719.0731,-122 2719.0731,-86 2894.9269,-86 2894.9269,-122"/>
<text text-anchor="middle" x="2807" y="-99.8" font-family="Times,serif" font-size="14.00" fill="#000000">SwitchDayNightComponent</text>
</g>
<!-- SwitchDayNightComponent&#45;&gt;AppModule -->
<g id="edge23" class="edge">
<title>SwitchDayNightComponent&#45;&gt;AppModule</title>
<path fill="none" stroke="#000000" d="M2807,-122.1243C2807,-136.7832 2807,-155 2807,-155 2807,-155 3228.0244,-155 3228.0244,-155"/>
<polygon fill="#000000" stroke="#000000" points="3228.0244,-158.5001 3238.0244,-155 3228.0244,-151.5001 3228.0244,-158.5001"/>
</g>
<!-- TabApiKeyComponent -->
<g id="node24" class="node">
<title>TabApiKeyComponent</title>
<polygon fill="#ffffb3" stroke="#000000" points="2701.9186,-122 2554.0814,-122 2554.0814,-86 2701.9186,-86 2701.9186,-122"/>
<text text-anchor="middle" x="2628" y="-99.8" font-family="Times,serif" font-size="14.00" fill="#000000">TabApiKeyComponent</text>
</g>
<!-- TabApiKeyComponent&#45;&gt;AppModule -->
<g id="edge24" class="edge">
<title>TabApiKeyComponent&#45;&gt;AppModule</title>
<path fill="none" stroke="#000000" d="M2628,-122.2396C2628,-137.5706 2628,-157 2628,-157 2628,-157 3228.2226,-157 3228.2226,-157"/>
<polygon fill="#000000" stroke="#000000" points="3228.2227,-160.5001 3238.2226,-157 3228.2226,-153.5001 3228.2227,-160.5001"/>
</g>
<!-- TabLoggingComponent -->
<g id="node25" class="node">
<title>TabLoggingComponent</title>
<polygon fill="#ffffb3" stroke="#000000" points="2536.0435,-122 2385.9565,-122 2385.9565,-86 2536.0435,-86 2536.0435,-122"/>
<text text-anchor="middle" x="2461" y="-99.8" font-family="Times,serif" font-size="14.00" fill="#000000">TabLoggingComponent</text>
</g>
<!-- TabLoggingComponent&#45;&gt;AppModule -->
<g id="edge25" class="edge">
<title>TabLoggingComponent&#45;&gt;AppModule</title>
<path fill="none" stroke="#000000" d="M2461,-122.0091C2461,-138.0494 2461,-159 2461,-159 2461,-159 3228.2597,-159 3228.2597,-159"/>
<polygon fill="#000000" stroke="#000000" points="3228.2597,-162.5001 3238.2597,-159 3228.2597,-155.5001 3228.2597,-162.5001"/>
</g>
<!-- TabProductionComponent -->
<g id="node26" class="node">
<title>TabProductionComponent</title>
<polygon fill="#ffffb3" stroke="#000000" points="2367.0392,-122 2202.9608,-122 2202.9608,-86 2367.0392,-86 2367.0392,-122"/>
<text text-anchor="middle" x="2285" y="-99.8" font-family="Times,serif" font-size="14.00" fill="#000000">TabProductionComponent</text>
</g>
<!-- TabProductionComponent&#45;&gt;AppModule -->
<g id="edge26" class="edge">
<title>TabProductionComponent&#45;&gt;AppModule</title>
<path fill="none" stroke="#000000" d="M2312.4231,-122.027C2312.4231,-138.3976 2312.4231,-160 2312.4231,-160 2312.4231,-160 3228.1139,-160 3228.1139,-160"/>
<polygon fill="#000000" stroke="#000000" points="3228.1139,-163.5001 3238.1139,-160 3228.1138,-156.5001 3228.1139,-163.5001"/>
</g>
<!-- TabProductionComponent&#45;&gt;AppModule -->
<g id="edge27" class="edge">
<title>TabProductionComponent&#45;&gt;AppModule</title>
<path fill="none" stroke="#000000" d="M2257.5769,-122.0336C2257.5769,-139.0597 2257.5769,-162 2257.5769,-162 2257.5769,-162 3228.3341,-162 3228.3341,-162"/>
<polygon fill="#000000" stroke="#000000" points="3228.3342,-165.5001 3238.3341,-162 3228.3341,-158.5001 3228.3342,-165.5001"/>
</g>
<!-- TabTestComponent -->
<g id="node27" class="node">
<title>TabTestComponent</title>
<polygon fill="#ffffb3" stroke="#000000" points="2184.7022,-122 2057.2978,-122 2057.2978,-86 2184.7022,-86 2184.7022,-122"/>
<text text-anchor="middle" x="2121" y="-99.8" font-family="Times,serif" font-size="14.00" fill="#000000">TabTestComponent</text>
</g>
<!-- TabTestComponent&#45;&gt;AppModule -->
<g id="edge28" class="edge">
<title>TabTestComponent&#45;&gt;AppModule</title>
<path fill="none" stroke="#000000" d="M2121,-122.002C2121,-139.6754 2121,-164 2121,-164 2121,-164 3228.0659,-164 3228.0659,-164"/>
<polygon fill="#000000" stroke="#000000" points="3228.0659,-167.5001 3238.0659,-164 3228.0658,-160.5001 3228.0659,-167.5001"/>
</g>
<!-- TableAsksComponent -->
<g id="node28" class="node">
<title>TableAsksComponent</title>
<polygon fill="#ffffb3" stroke="#000000" points="2039.7007,-122 1898.2993,-122 1898.2993,-86 2039.7007,-86 2039.7007,-122"/>
<text text-anchor="middle" x="1969" y="-99.8" font-family="Times,serif" font-size="14.00" fill="#000000">TableAsksComponent</text>
</g>
<!-- TableAsksComponent&#45;&gt;AppModule -->
<g id="edge29" class="edge">
<title>TableAsksComponent&#45;&gt;AppModule</title>
<path fill="none" stroke="#000000" d="M1969,-122.2667C1969,-140.5552 1969,-166 1969,-166 1969,-166 3228.233,-166 3228.233,-166"/>
<polygon fill="#000000" stroke="#000000" points="3228.2331,-169.5001 3238.233,-166 3228.233,-162.5001 3228.2331,-169.5001"/>
</g>
<!-- TableBidsComponent -->
<g id="node29" class="node">
<title>TableBidsComponent</title>
<polygon fill="#ffffb3" stroke="#000000" points="1880.3767,-122 1741.6233,-122 1741.6233,-86 1880.3767,-86 1880.3767,-122"/>
<text text-anchor="middle" x="1811" y="-99.8" font-family="Times,serif" font-size="14.00" fill="#000000">TableBidsComponent</text>
</g>
<!-- TableBidsComponent&#45;&gt;AppModule -->
<g id="edge30" class="edge">
<title>TableBidsComponent&#45;&gt;AppModule</title>
<path fill="none" stroke="#000000" d="M1811,-122.1686C1811,-141.0898 1811,-168 1811,-168 1811,-168 3228.0118,-168 3228.0118,-168"/>
<polygon fill="#000000" stroke="#000000" points="3228.0118,-171.5001 3238.0118,-168 3228.0118,-164.5001 3228.0118,-171.5001"/>
</g>
<!-- TableComponent -->
<g id="node30" class="node">
<title>TableComponent</title>
<polygon fill="#ffffb3" stroke="#000000" points="1723.705,-122 1610.295,-122 1610.295,-86 1723.705,-86 1723.705,-122"/>
<text text-anchor="middle" x="1667" y="-99.8" font-family="Times,serif" font-size="14.00" fill="#000000">TableComponent</text>
</g>
<!-- TableComponent&#45;&gt;AppModule -->
<g id="edge31" class="edge">
<title>TableComponent&#45;&gt;AppModule</title>
<path fill="none" stroke="#000000" d="M1667,-122.1061C1667,-141.3391 1667,-169 1667,-169 1667,-169 3228.097,-169 3228.097,-169"/>
<polygon fill="#000000" stroke="#000000" points="3228.0971,-172.5001 3238.097,-169 3228.097,-165.5001 3228.0971,-172.5001"/>
</g>
<!-- TableOrderbookComponent -->
<g id="node31" class="node">
<title>TableOrderbookComponent</title>
<polygon fill="#ffffb3" stroke="#000000" points="1591.8473,-122 1418.1527,-122 1418.1527,-86 1591.8473,-86 1591.8473,-122"/>
<text text-anchor="middle" x="1505" y="-99.8" font-family="Times,serif" font-size="14.00" fill="#000000">TableOrderbookComponent</text>
</g>
<!-- TableOrderbookComponent&#45;&gt;AppModule -->
<g id="edge32" class="edge">
<title>TableOrderbookComponent&#45;&gt;AppModule</title>
<path fill="none" stroke="#000000" d="M1505,-122.308C1505,-142.1455 1505,-171 1505,-171 1505,-171 3228.3066,-171 3228.3066,-171"/>
<polygon fill="#000000" stroke="#000000" points="3228.3066,-174.5001 3238.3066,-171 3228.3065,-167.5001 3228.3066,-174.5001"/>
</g>
<!-- TableOrdersComponent -->
<g id="node32" class="node">
<title>TableOrdersComponent</title>
<polygon fill="#ffffb3" stroke="#000000" points="1399.7921,-122 1248.2079,-122 1248.2079,-86 1399.7921,-86 1399.7921,-122"/>
<text text-anchor="middle" x="1324" y="-99.8" font-family="Times,serif" font-size="14.00" fill="#000000">TableOrdersComponent</text>
</g>
<!-- TableOrdersComponent&#45;&gt;AppModule -->
<g id="edge33" class="edge">
<title>TableOrdersComponent&#45;&gt;AppModule</title>
<path fill="none" stroke="#000000" d="M1324,-122.1289C1324,-142.5724 1324,-173 1324,-173 1324,-173 3228.2412,-173 3228.2412,-173"/>
<polygon fill="#000000" stroke="#000000" points="3228.2413,-176.5001 3238.2412,-173 3228.2412,-169.5001 3228.2413,-176.5001"/>
</g>
<!-- TableSignalsComponent -->
<g id="node33" class="node">
<title>TableSignalsComponent</title>
<polygon fill="#ffffb3" stroke="#000000" points="1230.4284,-122 1075.5716,-122 1075.5716,-86 1230.4284,-86 1230.4284,-122"/>
<text text-anchor="middle" x="1153" y="-99.8" font-family="Times,serif" font-size="14.00" fill="#000000">TableSignalsComponent</text>
</g>
<!-- TableSignalsComponent&#45;&gt;AppModule -->
<g id="edge34" class="edge">
<title>TableSignalsComponent&#45;&gt;AppModule</title>
<path fill="none" stroke="#000000" d="M1153,-122.2843C1153,-143.3211 1153,-175 1153,-175 1153,-175 3227.9905,-175 3227.9905,-175"/>
<polygon fill="#000000" stroke="#000000" points="3227.9905,-178.5001 3237.9905,-175 3227.9905,-171.5001 3227.9905,-178.5001"/>
</g>
<!-- TableTradesComponent -->
<g id="node34" class="node">
<title>TableTradesComponent</title>
<polygon fill="#ffffb3" stroke="#000000" points="1057.7921,-122 906.2079,-122 906.2079,-86 1057.7921,-86 1057.7921,-122"/>
<text text-anchor="middle" x="982" y="-99.8" font-family="Times,serif" font-size="14.00" fill="#000000">TableTradesComponent</text>
</g>
<!-- TableTradesComponent&#45;&gt;AppModule -->
<g id="edge35" class="edge">
<title>TableTradesComponent&#45;&gt;AppModule</title>
<path fill="none" stroke="#000000" d="M982,-122.0449C982,-143.6623 982,-177 982,-177 982,-177 3228.1522,-177 3228.1522,-177"/>
<polygon fill="#000000" stroke="#000000" points="3228.1523,-180.5001 3238.1522,-177 3228.1522,-173.5001 3228.1523,-180.5001"/>
</g>
<!-- TradesViewComponent -->
<g id="node35" class="node">
<title>TradesViewComponent</title>
<polygon fill="#ffffb3" stroke="#000000" points="887.738,-122 738.262,-122 738.262,-86 887.738,-86 887.738,-122"/>
<text text-anchor="middle" x="813" y="-99.8" font-family="Times,serif" font-size="14.00" fill="#000000">TradesViewComponent</text>
</g>
<!-- TradesViewComponent&#45;&gt;AppModule -->
<g id="edge36" class="edge">
<title>TradesViewComponent&#45;&gt;AppModule</title>
<path fill="none" stroke="#000000" d="M813,-122.2921C813,-144.2057 813,-178 813,-178 813,-178 3228.2157,-178 3228.2157,-178"/>
<polygon fill="#000000" stroke="#000000" points="3228.2157,-181.5001 3238.2157,-178 3228.2157,-174.5001 3228.2157,-181.5001"/>
</g>
<!-- AppComponent  -->
<g id="node38" class="node">
<title>AppComponent </title>
<polygon fill="#80b1d3" stroke="#000000" points="3334.439,-252 3225.561,-252 3225.561,-216 3334.439,-216 3334.439,-252"/>
<text text-anchor="middle" x="3280" y="-229.8" font-family="Times,serif" font-size="14.00" fill="#000000">AppComponent </text>
</g>
<!-- AppModule&#45;&gt;AppComponent  -->
<g id="edge38" class="edge">
<title>AppModule&#45;&gt;AppComponent </title>
<path fill="none" stroke="#000000" stroke-dasharray="1,5" d="M3280,-187.1061C3280,-187.1061 3280,-205.991 3280,-205.991"/>
<polygon fill="#000000" stroke="#000000" points="3276.5001,-205.9909 3280,-215.991 3283.5001,-205.991 3276.5001,-205.9909"/>
</g>
<!-- FgMaterialModule -->
<g id="node37" class="node">
<title>FgMaterialModule</title>
<polygon fill="#8dd3c7" stroke="#000000" points="713.7534,-122 710.7534,-126 689.7534,-126 686.7534,-122 592.2466,-122 592.2466,-86 713.7534,-86 713.7534,-122"/>
<text text-anchor="middle" x="653" y="-99.8" font-family="Times,serif" font-size="14.00" fill="#000000">FgMaterialModule</text>
</g>
<!-- FgMaterialModule&#45;&gt;AppModule -->
<g id="edge37" class="edge">
<title>FgMaterialModule&#45;&gt;AppModule</title>
<path fill="none" stroke="#000000" d="M653,-122.0109C653,-144.4852 653,-180 653,-180 653,-180 3228.2057,-180 3228.2057,-180"/>
<polygon fill="#000000" stroke="#000000" points="3228.2057,-183.5001 3238.2057,-180 3228.2057,-176.5001 3228.2057,-183.5001"/>
</g>
<!-- FgAppService -->
<g id="node39" class="node">
<title>FgAppService</title>
<ellipse fill="#fdb462" stroke="#000000" cx="501" cy="-104" rx="66.6344" ry="18"/>
<text text-anchor="middle" x="501" y="-99.8" font-family="Times,serif" font-size="14.00" fill="#000000">FgAppService</text>
</g>
<!-- FgAppService&#45;&gt;AppModule -->
<g id="edge39" class="edge">
<title>FgAppService&#45;&gt;AppModule</title>
<path fill="none" stroke="#000000" d="M501,-122.0908C501,-145.1328 501,-182 501,-182 501,-182 3228.2857,-182 3228.2857,-182"/>
<polygon fill="#000000" stroke="#000000" points="3228.2858,-185.5001 3238.2857,-182 3228.2857,-178.5001 3228.2858,-185.5001"/>
</g>
<!-- FgComponentBaseService -->
<g id="node40" class="node">
<title>FgComponentBaseService</title>
<ellipse fill="#fdb462" stroke="#000000" cx="302" cy="-104" rx="114.046" ry="18"/>
<text text-anchor="middle" x="302" y="-99.8" font-family="Times,serif" font-size="14.00" fill="#000000">FgComponentBaseService</text>
</g>
<!-- FgComponentBaseService&#45;&gt;AppModule -->
<g id="edge40" class="edge">
<title>FgComponentBaseService&#45;&gt;AppModule</title>
<path fill="none" stroke="#000000" d="M302,-122.1532C302,-145.7566 302,-184 302,-184 302,-184 3228.1868,-184 3228.1868,-184"/>
<polygon fill="#000000" stroke="#000000" points="3228.1868,-187.5001 3238.1868,-184 3228.1867,-180.5001 3228.1868,-187.5001"/>
</g>
<!-- FgEventService -->
<g id="node41" class="node">
<title>FgEventService</title>
<ellipse fill="#fdb462" stroke="#000000" cx="97" cy="-104" rx="72.9315" ry="18"/>
<text text-anchor="middle" x="97" y="-99.8" font-family="Times,serif" font-size="14.00" fill="#000000">FgEventService</text>
</g>
<!-- FgEventService&#45;&gt;AppModule -->
<g id="edge41" class="edge">
<title>FgEventService&#45;&gt;AppModule</title>
<path fill="none" stroke="#000000" d="M97,-122.1985C97,-146.3563 97,-186 97,-186 97,-186 3228.2975,-186 3228.2975,-186"/>
<polygon fill="#000000" stroke="#000000" points="3228.2975,-189.5001 3238.2975,-186 3228.2974,-182.5001 3228.2975,-189.5001"/>
</g>
</g>
</svg>
