<?xml version="1.0" encoding="UTF-8" standalone="no"?>
<!DOCTYPE svg PUBLIC "-//W3C//DTD SVG 1.1//EN"
 "http://www.w3.org/Graphics/SVG/1.1/DTD/svg11.dtd">
<!-- Generated by graphviz version 2.40.1 (20161225.0304)
 -->
<!-- Title: dependencies Pages: 1 -->
<svg width="7129pt" height="290pt"
 viewBox="0.00 0.00 7129.00 290.00" xmlns="http://www.w3.org/2000/svg" xmlns:xlink="http://www.w3.org/1999/xlink">
<g id="graph0" class="graph" transform="scale(1 1) rotate(0) translate(4 286)">
<title>dependencies</title>
<polygon fill="#ffffff" stroke="transparent" points="-4,4 -4,-286 7125,-286 7125,4 -4,4"/>
<text text-anchor="start" x="3539.5091" y="-42.4" font-family="sans-serif" font-weight="bold" font-size="14.00" fill="#000000">Legend</text>
<polygon fill="#ffffb3" stroke="transparent" points="3326.5,-10 3326.5,-30 3346.5,-30 3346.5,-10 3326.5,-10"/>
<text text-anchor="start" x="3350.129" y="-15.4" font-family="sans-serif" font-size="14.00" fill="#000000"> &#160;Declarations</text>
<polygon fill="#8dd3c7" stroke="transparent" points="3439.5,-10 3439.5,-30 3459.5,-30 3459.5,-10 3439.5,-10"/>
<text text-anchor="start" x="3463.2251" y="-15.4" font-family="sans-serif" font-size="14.00" fill="#000000"> &#160;Module</text>
<polygon fill="#80b1d3" stroke="transparent" points="3525.5,-10 3525.5,-30 3545.5,-30 3545.5,-10 3525.5,-10"/>
<text text-anchor="start" x="3549.2812" y="-15.4" font-family="sans-serif" font-size="14.00" fill="#000000"> &#160;Bootstrap</text>
<polygon fill="#fdb462" stroke="transparent" points="3622.5,-10 3622.5,-30 3642.5,-30 3642.5,-10 3622.5,-10"/>
<text text-anchor="start" x="3646.1732" y="-15.4" font-family="sans-serif" font-size="14.00" fill="#000000"> &#160;Providers</text>
<polygon fill="#fb8072" stroke="transparent" points="3718.5,-10 3718.5,-30 3738.5,-30 3738.5,-10 3718.5,-10"/>
<text text-anchor="start" x="3742.2258" y="-15.4" font-family="sans-serif" font-size="14.00" fill="#000000"> &#160;Exports</text>
<g id="clust1" class="cluster">
<title>cluster_AppModule</title>
<polygon fill="none" stroke="#000000" stroke-dasharray="1,5" points="8,-70 8,-274 6597,-274 6597,-70 8,-70"/>
</g>
<g id="clust2" class="cluster">
<title>cluster_AppModule_declarations</title>
<polygon fill="none" stroke="#000000" points="584,-78 584,-130 6443,-130 6443,-78 584,-78"/>
</g>
<g id="clust38" class="cluster">
<title>cluster_AppModule_imports</title>
<polygon fill="none" stroke="#000000" points="6451,-78 6451,-130 6589,-130 6589,-78 6451,-78"/>
</g>
<g id="clust40" class="cluster">
<title>cluster_AppModule_bootstrap</title>
<polygon fill="none" stroke="#000000" points="3258,-214 3258,-266 3382,-266 3382,-214 3258,-214"/>
</g>
<g id="clust41" class="cluster">
<title>cluster_AppModule_providers</title>
<polygon fill="none" stroke="#000000" points="16,-78 16,-130 576,-130 576,-78 16,-78"/>
</g>
<g id="clust42" class="cluster">
<title>cluster_FgMaterialModule</title>
<polygon fill="none" stroke="#000000" stroke-dasharray="1,5" points="6605,-138 6605,-206 7113,-206 7113,-138 6605,-138"/>
</g>
<g id="clust43" class="cluster">
<title>cluster_FgMaterialModule_declarations</title>
<polygon fill="none" stroke="#000000" points="6865,-146 6865,-198 7105,-198 7105,-146 6865,-146"/>
</g>
<g id="clust46" class="cluster">
<title>cluster_FgMaterialModule_exports</title>
<polygon fill="none" stroke="#000000" points="6613,-146 6613,-198 6857,-198 6857,-146 6613,-146"/>
</g>
<!-- AppComponent -->
<g id="node1" class="node">
<title>AppComponent</title>
<polygon fill="#ffffb3" stroke="#000000" points="6434.9399,-122 6329.0601,-122 6329.0601,-86 6434.9399,-86 6434.9399,-122"/>
<text text-anchor="middle" x="6382" y="-99.8" font-family="Times,serif" font-size="14.00" fill="#000000">AppComponent</text>
</g>
<!-- AppModule -->
<g id="node36" class="node">
<title>AppModule</title>
<polygon fill="#8dd3c7" stroke="#000000" points="3361.6571,-190 3358.6571,-194 3337.6571,-194 3334.6571,-190 3278.3429,-190 3278.3429,-154 3361.6571,-154 3361.6571,-190"/>
<text text-anchor="middle" x="3320" y="-167.8" font-family="Times,serif" font-size="14.00" fill="#000000">AppModule</text>
</g>
<!-- AppComponent&#45;&gt;AppModule -->
<g id="edge1" class="edge">
<title>AppComponent&#45;&gt;AppModule</title>
<path fill="none" stroke="#000000" d="M6382,-122.3802C6382,-146.2785 6382,-185 6382,-185 6382,-185 3371.8312,-185 3371.8312,-185"/>
<polygon fill="#000000" stroke="#000000" points="3371.8312,-181.5001 3361.8312,-185 3371.8311,-188.5001 3371.8312,-181.5001"/>
</g>
<!-- AsksViewComponent -->
<g id="node2" class="node">
<title>AsksViewComponent</title>
<polygon fill="#ffffb3" stroke="#000000" points="6310.647,-122 6171.353,-122 6171.353,-86 6310.647,-86 6310.647,-122"/>
<text text-anchor="middle" x="6241" y="-99.8" font-family="Times,serif" font-size="14.00" fill="#000000">AsksViewComponent</text>
</g>
<!-- AsksViewComponent&#45;&gt;AppModule -->
<g id="edge2" class="edge">
<title>AsksViewComponent&#45;&gt;AppModule</title>
<path fill="none" stroke="#000000" d="M6241,-122.1532C6241,-145.7566 6241,-184 6241,-184 6241,-184 3371.8534,-184 3371.8534,-184"/>
<polygon fill="#000000" stroke="#000000" points="3371.8534,-180.5001 3361.8534,-184 3371.8533,-187.5001 3371.8534,-180.5001"/>
</g>
<!-- BarStatusComponent -->
<g id="node3" class="node">
<title>BarStatusComponent</title>
<polygon fill="#ffffb3" stroke="#000000" points="6152.7674,-122 6017.2326,-122 6017.2326,-86 6152.7674,-86 6152.7674,-122"/>
<text text-anchor="middle" x="6085" y="-99.8" font-family="Times,serif" font-size="14.00" fill="#000000">BarStatusComponent</text>
</g>
<!-- BarStatusComponent&#45;&gt;AppModule -->
<g id="edge3" class="edge">
<title>BarStatusComponent&#45;&gt;AppModule</title>
<path fill="none" stroke="#000000" d="M6085,-122.0908C6085,-145.1328 6085,-182 6085,-182 6085,-182 3371.7769,-182 3371.7769,-182"/>
<polygon fill="#000000" stroke="#000000" points="3371.777,-178.5001 3361.7769,-182 3371.7769,-185.5001 3371.777,-178.5001"/>
</g>
<!-- BidsViewComponent -->
<g id="node4" class="node">
<title>BidsViewComponent</title>
<polygon fill="#ffffb3" stroke="#000000" points="5998.823,-122 5861.177,-122 5861.177,-86 5998.823,-86 5998.823,-122"/>
<text text-anchor="middle" x="5930" y="-99.8" font-family="Times,serif" font-size="14.00" fill="#000000">BidsViewComponent</text>
</g>
<!-- BidsViewComponent&#45;&gt;AppModule -->
<g id="edge4" class="edge">
<title>BidsViewComponent&#45;&gt;AppModule</title>
<path fill="none" stroke="#000000" d="M5930,-122.0109C5930,-144.4852 5930,-180 5930,-180 5930,-180 3371.7885,-180 3371.7885,-180"/>
<polygon fill="#000000" stroke="#000000" points="3371.7886,-176.5001 3361.7885,-180 3371.7885,-183.5001 3371.7886,-176.5001"/>
</g>
<!-- CardDashboardComponent -->
<g id="node5" class="node">
<title>CardDashboardComponent</title>
<polygon fill="#ffffb3" stroke="#000000" points="5843.6853,-122 5674.3147,-122 5674.3147,-86 5843.6853,-86 5843.6853,-122"/>
<text text-anchor="middle" x="5759" y="-99.8" font-family="Times,serif" font-size="14.00" fill="#000000">CardDashboardComponent</text>
</g>
<!-- CardDashboardComponent&#45;&gt;AppModule -->
<g id="edge5" class="edge">
<title>CardDashboardComponent&#45;&gt;AppModule</title>
<path fill="none" stroke="#000000" d="M5759,-122.2921C5759,-144.2057 5759,-178 5759,-178 5759,-178 3371.8203,-178 3371.8203,-178"/>
<polygon fill="#000000" stroke="#000000" points="3371.8203,-174.5001 3361.8203,-178 3371.8202,-181.5001 3371.8203,-174.5001"/>
</g>
<!-- CardViewComponent -->
<g id="node6" class="node">
<title>CardViewComponent</title>
<polygon fill="#ffffb3" stroke="#000000" points="5656.3627,-122 5517.6373,-122 5517.6373,-86 5656.3627,-86 5656.3627,-122"/>
<text text-anchor="middle" x="5587" y="-99.8" font-family="Times,serif" font-size="14.00" fill="#000000">CardViewComponent</text>
</g>
<!-- CardViewComponent&#45;&gt;AppModule -->
<g id="edge6" class="edge">
<title>CardViewComponent&#45;&gt;AppModule</title>
<path fill="none" stroke="#000000" d="M5587,-122.0449C5587,-143.6623 5587,-177 5587,-177 5587,-177 3371.7739,-177 3371.7739,-177"/>
<polygon fill="#000000" stroke="#000000" points="3371.7739,-173.5001 3361.7739,-177 3371.7738,-180.5001 3371.7739,-173.5001"/>
</g>
<!-- DashboardComponent -->
<g id="node7" class="node">
<title>DashboardComponent</title>
<polygon fill="#ffffb3" stroke="#000000" points="5499.9734,-122 5358.0266,-122 5358.0266,-86 5499.9734,-86 5499.9734,-122"/>
<text text-anchor="middle" x="5429" y="-99.8" font-family="Times,serif" font-size="14.00" fill="#000000">DashboardComponent</text>
</g>
<!-- DashboardComponent&#45;&gt;AppModule -->
<g id="edge7" class="edge">
<title>DashboardComponent&#45;&gt;AppModule</title>
<path fill="none" stroke="#000000" d="M5429,-122.2843C5429,-143.3211 5429,-175 5429,-175 5429,-175 3372.1281,-175 3372.1281,-175"/>
<polygon fill="#000000" stroke="#000000" points="3372.1281,-171.5001 3362.1281,-175 3372.128,-178.5001 3372.1281,-171.5001"/>
</g>
<!-- DashboardViewComponent -->
<g id="node8" class="node">
<title>DashboardViewComponent</title>
<polygon fill="#ffffb3" stroke="#000000" points="5340.292,-122 5167.708,-122 5167.708,-86 5340.292,-86 5340.292,-122"/>
<text text-anchor="middle" x="5254" y="-99.8" font-family="Times,serif" font-size="14.00" fill="#000000">DashboardViewComponent</text>
</g>
<!-- DashboardViewComponent&#45;&gt;AppModule -->
<g id="edge8" class="edge">
<title>DashboardViewComponent&#45;&gt;AppModule</title>
<path fill="none" stroke="#000000" d="M5254,-122.1289C5254,-142.5724 5254,-173 5254,-173 5254,-173 3371.7399,-173 3371.7399,-173"/>
<polygon fill="#000000" stroke="#000000" points="3371.7399,-169.5001 3361.7399,-173 3371.7398,-176.5001 3371.7399,-169.5001"/>
</g>
<!-- FooterComponent -->
<g id="node9" class="node">
<title>FooterComponent</title>
<polygon fill="#ffffb3" stroke="#000000" points="5149.8809,-122 5032.1191,-122 5032.1191,-86 5149.8809,-86 5149.8809,-122"/>
<text text-anchor="middle" x="5091" y="-99.8" font-family="Times,serif" font-size="14.00" fill="#000000">FooterComponent</text>
</g>
<!-- FooterComponent&#45;&gt;AppModule -->
<g id="edge9" class="edge">
<title>FooterComponent&#45;&gt;AppModule</title>
<path fill="none" stroke="#000000" d="M5091,-122.2228C5091,-142.3652 5091,-172 5091,-172 5091,-172 3372.031,-172 3372.031,-172"/>
<polygon fill="#000000" stroke="#000000" points="3372.031,-168.5001 3362.031,-172 3372.031,-175.5001 3372.031,-168.5001"/>
</g>
<!-- GraphComponent -->
<g id="node10" class="node">
<title>GraphComponent</title>
<polygon fill="#ffffb3" stroke="#000000" points="5014.3146,-122 4897.6854,-122 4897.6854,-86 5014.3146,-86 5014.3146,-122"/>
<text text-anchor="middle" x="4956" y="-99.8" font-family="Times,serif" font-size="14.00" fill="#000000">GraphComponent</text>
</g>
<!-- GraphComponent&#45;&gt;AppModule -->
<g id="edge10" class="edge">
<title>GraphComponent&#45;&gt;AppModule</title>
<path fill="none" stroke="#000000" d="M4956,-122.0348C4956,-141.5762 4956,-170 4956,-170 4956,-170 3371.6709,-170 3371.6709,-170"/>
<polygon fill="#000000" stroke="#000000" points="3371.6709,-166.5001 3361.6709,-170 3371.6708,-173.5001 3371.6709,-166.5001"/>
</g>
<!-- GraphPortfolioComponent -->
<g id="node11" class="node">
<title>GraphPortfolioComponent</title>
<polygon fill="#ffffb3" stroke="#000000" points="4880.0898,-122 4713.9102,-122 4713.9102,-86 4880.0898,-86 4880.0898,-122"/>
<text text-anchor="middle" x="4797" y="-99.8" font-family="Times,serif" font-size="14.00" fill="#000000">GraphPortfolioComponent</text>
</g>
<!-- GraphPortfolioComponent&#45;&gt;AppModule -->
<g id="edge11" class="edge">
<title>GraphPortfolioComponent&#45;&gt;AppModule</title>
<path fill="none" stroke="#000000" d="M4797,-122.1686C4797,-141.0898 4797,-168 4797,-168 4797,-168 3371.8245,-168 3371.8245,-168"/>
<polygon fill="#000000" stroke="#000000" points="3371.8246,-164.5001 3361.8245,-168 3371.8245,-171.5001 3371.8246,-164.5001"/>
</g>
<!-- GraphProductHistoryComponent -->
<g id="node12" class="node">
<title>GraphProductHistoryComponent</title>
<polygon fill="#ffffb3" stroke="#000000" points="4695.8557,-122 4494.1443,-122 4494.1443,-86 4695.8557,-86 4695.8557,-122"/>
<text text-anchor="middle" x="4595" y="-99.8" font-family="Times,serif" font-size="14.00" fill="#000000">GraphProductHistoryComponent</text>
</g>
<!-- GraphProductHistoryComponent&#45;&gt;AppModule -->
<g id="edge12" class="edge">
<title>GraphProductHistoryComponent&#45;&gt;AppModule</title>
<path fill="none" stroke="#000000" d="M4595,-122.2667C4595,-140.5552 4595,-166 4595,-166 4595,-166 3371.6966,-166 3371.6966,-166"/>
<polygon fill="#000000" stroke="#000000" points="3371.6967,-162.5001 3361.6966,-166 3371.6966,-169.5001 3371.6967,-162.5001"/>
</g>
<!-- HeaderComponent -->
<g id="node13" class="node">
<title>HeaderComponent</title>
<polygon fill="#ffffb3" stroke="#000000" points="4475.7437,-122 4354.2563,-122 4354.2563,-86 4475.7437,-86 4475.7437,-122"/>
<text text-anchor="middle" x="4415" y="-99.8" font-family="Times,serif" font-size="14.00" fill="#000000">HeaderComponent</text>
</g>
<!-- HeaderComponent&#45;&gt;AppModule -->
<g id="edge13" class="edge">
<title>HeaderComponent&#45;&gt;AppModule</title>
<path fill="none" stroke="#000000" d="M4415,-122.302C4415,-140.2699 4415,-165 4415,-165 4415,-165 3371.9207,-165 3371.9207,-165"/>
<polygon fill="#000000" stroke="#000000" points="3371.9207,-161.5001 3361.9207,-165 3371.9206,-168.5001 3371.9207,-161.5001"/>
</g>
<!-- ModalComponent -->
<g id="node14" class="node">
<title>ModalComponent</title>
<polygon fill="#ffffb3" stroke="#000000" points="4335.8823,-122 4218.1177,-122 4218.1177,-86 4335.8823,-86 4335.8823,-122"/>
<text text-anchor="middle" x="4277" y="-99.8" font-family="Times,serif" font-size="14.00" fill="#000000">ModalComponent</text>
</g>
<!-- ModalComponent&#45;&gt;AppModule -->
<g id="edge14" class="edge">
<title>ModalComponent&#45;&gt;AppModule</title>
<path fill="none" stroke="#000000" d="M4277,-122.0225C4277,-139.3734 4277,-163 4277,-163 4277,-163 3371.7365,-163 3371.7365,-163"/>
<polygon fill="#000000" stroke="#000000" points="3371.7365,-159.5001 3361.7365,-163 3371.7364,-166.5001 3371.7365,-159.5001"/>
</g>
<!-- ModalLoginComponent -->
<g id="node15" class="node">
<title>ModalLoginComponent</title>
<polygon fill="#ffffb3" stroke="#000000" points="4199.8258,-122 4048.1742,-122 4048.1742,-86 4199.8258,-86 4199.8258,-122"/>
<text text-anchor="middle" x="4124" y="-99.8" font-family="Times,serif" font-size="14.00" fill="#000000">ModalLoginComponent</text>
</g>
<!-- ModalLoginComponent&#45;&gt;AppModule -->
<g id="edge15" class="edge">
<title>ModalLoginComponent&#45;&gt;AppModule</title>
<path fill="none" stroke="#000000" d="M4124,-122.0352C4124,-138.7344 4124,-161 4124,-161 4124,-161 3371.8136,-161 3371.8136,-161"/>
<polygon fill="#000000" stroke="#000000" points="3371.8136,-157.5001 3361.8136,-161 3371.8136,-164.5001 3371.8136,-157.5001"/>
</g>
<!-- ModalLogoutComponent -->
<g id="node16" class="node">
<title>ModalLogoutComponent</title>
<polygon fill="#ffffb3" stroke="#000000" points="4030.3257,-122 3871.6743,-122 3871.6743,-86 4030.3257,-86 4030.3257,-122"/>
<text text-anchor="middle" x="3951" y="-99.8" font-family="Times,serif" font-size="14.00" fill="#000000">ModalLogoutComponent</text>
</g>
<!-- ModalLogoutComponent&#45;&gt;AppModule -->
<g id="edge16" class="edge">
<title>ModalLogoutComponent&#45;&gt;AppModule</title>
<path fill="none" stroke="#000000" d="M3951,-122.027C3951,-138.3976 3951,-160 3951,-160 3951,-160 3371.8903,-160 3371.8903,-160"/>
<polygon fill="#000000" stroke="#000000" points="3371.8904,-156.5001 3361.8903,-160 3371.8903,-163.5001 3371.8904,-156.5001"/>
</g>
<!-- ModalSettingsComponent -->
<g id="node17" class="node">
<title>ModalSettingsComponent</title>
<polygon fill="#ffffb3" stroke="#000000" points="3853.4958,-122 3690.5042,-122 3690.5042,-86 3853.4958,-86 3853.4958,-122"/>
<text text-anchor="middle" x="3772" y="-99.8" font-family="Times,serif" font-size="14.00" fill="#000000">ModalSettingsComponent</text>
</g>
<!-- ModalSettingsComponent&#45;&gt;AppModule -->
<g id="edge17" class="edge">
<title>ModalSettingsComponent&#45;&gt;AppModule</title>
<path fill="none" stroke="#000000" d="M3772,-122.2819C3772,-137.9478 3772,-158 3772,-158 3772,-158 3371.7129,-158 3371.7129,-158"/>
<polygon fill="#000000" stroke="#000000" points="3371.7129,-154.5001 3361.7129,-158 3371.7129,-161.5001 3371.7129,-154.5001"/>
</g>
<!-- OrderbookViewComponent -->
<g id="node18" class="node">
<title>OrderbookViewComponent</title>
<polygon fill="#ffffb3" stroke="#000000" points="3672.2934,-122 3499.7066,-122 3499.7066,-86 3672.2934,-86 3672.2934,-122"/>
<text text-anchor="middle" x="3586" y="-99.8" font-family="Times,serif" font-size="14.00" fill="#000000">OrderbookViewComponent</text>
</g>
<!-- OrderbookViewComponent&#45;&gt;AppModule -->
<g id="edge18" class="edge">
<title>OrderbookViewComponent&#45;&gt;AppModule</title>
<path fill="none" stroke="#000000" d="M3586,-122.1871C3586,-137.1824 3586,-156 3586,-156 3586,-156 3371.8551,-156 3371.8551,-156"/>
<polygon fill="#000000" stroke="#000000" points="3371.8552,-152.5001 3361.8551,-156 3371.8551,-159.5001 3371.8552,-152.5001"/>
</g>
<!-- OrdersViewComponent -->
<g id="node19" class="node">
<title>OrdersViewComponent</title>
<polygon fill="#ffffb3" stroke="#000000" points="3481.738,-122 3332.262,-122 3332.262,-86 3481.738,-86 3481.738,-122"/>
<text text-anchor="middle" x="3407" y="-99.8" font-family="Times,serif" font-size="14.00" fill="#000000">OrdersViewComponent</text>
</g>
<!-- OrdersViewComponent&#45;&gt;AppModule -->
<g id="edge19" class="edge">
<title>OrdersViewComponent&#45;&gt;AppModule</title>
<path fill="none" stroke="#000000" d="M3346.9797,-122.2228C3346.9797,-122.2228 3346.9797,-143.7269 3346.9797,-143.7269"/>
<polygon fill="#000000" stroke="#000000" points="3343.4797,-143.7269 3346.9797,-153.7269 3350.4797,-143.727 3343.4797,-143.7269"/>
</g>
<!-- PortfolioViewComponent -->
<g id="node20" class="node">
<title>PortfolioViewComponent</title>
<polygon fill="#ffffb3" stroke="#000000" points="3313.927,-122 3152.073,-122 3152.073,-86 3313.927,-86 3313.927,-122"/>
<text text-anchor="middle" x="3233" y="-99.8" font-family="Times,serif" font-size="14.00" fill="#000000">PortfolioViewComponent</text>
</g>
<!-- PortfolioViewComponent&#45;&gt;AppModule -->
<g id="edge20" class="edge">
<title>PortfolioViewComponent&#45;&gt;AppModule</title>
<path fill="none" stroke="#000000" d="M3295.9425,-122.2228C3295.9425,-122.2228 3295.9425,-143.7269 3295.9425,-143.7269"/>
<polygon fill="#000000" stroke="#000000" points="3292.4426,-143.7269 3295.9425,-153.7269 3299.4426,-143.727 3292.4426,-143.7269"/>
</g>
<!-- ProductHistoryViewComponent -->
<g id="node21" class="node">
<title>ProductHistoryViewComponent</title>
<polygon fill="#ffffb3" stroke="#000000" points="3134.6923,-122 2937.3077,-122 2937.3077,-86 3134.6923,-86 3134.6923,-122"/>
<text text-anchor="middle" x="3036" y="-99.8" font-family="Times,serif" font-size="14.00" fill="#000000">ProductHistoryViewComponent</text>
</g>
<!-- ProductHistoryViewComponent&#45;&gt;AppModule -->
<g id="edge21" class="edge">
<title>ProductHistoryViewComponent&#45;&gt;AppModule</title>
<path fill="none" stroke="#000000" d="M3036,-122.1871C3036,-137.1824 3036,-156 3036,-156 3036,-156 3268.0948,-156 3268.0948,-156"/>
<polygon fill="#000000" stroke="#000000" points="3268.0949,-159.5001 3278.0948,-156 3268.0948,-152.5001 3268.0949,-159.5001"/>
</g>
<!-- SignalsViewComponent -->
<g id="node22" class="node">
<title>SignalsViewComponent</title>
<polygon fill="#ffffb3" stroke="#000000" points="2919.3739,-122 2766.6261,-122 2766.6261,-86 2919.3739,-86 2919.3739,-122"/>
<text text-anchor="middle" x="2843" y="-99.8" font-family="Times,serif" font-size="14.00" fill="#000000">SignalsViewComponent</text>
</g>
<!-- SignalsViewComponent&#45;&gt;AppModule -->
<g id="edge22" class="edge">
<title>SignalsViewComponent&#45;&gt;AppModule</title>
<path fill="none" stroke="#000000" d="M2843,-122.2819C2843,-137.9478 2843,-158 2843,-158 2843,-158 3268.0875,-158 3268.0875,-158"/>
<polygon fill="#000000" stroke="#000000" points="3268.0875,-161.5001 3278.0875,-158 3268.0875,-154.5001 3268.0875,-161.5001"/>
</g>
<!-- SwitchDayNightComponent -->
<g id="node23" class="node">
<title>SwitchDayNightComponent</title>
<polygon fill="#ffffb3" stroke="#000000" points="2748.9269,-122 2573.0731,-122 2573.0731,-86 2748.9269,-86 2748.9269,-122"/>
<text text-anchor="middle" x="2661" y="-99.8" font-family="Times,serif" font-size="14.00" fill="#000000">SwitchDayNightComponent</text>
</g>
<!-- SwitchDayNightComponent&#45;&gt;AppModule -->
<g id="edge23" class="edge">
<title>SwitchDayNightComponent&#45;&gt;AppModule</title>
<path fill="none" stroke="#000000" d="M2661,-122.027C2661,-138.3976 2661,-160 2661,-160 2661,-160 3268.2767,-160 3268.2767,-160"/>
<polygon fill="#000000" stroke="#000000" points="3268.2767,-163.5001 3278.2767,-160 3268.2766,-156.5001 3268.2767,-163.5001"/>
</g>
<!-- TabApiKeyComponent -->
<g id="node24" class="node">
<title>TabApiKeyComponent</title>
<polygon fill="#ffffb3" stroke="#000000" points="2555.9186,-122 2408.0814,-122 2408.0814,-86 2555.9186,-86 2555.9186,-122"/>
<text text-anchor="middle" x="2482" y="-99.8" font-family="Times,serif" font-size="14.00" fill="#000000">TabApiKeyComponent</text>
</g>
<!-- TabApiKeyComponent&#45;&gt;AppModule -->
<g id="edge24" class="edge">
<title>TabApiKeyComponent&#45;&gt;AppModule</title>
<path fill="none" stroke="#000000" d="M2482,-122.0336C2482,-139.0597 2482,-162 2482,-162 2482,-162 3268.1567,-162 3268.1567,-162"/>
<polygon fill="#000000" stroke="#000000" points="3268.1568,-165.5001 3278.1567,-162 3268.1567,-158.5001 3268.1568,-165.5001"/>
</g>
<!-- TabLoggingComponent -->
<g id="node25" class="node">
<title>TabLoggingComponent</title>
<polygon fill="#ffffb3" stroke="#000000" points="2390.0435,-122 2239.9565,-122 2239.9565,-86 2390.0435,-86 2390.0435,-122"/>
<text text-anchor="middle" x="2315" y="-99.8" font-family="Times,serif" font-size="14.00" fill="#000000">TabLoggingComponent</text>
</g>
<!-- TabLoggingComponent&#45;&gt;AppModule -->
<g id="edge25" class="edge">
<title>TabLoggingComponent&#45;&gt;AppModule</title>
<path fill="none" stroke="#000000" d="M2315,-122.0225C2315,-139.3734 2315,-163 2315,-163 2315,-163 3268.0959,-163 3268.0959,-163"/>
<polygon fill="#000000" stroke="#000000" points="3268.0959,-166.5001 3278.0959,-163 3268.0959,-159.5001 3268.0959,-166.5001"/>
</g>
<!-- TabProductionComponent -->
<g id="node26" class="node">
<title>TabProductionComponent</title>
<polygon fill="#ffffb3" stroke="#000000" points="2221.0392,-122 2056.9608,-122 2056.9608,-86 2221.0392,-86 2221.0392,-122"/>
<text text-anchor="middle" x="2139" y="-99.8" font-family="Times,serif" font-size="14.00" fill="#000000">TabProductionComponent</text>
</g>
<!-- TabProductionComponent&#45;&gt;AppModule -->
<g id="edge26" class="edge">
<title>TabProductionComponent&#45;&gt;AppModule</title>
<path fill="none" stroke="#000000" d="M2166.4231,-122.302C2166.4231,-140.2699 2166.4231,-165 2166.4231,-165 2166.4231,-165 3268.2621,-165 3268.2621,-165"/>
<polygon fill="#000000" stroke="#000000" points="3268.2621,-168.5001 3278.2621,-165 3268.262,-161.5001 3268.2621,-168.5001"/>
</g>
<!-- TabProductionComponent&#45;&gt;AppModule -->
<g id="edge27" class="edge">
<title>TabProductionComponent&#45;&gt;AppModule</title>
<path fill="none" stroke="#000000" d="M2111.5769,-122.2222C2111.5769,-140.8285 2111.5769,-167 2111.5769,-167 2111.5769,-167 3268.0524,-167 3268.0524,-167"/>
<polygon fill="#000000" stroke="#000000" points="3268.0524,-170.5001 3278.0524,-167 3268.0524,-163.5001 3268.0524,-170.5001"/>
</g>
<!-- TabTestComponent -->
<g id="node27" class="node">
<title>TabTestComponent</title>
<polygon fill="#ffffb3" stroke="#000000" points="2038.7022,-122 1911.2978,-122 1911.2978,-86 2038.7022,-86 2038.7022,-122"/>
<text text-anchor="middle" x="1975" y="-99.8" font-family="Times,serif" font-size="14.00" fill="#000000">TabTestComponent</text>
</g>
<!-- TabTestComponent&#45;&gt;AppModule -->
<g id="edge28" class="edge">
<title>TabTestComponent&#45;&gt;AppModule</title>
<path fill="none" stroke="#000000" d="M1975,-122.1061C1975,-141.3391 1975,-169 1975,-169 1975,-169 3268.2719,-169 3268.2719,-169"/>
<polygon fill="#000000" stroke="#000000" points="3268.272,-172.5001 3278.2719,-169 3268.2719,-165.5001 3268.272,-172.5001"/>
</g>
<!-- TableAsksComponent -->
<g id="node28" class="node">
<title>TableAsksComponent</title>
<polygon fill="#ffffb3" stroke="#000000" points="1893.7007,-122 1752.2993,-122 1752.2993,-86 1893.7007,-86 1893.7007,-122"/>
<text text-anchor="middle" x="1823" y="-99.8" font-family="Times,serif" font-size="14.00" fill="#000000">TableAsksComponent</text>
</g>
<!-- TableAsksComponent&#45;&gt;AppModule -->
<g id="edge29" class="edge">
<title>TableAsksComponent&#45;&gt;AppModule</title>
<path fill="none" stroke="#000000" d="M1823,-122.308C1823,-142.1455 1823,-171 1823,-171 1823,-171 3268.005,-171 3268.005,-171"/>
<polygon fill="#000000" stroke="#000000" points="3268.0051,-174.5001 3278.005,-171 3268.005,-167.5001 3268.0051,-174.5001"/>
</g>
<!-- TableBidsComponent -->
<g id="node29" class="node">
<title>TableBidsComponent</title>
<polygon fill="#ffffb3" stroke="#000000" points="1734.3767,-122 1595.6233,-122 1595.6233,-86 1734.3767,-86 1734.3767,-122"/>
<text text-anchor="middle" x="1665" y="-99.8" font-family="Times,serif" font-size="14.00" fill="#000000">TableBidsComponent</text>
</g>
<!-- TableBidsComponent&#45;&gt;AppModule -->
<g id="edge30" class="edge">
<title>TableBidsComponent&#45;&gt;AppModule</title>
<path fill="none" stroke="#000000" d="M1665,-122.2228C1665,-142.3652 1665,-172 1665,-172 1665,-172 3268.2619,-172 3268.2619,-172"/>
<polygon fill="#000000" stroke="#000000" points="3268.262,-175.5001 3278.2619,-172 3268.2619,-168.5001 3268.262,-175.5001"/>
</g>
<!-- TableComponent -->
<g id="node30" class="node">
<title>TableComponent</title>
<polygon fill="#ffffb3" stroke="#000000" points="1577.705,-122 1464.295,-122 1464.295,-86 1577.705,-86 1577.705,-122"/>
<text text-anchor="middle" x="1521" y="-99.8" font-family="Times,serif" font-size="14.00" fill="#000000">TableComponent</text>
</g>
<!-- TableComponent&#45;&gt;AppModule -->
<g id="edge31" class="edge">
<title>TableComponent&#45;&gt;AppModule</title>
<path fill="none" stroke="#000000" d="M1521,-122.0267C1521,-142.7672 1521,-174 1521,-174 1521,-174 3268.1791,-174 3268.1791,-174"/>
<polygon fill="#000000" stroke="#000000" points="3268.1791,-177.5001 3278.1791,-174 3268.1791,-170.5001 3268.1791,-177.5001"/>
</g>
<!-- TableOrderbookComponent -->
<g id="node31" class="node">
<title>TableOrderbookComponent</title>
<polygon fill="#ffffb3" stroke="#000000" points="1445.8473,-122 1272.1527,-122 1272.1527,-86 1445.8473,-86 1445.8473,-122"/>
<text text-anchor="middle" x="1359" y="-99.8" font-family="Times,serif" font-size="14.00" fill="#000000">TableOrderbookComponent</text>
</g>
<!-- TableOrderbookComponent&#45;&gt;AppModule -->
<g id="edge32" class="edge">
<title>TableOrderbookComponent&#45;&gt;AppModule</title>
<path fill="none" stroke="#000000" d="M1359,-122.1686C1359,-143.498 1359,-176 1359,-176 1359,-176 3268.1345,-176 3268.1345,-176"/>
<polygon fill="#000000" stroke="#000000" points="3268.1345,-179.5001 3278.1345,-176 3268.1345,-172.5001 3268.1345,-179.5001"/>
</g>
<!-- TableOrdersComponent -->
<g id="node32" class="node">
<title>TableOrdersComponent</title>
<polygon fill="#ffffb3" stroke="#000000" points="1253.7921,-122 1102.2079,-122 1102.2079,-86 1253.7921,-86 1253.7921,-122"/>
<text text-anchor="middle" x="1178" y="-99.8" font-family="Times,serif" font-size="14.00" fill="#000000">TableOrdersComponent</text>
</g>
<!-- TableOrdersComponent&#45;&gt;AppModule -->
<g id="edge33" class="edge">
<title>TableOrdersComponent&#45;&gt;AppModule</title>
<path fill="none" stroke="#000000" d="M1178,-122.2921C1178,-144.2057 1178,-178 1178,-178 1178,-178 3268.1732,-178 3268.1732,-178"/>
<polygon fill="#000000" stroke="#000000" points="3268.1732,-181.5001 3278.1732,-178 3268.1731,-174.5001 3268.1732,-181.5001"/>
</g>
<!-- TableSignalsComponent -->
<g id="node33" class="node">
<title>TableSignalsComponent</title>
<polygon fill="#ffffb3" stroke="#000000" points="1084.4284,-122 929.5716,-122 929.5716,-86 1084.4284,-86 1084.4284,-122"/>
<text text-anchor="middle" x="1007" y="-99.8" font-family="Times,serif" font-size="14.00" fill="#000000">TableSignalsComponent</text>
</g>
<!-- TableSignalsComponent&#45;&gt;AppModule -->
<g id="edge34" class="edge">
<title>TableSignalsComponent&#45;&gt;AppModule</title>
<path fill="none" stroke="#000000" d="M1007,-122.0109C1007,-144.4852 1007,-180 1007,-180 1007,-180 3267.8791,-180 3267.8791,-180"/>
<polygon fill="#000000" stroke="#000000" points="3267.8791,-183.5001 3277.8791,-180 3267.879,-176.5001 3267.8791,-183.5001"/>
</g>
<!-- TableTradesComponent -->
<g id="node34" class="node">
<title>TableTradesComponent</title>
<polygon fill="#ffffb3" stroke="#000000" points="911.7921,-122 760.2079,-122 760.2079,-86 911.7921,-86 911.7921,-122"/>
<text text-anchor="middle" x="836" y="-99.8" font-family="Times,serif" font-size="14.00" fill="#000000">TableTradesComponent</text>
</g>
<!-- TableTradesComponent&#45;&gt;AppModule -->
<g id="edge35" class="edge">
<title>TableTradesComponent&#45;&gt;AppModule</title>
<path fill="none" stroke="#000000" d="M836,-122.2479C836,-145.0179 836,-181 836,-181 836,-181 3268.1865,-181 3268.1865,-181"/>
<polygon fill="#000000" stroke="#000000" points="3268.1865,-184.5001 3278.1865,-181 3268.1864,-177.5001 3268.1865,-184.5001"/>
</g>
<!-- TradesViewComponent -->
<g id="node35" class="node">
<title>TradesViewComponent</title>
<polygon fill="#ffffb3" stroke="#000000" points="741.738,-122 592.262,-122 592.262,-86 741.738,-86 741.738,-122"/>
<text text-anchor="middle" x="667" y="-99.8" font-family="Times,serif" font-size="14.00" fill="#000000">TradesViewComponent</text>
</g>
<!-- TradesViewComponent&#45;&gt;AppModule -->
<g id="edge36" class="edge">
<title>TradesViewComponent&#45;&gt;AppModule</title>
<path fill="none" stroke="#000000" d="M667,-122.3228C667,-145.6602 667,-183 667,-183 667,-183 3268.3277,-183 3268.3277,-183"/>
<polygon fill="#000000" stroke="#000000" points="3268.3277,-186.5001 3278.3277,-183 3268.3277,-179.5001 3268.3277,-186.5001"/>
</g>
<!-- AppComponent  -->
<g id="node38" class="node">
<title>AppComponent </title>
<polygon fill="#80b1d3" stroke="#000000" points="3374.439,-258 3265.561,-258 3265.561,-222 3374.439,-222 3374.439,-258"/>
<text text-anchor="middle" x="3320" y="-235.8" font-family="Times,serif" font-size="14.00" fill="#000000">AppComponent </text>
</g>
<!-- AppModule&#45;&gt;AppComponent  -->
<g id="edge38" class="edge">
<title>AppModule&#45;&gt;AppComponent </title>
<path fill="none" stroke="#000000" stroke-dasharray="1,5" d="M3320,-190.2228C3320,-190.2228 3320,-211.7269 3320,-211.7269"/>
<polygon fill="#000000" stroke="#000000" points="3316.5001,-211.7269 3320,-221.7269 3323.5001,-211.727 3316.5001,-211.7269"/>
</g>
<!-- FgMaterialModule -->
<g id="node37" class="node">
<title>FgMaterialModule</title>
<polygon fill="#8dd3c7" stroke="#000000" points="6580.7534,-122 6577.7534,-126 6556.7534,-126 6553.7534,-122 6459.2466,-122 6459.2466,-86 6580.7534,-86 6580.7534,-122"/>
<text text-anchor="middle" x="6520" y="-99.8" font-family="Times,serif" font-size="14.00" fill="#000000">FgMaterialModule</text>
</g>
<!-- FgMaterialModule&#45;&gt;AppModule -->
<g id="edge37" class="edge">
<title>FgMaterialModule&#45;&gt;AppModule</title>
<path fill="none" stroke="#000000" d="M6499.7078,-122.0098C6499.7078,-146.4207 6499.7078,-187 6499.7078,-187 6499.7078,-187 3371.6594,-187 3371.6594,-187"/>
<polygon fill="#000000" stroke="#000000" points="3371.6594,-183.5001 3361.6594,-187 3371.6594,-190.5001 3371.6594,-183.5001"/>
</g>
<!-- FgAngularMaterialDemoComponent  -->
<g id="node43" class="node">
<title>FgAngularMaterialDemoComponent </title>
<polygon fill="#fb8072" stroke="#000000" points="6848.62,-190 6621.38,-190 6621.38,-154 6848.62,-154 6848.62,-190"/>
<text text-anchor="middle" x="6735" y="-167.8" font-family="Times,serif" font-size="14.00" fill="#000000">FgAngularMaterialDemoComponent </text>
</g>
<!-- FgMaterialModule&#45;&gt;FgAngularMaterialDemoComponent  -->
<g id="edge43" class="edge">
<title>FgMaterialModule&#45;&gt;FgAngularMaterialDemoComponent </title>
<path fill="none" stroke="#000000" stroke-dasharray="5,2" d="M6540.2922,-122.0263C6540.2922,-146.9773 6540.2922,-189 6540.2922,-189 6540.2922,-189 6611.1743,-189 6611.1743,-189"/>
<polygon fill="#000000" stroke="#000000" points="6611.1743,-192.5001 6621.1743,-189 6611.1743,-185.5001 6611.1743,-192.5001"/>
</g>
<!-- FgAppService -->
<g id="node39" class="node">
<title>FgAppService</title>
<ellipse fill="#fdb462" stroke="#000000" cx="501" cy="-104" rx="66.6344" ry="18"/>
<text text-anchor="middle" x="501" y="-99.8" font-family="Times,serif" font-size="14.00" fill="#000000">FgAppService</text>
</g>
<!-- FgAppService&#45;&gt;AppModule -->
<g id="edge39" class="edge">
<title>FgAppService&#45;&gt;AppModule</title>
<path fill="none" stroke="#000000" d="M501,-122.3802C501,-146.2785 501,-185 501,-185 501,-185 3268.239,-185 3268.239,-185"/>
<polygon fill="#000000" stroke="#000000" points="3268.239,-188.5001 3278.239,-185 3268.239,-181.5001 3268.239,-188.5001"/>
</g>
<!-- FgComponentBaseService -->
<g id="node40" class="node">
<title>FgComponentBaseService</title>
<ellipse fill="#fdb462" stroke="#000000" cx="302" cy="-104" rx="114.046" ry="18"/>
<text text-anchor="middle" x="302" y="-99.8" font-family="Times,serif" font-size="14.00" fill="#000000">FgComponentBaseService</text>
</g>
<!-- FgComponentBaseService&#45;&gt;AppModule -->
<g id="edge40" class="edge">
<title>FgComponentBaseService&#45;&gt;AppModule</title>
<path fill="none" stroke="#000000" d="M302,-122.0098C302,-146.4207 302,-187 302,-187 302,-187 3268.1994,-187 3268.1994,-187"/>
<polygon fill="#000000" stroke="#000000" points="3268.1994,-190.5001 3278.1994,-187 3268.1994,-183.5001 3268.1994,-190.5001"/>
</g>
<!-- FgEventService -->
<g id="node41" class="node">
<title>FgEventService</title>
<ellipse fill="#fdb462" stroke="#000000" cx="97" cy="-104" rx="72.9315" ry="18"/>
<text text-anchor="middle" x="97" y="-99.8" font-family="Times,serif" font-size="14.00" fill="#000000">FgEventService</text>
</g>
<!-- FgEventService&#45;&gt;AppModule -->
<g id="edge41" class="edge">
<title>FgEventService&#45;&gt;AppModule</title>
<path fill="none" stroke="#000000" d="M97,-122.0263C97,-146.9773 97,-189 97,-189 97,-189 3268.0706,-189 3268.0706,-189"/>
<polygon fill="#000000" stroke="#000000" points="3268.0706,-192.5001 3278.0706,-189 3268.0706,-185.5001 3268.0706,-192.5001"/>
</g>
<!-- FgAngularMaterialDemoComponent -->
<g id="node42" class="node">
<title>FgAngularMaterialDemoComponent</title>
<polygon fill="#ffffb3" stroke="#000000" points="7096.6203,-190 6873.3797,-190 6873.3797,-154 7096.6203,-154 7096.6203,-190"/>
<text text-anchor="middle" x="6985" y="-167.8" font-family="Times,serif" font-size="14.00" fill="#000000">FgAngularMaterialDemoComponent</text>
</g>
<!-- FgAngularMaterialDemoComponent&#45;&gt;FgMaterialModule -->
<g id="edge42" class="edge">
<title>FgAngularMaterialDemoComponent&#45;&gt;FgMaterialModule</title>
<path fill="none" stroke="#000000" d="M6985,-153.7772C6985,-133.6348 6985,-104 6985,-104 6985,-104 6590.7906,-104 6590.7906,-104"/>
<polygon fill="#000000" stroke="#000000" points="6590.7907,-100.5001 6580.7906,-104 6590.7906,-107.5001 6590.7907,-100.5001"/>
</g>
</g>
</svg>
