<?xml version="1.0" encoding="UTF-8" standalone="no"?>
<!DOCTYPE svg PUBLIC "-//W3C//DTD SVG 1.1//EN"
 "http://www.w3.org/Graphics/SVG/1.1/DTD/svg11.dtd">
<!-- Generated by graphviz version 2.40.1 (20161225.0304)
 -->
<!-- Title: dependencies Pages: 1 -->
<svg width="5056pt" height="290pt"
 viewBox="0.00 0.00 5056.00 290.00" xmlns="http://www.w3.org/2000/svg" xmlns:xlink="http://www.w3.org/1999/xlink">
<g id="graph0" class="graph" transform="scale(1 1) rotate(0) translate(4 286)">
<title>dependencies</title>
<polygon fill="#ffffff" stroke="transparent" points="-4,4 -4,-286 5052,-286 5052,4 -4,4"/>
<text text-anchor="start" x="2503.0091" y="-42.4" font-family="sans-serif" font-weight="bold" font-size="14.00" fill="#000000">Legend</text>
<polygon fill="#ffffb3" stroke="transparent" points="2290,-10 2290,-30 2310,-30 2310,-10 2290,-10"/>
<text text-anchor="start" x="2313.629" y="-15.4" font-family="sans-serif" font-size="14.00" fill="#000000"> &#160;Declarations</text>
<polygon fill="#8dd3c7" stroke="transparent" points="2403,-10 2403,-30 2423,-30 2423,-10 2403,-10"/>
<text text-anchor="start" x="2426.7251" y="-15.4" font-family="sans-serif" font-size="14.00" fill="#000000"> &#160;Module</text>
<polygon fill="#80b1d3" stroke="transparent" points="2489,-10 2489,-30 2509,-30 2509,-10 2489,-10"/>
<text text-anchor="start" x="2512.7812" y="-15.4" font-family="sans-serif" font-size="14.00" fill="#000000"> &#160;Bootstrap</text>
<polygon fill="#fdb462" stroke="transparent" points="2586,-10 2586,-30 2606,-30 2606,-10 2586,-10"/>
<text text-anchor="start" x="2609.6732" y="-15.4" font-family="sans-serif" font-size="14.00" fill="#000000"> &#160;Providers</text>
<polygon fill="#fb8072" stroke="transparent" points="2682,-10 2682,-30 2702,-30 2702,-10 2682,-10"/>
<text text-anchor="start" x="2705.7258" y="-15.4" font-family="sans-serif" font-size="14.00" fill="#000000"> &#160;Exports</text>
<g id="clust1" class="cluster">
<title>cluster_AppModule</title>
<polygon fill="none" stroke="#000000" stroke-dasharray="1,5" points="8,-70 8,-274 4524,-274 4524,-70 8,-70"/>
</g>
<g id="clust2" class="cluster">
<title>cluster_AppModule_declarations</title>
<polygon fill="none" stroke="#000000" points="16,-78 16,-130 4370,-130 4370,-78 16,-78"/>
</g>
<g id="clust30" class="cluster">
<title>cluster_AppModule_imports</title>
<polygon fill="none" stroke="#000000" points="4378,-78 4378,-130 4516,-130 4516,-78 4378,-78"/>
</g>
<g id="clust32" class="cluster">
<title>cluster_AppModule_bootstrap</title>
<polygon fill="none" stroke="#000000" points="2157,-214 2157,-266 2281,-266 2281,-214 2157,-214"/>
</g>
<g id="clust34" class="cluster">
<title>cluster_FgMaterialModule</title>
<polygon fill="none" stroke="#000000" stroke-dasharray="1,5" points="4532,-138 4532,-206 5040,-206 5040,-138 4532,-138"/>
</g>
<g id="clust35" class="cluster">
<title>cluster_FgMaterialModule_declarations</title>
<polygon fill="none" stroke="#000000" points="4792,-146 4792,-198 5032,-198 5032,-146 4792,-146"/>
</g>
<g id="clust38" class="cluster">
<title>cluster_FgMaterialModule_exports</title>
<polygon fill="none" stroke="#000000" points="4540,-146 4540,-198 4784,-198 4784,-146 4540,-146"/>
</g>
<!-- AppComponent -->
<g id="node1" class="node">
<title>AppComponent</title>
<polygon fill="#ffffb3" stroke="#000000" points="4361.9399,-122 4256.0601,-122 4256.0601,-86 4361.9399,-86 4361.9399,-122"/>
<text text-anchor="middle" x="4309" y="-99.8" font-family="Times,serif" font-size="14.00" fill="#000000">AppComponent</text>
</g>
<!-- AppModule -->
<g id="node28" class="node">
<title>AppModule</title>
<polygon fill="#8dd3c7" stroke="#000000" points="2260.6571,-190 2257.6571,-194 2236.6571,-194 2233.6571,-190 2177.3429,-190 2177.3429,-154 2260.6571,-154 2260.6571,-190"/>
<text text-anchor="middle" x="2219" y="-167.8" font-family="Times,serif" font-size="14.00" fill="#000000">AppModule</text>
</g>
<!-- AppComponent&#45;&gt;AppModule -->
<g id="edge1" class="edge">
<title>AppComponent&#45;&gt;AppModule</title>
<path fill="none" stroke="#000000" d="M4309,-122.1985C4309,-146.3563 4309,-186 4309,-186 4309,-186 2270.7485,-186 2270.7485,-186"/>
<polygon fill="#000000" stroke="#000000" points="2270.7486,-182.5001 2260.7485,-186 2270.7485,-189.5001 2270.7486,-182.5001"/>
</g>
<!-- AsksComponent -->
<g id="node2" class="node">
<title>AsksComponent</title>
<polygon fill="#ffffb3" stroke="#000000" points="4238.8287,-122 4129.1713,-122 4129.1713,-86 4238.8287,-86 4238.8287,-122"/>
<text text-anchor="middle" x="4184" y="-99.8" font-family="Times,serif" font-size="14.00" fill="#000000">AsksComponent</text>
</g>
<!-- AsksComponent&#45;&gt;AppModule -->
<g id="edge2" class="edge">
<title>AsksComponent&#45;&gt;AppModule</title>
<path fill="none" stroke="#000000" d="M4184,-122.1532C4184,-145.7566 4184,-184 4184,-184 4184,-184 2270.9509,-184 2270.9509,-184"/>
<polygon fill="#000000" stroke="#000000" points="2270.9509,-180.5001 2260.9509,-184 2270.9509,-187.5001 2270.9509,-180.5001"/>
</g>
<!-- BarHeaderComponent -->
<g id="node3" class="node">
<title>BarHeaderComponent</title>
<polygon fill="#ffffb3" stroke="#000000" points="4110.9552,-122 3969.0448,-122 3969.0448,-86 4110.9552,-86 4110.9552,-122"/>
<text text-anchor="middle" x="4040" y="-99.8" font-family="Times,serif" font-size="14.00" fill="#000000">BarHeaderComponent</text>
</g>
<!-- BarHeaderComponent&#45;&gt;AppModule -->
<g id="edge3" class="edge">
<title>BarHeaderComponent&#45;&gt;AppModule</title>
<path fill="none" stroke="#000000" d="M4040,-122.2479C4040,-145.0179 4040,-181 4040,-181 4040,-181 2270.8929,-181 2270.8929,-181"/>
<polygon fill="#000000" stroke="#000000" points="2270.8929,-177.5001 2260.8929,-181 2270.8929,-184.5001 2270.8929,-177.5001"/>
</g>
<!-- BarStatusComponent -->
<g id="node4" class="node">
<title>BarStatusComponent</title>
<polygon fill="#ffffb3" stroke="#000000" points="3950.7674,-122 3815.2326,-122 3815.2326,-86 3950.7674,-86 3950.7674,-122"/>
<text text-anchor="middle" x="3883" y="-99.8" font-family="Times,serif" font-size="14.00" fill="#000000">BarStatusComponent</text>
</g>
<!-- BarStatusComponent&#45;&gt;AppModule -->
<g id="edge4" class="edge">
<title>BarStatusComponent&#45;&gt;AppModule</title>
<path fill="none" stroke="#000000" d="M3883,-122.1554C3883,-144.3519 3883,-179 3883,-179 3883,-179 2270.965,-179 2270.965,-179"/>
<polygon fill="#000000" stroke="#000000" points="2270.9651,-175.5001 2260.965,-179 2270.965,-182.5001 2270.9651,-175.5001"/>
</g>
<!-- BidsComponent -->
<g id="node5" class="node">
<title>BidsComponent</title>
<polygon fill="#ffffb3" stroke="#000000" points="3797.5042,-122 3690.4958,-122 3690.4958,-86 3797.5042,-86 3797.5042,-122"/>
<text text-anchor="middle" x="3744" y="-99.8" font-family="Times,serif" font-size="14.00" fill="#000000">BidsComponent</text>
</g>
<!-- BidsComponent&#45;&gt;AppModule -->
<g id="edge5" class="edge">
<title>BidsComponent&#45;&gt;AppModule</title>
<path fill="none" stroke="#000000" d="M3744,-122.0449C3744,-143.6623 3744,-177 3744,-177 3744,-177 2270.9791,-177 2270.9791,-177"/>
<polygon fill="#000000" stroke="#000000" points="2270.9791,-173.5001 2260.9791,-177 2270.979,-180.5001 2270.9791,-173.5001"/>
</g>
<!-- DashboardComponent -->
<g id="node6" class="node">
<title>DashboardComponent</title>
<polygon fill="#ffffb3" stroke="#000000" points="3672.9734,-122 3531.0266,-122 3531.0266,-86 3672.9734,-86 3672.9734,-122"/>
<text text-anchor="middle" x="3602" y="-99.8" font-family="Times,serif" font-size="14.00" fill="#000000">DashboardComponent</text>
</g>
<!-- DashboardComponent&#45;&gt;AppModule -->
<g id="edge6" class="edge">
<title>DashboardComponent&#45;&gt;AppModule</title>
<path fill="none" stroke="#000000" d="M3602,-122.2843C3602,-143.3211 3602,-175 3602,-175 3602,-175 2270.7672,-175 2270.7672,-175"/>
<polygon fill="#000000" stroke="#000000" points="2270.7673,-171.5001 2260.7672,-175 2270.7672,-178.5001 2270.7673,-171.5001"/>
</g>
<!-- GraphPortfolioComponent -->
<g id="node7" class="node">
<title>GraphPortfolioComponent</title>
<polygon fill="#ffffb3" stroke="#000000" points="3513.0898,-122 3346.9102,-122 3346.9102,-86 3513.0898,-86 3513.0898,-122"/>
<text text-anchor="middle" x="3430" y="-99.8" font-family="Times,serif" font-size="14.00" fill="#000000">GraphPortfolioComponent</text>
</g>
<!-- GraphPortfolioComponent&#45;&gt;AppModule -->
<g id="edge7" class="edge">
<title>GraphPortfolioComponent&#45;&gt;AppModule</title>
<path fill="none" stroke="#000000" d="M3430,-122.2228C3430,-142.3652 3430,-172 3430,-172 3430,-172 2270.6854,-172 2270.6854,-172"/>
<polygon fill="#000000" stroke="#000000" points="2270.6854,-168.5001 2260.6854,-172 2270.6853,-175.5001 2270.6854,-168.5001"/>
</g>
<!-- GraphProductHistoryComponent -->
<g id="node8" class="node">
<title>GraphProductHistoryComponent</title>
<polygon fill="#ffffb3" stroke="#000000" points="3328.8557,-122 3127.1443,-122 3127.1443,-86 3328.8557,-86 3328.8557,-122"/>
<text text-anchor="middle" x="3228" y="-99.8" font-family="Times,serif" font-size="14.00" fill="#000000">GraphProductHistoryComponent</text>
</g>
<!-- GraphProductHistoryComponent&#45;&gt;AppModule -->
<g id="edge8" class="edge">
<title>GraphProductHistoryComponent&#45;&gt;AppModule</title>
<path fill="none" stroke="#000000" d="M3228,-122.0348C3228,-141.5762 3228,-170 3228,-170 3228,-170 2270.7524,-170 2270.7524,-170"/>
<polygon fill="#000000" stroke="#000000" points="2270.7525,-166.5001 2260.7524,-170 2270.7524,-173.5001 2270.7525,-166.5001"/>
</g>
<!-- ModalLoginComponent -->
<g id="node9" class="node">
<title>ModalLoginComponent</title>
<polygon fill="#ffffb3" stroke="#000000" points="3108.8258,-122 2957.1742,-122 2957.1742,-86 3108.8258,-86 3108.8258,-122"/>
<text text-anchor="middle" x="3033" y="-99.8" font-family="Times,serif" font-size="14.00" fill="#000000">ModalLoginComponent</text>
</g>
<!-- ModalLoginComponent&#45;&gt;AppModule -->
<g id="edge9" class="edge">
<title>ModalLoginComponent&#45;&gt;AppModule</title>
<path fill="none" stroke="#000000" d="M3033,-122.1686C3033,-141.0898 3033,-168 3033,-168 3033,-168 2270.7674,-168 2270.7674,-168"/>
<polygon fill="#000000" stroke="#000000" points="2270.7674,-164.5001 2260.7674,-168 2270.7673,-171.5001 2270.7674,-164.5001"/>
</g>
<!-- ModalLogoutComponent -->
<g id="node10" class="node">
<title>ModalLogoutComponent</title>
<polygon fill="#ffffb3" stroke="#000000" points="2939.3257,-122 2780.6743,-122 2780.6743,-86 2939.3257,-86 2939.3257,-122"/>
<text text-anchor="middle" x="2860" y="-99.8" font-family="Times,serif" font-size="14.00" fill="#000000">ModalLogoutComponent</text>
</g>
<!-- ModalLogoutComponent&#45;&gt;AppModule -->
<g id="edge10" class="edge">
<title>ModalLogoutComponent&#45;&gt;AppModule</title>
<path fill="none" stroke="#000000" d="M2860,-122.2667C2860,-140.5552 2860,-166 2860,-166 2860,-166 2271.0578,-166 2271.0578,-166"/>
<polygon fill="#000000" stroke="#000000" points="2271.0578,-162.5001 2261.0578,-166 2271.0578,-169.5001 2271.0578,-162.5001"/>
</g>
<!-- ModalSettingsComponent -->
<g id="node11" class="node">
<title>ModalSettingsComponent</title>
<polygon fill="#ffffb3" stroke="#000000" points="2762.4958,-122 2599.5042,-122 2599.5042,-86 2762.4958,-86 2762.4958,-122"/>
<text text-anchor="middle" x="2681" y="-99.8" font-family="Times,serif" font-size="14.00" fill="#000000">ModalSettingsComponent</text>
</g>
<!-- ModalSettingsComponent&#45;&gt;AppModule -->
<g id="edge11" class="edge">
<title>ModalSettingsComponent&#45;&gt;AppModule</title>
<path fill="none" stroke="#000000" d="M2681,-122.0225C2681,-139.3734 2681,-163 2681,-163 2681,-163 2270.8143,-163 2270.8143,-163"/>
<polygon fill="#000000" stroke="#000000" points="2270.8143,-159.5001 2260.8143,-163 2270.8142,-166.5001 2270.8143,-159.5001"/>
</g>
<!-- OrderbookComponent -->
<g id="node12" class="node">
<title>OrderbookComponent</title>
<polygon fill="#ffffb3" stroke="#000000" points="2581.9748,-122 2440.0252,-122 2440.0252,-86 2581.9748,-86 2581.9748,-122"/>
<text text-anchor="middle" x="2511" y="-99.8" font-family="Times,serif" font-size="14.00" fill="#000000">OrderbookComponent</text>
</g>
<!-- OrderbookComponent&#45;&gt;AppModule -->
<g id="edge12" class="edge">
<title>OrderbookComponent&#45;&gt;AppModule</title>
<path fill="none" stroke="#000000" d="M2511,-122.0352C2511,-138.7344 2511,-161 2511,-161 2511,-161 2270.8365,-161 2270.8365,-161"/>
<polygon fill="#000000" stroke="#000000" points="2270.8365,-157.5001 2260.8365,-161 2270.8364,-164.5001 2270.8365,-157.5001"/>
</g>
<!-- OrdersComponent -->
<g id="node13" class="node">
<title>OrdersComponent</title>
<polygon fill="#ffffb3" stroke="#000000" points="2421.9201,-122 2302.0799,-122 2302.0799,-86 2421.9201,-86 2421.9201,-122"/>
<text text-anchor="middle" x="2362" y="-99.8" font-family="Times,serif" font-size="14.00" fill="#000000">OrdersComponent</text>
</g>
<!-- OrdersComponent&#45;&gt;AppModule -->
<g id="edge13" class="edge">
<title>OrdersComponent&#45;&gt;AppModule</title>
<path fill="none" stroke="#000000" d="M2362,-122.0091C2362,-138.0494 2362,-159 2362,-159 2362,-159 2270.7459,-159 2270.7459,-159"/>
<polygon fill="#000000" stroke="#000000" points="2270.746,-155.5001 2260.7459,-159 2270.7459,-162.5001 2270.746,-155.5001"/>
</g>
<!-- PortfolioComponent -->
<g id="node14" class="node">
<title>PortfolioComponent</title>
<polygon fill="#ffffb3" stroke="#000000" points="2284.608,-122 2153.392,-122 2153.392,-86 2284.608,-86 2284.608,-122"/>
<text text-anchor="middle" x="2219" y="-99.8" font-family="Times,serif" font-size="14.00" fill="#000000">PortfolioComponent</text>
</g>
<!-- PortfolioComponent&#45;&gt;AppModule -->
<g id="edge14" class="edge">
<title>PortfolioComponent&#45;&gt;AppModule</title>
<path fill="none" stroke="#000000" d="M2219,-122.2228C2219,-122.2228 2219,-143.7269 2219,-143.7269"/>
<polygon fill="#000000" stroke="#000000" points="2215.5001,-143.7269 2219,-153.7269 2222.5001,-143.727 2215.5001,-143.7269"/>
</g>
<!-- ProductHistoryComponent -->
<g id="node15" class="node">
<title>ProductHistoryComponent</title>
<polygon fill="#ffffb3" stroke="#000000" points="2135.3738,-122 1968.6262,-122 1968.6262,-86 2135.3738,-86 2135.3738,-122"/>
<text text-anchor="middle" x="2052" y="-99.8" font-family="Times,serif" font-size="14.00" fill="#000000">ProductHistoryComponent</text>
</g>
<!-- ProductHistoryComponent&#45;&gt;AppModule -->
<g id="edge15" class="edge">
<title>ProductHistoryComponent&#45;&gt;AppModule</title>
<path fill="none" stroke="#000000" d="M2052,-122.2396C2052,-137.5706 2052,-157 2052,-157 2052,-157 2167.2896,-157 2167.2896,-157"/>
<polygon fill="#000000" stroke="#000000" points="2167.2897,-160.5001 2177.2896,-157 2167.2896,-153.5001 2167.2897,-160.5001"/>
</g>
<!-- SignalsComponent -->
<g id="node16" class="node">
<title>SignalsComponent</title>
<polygon fill="#ffffb3" stroke="#000000" points="1950.0562,-122 1827.9438,-122 1827.9438,-86 1950.0562,-86 1950.0562,-122"/>
<text text-anchor="middle" x="1889" y="-99.8" font-family="Times,serif" font-size="14.00" fill="#000000">SignalsComponent</text>
</g>
<!-- SignalsComponent&#45;&gt;AppModule -->
<g id="edge16" class="edge">
<title>SignalsComponent&#45;&gt;AppModule</title>
<path fill="none" stroke="#000000" d="M1889,-122.0091C1889,-138.0494 1889,-159 1889,-159 1889,-159 2167.2053,-159 2167.2053,-159"/>
<polygon fill="#000000" stroke="#000000" points="2167.2053,-162.5001 2177.2053,-159 2167.2052,-155.5001 2167.2053,-162.5001"/>
</g>
<!-- TabApiKeyComponent -->
<g id="node17" class="node">
<title>TabApiKeyComponent</title>
<polygon fill="#ffffb3" stroke="#000000" points="1809.9186,-122 1662.0814,-122 1662.0814,-86 1809.9186,-86 1809.9186,-122"/>
<text text-anchor="middle" x="1736" y="-99.8" font-family="Times,serif" font-size="14.00" fill="#000000">TabApiKeyComponent</text>
</g>
<!-- TabApiKeyComponent&#45;&gt;AppModule -->
<g id="edge17" class="edge">
<title>TabApiKeyComponent&#45;&gt;AppModule</title>
<path fill="none" stroke="#000000" d="M1736,-122.0336C1736,-139.0597 1736,-162 1736,-162 1736,-162 2166.9819,-162 2166.9819,-162"/>
<polygon fill="#000000" stroke="#000000" points="2166.9819,-165.5001 2176.9819,-162 2166.9818,-158.5001 2166.9819,-165.5001"/>
</g>
<!-- TabLoggingComponent -->
<g id="node18" class="node">
<title>TabLoggingComponent</title>
<polygon fill="#ffffb3" stroke="#000000" points="1644.0435,-122 1493.9565,-122 1493.9565,-86 1644.0435,-86 1644.0435,-122"/>
<text text-anchor="middle" x="1569" y="-99.8" font-family="Times,serif" font-size="14.00" fill="#000000">TabLoggingComponent</text>
</g>
<!-- TabLoggingComponent&#45;&gt;AppModule -->
<g id="edge18" class="edge">
<title>TabLoggingComponent&#45;&gt;AppModule</title>
<path fill="none" stroke="#000000" d="M1569,-122.002C1569,-139.6754 1569,-164 1569,-164 1569,-164 2166.8525,-164 2166.8525,-164"/>
<polygon fill="#000000" stroke="#000000" points="2166.8525,-167.5001 2176.8525,-164 2166.8525,-160.5001 2166.8525,-167.5001"/>
</g>
<!-- TabProductionComponent -->
<g id="node19" class="node">
<title>TabProductionComponent</title>
<polygon fill="#ffffb3" stroke="#000000" points="1475.0392,-122 1310.9608,-122 1310.9608,-86 1475.0392,-86 1475.0392,-122"/>
<text text-anchor="middle" x="1393" y="-99.8" font-family="Times,serif" font-size="14.00" fill="#000000">TabProductionComponent</text>
</g>
<!-- TabProductionComponent&#45;&gt;AppModule -->
<g id="edge19" class="edge">
<title>TabProductionComponent&#45;&gt;AppModule</title>
<path fill="none" stroke="#000000" d="M1365.5769,-122.1061C1365.5769,-141.3391 1365.5769,-169 1365.5769,-169 1365.5769,-169 2167.2599,-169 2167.2599,-169"/>
<polygon fill="#000000" stroke="#000000" points="2167.2599,-172.5001 2177.2599,-169 2167.2599,-165.5001 2167.2599,-172.5001"/>
</g>
<!-- TabProductionComponent&#45;&gt;AppModule -->
<g id="edge20" class="edge">
<title>TabProductionComponent&#45;&gt;AppModule</title>
<path fill="none" stroke="#000000" d="M1420.4231,-122.2667C1420.4231,-140.5552 1420.4231,-166 1420.4231,-166 1420.4231,-166 2167.1894,-166 2167.1894,-166"/>
<polygon fill="#000000" stroke="#000000" points="2167.1894,-169.5001 2177.1894,-166 2167.1894,-162.5001 2167.1894,-169.5001"/>
</g>
<!-- TabTestComponent -->
<g id="node20" class="node">
<title>TabTestComponent</title>
<polygon fill="#ffffb3" stroke="#000000" points="1292.7022,-122 1165.2978,-122 1165.2978,-86 1292.7022,-86 1292.7022,-122"/>
<text text-anchor="middle" x="1229" y="-99.8" font-family="Times,serif" font-size="14.00" fill="#000000">TabTestComponent</text>
</g>
<!-- TabTestComponent&#45;&gt;AppModule -->
<g id="edge21" class="edge">
<title>TabTestComponent&#45;&gt;AppModule</title>
<path fill="none" stroke="#000000" d="M1229,-122.308C1229,-142.1455 1229,-171 1229,-171 1229,-171 2167.0933,-171 2167.0933,-171"/>
<polygon fill="#000000" stroke="#000000" points="2167.0933,-174.5001 2177.0933,-171 2167.0932,-167.5001 2167.0933,-174.5001"/>
</g>
<!-- TableAsksComponent -->
<g id="node21" class="node">
<title>TableAsksComponent</title>
<polygon fill="#ffffb3" stroke="#000000" points="1147.7007,-122 1006.2993,-122 1006.2993,-86 1147.7007,-86 1147.7007,-122"/>
<text text-anchor="middle" x="1077" y="-99.8" font-family="Times,serif" font-size="14.00" fill="#000000">TableAsksComponent</text>
</g>
<!-- TableAsksComponent&#45;&gt;AppModule -->
<g id="edge22" class="edge">
<title>TableAsksComponent&#45;&gt;AppModule</title>
<path fill="none" stroke="#000000" d="M1077,-122.0267C1077,-142.7672 1077,-174 1077,-174 1077,-174 2167.3417,-174 2167.3417,-174"/>
<polygon fill="#000000" stroke="#000000" points="2167.3418,-177.5001 2177.3417,-174 2167.3417,-170.5001 2167.3418,-177.5001"/>
</g>
<!-- TableBestBidComponent -->
<g id="node22" class="node">
<title>TableBestBidComponent</title>
<polygon fill="#ffffb3" stroke="#000000" points="988.3187,-122 829.6813,-122 829.6813,-86 988.3187,-86 988.3187,-122"/>
<text text-anchor="middle" x="909" y="-99.8" font-family="Times,serif" font-size="14.00" fill="#000000">TableBestBidComponent</text>
</g>
<!-- TableBestBidComponent&#45;&gt;AppModule -->
<g id="edge23" class="edge">
<title>TableBestBidComponent&#45;&gt;AppModule</title>
<path fill="none" stroke="#000000" d="M909,-122.1686C909,-143.498 909,-176 909,-176 909,-176 2167.2649,-176 2167.2649,-176"/>
<polygon fill="#000000" stroke="#000000" points="2167.2649,-179.5001 2177.2649,-176 2167.2649,-172.5001 2167.2649,-179.5001"/>
</g>
<!-- TableBidsComponent -->
<g id="node23" class="node">
<title>TableBidsComponent</title>
<polygon fill="#ffffb3" stroke="#000000" points="811.3767,-122 672.6233,-122 672.6233,-86 811.3767,-86 811.3767,-122"/>
<text text-anchor="middle" x="742" y="-99.8" font-family="Times,serif" font-size="14.00" fill="#000000">TableBidsComponent</text>
</g>
<!-- TableBidsComponent&#45;&gt;AppModule -->
<g id="edge24" class="edge">
<title>TableBidsComponent&#45;&gt;AppModule</title>
<path fill="none" stroke="#000000" d="M742,-122.2921C742,-144.2057 742,-178 742,-178 742,-178 2167.1755,-178 2167.1755,-178"/>
<polygon fill="#000000" stroke="#000000" points="2167.1755,-181.5001 2177.1755,-178 2167.1754,-174.5001 2167.1755,-181.5001"/>
</g>
<!-- TableOrdersComponent -->
<g id="node24" class="node">
<title>TableOrdersComponent</title>
<polygon fill="#ffffb3" stroke="#000000" points="654.7921,-122 503.2079,-122 503.2079,-86 654.7921,-86 654.7921,-122"/>
<text text-anchor="middle" x="579" y="-99.8" font-family="Times,serif" font-size="14.00" fill="#000000">TableOrdersComponent</text>
</g>
<!-- TableOrdersComponent&#45;&gt;AppModule -->
<g id="edge25" class="edge">
<title>TableOrdersComponent&#45;&gt;AppModule</title>
<path fill="none" stroke="#000000" d="M579,-122.2479C579,-145.0179 579,-181 579,-181 579,-181 2167.2272,-181 2167.2272,-181"/>
<polygon fill="#000000" stroke="#000000" points="2167.2273,-184.5001 2177.2272,-181 2167.2272,-177.5001 2167.2273,-184.5001"/>
</g>
<!-- TableSignalsComponent -->
<g id="node25" class="node">
<title>TableSignalsComponent</title>
<polygon fill="#ffffb3" stroke="#000000" points="485.4284,-122 330.5716,-122 330.5716,-86 485.4284,-86 485.4284,-122"/>
<text text-anchor="middle" x="408" y="-99.8" font-family="Times,serif" font-size="14.00" fill="#000000">TableSignalsComponent</text>
</g>
<!-- TableSignalsComponent&#45;&gt;AppModule -->
<g id="edge26" class="edge">
<title>TableSignalsComponent&#45;&gt;AppModule</title>
<path fill="none" stroke="#000000" d="M408,-122.3228C408,-145.6602 408,-183 408,-183 408,-183 2167.3372,-183 2167.3372,-183"/>
<polygon fill="#000000" stroke="#000000" points="2167.3372,-186.5001 2177.3372,-183 2167.3371,-179.5001 2167.3372,-186.5001"/>
</g>
<!-- TableTradesComponent -->
<g id="node26" class="node">
<title>TableTradesComponent</title>
<polygon fill="#ffffb3" stroke="#000000" points="312.7921,-122 161.2079,-122 161.2079,-86 312.7921,-86 312.7921,-122"/>
<text text-anchor="middle" x="237" y="-99.8" font-family="Times,serif" font-size="14.00" fill="#000000">TableTradesComponent</text>
</g>
<!-- TableTradesComponent&#45;&gt;AppModule -->
<g id="edge27" class="edge">
<title>TableTradesComponent&#45;&gt;AppModule</title>
<path fill="none" stroke="#000000" d="M237,-122.1985C237,-146.3563 237,-186 237,-186 237,-186 2167.1458,-186 2167.1458,-186"/>
<polygon fill="#000000" stroke="#000000" points="2167.1458,-189.5001 2177.1458,-186 2167.1458,-182.5001 2167.1458,-189.5001"/>
</g>
<!-- TradesComponent -->
<g id="node27" class="node">
<title>TradesComponent</title>
<polygon fill="#ffffb3" stroke="#000000" points="143.9201,-122 24.0799,-122 24.0799,-86 143.9201,-86 143.9201,-122"/>
<text text-anchor="middle" x="84" y="-99.8" font-family="Times,serif" font-size="14.00" fill="#000000">TradesComponent</text>
</g>
<!-- TradesComponent&#45;&gt;AppModule -->
<g id="edge28" class="edge">
<title>TradesComponent&#45;&gt;AppModule</title>
<path fill="none" stroke="#000000" d="M84,-122.2267C84,-146.9318 84,-188 84,-188 84,-188 2167.3099,-188 2167.3099,-188"/>
<polygon fill="#000000" stroke="#000000" points="2167.3099,-191.5001 2177.3099,-188 2167.3098,-184.5001 2167.3099,-191.5001"/>
</g>
<!-- AppComponent  -->
<g id="node30" class="node">
<title>AppComponent </title>
<polygon fill="#80b1d3" stroke="#000000" points="2273.439,-258 2164.561,-258 2164.561,-222 2273.439,-222 2273.439,-258"/>
<text text-anchor="middle" x="2219" y="-235.8" font-family="Times,serif" font-size="14.00" fill="#000000">AppComponent </text>
</g>
<!-- AppModule&#45;&gt;AppComponent  -->
<g id="edge30" class="edge">
<title>AppModule&#45;&gt;AppComponent </title>
<path fill="none" stroke="#000000" stroke-dasharray="1,5" d="M2219,-190.2228C2219,-190.2228 2219,-211.7269 2219,-211.7269"/>
<polygon fill="#000000" stroke="#000000" points="2215.5001,-211.7269 2219,-221.7269 2222.5001,-211.727 2215.5001,-211.7269"/>
</g>
<!-- FgMaterialModule -->
<g id="node29" class="node">
<title>FgMaterialModule</title>
<polygon fill="#8dd3c7" stroke="#000000" points="4507.7534,-122 4504.7534,-126 4483.7534,-126 4480.7534,-122 4386.2466,-122 4386.2466,-86 4507.7534,-86 4507.7534,-122"/>
<text text-anchor="middle" x="4447" y="-99.8" font-family="Times,serif" font-size="14.00" fill="#000000">FgMaterialModule</text>
</g>
<!-- FgMaterialModule&#45;&gt;AppModule -->
<g id="edge29" class="edge">
<title>FgMaterialModule&#45;&gt;AppModule</title>
<path fill="none" stroke="#000000" d="M4426.7078,-122.2267C4426.7078,-146.9318 4426.7078,-188 4426.7078,-188 4426.7078,-188 2271.1305,-188 2271.1305,-188"/>
<polygon fill="#000000" stroke="#000000" points="2271.1306,-184.5001 2261.1305,-188 2271.1305,-191.5001 2271.1306,-184.5001"/>
</g>
<!-- FgAngularMaterialDemoComponent  -->
<g id="node32" class="node">
<title>FgAngularMaterialDemoComponent </title>
<polygon fill="#fb8072" stroke="#000000" points="4775.62,-190 4548.38,-190 4548.38,-154 4775.62,-154 4775.62,-190"/>
<text text-anchor="middle" x="4662" y="-167.8" font-family="Times,serif" font-size="14.00" fill="#000000">FgAngularMaterialDemoComponent </text>
</g>
<!-- FgMaterialModule&#45;&gt;FgAngularMaterialDemoComponent  -->
<g id="edge32" class="edge">
<title>FgMaterialModule&#45;&gt;FgAngularMaterialDemoComponent </title>
<path fill="none" stroke="#000000" stroke-dasharray="5,2" d="M4467.2922,-122.2396C4467.2922,-137.5706 4467.2922,-157 4467.2922,-157 4467.2922,-157 4538.1743,-157 4538.1743,-157"/>
<polygon fill="#000000" stroke="#000000" points="4538.1743,-160.5001 4548.1743,-157 4538.1743,-153.5001 4538.1743,-160.5001"/>
</g>
<!-- FgAngularMaterialDemoComponent -->
<g id="node31" class="node">
<title>FgAngularMaterialDemoComponent</title>
<polygon fill="#ffffb3" stroke="#000000" points="5023.6203,-190 4800.3797,-190 4800.3797,-154 5023.6203,-154 5023.6203,-190"/>
<text text-anchor="middle" x="4912" y="-167.8" font-family="Times,serif" font-size="14.00" fill="#000000">FgAngularMaterialDemoComponent</text>
</g>
<!-- FgAngularMaterialDemoComponent&#45;&gt;FgMaterialModule -->
<g id="edge31" class="edge">
<title>FgAngularMaterialDemoComponent&#45;&gt;FgMaterialModule</title>
<path fill="none" stroke="#000000" d="M4912,-153.7772C4912,-133.6348 4912,-104 4912,-104 4912,-104 4517.7906,-104 4517.7906,-104"/>
<polygon fill="#000000" stroke="#000000" points="4517.7907,-100.5001 4507.7906,-104 4517.7906,-107.5001 4517.7907,-100.5001"/>
</g>
</g>
</svg>
