<?xml version="1.0" encoding="UTF-8" standalone="no"?>
<!DOCTYPE svg PUBLIC "-//W3C//DTD SVG 1.1//EN"
 "http://www.w3.org/Graphics/SVG/1.1/DTD/svg11.dtd">
<!-- Generated by graphviz version 2.40.1 (20161225.0304)
 -->
<!-- Title: dependencies Pages: 1 -->
<svg width="8764pt" height="358pt"
 viewBox="0.00 0.00 8764.00 358.00" xmlns="http://www.w3.org/2000/svg" xmlns:xlink="http://www.w3.org/1999/xlink">
<g id="graph0" class="graph" transform="scale(1 1) rotate(0) translate(4 354)">
<title>dependencies</title>
<polygon fill="#ffffff" stroke="transparent" points="-4,4 -4,-354 8760,-354 8760,4 -4,4"/>
<text text-anchor="start" x="4357.0091" y="-42.4" font-family="sans-serif" font-weight="bold" font-size="14.00" fill="#000000">Legend</text>
<polygon fill="#ffffb3" stroke="transparent" points="4144,-10 4144,-30 4164,-30 4164,-10 4144,-10"/>
<text text-anchor="start" x="4167.629" y="-15.4" font-family="sans-serif" font-size="14.00" fill="#000000"> &#160;Declarations</text>
<polygon fill="#8dd3c7" stroke="transparent" points="4257,-10 4257,-30 4277,-30 4277,-10 4257,-10"/>
<text text-anchor="start" x="4280.7251" y="-15.4" font-family="sans-serif" font-size="14.00" fill="#000000"> &#160;Module</text>
<polygon fill="#80b1d3" stroke="transparent" points="4343,-10 4343,-30 4363,-30 4363,-10 4343,-10"/>
<text text-anchor="start" x="4366.7812" y="-15.4" font-family="sans-serif" font-size="14.00" fill="#000000"> &#160;Bootstrap</text>
<polygon fill="#fdb462" stroke="transparent" points="4440,-10 4440,-30 4460,-30 4460,-10 4440,-10"/>
<text text-anchor="start" x="4463.6732" y="-15.4" font-family="sans-serif" font-size="14.00" fill="#000000"> &#160;Providers</text>
<polygon fill="#fb8072" stroke="transparent" points="4536,-10 4536,-30 4556,-30 4556,-10 4536,-10"/>
<text text-anchor="start" x="4559.7258" y="-15.4" font-family="sans-serif" font-size="14.00" fill="#000000"> &#160;Exports</text>
<g id="clust1" class="cluster">
<title>cluster_ApiModule</title>
<polygon fill="none" stroke="#000000" stroke-dasharray="1,5" points="8,-70 8,-198 1319,-198 1319,-70 8,-70"/>
</g>
<g id="clust6" class="cluster">
<title>cluster_ApiModule_providers</title>
<polygon fill="none" stroke="#000000" points="16,-78 16,-130 1311,-130 1311,-78 16,-78"/>
</g>
<g id="clust7" class="cluster">
<title>cluster_AppModule</title>
<polygon fill="none" stroke="#000000" stroke-dasharray="1,5" points="1327,-138 1327,-342 8232,-342 8232,-138 1327,-138"/>
</g>
<g id="clust8" class="cluster">
<title>cluster_AppModule_declarations</title>
<polygon fill="none" stroke="#000000" points="1903,-146 1903,-198 8078,-198 8078,-146 1903,-146"/>
</g>
<g id="clust46" class="cluster">
<title>cluster_AppModule_imports</title>
<polygon fill="none" stroke="#000000" points="8086,-146 8086,-198 8224,-198 8224,-146 8086,-146"/>
</g>
<g id="clust48" class="cluster">
<title>cluster_AppModule_bootstrap</title>
<polygon fill="none" stroke="#000000" points="4664,-282 4664,-334 4788,-334 4788,-282 4664,-282"/>
</g>
<g id="clust49" class="cluster">
<title>cluster_AppModule_providers</title>
<polygon fill="none" stroke="#000000" points="1335,-146 1335,-198 1895,-198 1895,-146 1335,-146"/>
</g>
<g id="clust50" class="cluster">
<title>cluster_FgMaterialModule</title>
<polygon fill="none" stroke="#000000" stroke-dasharray="1,5" points="8240,-206 8240,-274 8748,-274 8748,-206 8240,-206"/>
</g>
<g id="clust51" class="cluster">
<title>cluster_FgMaterialModule_declarations</title>
<polygon fill="none" stroke="#000000" points="8500,-214 8500,-266 8740,-266 8740,-214 8500,-214"/>
</g>
<g id="clust54" class="cluster">
<title>cluster_FgMaterialModule_exports</title>
<polygon fill="none" stroke="#000000" points="8248,-214 8248,-266 8492,-266 8492,-214 8248,-214"/>
</g>
<!-- AuthenticationService -->
<g id="node1" class="node">
<title>AuthenticationService</title>
<ellipse fill="#fdb462" stroke="#000000" cx="1206" cy="-104" rx="97.2683" ry="18"/>
<text text-anchor="middle" x="1206" y="-99.8" font-family="Times,serif" font-size="14.00" fill="#000000">AuthenticationService</text>
</g>
<!-- ApiModule -->
<g id="node9" class="node">
<title>ApiModule</title>
<polygon fill="#8dd3c7" stroke="#000000" points="761.0483,-190 758.0483,-194 737.0483,-194 734.0483,-190 680.9517,-190 680.9517,-154 761.0483,-154 761.0483,-190"/>
<text text-anchor="middle" x="721" y="-167.8" font-family="Times,serif" font-size="14.00" fill="#000000">ApiModule</text>
</g>
<!-- AuthenticationService&#45;&gt;ApiModule -->
<g id="edge1" class="edge">
<title>AuthenticationService&#45;&gt;ApiModule</title>
<path fill="none" stroke="#000000" d="M1206,-122.2479C1206,-145.0179 1206,-181 1206,-181 1206,-181 771.1022,-181 771.1022,-181"/>
<polygon fill="#000000" stroke="#000000" points="771.1022,-177.5001 761.1022,-181 771.1022,-184.5001 771.1022,-177.5001"/>
</g>
<!-- ContractService -->
<g id="node2" class="node">
<title>ContractService</title>
<ellipse fill="#fdb462" stroke="#000000" cx="1017" cy="-104" rx="73.49" ry="18"/>
<text text-anchor="middle" x="1017" y="-99.8" font-family="Times,serif" font-size="14.00" fill="#000000">ContractService</text>
</g>
<!-- ContractService&#45;&gt;ApiModule -->
<g id="edge2" class="edge">
<title>ContractService&#45;&gt;ApiModule</title>
<path fill="none" stroke="#000000" d="M1017,-122.2228C1017,-142.3652 1017,-172 1017,-172 1017,-172 771.2279,-172 771.2279,-172"/>
<polygon fill="#000000" stroke="#000000" points="771.228,-168.5001 761.2279,-172 771.2279,-175.5001 771.228,-168.5001"/>
</g>
<!-- LogsService -->
<g id="node3" class="node">
<title>LogsService</title>
<ellipse fill="#fdb462" stroke="#000000" cx="866" cy="-104" rx="59.1083" ry="18"/>
<text text-anchor="middle" x="866" y="-99.8" font-family="Times,serif" font-size="14.00" fill="#000000">LogsService</text>
</g>
<!-- LogsService&#45;&gt;ApiModule -->
<g id="edge3" class="edge">
<title>LogsService&#45;&gt;ApiModule</title>
<path fill="none" stroke="#000000" d="M866,-122.0225C866,-139.3734 866,-163 866,-163 866,-163 771.3906,-163 771.3906,-163"/>
<polygon fill="#000000" stroke="#000000" points="771.3906,-159.5001 761.3906,-163 771.3905,-166.5001 771.3906,-159.5001"/>
</g>
<!-- MarketService -->
<g id="node4" class="node">
<title>MarketService</title>
<ellipse fill="#fdb462" stroke="#000000" cx="721" cy="-104" rx="67.7529" ry="18"/>
<text text-anchor="middle" x="721" y="-99.8" font-family="Times,serif" font-size="14.00" fill="#000000">MarketService</text>
</g>
<!-- MarketService&#45;&gt;ApiModule -->
<g id="edge4" class="edge">
<title>MarketService&#45;&gt;ApiModule</title>
<path fill="none" stroke="#000000" d="M721,-122.2228C721,-122.2228 721,-143.7269 721,-143.7269"/>
<polygon fill="#000000" stroke="#000000" points="717.5001,-143.7269 721,-153.7269 724.5001,-143.727 717.5001,-143.7269"/>
</g>
<!-- MessagesService -->
<g id="node5" class="node">
<title>MessagesService</title>
<ellipse fill="#fdb462" stroke="#000000" cx="558" cy="-104" rx="77.5627" ry="18"/>
<text text-anchor="middle" x="558" y="-99.8" font-family="Times,serif" font-size="14.00" fill="#000000">MessagesService</text>
</g>
<!-- MessagesService&#45;&gt;ApiModule -->
<g id="edge5" class="edge">
<title>MessagesService&#45;&gt;ApiModule</title>
<path fill="none" stroke="#000000" d="M558,-122.0336C558,-139.0597 558,-162 558,-162 558,-162 670.7079,-162 670.7079,-162"/>
<polygon fill="#000000" stroke="#000000" points="670.7079,-165.5001 680.7079,-162 670.7078,-158.5001 670.7079,-165.5001"/>
</g>
<!-- OrdersService -->
<g id="node6" class="node">
<title>OrdersService</title>
<ellipse fill="#fdb462" stroke="#000000" cx="396" cy="-104" rx="66.0281" ry="18"/>
<text text-anchor="middle" x="396" y="-99.8" font-family="Times,serif" font-size="14.00" fill="#000000">OrdersService</text>
</g>
<!-- OrdersService&#45;&gt;ApiModule -->
<g id="edge6" class="edge">
<title>OrdersService&#45;&gt;ApiModule</title>
<path fill="none" stroke="#000000" d="M396,-122.1061C396,-141.3391 396,-169 396,-169 396,-169 670.8227,-169 670.8227,-169"/>
<polygon fill="#000000" stroke="#000000" points="670.8227,-172.5001 680.8227,-169 670.8226,-165.5001 670.8227,-172.5001"/>
</g>
<!-- SignalsService -->
<g id="node7" class="node">
<title>SignalsService</title>
<ellipse fill="#fdb462" stroke="#000000" cx="243" cy="-104" rx="68.3536" ry="18"/>
<text text-anchor="middle" x="243" y="-99.8" font-family="Times,serif" font-size="14.00" fill="#000000">SignalsService</text>
</g>
<!-- SignalsService&#45;&gt;ApiModule -->
<g id="edge7" class="edge">
<title>SignalsService&#45;&gt;ApiModule</title>
<path fill="none" stroke="#000000" d="M243,-122.1686C243,-143.498 243,-176 243,-176 243,-176 670.6579,-176 670.6579,-176"/>
<polygon fill="#000000" stroke="#000000" points="670.658,-179.5001 680.6579,-176 670.6579,-172.5001 670.658,-179.5001"/>
</g>
<!-- TradesService -->
<g id="node8" class="node">
<title>TradesService</title>
<ellipse fill="#fdb462" stroke="#000000" cx="90" cy="-104" rx="66.0281" ry="18"/>
<text text-anchor="middle" x="90" y="-99.8" font-family="Times,serif" font-size="14.00" fill="#000000">TradesService</text>
</g>
<!-- TradesService&#45;&gt;ApiModule -->
<g id="edge8" class="edge">
<title>TradesService&#45;&gt;ApiModule</title>
<path fill="none" stroke="#000000" d="M90,-122.3228C90,-145.6602 90,-183 90,-183 90,-183 670.5682,-183 670.5682,-183"/>
<polygon fill="#000000" stroke="#000000" points="670.5683,-186.5001 680.5682,-183 670.5682,-179.5001 670.5683,-186.5001"/>
</g>
<!-- AppModule -->
<g id="node47" class="node">
<title>AppModule</title>
<polygon fill="#8dd3c7" stroke="#000000" points="4767.6571,-258 4764.6571,-262 4743.6571,-262 4740.6571,-258 4684.3429,-258 4684.3429,-222 4767.6571,-222 4767.6571,-258"/>
<text text-anchor="middle" x="4726" y="-235.8" font-family="Times,serif" font-size="14.00" fill="#000000">AppModule</text>
</g>
<!-- ApiModule&#45;&gt;AppModule -->
<g id="edge47" class="edge">
<title>ApiModule&#45;&gt;AppModule</title>
<path fill="none" stroke="#000000" d="M721,-190.0263C721,-214.9773 721,-257 721,-257 721,-257 4674.0649,-257 4674.0649,-257"/>
<polygon fill="#000000" stroke="#000000" points="4674.0649,-260.5001 4684.0649,-257 4674.0649,-253.5001 4674.0649,-260.5001"/>
</g>
<!-- AppComponent -->
<g id="node10" class="node">
<title>AppComponent</title>
<polygon fill="#ffffb3" stroke="#000000" points="8069.9399,-190 7964.0601,-190 7964.0601,-154 8069.9399,-154 8069.9399,-190"/>
<text text-anchor="middle" x="8017" y="-167.8" font-family="Times,serif" font-size="14.00" fill="#000000">AppComponent</text>
</g>
<!-- AppComponent&#45;&gt;AppModule -->
<g id="edge9" class="edge">
<title>AppComponent&#45;&gt;AppModule</title>
<path fill="none" stroke="#000000" d="M8017,-190.0098C8017,-214.4207 8017,-255 8017,-255 8017,-255 4777.9098,-255 4777.9098,-255"/>
<polygon fill="#000000" stroke="#000000" points="4777.9098,-251.5001 4767.9098,-255 4777.9097,-258.5001 4777.9098,-251.5001"/>
</g>
<!-- AsksViewComponent -->
<g id="node11" class="node">
<title>AsksViewComponent</title>
<polygon fill="#ffffb3" stroke="#000000" points="7945.647,-190 7806.353,-190 7806.353,-154 7945.647,-154 7945.647,-190"/>
<text text-anchor="middle" x="7876" y="-167.8" font-family="Times,serif" font-size="14.00" fill="#000000">AsksViewComponent</text>
</g>
<!-- AsksViewComponent&#45;&gt;AppModule -->
<g id="edge10" class="edge">
<title>AsksViewComponent&#45;&gt;AppModule</title>
<path fill="none" stroke="#000000" d="M7876,-190.1985C7876,-214.3563 7876,-254 7876,-254 7876,-254 4777.854,-254 4777.854,-254"/>
<polygon fill="#000000" stroke="#000000" points="4777.8541,-250.5001 4767.854,-254 4777.854,-257.5001 4777.8541,-250.5001"/>
</g>
<!-- BarActionComponent -->
<g id="node12" class="node">
<title>BarActionComponent</title>
<polygon fill="#ffffb3" stroke="#000000" points="7787.647,-190 7648.353,-190 7648.353,-154 7787.647,-154 7787.647,-190"/>
<text text-anchor="middle" x="7718" y="-167.8" font-family="Times,serif" font-size="14.00" fill="#000000">BarActionComponent</text>
</g>
<!-- BarActionComponent&#45;&gt;AppModule -->
<g id="edge11" class="edge">
<title>BarActionComponent&#45;&gt;AppModule</title>
<path fill="none" stroke="#000000" d="M7718,-190.1532C7718,-213.7566 7718,-252 7718,-252 7718,-252 4777.7247,-252 4777.7247,-252"/>
<polygon fill="#000000" stroke="#000000" points="4777.7247,-248.5001 4767.7247,-252 4777.7247,-255.5001 4777.7247,-248.5001"/>
</g>
<!-- BarStatusComponent -->
<g id="node13" class="node">
<title>BarStatusComponent</title>
<polygon fill="#ffffb3" stroke="#000000" points="7629.7674,-190 7494.2326,-190 7494.2326,-154 7629.7674,-154 7629.7674,-190"/>
<text text-anchor="middle" x="7562" y="-167.8" font-family="Times,serif" font-size="14.00" fill="#000000">BarStatusComponent</text>
</g>
<!-- BarStatusComponent&#45;&gt;AppModule -->
<g id="edge12" class="edge">
<title>BarStatusComponent&#45;&gt;AppModule</title>
<path fill="none" stroke="#000000" d="M7562,-190.3228C7562,-213.6602 7562,-251 7562,-251 7562,-251 4777.7356,-251 4777.7356,-251"/>
<polygon fill="#000000" stroke="#000000" points="4777.7357,-247.5001 4767.7356,-251 4777.7356,-254.5001 4777.7357,-247.5001"/>
</g>
<!-- BidsViewComponent -->
<g id="node14" class="node">
<title>BidsViewComponent</title>
<polygon fill="#ffffb3" stroke="#000000" points="7475.823,-190 7338.177,-190 7338.177,-154 7475.823,-154 7475.823,-190"/>
<text text-anchor="middle" x="7407" y="-167.8" font-family="Times,serif" font-size="14.00" fill="#000000">BidsViewComponent</text>
</g>
<!-- BidsViewComponent&#45;&gt;AppModule -->
<g id="edge13" class="edge">
<title>BidsViewComponent&#45;&gt;AppModule</title>
<path fill="none" stroke="#000000" d="M7407,-190.2479C7407,-213.0179 7407,-249 7407,-249 7407,-249 4777.8427,-249 4777.8427,-249"/>
<polygon fill="#000000" stroke="#000000" points="4777.8427,-245.5001 4767.8427,-249 4777.8426,-252.5001 4777.8427,-245.5001"/>
</g>
<!-- CardDashboardComponent -->
<g id="node15" class="node">
<title>CardDashboardComponent</title>
<polygon fill="#ffffb3" stroke="#000000" points="7320.6853,-190 7151.3147,-190 7151.3147,-154 7320.6853,-154 7320.6853,-190"/>
<text text-anchor="middle" x="7236" y="-167.8" font-family="Times,serif" font-size="14.00" fill="#000000">CardDashboardComponent</text>
</g>
<!-- CardDashboardComponent&#45;&gt;AppModule -->
<g id="edge14" class="edge">
<title>CardDashboardComponent&#45;&gt;AppModule</title>
<path fill="none" stroke="#000000" d="M7236,-190.0109C7236,-212.4852 7236,-248 7236,-248 7236,-248 4777.7307,-248 4777.7307,-248"/>
<polygon fill="#000000" stroke="#000000" points="4777.7307,-244.5001 4767.7307,-248 4777.7307,-251.5001 4777.7307,-244.5001"/>
</g>
<!-- CardViewComponent -->
<g id="node16" class="node">
<title>CardViewComponent</title>
<polygon fill="#ffffb3" stroke="#000000" points="7133.3627,-190 6994.6373,-190 6994.6373,-154 7133.3627,-154 7133.3627,-190"/>
<text text-anchor="middle" x="7064" y="-167.8" font-family="Times,serif" font-size="14.00" fill="#000000">CardViewComponent</text>
</g>
<!-- CardViewComponent&#45;&gt;AppModule -->
<g id="edge15" class="edge">
<title>CardViewComponent&#45;&gt;AppModule</title>
<path fill="none" stroke="#000000" d="M7064,-190.2921C7064,-212.2057 7064,-246 7064,-246 7064,-246 4777.8225,-246 4777.8225,-246"/>
<polygon fill="#000000" stroke="#000000" points="4777.8225,-242.5001 4767.8225,-246 4777.8224,-249.5001 4777.8225,-242.5001"/>
</g>
<!-- DashboardComponent -->
<g id="node17" class="node">
<title>DashboardComponent</title>
<polygon fill="#ffffb3" stroke="#000000" points="6976.9734,-190 6835.0266,-190 6835.0266,-154 6976.9734,-154 6976.9734,-190"/>
<text text-anchor="middle" x="6906" y="-167.8" font-family="Times,serif" font-size="14.00" fill="#000000">DashboardComponent</text>
</g>
<!-- DashboardComponent&#45;&gt;AppModule -->
<g id="edge16" class="edge">
<title>DashboardComponent&#45;&gt;AppModule</title>
<path fill="none" stroke="#000000" d="M6906,-190.1686C6906,-211.498 6906,-244 6906,-244 6906,-244 4778.084,-244 4778.084,-244"/>
<polygon fill="#000000" stroke="#000000" points="4778.084,-240.5001 4768.084,-244 4778.084,-247.5001 4778.084,-240.5001"/>
</g>
<!-- DashboardViewComponent -->
<g id="node18" class="node">
<title>DashboardViewComponent</title>
<polygon fill="#ffffb3" stroke="#000000" points="6817.292,-190 6644.708,-190 6644.708,-154 6817.292,-154 6817.292,-190"/>
<text text-anchor="middle" x="6731" y="-167.8" font-family="Times,serif" font-size="14.00" fill="#000000">DashboardViewComponent</text>
</g>
<!-- DashboardViewComponent&#45;&gt;AppModule -->
<g id="edge17" class="edge">
<title>DashboardViewComponent&#45;&gt;AppModule</title>
<path fill="none" stroke="#000000" d="M6731,-190.2843C6731,-211.3211 6731,-243 6731,-243 6731,-243 4777.8773,-243 4777.8773,-243"/>
<polygon fill="#000000" stroke="#000000" points="4777.8773,-239.5001 4767.8773,-243 4777.8772,-246.5001 4777.8773,-239.5001"/>
</g>
<!-- FgActionsComponent -->
<g id="node19" class="node">
<title>FgActionsComponent</title>
<polygon fill="#ffffb3" stroke="#000000" points="6626.6624,-190 6487.3376,-190 6487.3376,-154 6626.6624,-154 6626.6624,-190"/>
<text text-anchor="middle" x="6557" y="-167.8" font-family="Times,serif" font-size="14.00" fill="#000000">FgActionsComponent</text>
</g>
<!-- FgActionsComponent&#45;&gt;AppModule -->
<g id="edge18" class="edge">
<title>FgActionsComponent&#45;&gt;AppModule</title>
<path fill="none" stroke="#000000" d="M6557,-190.1289C6557,-210.5724 6557,-241 6557,-241 6557,-241 4777.6832,-241 4777.6832,-241"/>
<polygon fill="#000000" stroke="#000000" points="4777.6833,-237.5001 4767.6832,-241 4777.6832,-244.5001 4777.6833,-237.5001"/>
</g>
<!-- FooterComponent -->
<g id="node20" class="node">
<title>FooterComponent</title>
<polygon fill="#ffffb3" stroke="#000000" points="6468.8809,-190 6351.1191,-190 6351.1191,-154 6468.8809,-154 6468.8809,-190"/>
<text text-anchor="middle" x="6410" y="-167.8" font-family="Times,serif" font-size="14.00" fill="#000000">FooterComponent</text>
</g>
<!-- FooterComponent&#45;&gt;AppModule -->
<g id="edge19" class="edge">
<title>FooterComponent&#45;&gt;AppModule</title>
<path fill="none" stroke="#000000" d="M6410,-190.2228C6410,-210.3652 6410,-240 6410,-240 6410,-240 4778.0473,-240 4778.0473,-240"/>
<polygon fill="#000000" stroke="#000000" points="4778.0474,-236.5001 4768.0473,-240 4778.0473,-243.5001 4778.0474,-236.5001"/>
</g>
<!-- GraphComponent -->
<g id="node21" class="node">
<title>GraphComponent</title>
<polygon fill="#ffffb3" stroke="#000000" points="6333.3146,-190 6216.6854,-190 6216.6854,-154 6333.3146,-154 6333.3146,-190"/>
<text text-anchor="middle" x="6275" y="-167.8" font-family="Times,serif" font-size="14.00" fill="#000000">GraphComponent</text>
</g>
<!-- GraphComponent&#45;&gt;AppModule -->
<g id="edge20" class="edge">
<title>GraphComponent&#45;&gt;AppModule</title>
<path fill="none" stroke="#000000" d="M6275,-190.0348C6275,-209.5762 6275,-238 6275,-238 6275,-238 4777.8328,-238 4777.8328,-238"/>
<polygon fill="#000000" stroke="#000000" points="4777.8328,-234.5001 4767.8328,-238 4777.8328,-241.5001 4777.8328,-234.5001"/>
</g>
<!-- GraphPortfolioComponent -->
<g id="node22" class="node">
<title>GraphPortfolioComponent</title>
<polygon fill="#ffffb3" stroke="#000000" points="6199.0898,-190 6032.9102,-190 6032.9102,-154 6199.0898,-154 6199.0898,-190"/>
<text text-anchor="middle" x="6116" y="-167.8" font-family="Times,serif" font-size="14.00" fill="#000000">GraphPortfolioComponent</text>
</g>
<!-- GraphPortfolioComponent&#45;&gt;AppModule -->
<g id="edge21" class="edge">
<title>GraphPortfolioComponent&#45;&gt;AppModule</title>
<path fill="none" stroke="#000000" d="M6116,-190.1061C6116,-209.3391 6116,-237 6116,-237 6116,-237 4777.9786,-237 4777.9786,-237"/>
<polygon fill="#000000" stroke="#000000" points="4777.9787,-233.5001 4767.9786,-237 4777.9786,-240.5001 4777.9787,-233.5001"/>
</g>
<!-- GraphProductHistoryComponent -->
<g id="node23" class="node">
<title>GraphProductHistoryComponent</title>
<polygon fill="#ffffb3" stroke="#000000" points="6014.8557,-190 5813.1443,-190 5813.1443,-154 6014.8557,-154 6014.8557,-190"/>
<text text-anchor="middle" x="5914" y="-167.8" font-family="Times,serif" font-size="14.00" fill="#000000">GraphProductHistoryComponent</text>
</g>
<!-- GraphProductHistoryComponent&#45;&gt;AppModule -->
<g id="edge22" class="edge">
<title>GraphProductHistoryComponent&#45;&gt;AppModule</title>
<path fill="none" stroke="#000000" d="M5914,-190.2222C5914,-208.8285 5914,-235 5914,-235 5914,-235 4777.9326,-235 4777.9326,-235"/>
<polygon fill="#000000" stroke="#000000" points="4777.9326,-231.5001 4767.9326,-235 4777.9326,-238.5001 4777.9326,-231.5001"/>
</g>
<!-- HeaderComponent -->
<g id="node24" class="node">
<title>HeaderComponent</title>
<polygon fill="#ffffb3" stroke="#000000" points="5794.7437,-190 5673.2563,-190 5673.2563,-154 5794.7437,-154 5794.7437,-190"/>
<text text-anchor="middle" x="5734" y="-167.8" font-family="Times,serif" font-size="14.00" fill="#000000">HeaderComponent</text>
</g>
<!-- HeaderComponent&#45;&gt;AppModule -->
<g id="edge23" class="edge">
<title>HeaderComponent&#45;&gt;AppModule</title>
<path fill="none" stroke="#000000" d="M5734,-190.302C5734,-208.2699 5734,-233 5734,-233 5734,-233 4777.7111,-233 4777.7111,-233"/>
<polygon fill="#000000" stroke="#000000" points="4777.7111,-229.5001 4767.7111,-233 4777.711,-236.5001 4777.7111,-229.5001"/>
</g>
<!-- ModalComponent -->
<g id="node25" class="node">
<title>ModalComponent</title>
<polygon fill="#ffffb3" stroke="#000000" points="5654.8823,-190 5537.1177,-190 5537.1177,-154 5654.8823,-154 5654.8823,-190"/>
<text text-anchor="middle" x="5596" y="-167.8" font-family="Times,serif" font-size="14.00" fill="#000000">ModalComponent</text>
</g>
<!-- ModalComponent&#45;&gt;AppModule -->
<g id="edge24" class="edge">
<title>ModalComponent&#45;&gt;AppModule</title>
<path fill="none" stroke="#000000" d="M5596,-190.002C5596,-207.6754 5596,-232 5596,-232 5596,-232 4777.6688,-232 4777.6688,-232"/>
<polygon fill="#000000" stroke="#000000" points="4777.6688,-228.5001 4767.6688,-232 4777.6688,-235.5001 4777.6688,-228.5001"/>
</g>
<!-- ModalLoginComponent -->
<g id="node26" class="node">
<title>ModalLoginComponent</title>
<polygon fill="#ffffb3" stroke="#000000" points="5518.8258,-190 5367.1742,-190 5367.1742,-154 5518.8258,-154 5518.8258,-190"/>
<text text-anchor="middle" x="5443" y="-167.8" font-family="Times,serif" font-size="14.00" fill="#000000">ModalLoginComponent</text>
</g>
<!-- ModalLoginComponent&#45;&gt;AppModule -->
<g id="edge25" class="edge">
<title>ModalLoginComponent&#45;&gt;AppModule</title>
<path fill="none" stroke="#000000" d="M5443,-190.0336C5443,-207.0597 5443,-230 5443,-230 5443,-230 4777.9111,-230 4777.9111,-230"/>
<polygon fill="#000000" stroke="#000000" points="4777.9111,-226.5001 4767.9111,-230 4777.911,-233.5001 4777.9111,-226.5001"/>
</g>
<!-- ModalLogoutComponent -->
<g id="node27" class="node">
<title>ModalLogoutComponent</title>
<polygon fill="#ffffb3" stroke="#000000" points="5349.3257,-190 5190.6743,-190 5190.6743,-154 5349.3257,-154 5349.3257,-190"/>
<text text-anchor="middle" x="5270" y="-167.8" font-family="Times,serif" font-size="14.00" fill="#000000">ModalLogoutComponent</text>
</g>
<!-- ModalLogoutComponent&#45;&gt;AppModule -->
<g id="edge26" class="edge">
<title>ModalLogoutComponent&#45;&gt;AppModule</title>
<path fill="none" stroke="#000000" d="M5270,-190.0352C5270,-206.7344 5270,-229 5270,-229 5270,-229 4777.7835,-229 4777.7835,-229"/>
<polygon fill="#000000" stroke="#000000" points="4777.7835,-225.5001 4767.7835,-229 4777.7834,-232.5001 4777.7835,-225.5001"/>
</g>
<!-- ModalSettingsComponent -->
<g id="node28" class="node">
<title>ModalSettingsComponent</title>
<polygon fill="#ffffb3" stroke="#000000" points="5172.4958,-190 5009.5042,-190 5009.5042,-154 5172.4958,-154 5172.4958,-190"/>
<text text-anchor="middle" x="5091" y="-167.8" font-family="Times,serif" font-size="14.00" fill="#000000">ModalSettingsComponent</text>
</g>
<!-- ModalSettingsComponent&#45;&gt;AppModule -->
<g id="edge27" class="edge">
<title>ModalSettingsComponent&#45;&gt;AppModule</title>
<path fill="none" stroke="#000000" d="M5091,-190.0091C5091,-206.0494 5091,-227 5091,-227 5091,-227 4777.8701,-227 4777.8701,-227"/>
<polygon fill="#000000" stroke="#000000" points="4777.8702,-223.5001 4767.8701,-227 4777.8701,-230.5001 4777.8702,-223.5001"/>
</g>
<!-- OrderbookViewComponent -->
<g id="node29" class="node">
<title>OrderbookViewComponent</title>
<polygon fill="#ffffb3" stroke="#000000" points="4991.2934,-190 4818.7066,-190 4818.7066,-154 4991.2934,-154 4991.2934,-190"/>
<text text-anchor="middle" x="4905" y="-167.8" font-family="Times,serif" font-size="14.00" fill="#000000">OrderbookViewComponent</text>
</g>
<!-- OrderbookViewComponent&#45;&gt;AppModule -->
<g id="edge28" class="edge">
<title>OrderbookViewComponent&#45;&gt;AppModule</title>
<path fill="none" stroke="#000000" d="M4905,-190.2819C4905,-205.9478 4905,-226 4905,-226 4905,-226 4777.9675,-226 4777.9675,-226"/>
<polygon fill="#000000" stroke="#000000" points="4777.9676,-222.5001 4767.9675,-226 4777.9675,-229.5001 4777.9676,-222.5001"/>
</g>
<!-- OrdersViewComponent -->
<g id="node30" class="node">
<title>OrdersViewComponent</title>
<polygon fill="#ffffb3" stroke="#000000" points="4800.738,-190 4651.262,-190 4651.262,-154 4800.738,-154 4800.738,-190"/>
<text text-anchor="middle" x="4726" y="-167.8" font-family="Times,serif" font-size="14.00" fill="#000000">OrdersViewComponent</text>
</g>
<!-- OrdersViewComponent&#45;&gt;AppModule -->
<g id="edge29" class="edge">
<title>OrdersViewComponent&#45;&gt;AppModule</title>
<path fill="none" stroke="#000000" d="M4726,-190.2228C4726,-190.2228 4726,-211.7269 4726,-211.7269"/>
<polygon fill="#000000" stroke="#000000" points="4722.5001,-211.7269 4726,-221.7269 4729.5001,-211.727 4722.5001,-211.7269"/>
</g>
<!-- PortfolioViewComponent -->
<g id="node31" class="node">
<title>PortfolioViewComponent</title>
<polygon fill="#ffffb3" stroke="#000000" points="4632.927,-190 4471.073,-190 4471.073,-154 4632.927,-154 4632.927,-190"/>
<text text-anchor="middle" x="4552" y="-167.8" font-family="Times,serif" font-size="14.00" fill="#000000">PortfolioViewComponent</text>
</g>
<!-- PortfolioViewComponent&#45;&gt;AppModule -->
<g id="edge30" class="edge">
<title>PortfolioViewComponent&#45;&gt;AppModule</title>
<path fill="none" stroke="#000000" d="M4552,-190.1871C4552,-205.1824 4552,-224 4552,-224 4552,-224 4674.3227,-224 4674.3227,-224"/>
<polygon fill="#000000" stroke="#000000" points="4674.3227,-227.5001 4684.3227,-224 4674.3226,-220.5001 4674.3227,-227.5001"/>
</g>
<!-- ProductHistoryViewComponent -->
<g id="node32" class="node">
<title>ProductHistoryViewComponent</title>
<polygon fill="#ffffb3" stroke="#000000" points="4453.6923,-190 4256.3077,-190 4256.3077,-154 4453.6923,-154 4453.6923,-190"/>
<text text-anchor="middle" x="4355" y="-167.8" font-family="Times,serif" font-size="14.00" fill="#000000">ProductHistoryViewComponent</text>
</g>
<!-- ProductHistoryViewComponent&#45;&gt;AppModule -->
<g id="edge31" class="edge">
<title>ProductHistoryViewComponent&#45;&gt;AppModule</title>
<path fill="none" stroke="#000000" d="M4355,-190.2819C4355,-205.9478 4355,-226 4355,-226 4355,-226 4674.1628,-226 4674.1628,-226"/>
<polygon fill="#000000" stroke="#000000" points="4674.1628,-229.5001 4684.1628,-226 4674.1627,-222.5001 4674.1628,-229.5001"/>
</g>
<!-- SignalsViewComponent -->
<g id="node33" class="node">
<title>SignalsViewComponent</title>
<polygon fill="#ffffb3" stroke="#000000" points="4238.3739,-190 4085.6261,-190 4085.6261,-154 4238.3739,-154 4238.3739,-190"/>
<text text-anchor="middle" x="4162" y="-167.8" font-family="Times,serif" font-size="14.00" fill="#000000">SignalsViewComponent</text>
</g>
<!-- SignalsViewComponent&#45;&gt;AppModule -->
<g id="edge32" class="edge">
<title>SignalsViewComponent&#45;&gt;AppModule</title>
<path fill="none" stroke="#000000" d="M4162,-190.0091C4162,-206.0494 4162,-227 4162,-227 4162,-227 4674.0691,-227 4674.0691,-227"/>
<polygon fill="#000000" stroke="#000000" points="4674.0691,-230.5001 4684.0691,-227 4674.0691,-223.5001 4674.0691,-230.5001"/>
</g>
<!-- SwitchDayNightComponent -->
<g id="node34" class="node">
<title>SwitchDayNightComponent</title>
<polygon fill="#ffffb3" stroke="#000000" points="4067.9269,-190 3892.0731,-190 3892.0731,-154 4067.9269,-154 4067.9269,-190"/>
<text text-anchor="middle" x="3980" y="-167.8" font-family="Times,serif" font-size="14.00" fill="#000000">SwitchDayNightComponent</text>
</g>
<!-- SwitchDayNightComponent&#45;&gt;AppModule -->
<g id="edge33" class="edge">
<title>SwitchDayNightComponent&#45;&gt;AppModule</title>
<path fill="none" stroke="#000000" d="M3980,-190.0352C3980,-206.7344 3980,-229 3980,-229 3980,-229 4674.2933,-229 4674.2933,-229"/>
<polygon fill="#000000" stroke="#000000" points="4674.2933,-232.5001 4684.2933,-229 4674.2933,-225.5001 4674.2933,-232.5001"/>
</g>
<!-- TabApiKeyComponent -->
<g id="node35" class="node">
<title>TabApiKeyComponent</title>
<polygon fill="#ffffb3" stroke="#000000" points="3874.9186,-190 3727.0814,-190 3727.0814,-154 3874.9186,-154 3874.9186,-190"/>
<text text-anchor="middle" x="3801" y="-167.8" font-family="Times,serif" font-size="14.00" fill="#000000">TabApiKeyComponent</text>
</g>
<!-- TabApiKeyComponent&#45;&gt;AppModule -->
<g id="edge34" class="edge">
<title>TabApiKeyComponent&#45;&gt;AppModule</title>
<path fill="none" stroke="#000000" d="M3801,-190.0225C3801,-207.3734 3801,-231 3801,-231 3801,-231 4674.1549,-231 4674.1549,-231"/>
<polygon fill="#000000" stroke="#000000" points="4674.1549,-234.5001 4684.1549,-231 4674.1548,-227.5001 4674.1549,-234.5001"/>
</g>
<!-- TabLoggingComponent -->
<g id="node36" class="node">
<title>TabLoggingComponent</title>
<polygon fill="#ffffb3" stroke="#000000" points="3709.0435,-190 3558.9565,-190 3558.9565,-154 3709.0435,-154 3709.0435,-190"/>
<text text-anchor="middle" x="3634" y="-167.8" font-family="Times,serif" font-size="14.00" fill="#000000">TabLoggingComponent</text>
</g>
<!-- TabLoggingComponent&#45;&gt;AppModule -->
<g id="edge35" class="edge">
<title>TabLoggingComponent&#45;&gt;AppModule</title>
<path fill="none" stroke="#000000" d="M3634,-190.002C3634,-207.6754 3634,-232 3634,-232 3634,-232 4674.1942,-232 4674.1942,-232"/>
<polygon fill="#000000" stroke="#000000" points="4674.1942,-235.5001 4684.1942,-232 4674.1941,-228.5001 4674.1942,-235.5001"/>
</g>
<!-- TabProductionComponent -->
<g id="node37" class="node">
<title>TabProductionComponent</title>
<polygon fill="#ffffb3" stroke="#000000" points="3540.0392,-190 3375.9608,-190 3375.9608,-154 3540.0392,-154 3540.0392,-190"/>
<text text-anchor="middle" x="3458" y="-167.8" font-family="Times,serif" font-size="14.00" fill="#000000">TabProductionComponent</text>
</g>
<!-- TabProductionComponent&#45;&gt;AppModule -->
<g id="edge36" class="edge">
<title>TabProductionComponent&#45;&gt;AppModule</title>
<path fill="none" stroke="#000000" d="M3485.4231,-190.2667C3485.4231,-208.5552 3485.4231,-234 3485.4231,-234 3485.4231,-234 4674.0129,-234 4674.0129,-234"/>
<polygon fill="#000000" stroke="#000000" points="4674.013,-237.5001 4684.0129,-234 4674.0129,-230.5001 4674.013,-237.5001"/>
</g>
<!-- TabProductionComponent&#45;&gt;AppModule -->
<g id="edge37" class="edge">
<title>TabProductionComponent&#45;&gt;AppModule</title>
<path fill="none" stroke="#000000" d="M3430.5769,-190.1686C3430.5769,-209.0898 3430.5769,-236 3430.5769,-236 3430.5769,-236 4674.0015,-236 4674.0015,-236"/>
<polygon fill="#000000" stroke="#000000" points="4674.0016,-239.5001 4684.0015,-236 4674.0015,-232.5001 4674.0016,-239.5001"/>
</g>
<!-- TabTestComponent -->
<g id="node38" class="node">
<title>TabTestComponent</title>
<polygon fill="#ffffb3" stroke="#000000" points="3357.7022,-190 3230.2978,-190 3230.2978,-154 3357.7022,-154 3357.7022,-190"/>
<text text-anchor="middle" x="3294" y="-167.8" font-family="Times,serif" font-size="14.00" fill="#000000">TabTestComponent</text>
</g>
<!-- TabTestComponent&#45;&gt;AppModule -->
<g id="edge38" class="edge">
<title>TabTestComponent&#45;&gt;AppModule</title>
<path fill="none" stroke="#000000" d="M3294,-190.1061C3294,-209.3391 3294,-237 3294,-237 3294,-237 4674.3037,-237 4674.3037,-237"/>
<polygon fill="#000000" stroke="#000000" points="4674.3038,-240.5001 4684.3037,-237 4674.3037,-233.5001 4674.3038,-240.5001"/>
</g>
<!-- TableAsksComponent -->
<g id="node39" class="node">
<title>TableAsksComponent</title>
<polygon fill="#ffffb3" stroke="#000000" points="3212.7007,-190 3071.2993,-190 3071.2993,-154 3212.7007,-154 3212.7007,-190"/>
<text text-anchor="middle" x="3142" y="-167.8" font-family="Times,serif" font-size="14.00" fill="#000000">TableAsksComponent</text>
</g>
<!-- TableAsksComponent&#45;&gt;AppModule -->
<g id="edge39" class="edge">
<title>TableAsksComponent&#45;&gt;AppModule</title>
<path fill="none" stroke="#000000" d="M3142,-190.308C3142,-210.1455 3142,-239 3142,-239 3142,-239 4674.0398,-239 4674.0398,-239"/>
<polygon fill="#000000" stroke="#000000" points="4674.0399,-242.5001 4684.0398,-239 4674.0398,-235.5001 4674.0399,-242.5001"/>
</g>
<!-- TableBidsComponent -->
<g id="node40" class="node">
<title>TableBidsComponent</title>
<polygon fill="#ffffb3" stroke="#000000" points="3053.3767,-190 2914.6233,-190 2914.6233,-154 3053.3767,-154 3053.3767,-190"/>
<text text-anchor="middle" x="2984" y="-167.8" font-family="Times,serif" font-size="14.00" fill="#000000">TableBidsComponent</text>
</g>
<!-- TableBidsComponent&#45;&gt;AppModule -->
<g id="edge40" class="edge">
<title>TableBidsComponent&#45;&gt;AppModule</title>
<path fill="none" stroke="#000000" d="M2984,-190.2228C2984,-210.3652 2984,-240 2984,-240 2984,-240 4674.2308,-240 4674.2308,-240"/>
<polygon fill="#000000" stroke="#000000" points="4674.2308,-243.5001 4684.2308,-240 4674.2307,-236.5001 4674.2308,-243.5001"/>
</g>
<!-- TableComponent -->
<g id="node41" class="node">
<title>TableComponent</title>
<polygon fill="#ffffb3" stroke="#000000" points="2896.705,-190 2783.295,-190 2783.295,-154 2896.705,-154 2896.705,-190"/>
<text text-anchor="middle" x="2840" y="-167.8" font-family="Times,serif" font-size="14.00" fill="#000000">TableComponent</text>
</g>
<!-- TableComponent&#45;&gt;AppModule -->
<g id="edge41" class="edge">
<title>TableComponent&#45;&gt;AppModule</title>
<path fill="none" stroke="#000000" d="M2840,-190.0267C2840,-210.7672 2840,-242 2840,-242 2840,-242 4673.9639,-242 4673.9639,-242"/>
<polygon fill="#000000" stroke="#000000" points="4673.9639,-245.5001 4683.9639,-242 4673.9639,-238.5001 4673.9639,-245.5001"/>
</g>
<!-- TableOrderbookComponent -->
<g id="node42" class="node">
<title>TableOrderbookComponent</title>
<polygon fill="#ffffb3" stroke="#000000" points="2764.8473,-190 2591.1527,-190 2591.1527,-154 2764.8473,-154 2764.8473,-190"/>
<text text-anchor="middle" x="2678" y="-167.8" font-family="Times,serif" font-size="14.00" fill="#000000">TableOrderbookComponent</text>
</g>
<!-- TableOrderbookComponent&#45;&gt;AppModule -->
<g id="edge42" class="edge">
<title>TableOrderbookComponent&#45;&gt;AppModule</title>
<path fill="none" stroke="#000000" d="M2678,-190.1686C2678,-211.498 2678,-244 2678,-244 2678,-244 4674.1624,-244 4674.1624,-244"/>
<polygon fill="#000000" stroke="#000000" points="4674.1624,-247.5001 4684.1624,-244 4674.1623,-240.5001 4674.1624,-247.5001"/>
</g>
<!-- TableOrdersComponent -->
<g id="node43" class="node">
<title>TableOrdersComponent</title>
<polygon fill="#ffffb3" stroke="#000000" points="2572.7921,-190 2421.2079,-190 2421.2079,-154 2572.7921,-154 2572.7921,-190"/>
<text text-anchor="middle" x="2497" y="-167.8" font-family="Times,serif" font-size="14.00" fill="#000000">TableOrdersComponent</text>
</g>
<!-- TableOrdersComponent&#45;&gt;AppModule -->
<g id="edge43" class="edge">
<title>TableOrdersComponent&#45;&gt;AppModule</title>
<path fill="none" stroke="#000000" d="M2497,-190.0449C2497,-211.6623 2497,-245 2497,-245 2497,-245 4673.9536,-245 4673.9536,-245"/>
<polygon fill="#000000" stroke="#000000" points="4673.9536,-248.5001 4683.9536,-245 4673.9535,-241.5001 4673.9536,-248.5001"/>
</g>
<!-- TableSignalsComponent -->
<g id="node44" class="node">
<title>TableSignalsComponent</title>
<polygon fill="#ffffb3" stroke="#000000" points="2403.4284,-190 2248.5716,-190 2248.5716,-154 2403.4284,-154 2403.4284,-190"/>
<text text-anchor="middle" x="2326" y="-167.8" font-family="Times,serif" font-size="14.00" fill="#000000">TableSignalsComponent</text>
</g>
<!-- TableSignalsComponent&#45;&gt;AppModule -->
<g id="edge44" class="edge">
<title>TableSignalsComponent&#45;&gt;AppModule</title>
<path fill="none" stroke="#000000" d="M2326,-190.1554C2326,-212.3519 2326,-247 2326,-247 2326,-247 4674.0899,-247 4674.0899,-247"/>
<polygon fill="#000000" stroke="#000000" points="4674.09,-250.5001 4684.0899,-247 4674.0899,-243.5001 4674.09,-250.5001"/>
</g>
<!-- TableTradesComponent -->
<g id="node45" class="node">
<title>TableTradesComponent</title>
<polygon fill="#ffffb3" stroke="#000000" points="2230.7921,-190 2079.2079,-190 2079.2079,-154 2230.7921,-154 2230.7921,-190"/>
<text text-anchor="middle" x="2155" y="-167.8" font-family="Times,serif" font-size="14.00" fill="#000000">TableTradesComponent</text>
</g>
<!-- TableTradesComponent&#45;&gt;AppModule -->
<g id="edge45" class="edge">
<title>TableTradesComponent&#45;&gt;AppModule</title>
<path fill="none" stroke="#000000" d="M2155,-190.2479C2155,-213.0179 2155,-249 2155,-249 2155,-249 4674.3121,-249 4674.3121,-249"/>
<polygon fill="#000000" stroke="#000000" points="4674.3121,-252.5001 4684.3121,-249 4674.3121,-245.5001 4674.3121,-252.5001"/>
</g>
<!-- TradesViewComponent -->
<g id="node46" class="node">
<title>TradesViewComponent</title>
<polygon fill="#ffffb3" stroke="#000000" points="2060.738,-190 1911.262,-190 1911.262,-154 2060.738,-154 2060.738,-190"/>
<text text-anchor="middle" x="1986" y="-167.8" font-family="Times,serif" font-size="14.00" fill="#000000">TradesViewComponent</text>
</g>
<!-- TradesViewComponent&#45;&gt;AppModule -->
<g id="edge46" class="edge">
<title>TradesViewComponent&#45;&gt;AppModule</title>
<path fill="none" stroke="#000000" d="M1986,-190.0908C1986,-213.1328 1986,-250 1986,-250 1986,-250 4674.3296,-250 4674.3296,-250"/>
<polygon fill="#000000" stroke="#000000" points="4674.3296,-253.5001 4684.3296,-250 4674.3296,-246.5001 4674.3296,-253.5001"/>
</g>
<!-- AppComponent  -->
<g id="node49" class="node">
<title>AppComponent </title>
<polygon fill="#80b1d3" stroke="#000000" points="4780.439,-326 4671.561,-326 4671.561,-290 4780.439,-290 4780.439,-326"/>
<text text-anchor="middle" x="4726" y="-303.8" font-family="Times,serif" font-size="14.00" fill="#000000">AppComponent </text>
</g>
<!-- AppModule&#45;&gt;AppComponent  -->
<g id="edge49" class="edge">
<title>AppModule&#45;&gt;AppComponent </title>
<path fill="none" stroke="#000000" stroke-dasharray="1,5" d="M4726,-258.2228C4726,-258.2228 4726,-279.7269 4726,-279.7269"/>
<polygon fill="#000000" stroke="#000000" points="4722.5001,-279.7269 4726,-289.7269 4729.5001,-279.727 4722.5001,-279.7269"/>
</g>
<!-- FgMaterialModule -->
<g id="node48" class="node">
<title>FgMaterialModule</title>
<polygon fill="#8dd3c7" stroke="#000000" points="8215.7534,-190 8212.7534,-194 8191.7534,-194 8188.7534,-190 8094.2466,-190 8094.2466,-154 8215.7534,-154 8215.7534,-190"/>
<text text-anchor="middle" x="8155" y="-167.8" font-family="Times,serif" font-size="14.00" fill="#000000">FgMaterialModule</text>
</g>
<!-- FgMaterialModule&#45;&gt;AppModule -->
<g id="edge48" class="edge">
<title>FgMaterialModule&#45;&gt;AppModule</title>
<path fill="none" stroke="#000000" d="M8134.7078,-190.0263C8134.7078,-214.9773 8134.7078,-257 8134.7078,-257 8134.7078,-257 4777.8689,-257 4777.8689,-257"/>
<polygon fill="#000000" stroke="#000000" points="4777.8689,-253.5001 4767.8689,-257 4777.8688,-260.5001 4777.8689,-253.5001"/>
</g>
<!-- FgAngularMaterialDemoComponent  -->
<g id="node54" class="node">
<title>FgAngularMaterialDemoComponent </title>
<polygon fill="#fb8072" stroke="#000000" points="8483.62,-258 8256.38,-258 8256.38,-222 8483.62,-222 8483.62,-258"/>
<text text-anchor="middle" x="8370" y="-235.8" font-family="Times,serif" font-size="14.00" fill="#000000">FgAngularMaterialDemoComponent </text>
</g>
<!-- FgMaterialModule&#45;&gt;FgAngularMaterialDemoComponent  -->
<g id="edge54" class="edge">
<title>FgMaterialModule&#45;&gt;FgAngularMaterialDemoComponent </title>
<path fill="none" stroke="#000000" stroke-dasharray="5,2" d="M8175.2922,-190.1871C8175.2922,-205.1824 8175.2922,-224 8175.2922,-224 8175.2922,-224 8246.1743,-224 8246.1743,-224"/>
<polygon fill="#000000" stroke="#000000" points="8246.1743,-227.5001 8256.1743,-224 8246.1743,-220.5001 8246.1743,-227.5001"/>
</g>
<!-- FgAppService -->
<g id="node50" class="node">
<title>FgAppService</title>
<ellipse fill="#fdb462" stroke="#000000" cx="1820" cy="-172" rx="66.6344" ry="18"/>
<text text-anchor="middle" x="1820" y="-167.8" font-family="Times,serif" font-size="14.00" fill="#000000">FgAppService</text>
</g>
<!-- FgAppService&#45;&gt;AppModule -->
<g id="edge50" class="edge">
<title>FgAppService&#45;&gt;AppModule</title>
<path fill="none" stroke="#000000" d="M1820,-190.1532C1820,-213.7566 1820,-252 1820,-252 1820,-252 4674.0811,-252 4674.0811,-252"/>
<polygon fill="#000000" stroke="#000000" points="4674.0811,-255.5001 4684.0811,-252 4674.081,-248.5001 4674.0811,-255.5001"/>
</g>
<!-- FgComponentBaseService -->
<g id="node51" class="node">
<title>FgComponentBaseService</title>
<ellipse fill="#fdb462" stroke="#000000" cx="1621" cy="-172" rx="114.046" ry="18"/>
<text text-anchor="middle" x="1621" y="-167.8" font-family="Times,serif" font-size="14.00" fill="#000000">FgComponentBaseService</text>
</g>
<!-- FgComponentBaseService&#45;&gt;AppModule -->
<g id="edge51" class="edge">
<title>FgComponentBaseService&#45;&gt;AppModule</title>
<path fill="none" stroke="#000000" d="M1621,-190.1985C1621,-214.3563 1621,-254 1621,-254 1621,-254 4674.1646,-254 4674.1646,-254"/>
<polygon fill="#000000" stroke="#000000" points="4674.1646,-257.5001 4684.1646,-254 4674.1645,-250.5001 4674.1646,-257.5001"/>
</g>
<!-- FgEventService -->
<g id="node52" class="node">
<title>FgEventService</title>
<ellipse fill="#fdb462" stroke="#000000" cx="1416" cy="-172" rx="72.9315" ry="18"/>
<text text-anchor="middle" x="1416" y="-167.8" font-family="Times,serif" font-size="14.00" fill="#000000">FgEventService</text>
</g>
<!-- FgEventService&#45;&gt;AppModule -->
<g id="edge52" class="edge">
<title>FgEventService&#45;&gt;AppModule</title>
<path fill="none" stroke="#000000" d="M1416,-190.0098C1416,-214.4207 1416,-255 1416,-255 1416,-255 4674.1494,-255 4674.1494,-255"/>
<polygon fill="#000000" stroke="#000000" points="4674.1494,-258.5001 4684.1494,-255 4674.1493,-251.5001 4674.1494,-258.5001"/>
</g>
<!-- FgAngularMaterialDemoComponent -->
<g id="node53" class="node">
<title>FgAngularMaterialDemoComponent</title>
<polygon fill="#ffffb3" stroke="#000000" points="8731.6203,-258 8508.3797,-258 8508.3797,-222 8731.6203,-222 8731.6203,-258"/>
<text text-anchor="middle" x="8620" y="-235.8" font-family="Times,serif" font-size="14.00" fill="#000000">FgAngularMaterialDemoComponent</text>
</g>
<!-- FgAngularMaterialDemoComponent&#45;&gt;FgMaterialModule -->
<g id="edge53" class="edge">
<title>FgAngularMaterialDemoComponent&#45;&gt;FgMaterialModule</title>
<path fill="none" stroke="#000000" d="M8620,-221.7772C8620,-201.6348 8620,-172 8620,-172 8620,-172 8225.7906,-172 8225.7906,-172"/>
<polygon fill="#000000" stroke="#000000" points="8225.7907,-168.5001 8215.7906,-172 8225.7906,-175.5001 8225.7907,-168.5001"/>
</g>
</g>
</svg>
