<?xml version="1.0" encoding="UTF-8" standalone="no"?>
<!DOCTYPE svg PUBLIC "-//W3C//DTD SVG 1.1//EN"
 "http://www.w3.org/Graphics/SVG/1.1/DTD/svg11.dtd">
<!-- Generated by graphviz version 2.40.1 (20161225.0304)
 -->
<!-- Title: dependencies Pages: 1 -->
<svg width="9363pt" height="358pt"
 viewBox="0.00 0.00 9363.00 358.00" xmlns="http://www.w3.org/2000/svg" xmlns:xlink="http://www.w3.org/1999/xlink">
<g id="graph0" class="graph" transform="scale(1 1) rotate(0) translate(4 354)">
<title>dependencies</title>
<polygon fill="#ffffff" stroke="transparent" points="-4,4 -4,-354 9359,-354 9359,4 -4,4"/>
<text text-anchor="start" x="4656.5091" y="-42.4" font-family="sans-serif" font-weight="bold" font-size="14.00" fill="#000000">Legend</text>
<polygon fill="#ffffb3" stroke="transparent" points="4443.5,-10 4443.5,-30 4463.5,-30 4463.5,-10 4443.5,-10"/>
<text text-anchor="start" x="4467.129" y="-15.4" font-family="sans-serif" font-size="14.00" fill="#000000"> &#160;Declarations</text>
<polygon fill="#8dd3c7" stroke="transparent" points="4556.5,-10 4556.5,-30 4576.5,-30 4576.5,-10 4556.5,-10"/>
<text text-anchor="start" x="4580.2251" y="-15.4" font-family="sans-serif" font-size="14.00" fill="#000000"> &#160;Module</text>
<polygon fill="#80b1d3" stroke="transparent" points="4642.5,-10 4642.5,-30 4662.5,-30 4662.5,-10 4642.5,-10"/>
<text text-anchor="start" x="4666.2812" y="-15.4" font-family="sans-serif" font-size="14.00" fill="#000000"> &#160;Bootstrap</text>
<polygon fill="#fdb462" stroke="transparent" points="4739.5,-10 4739.5,-30 4759.5,-30 4759.5,-10 4739.5,-10"/>
<text text-anchor="start" x="4763.1732" y="-15.4" font-family="sans-serif" font-size="14.00" fill="#000000"> &#160;Providers</text>
<polygon fill="#fb8072" stroke="transparent" points="4835.5,-10 4835.5,-30 4855.5,-30 4855.5,-10 4835.5,-10"/>
<text text-anchor="start" x="4859.2258" y="-15.4" font-family="sans-serif" font-size="14.00" fill="#000000"> &#160;Exports</text>
<g id="clust1" class="cluster">
<title>cluster_ApiModule</title>
<polygon fill="none" stroke="#000000" stroke-dasharray="1,5" points="8,-70 8,-198 1319,-198 1319,-70 8,-70"/>
</g>
<g id="clust6" class="cluster">
<title>cluster_ApiModule_providers</title>
<polygon fill="none" stroke="#000000" points="16,-78 16,-130 1311,-130 1311,-78 16,-78"/>
</g>
<g id="clust7" class="cluster">
<title>cluster_AppModule</title>
<polygon fill="none" stroke="#000000" stroke-dasharray="1,5" points="1327,-138 1327,-342 8831,-342 8831,-138 1327,-138"/>
</g>
<g id="clust8" class="cluster">
<title>cluster_AppModule_declarations</title>
<polygon fill="none" stroke="#000000" points="2057,-146 2057,-198 8513,-198 8513,-146 2057,-146"/>
</g>
<g id="clust48" class="cluster">
<title>cluster_AppModule_imports</title>
<polygon fill="none" stroke="#000000" points="8521,-146 8521,-198 8823,-198 8823,-146 8521,-146"/>
</g>
<g id="clust50" class="cluster">
<title>cluster_AppModule_bootstrap</title>
<polygon fill="none" stroke="#000000" points="4992,-282 4992,-334 5116,-334 5116,-282 4992,-282"/>
</g>
<g id="clust51" class="cluster">
<title>cluster_AppModule_providers</title>
<polygon fill="none" stroke="#000000" points="1335,-146 1335,-198 2049,-198 2049,-146 1335,-146"/>
</g>
<g id="clust58" class="cluster">
<title>cluster_FgMaterialModule</title>
<polygon fill="none" stroke="#000000" stroke-dasharray="1,5" points="8839,-206 8839,-274 9347,-274 9347,-206 8839,-206"/>
</g>
<g id="clust59" class="cluster">
<title>cluster_FgMaterialModule_declarations</title>
<polygon fill="none" stroke="#000000" points="9099,-214 9099,-266 9339,-266 9339,-214 9099,-214"/>
</g>
<g id="clust62" class="cluster">
<title>cluster_FgMaterialModule_exports</title>
<polygon fill="none" stroke="#000000" points="8847,-214 8847,-266 9091,-266 9091,-214 8847,-214"/>
</g>
<!-- AuthenticationService -->
<g id="node1" class="node">
<title>AuthenticationService</title>
<ellipse fill="#fdb462" stroke="#000000" cx="1206" cy="-104" rx="97.2683" ry="18"/>
<text text-anchor="middle" x="1206" y="-99.8" font-family="Times,serif" font-size="14.00" fill="#000000">AuthenticationService</text>
</g>
<!-- ApiModule -->
<g id="node9" class="node">
<title>ApiModule</title>
<polygon fill="#8dd3c7" stroke="#000000" points="761.0483,-190 758.0483,-194 737.0483,-194 734.0483,-190 680.9517,-190 680.9517,-154 761.0483,-154 761.0483,-190"/>
<text text-anchor="middle" x="721" y="-167.8" font-family="Times,serif" font-size="14.00" fill="#000000">ApiModule</text>
</g>
<!-- AuthenticationService&#45;&gt;ApiModule -->
<g id="edge1" class="edge">
<title>AuthenticationService&#45;&gt;ApiModule</title>
<path fill="none" stroke="#000000" d="M1206,-122.2479C1206,-145.0179 1206,-181 1206,-181 1206,-181 771.1022,-181 771.1022,-181"/>
<polygon fill="#000000" stroke="#000000" points="771.1022,-177.5001 761.1022,-181 771.1022,-184.5001 771.1022,-177.5001"/>
</g>
<!-- ContractService -->
<g id="node2" class="node">
<title>ContractService</title>
<ellipse fill="#fdb462" stroke="#000000" cx="1017" cy="-104" rx="73.49" ry="18"/>
<text text-anchor="middle" x="1017" y="-99.8" font-family="Times,serif" font-size="14.00" fill="#000000">ContractService</text>
</g>
<!-- ContractService&#45;&gt;ApiModule -->
<g id="edge2" class="edge">
<title>ContractService&#45;&gt;ApiModule</title>
<path fill="none" stroke="#000000" d="M1017,-122.2228C1017,-142.3652 1017,-172 1017,-172 1017,-172 771.2279,-172 771.2279,-172"/>
<polygon fill="#000000" stroke="#000000" points="771.228,-168.5001 761.2279,-172 771.2279,-175.5001 771.228,-168.5001"/>
</g>
<!-- LogsService -->
<g id="node3" class="node">
<title>LogsService</title>
<ellipse fill="#fdb462" stroke="#000000" cx="866" cy="-104" rx="59.1083" ry="18"/>
<text text-anchor="middle" x="866" y="-99.8" font-family="Times,serif" font-size="14.00" fill="#000000">LogsService</text>
</g>
<!-- LogsService&#45;&gt;ApiModule -->
<g id="edge3" class="edge">
<title>LogsService&#45;&gt;ApiModule</title>
<path fill="none" stroke="#000000" d="M866,-122.0225C866,-139.3734 866,-163 866,-163 866,-163 771.3906,-163 771.3906,-163"/>
<polygon fill="#000000" stroke="#000000" points="771.3906,-159.5001 761.3906,-163 771.3905,-166.5001 771.3906,-159.5001"/>
</g>
<!-- MarketService -->
<g id="node4" class="node">
<title>MarketService</title>
<ellipse fill="#fdb462" stroke="#000000" cx="721" cy="-104" rx="67.7529" ry="18"/>
<text text-anchor="middle" x="721" y="-99.8" font-family="Times,serif" font-size="14.00" fill="#000000">MarketService</text>
</g>
<!-- MarketService&#45;&gt;ApiModule -->
<g id="edge4" class="edge">
<title>MarketService&#45;&gt;ApiModule</title>
<path fill="none" stroke="#000000" d="M721,-122.2228C721,-122.2228 721,-143.7269 721,-143.7269"/>
<polygon fill="#000000" stroke="#000000" points="717.5001,-143.7269 721,-153.7269 724.5001,-143.727 717.5001,-143.7269"/>
</g>
<!-- MessagesService -->
<g id="node5" class="node">
<title>MessagesService</title>
<ellipse fill="#fdb462" stroke="#000000" cx="558" cy="-104" rx="77.5627" ry="18"/>
<text text-anchor="middle" x="558" y="-99.8" font-family="Times,serif" font-size="14.00" fill="#000000">MessagesService</text>
</g>
<!-- MessagesService&#45;&gt;ApiModule -->
<g id="edge5" class="edge">
<title>MessagesService&#45;&gt;ApiModule</title>
<path fill="none" stroke="#000000" d="M558,-122.0336C558,-139.0597 558,-162 558,-162 558,-162 670.7079,-162 670.7079,-162"/>
<polygon fill="#000000" stroke="#000000" points="670.7079,-165.5001 680.7079,-162 670.7078,-158.5001 670.7079,-165.5001"/>
</g>
<!-- OrdersService -->
<g id="node6" class="node">
<title>OrdersService</title>
<ellipse fill="#fdb462" stroke="#000000" cx="396" cy="-104" rx="66.0281" ry="18"/>
<text text-anchor="middle" x="396" y="-99.8" font-family="Times,serif" font-size="14.00" fill="#000000">OrdersService</text>
</g>
<!-- OrdersService&#45;&gt;ApiModule -->
<g id="edge6" class="edge">
<title>OrdersService&#45;&gt;ApiModule</title>
<path fill="none" stroke="#000000" d="M396,-122.1061C396,-141.3391 396,-169 396,-169 396,-169 670.8227,-169 670.8227,-169"/>
<polygon fill="#000000" stroke="#000000" points="670.8227,-172.5001 680.8227,-169 670.8226,-165.5001 670.8227,-172.5001"/>
</g>
<!-- SignalsService -->
<g id="node7" class="node">
<title>SignalsService</title>
<ellipse fill="#fdb462" stroke="#000000" cx="243" cy="-104" rx="68.3536" ry="18"/>
<text text-anchor="middle" x="243" y="-99.8" font-family="Times,serif" font-size="14.00" fill="#000000">SignalsService</text>
</g>
<!-- SignalsService&#45;&gt;ApiModule -->
<g id="edge7" class="edge">
<title>SignalsService&#45;&gt;ApiModule</title>
<path fill="none" stroke="#000000" d="M243,-122.1686C243,-143.498 243,-176 243,-176 243,-176 670.6579,-176 670.6579,-176"/>
<polygon fill="#000000" stroke="#000000" points="670.658,-179.5001 680.6579,-176 670.6579,-172.5001 670.658,-179.5001"/>
</g>
<!-- TradesService -->
<g id="node8" class="node">
<title>TradesService</title>
<ellipse fill="#fdb462" stroke="#000000" cx="90" cy="-104" rx="66.0281" ry="18"/>
<text text-anchor="middle" x="90" y="-99.8" font-family="Times,serif" font-size="14.00" fill="#000000">TradesService</text>
</g>
<!-- TradesService&#45;&gt;ApiModule -->
<g id="edge8" class="edge">
<title>TradesService&#45;&gt;ApiModule</title>
<path fill="none" stroke="#000000" d="M90,-122.3228C90,-145.6602 90,-183 90,-183 90,-183 670.5682,-183 670.5682,-183"/>
<polygon fill="#000000" stroke="#000000" points="670.5683,-186.5001 680.5682,-183 670.5682,-179.5001 670.5683,-186.5001"/>
</g>
<!-- AppModule -->
<g id="node49" class="node">
<title>AppModule</title>
<polygon fill="#8dd3c7" stroke="#000000" points="5095.6571,-258 5092.6571,-262 5071.6571,-262 5068.6571,-258 5012.3429,-258 5012.3429,-222 5095.6571,-222 5095.6571,-258"/>
<text text-anchor="middle" x="5054" y="-235.8" font-family="Times,serif" font-size="14.00" fill="#000000">AppModule</text>
</g>
<!-- ApiModule&#45;&gt;AppModule -->
<g id="edge49" class="edge">
<title>ApiModule&#45;&gt;AppModule</title>
<path fill="none" stroke="#000000" d="M721,-190.0263C721,-214.9773 721,-257 721,-257 721,-257 5002.159,-257 5002.159,-257"/>
<polygon fill="#000000" stroke="#000000" points="5002.159,-260.5001 5012.159,-257 5002.1589,-253.5001 5002.159,-260.5001"/>
</g>
<!-- AppComponent -->
<g id="node10" class="node">
<title>AppComponent</title>
<polygon fill="#ffffb3" stroke="#000000" points="8504.9399,-190 8399.0601,-190 8399.0601,-154 8504.9399,-154 8504.9399,-190"/>
<text text-anchor="middle" x="8452" y="-167.8" font-family="Times,serif" font-size="14.00" fill="#000000">AppComponent</text>
</g>
<!-- AppComponent&#45;&gt;AppModule -->
<g id="edge9" class="edge">
<title>AppComponent&#45;&gt;AppModule</title>
<path fill="none" stroke="#000000" d="M8452,-190.1985C8452,-214.3563 8452,-254 8452,-254 8452,-254 5105.7374,-254 5105.7374,-254"/>
<polygon fill="#000000" stroke="#000000" points="5105.7374,-250.5001 5095.7374,-254 5105.7373,-257.5001 5105.7374,-250.5001"/>
</g>
<!-- AsksViewComponent -->
<g id="node11" class="node">
<title>AsksViewComponent</title>
<polygon fill="#ffffb3" stroke="#000000" points="8380.647,-190 8241.353,-190 8241.353,-154 8380.647,-154 8380.647,-190"/>
<text text-anchor="middle" x="8311" y="-167.8" font-family="Times,serif" font-size="14.00" fill="#000000">AsksViewComponent</text>
</g>
<!-- AsksViewComponent&#45;&gt;AppModule -->
<g id="edge10" class="edge">
<title>AsksViewComponent&#45;&gt;AppModule</title>
<path fill="none" stroke="#000000" d="M8311,-190.3802C8311,-214.2785 8311,-253 8311,-253 8311,-253 5105.7741,-253 5105.7741,-253"/>
<polygon fill="#000000" stroke="#000000" points="5105.7741,-249.5001 5095.7741,-253 5105.7741,-256.5001 5105.7741,-249.5001"/>
</g>
<!-- BarActionComponent -->
<g id="node12" class="node">
<title>BarActionComponent</title>
<polygon fill="#ffffb3" stroke="#000000" points="8222.647,-190 8083.353,-190 8083.353,-154 8222.647,-154 8222.647,-190"/>
<text text-anchor="middle" x="8153" y="-167.8" font-family="Times,serif" font-size="14.00" fill="#000000">BarActionComponent</text>
</g>
<!-- BarActionComponent&#45;&gt;AppModule -->
<g id="edge11" class="edge">
<title>BarActionComponent&#45;&gt;AppModule</title>
<path fill="none" stroke="#000000" d="M8153,-190.3228C8153,-213.6602 8153,-251 8153,-251 8153,-251 5105.7546,-251 5105.7546,-251"/>
<polygon fill="#000000" stroke="#000000" points="5105.7546,-247.5001 5095.7546,-251 5105.7546,-254.5001 5105.7546,-247.5001"/>
</g>
<!-- BarStateComponent -->
<g id="node13" class="node">
<title>BarStateComponent</title>
<polygon fill="#ffffb3" stroke="#000000" points="8064.538,-190 7935.462,-190 7935.462,-154 8064.538,-154 8064.538,-190"/>
<text text-anchor="middle" x="8000" y="-167.8" font-family="Times,serif" font-size="14.00" fill="#000000">BarStateComponent</text>
</g>
<!-- BarStateComponent&#45;&gt;AppModule -->
<g id="edge12" class="edge">
<title>BarStateComponent&#45;&gt;AppModule</title>
<path fill="none" stroke="#000000" d="M8000,-190.0908C8000,-213.1328 8000,-250 8000,-250 8000,-250 5105.9281,-250 5105.9281,-250"/>
<polygon fill="#000000" stroke="#000000" points="5105.9282,-246.5001 5095.9281,-250 5105.9281,-253.5001 5105.9282,-246.5001"/>
</g>
<!-- BidsViewComponent -->
<g id="node14" class="node">
<title>BidsViewComponent</title>
<polygon fill="#ffffb3" stroke="#000000" points="7917.823,-190 7780.177,-190 7780.177,-154 7917.823,-154 7917.823,-190"/>
<text text-anchor="middle" x="7849" y="-167.8" font-family="Times,serif" font-size="14.00" fill="#000000">BidsViewComponent</text>
</g>
<!-- BidsViewComponent&#45;&gt;AppModule -->
<g id="edge13" class="edge">
<title>BidsViewComponent&#45;&gt;AppModule</title>
<path fill="none" stroke="#000000" d="M7849,-190.0109C7849,-212.4852 7849,-248 7849,-248 7849,-248 5105.6795,-248 5105.6795,-248"/>
<polygon fill="#000000" stroke="#000000" points="5105.6796,-244.5001 5095.6795,-248 5105.6795,-251.5001 5105.6796,-244.5001"/>
</g>
<!-- DashboardComponent -->
<g id="node15" class="node">
<title>DashboardComponent</title>
<polygon fill="#ffffb3" stroke="#000000" points="7761.9734,-190 7620.0266,-190 7620.0266,-154 7761.9734,-154 7761.9734,-190"/>
<text text-anchor="middle" x="7691" y="-167.8" font-family="Times,serif" font-size="14.00" fill="#000000">DashboardComponent</text>
</g>
<!-- DashboardComponent&#45;&gt;AppModule -->
<g id="edge14" class="edge">
<title>DashboardComponent&#45;&gt;AppModule</title>
<path fill="none" stroke="#000000" d="M7691,-190.1554C7691,-212.3519 7691,-247 7691,-247 7691,-247 5105.6868,-247 5105.6868,-247"/>
<polygon fill="#000000" stroke="#000000" points="5105.6868,-243.5001 5095.6868,-247 5105.6868,-250.5001 5105.6868,-243.5001"/>
</g>
<!-- DashboardViewComponent -->
<g id="node16" class="node">
<title>DashboardViewComponent</title>
<polygon fill="#ffffb3" stroke="#000000" points="7602.292,-190 7429.708,-190 7429.708,-154 7602.292,-154 7602.292,-190"/>
<text text-anchor="middle" x="7516" y="-167.8" font-family="Times,serif" font-size="14.00" fill="#000000">DashboardViewComponent</text>
</g>
<!-- DashboardViewComponent&#45;&gt;AppModule -->
<g id="edge15" class="edge">
<title>DashboardViewComponent&#45;&gt;AppModule</title>
<path fill="none" stroke="#000000" d="M7516,-190.2921C7516,-212.2057 7516,-246 7516,-246 7516,-246 5105.6996,-246 5105.6996,-246"/>
<polygon fill="#000000" stroke="#000000" points="5105.6996,-242.5001 5095.6996,-246 5105.6996,-249.5001 5105.6996,-242.5001"/>
</g>
<!-- FgActionsComponent -->
<g id="node17" class="node">
<title>FgActionsComponent</title>
<polygon fill="#ffffb3" stroke="#000000" points="7411.6624,-190 7272.3376,-190 7272.3376,-154 7411.6624,-154 7411.6624,-190"/>
<text text-anchor="middle" x="7342" y="-167.8" font-family="Times,serif" font-size="14.00" fill="#000000">FgActionsComponent</text>
</g>
<!-- FgActionsComponent&#45;&gt;AppModule -->
<g id="edge16" class="edge">
<title>FgActionsComponent&#45;&gt;AppModule</title>
<path fill="none" stroke="#000000" d="M7342,-190.1686C7342,-211.498 7342,-244 7342,-244 7342,-244 5105.6657,-244 5105.6657,-244"/>
<polygon fill="#000000" stroke="#000000" points="5105.6657,-240.5001 5095.6657,-244 5105.6656,-247.5001 5105.6657,-240.5001"/>
</g>
<!-- FooterComponent -->
<g id="node18" class="node">
<title>FooterComponent</title>
<polygon fill="#ffffb3" stroke="#000000" points="7253.8809,-190 7136.1191,-190 7136.1191,-154 7253.8809,-154 7253.8809,-190"/>
<text text-anchor="middle" x="7195" y="-167.8" font-family="Times,serif" font-size="14.00" fill="#000000">FooterComponent</text>
</g>
<!-- FooterComponent&#45;&gt;AppModule -->
<g id="edge17" class="edge">
<title>FooterComponent&#45;&gt;AppModule</title>
<path fill="none" stroke="#000000" d="M7195,-190.2843C7195,-211.3211 7195,-243 7195,-243 7195,-243 5105.8073,-243 5105.8073,-243"/>
<polygon fill="#000000" stroke="#000000" points="5105.8073,-239.5001 5095.8073,-243 5105.8073,-246.5001 5105.8073,-239.5001"/>
</g>
<!-- GraphComponent -->
<g id="node19" class="node">
<title>GraphComponent</title>
<polygon fill="#ffffb3" stroke="#000000" points="7118.3146,-190 7001.6854,-190 7001.6854,-154 7118.3146,-154 7118.3146,-190"/>
<text text-anchor="middle" x="7060" y="-167.8" font-family="Times,serif" font-size="14.00" fill="#000000">GraphComponent</text>
</g>
<!-- GraphComponent&#45;&gt;AppModule -->
<g id="edge18" class="edge">
<title>GraphComponent&#45;&gt;AppModule</title>
<path fill="none" stroke="#000000" d="M7060,-190.1289C7060,-210.5724 7060,-241 7060,-241 7060,-241 5105.8982,-241 5105.8982,-241"/>
<polygon fill="#000000" stroke="#000000" points="5105.8982,-237.5001 5095.8982,-241 5105.8981,-244.5001 5105.8982,-237.5001"/>
</g>
<!-- GraphPortfolioComponent -->
<g id="node20" class="node">
<title>GraphPortfolioComponent</title>
<polygon fill="#ffffb3" stroke="#000000" points="6984.0898,-190 6817.9102,-190 6817.9102,-154 6984.0898,-154 6984.0898,-190"/>
<text text-anchor="middle" x="6901" y="-167.8" font-family="Times,serif" font-size="14.00" fill="#000000">GraphPortfolioComponent</text>
</g>
<!-- GraphPortfolioComponent&#45;&gt;AppModule -->
<g id="edge19" class="edge">
<title>GraphPortfolioComponent&#45;&gt;AppModule</title>
<path fill="none" stroke="#000000" d="M6901,-190.2228C6901,-210.3652 6901,-240 6901,-240 6901,-240 5106.0475,-240 5106.0475,-240"/>
<polygon fill="#000000" stroke="#000000" points="5106.0475,-236.5001 5096.0475,-240 5106.0474,-243.5001 5106.0475,-236.5001"/>
</g>
<!-- GraphProductHistoryComponent -->
<g id="node21" class="node">
<title>GraphProductHistoryComponent</title>
<polygon fill="#ffffb3" stroke="#000000" points="6799.8557,-190 6598.1443,-190 6598.1443,-154 6799.8557,-154 6799.8557,-190"/>
<text text-anchor="middle" x="6699" y="-167.8" font-family="Times,serif" font-size="14.00" fill="#000000">GraphProductHistoryComponent</text>
</g>
<!-- GraphProductHistoryComponent&#45;&gt;AppModule -->
<g id="edge20" class="edge">
<title>GraphProductHistoryComponent&#45;&gt;AppModule</title>
<path fill="none" stroke="#000000" d="M6699,-190.0348C6699,-209.5762 6699,-238 6699,-238 6699,-238 5105.9001,-238 5105.9001,-238"/>
<polygon fill="#000000" stroke="#000000" points="5105.9001,-234.5001 5095.9001,-238 5105.9001,-241.5001 5105.9001,-234.5001"/>
</g>
<!-- HeaderComponent -->
<g id="node22" class="node">
<title>HeaderComponent</title>
<polygon fill="#ffffb3" stroke="#000000" points="6579.7437,-190 6458.2563,-190 6458.2563,-154 6579.7437,-154 6579.7437,-190"/>
<text text-anchor="middle" x="6519" y="-167.8" font-family="Times,serif" font-size="14.00" fill="#000000">HeaderComponent</text>
</g>
<!-- HeaderComponent&#45;&gt;AppModule -->
<g id="edge21" class="edge">
<title>HeaderComponent&#45;&gt;AppModule</title>
<path fill="none" stroke="#000000" d="M6519,-190.1061C6519,-209.3391 6519,-237 6519,-237 6519,-237 5105.8739,-237 5105.8739,-237"/>
<polygon fill="#000000" stroke="#000000" points="5105.8739,-233.5001 5095.8739,-237 5105.8738,-240.5001 5105.8739,-233.5001"/>
</g>
<!-- ModalAddOrderComponent -->
<g id="node23" class="node">
<title>ModalAddOrderComponent</title>
<polygon fill="#ffffb3" stroke="#000000" points="6440.1316,-190 6265.8684,-190 6265.8684,-154 6440.1316,-154 6440.1316,-190"/>
<text text-anchor="middle" x="6353" y="-167.8" font-family="Times,serif" font-size="14.00" fill="#000000">ModalAddOrderComponent</text>
</g>
<!-- ModalAddOrderComponent&#45;&gt;AppModule -->
<g id="edge22" class="edge">
<title>ModalAddOrderComponent&#45;&gt;AppModule</title>
<path fill="none" stroke="#000000" d="M6353,-190.2222C6353,-208.8285 6353,-235 6353,-235 6353,-235 5105.7488,-235 5105.7488,-235"/>
<polygon fill="#000000" stroke="#000000" points="5105.7489,-231.5001 5095.7488,-235 5105.7488,-238.5001 5105.7489,-231.5001"/>
</g>
<!-- ModalComponent -->
<g id="node24" class="node">
<title>ModalComponent</title>
<polygon fill="#ffffb3" stroke="#000000" points="6247.8823,-190 6130.1177,-190 6130.1177,-154 6247.8823,-154 6247.8823,-190"/>
<text text-anchor="middle" x="6189" y="-167.8" font-family="Times,serif" font-size="14.00" fill="#000000">ModalComponent</text>
</g>
<!-- ModalComponent&#45;&gt;AppModule -->
<g id="edge23" class="edge">
<title>ModalComponent&#45;&gt;AppModule</title>
<path fill="none" stroke="#000000" d="M6189,-190.2667C6189,-208.5552 6189,-234 6189,-234 6189,-234 5105.7413,-234 5105.7413,-234"/>
<polygon fill="#000000" stroke="#000000" points="5105.7414,-230.5001 5095.7413,-234 5105.7413,-237.5001 5105.7414,-230.5001"/>
</g>
<!-- ModalHelpComponent -->
<g id="node25" class="node">
<title>ModalHelpComponent</title>
<polygon fill="#ffffb3" stroke="#000000" points="6112.594,-190 5967.406,-190 5967.406,-154 6112.594,-154 6112.594,-190"/>
<text text-anchor="middle" x="6040" y="-167.8" font-family="Times,serif" font-size="14.00" fill="#000000">ModalHelpComponent</text>
</g>
<!-- ModalHelpComponent&#45;&gt;AppModule -->
<g id="edge24" class="edge">
<title>ModalHelpComponent&#45;&gt;AppModule</title>
<path fill="none" stroke="#000000" d="M6040,-190.302C6040,-208.2699 6040,-233 6040,-233 6040,-233 5105.7374,-233 5105.7374,-233"/>
<polygon fill="#000000" stroke="#000000" points="5105.7374,-229.5001 5095.7374,-233 5105.7374,-236.5001 5105.7374,-229.5001"/>
</g>
<!-- ModalMarketComponent -->
<g id="node26" class="node">
<title>ModalMarketComponent</title>
<polygon fill="#ffffb3" stroke="#000000" points="5949.3075,-190 5790.6925,-190 5790.6925,-154 5949.3075,-154 5949.3075,-190"/>
<text text-anchor="middle" x="5870" y="-167.8" font-family="Times,serif" font-size="14.00" fill="#000000">ModalMarketComponent</text>
</g>
<!-- ModalMarketComponent&#45;&gt;AppModule -->
<g id="edge25" class="edge">
<title>ModalMarketComponent&#45;&gt;AppModule</title>
<path fill="none" stroke="#000000" d="M5870,-190.0225C5870,-207.3734 5870,-231 5870,-231 5870,-231 5105.87,-231 5105.87,-231"/>
<polygon fill="#000000" stroke="#000000" points="5105.87,-227.5001 5095.87,-231 5105.8699,-234.5001 5105.87,-227.5001"/>
</g>
<!-- ModalSettingsComponent -->
<g id="node27" class="node">
<title>ModalSettingsComponent</title>
<polygon fill="#ffffb3" stroke="#000000" points="5772.4958,-190 5609.5042,-190 5609.5042,-154 5772.4958,-154 5772.4958,-190"/>
<text text-anchor="middle" x="5691" y="-167.8" font-family="Times,serif" font-size="14.00" fill="#000000">ModalSettingsComponent</text>
</g>
<!-- ModalSettingsComponent&#45;&gt;AppModule -->
<g id="edge26" class="edge">
<title>ModalSettingsComponent&#45;&gt;AppModule</title>
<path fill="none" stroke="#000000" d="M5691,-190.0336C5691,-207.0597 5691,-230 5691,-230 5691,-230 5105.7953,-230 5105.7953,-230"/>
<polygon fill="#000000" stroke="#000000" points="5105.7954,-226.5001 5095.7953,-230 5105.7953,-233.5001 5105.7954,-226.5001"/>
</g>
<!-- OrderbookViewComponent -->
<g id="node28" class="node">
<title>OrderbookViewComponent</title>
<polygon fill="#ffffb3" stroke="#000000" points="5591.2934,-190 5418.7066,-190 5418.7066,-154 5591.2934,-154 5591.2934,-190"/>
<text text-anchor="middle" x="5505" y="-167.8" font-family="Times,serif" font-size="14.00" fill="#000000">OrderbookViewComponent</text>
</g>
<!-- OrderbookViewComponent&#45;&gt;AppModule -->
<g id="edge27" class="edge">
<title>OrderbookViewComponent&#45;&gt;AppModule</title>
<path fill="none" stroke="#000000" d="M5505,-190.027C5505,-206.3976 5505,-228 5505,-228 5505,-228 5106.024,-228 5106.024,-228"/>
<polygon fill="#000000" stroke="#000000" points="5106.024,-224.5001 5096.024,-228 5106.024,-231.5001 5106.024,-224.5001"/>
</g>
<!-- OrdersViewComponent -->
<g id="node29" class="node">
<title>OrdersViewComponent</title>
<polygon fill="#ffffb3" stroke="#000000" points="5400.738,-190 5251.262,-190 5251.262,-154 5400.738,-154 5400.738,-190"/>
<text text-anchor="middle" x="5326" y="-167.8" font-family="Times,serif" font-size="14.00" fill="#000000">OrdersViewComponent</text>
</g>
<!-- OrdersViewComponent&#45;&gt;AppModule -->
<g id="edge28" class="edge">
<title>OrdersViewComponent&#45;&gt;AppModule</title>
<path fill="none" stroke="#000000" d="M5326,-190.0091C5326,-206.0494 5326,-227 5326,-227 5326,-227 5105.9039,-227 5105.9039,-227"/>
<polygon fill="#000000" stroke="#000000" points="5105.9039,-223.5001 5095.9039,-227 5105.9039,-230.5001 5105.9039,-223.5001"/>
</g>
<!-- PbSidePipe -->
<g id="node30" class="node">
<title>PbSidePipe</title>
<polygon fill="#ffffb3" stroke="#000000" points="5233.0594,-190 5152.9406,-190 5152.9406,-154 5233.0594,-154 5233.0594,-190"/>
<text text-anchor="middle" x="5193" y="-167.8" font-family="Times,serif" font-size="14.00" fill="#000000">PbSidePipe</text>
</g>
<!-- PbSidePipe&#45;&gt;AppModule -->
<g id="edge29" class="edge">
<title>PbSidePipe&#45;&gt;AppModule</title>
<path fill="none" stroke="#000000" d="M5193,-190.2396C5193,-205.5706 5193,-225 5193,-225 5193,-225 5105.7046,-225 5105.7046,-225"/>
<polygon fill="#000000" stroke="#000000" points="5105.7046,-221.5001 5095.7046,-225 5105.7045,-228.5001 5105.7046,-221.5001"/>
</g>
<!-- PortfolioViewComponent -->
<g id="node31" class="node">
<title>PortfolioViewComponent</title>
<polygon fill="#ffffb3" stroke="#000000" points="5134.927,-190 4973.073,-190 4973.073,-154 5134.927,-154 5134.927,-190"/>
<text text-anchor="middle" x="5054" y="-167.8" font-family="Times,serif" font-size="14.00" fill="#000000">PortfolioViewComponent</text>
</g>
<!-- PortfolioViewComponent&#45;&gt;AppModule -->
<g id="edge30" class="edge">
<title>PortfolioViewComponent&#45;&gt;AppModule</title>
<path fill="none" stroke="#000000" d="M5054,-190.2228C5054,-190.2228 5054,-211.7269 5054,-211.7269"/>
<polygon fill="#000000" stroke="#000000" points="5050.5001,-211.7269 5054,-221.7269 5057.5001,-211.727 5050.5001,-211.7269"/>
</g>
<!-- ProductHistoryViewComponent -->
<g id="node32" class="node">
<title>ProductHistoryViewComponent</title>
<polygon fill="#ffffb3" stroke="#000000" points="4955.6923,-190 4758.3077,-190 4758.3077,-154 4955.6923,-154 4955.6923,-190"/>
<text text-anchor="middle" x="4857" y="-167.8" font-family="Times,serif" font-size="14.00" fill="#000000">ProductHistoryViewComponent</text>
</g>
<!-- ProductHistoryViewComponent&#45;&gt;AppModule -->
<g id="edge31" class="edge">
<title>ProductHistoryViewComponent&#45;&gt;AppModule</title>
<path fill="none" stroke="#000000" d="M4857,-190.1871C4857,-205.1824 4857,-224 4857,-224 4857,-224 5002.2214,-224 5002.2214,-224"/>
<polygon fill="#000000" stroke="#000000" points="5002.2214,-227.5001 5012.2214,-224 5002.2213,-220.5001 5002.2214,-227.5001"/>
</g>
<!-- PwaInstallComponent -->
<g id="node33" class="node">
<title>PwaInstallComponent</title>
<polygon fill="#ffffb3" stroke="#000000" points="4740.4285,-190 4599.5715,-190 4599.5715,-154 4740.4285,-154 4740.4285,-190"/>
<text text-anchor="middle" x="4670" y="-167.8" font-family="Times,serif" font-size="14.00" fill="#000000">PwaInstallComponent</text>
</g>
<!-- PwaInstallComponent&#45;&gt;AppModule -->
<g id="edge32" class="edge">
<title>PwaInstallComponent&#45;&gt;AppModule</title>
<path fill="none" stroke="#000000" d="M4670,-190.2396C4670,-205.5706 4670,-225 4670,-225 4670,-225 5002.1743,-225 5002.1743,-225"/>
<polygon fill="#000000" stroke="#000000" points="5002.1743,-228.5001 5012.1743,-225 5002.1742,-221.5001 5002.1743,-228.5001"/>
</g>
<!-- SignalsViewComponent -->
<g id="node34" class="node">
<title>SignalsViewComponent</title>
<polygon fill="#ffffb3" stroke="#000000" points="4581.3739,-190 4428.6261,-190 4428.6261,-154 4581.3739,-154 4581.3739,-190"/>
<text text-anchor="middle" x="4505" y="-167.8" font-family="Times,serif" font-size="14.00" fill="#000000">SignalsViewComponent</text>
</g>
<!-- SignalsViewComponent&#45;&gt;AppModule -->
<g id="edge33" class="edge">
<title>SignalsViewComponent&#45;&gt;AppModule</title>
<path fill="none" stroke="#000000" d="M4505,-190.0091C4505,-206.0494 4505,-227 4505,-227 4505,-227 5002.2852,-227 5002.2852,-227"/>
<polygon fill="#000000" stroke="#000000" points="5002.2852,-230.5001 5012.2852,-227 5002.2851,-223.5001 5002.2852,-230.5001"/>
</g>
<!-- SwitchDayNightComponent -->
<g id="node35" class="node">
<title>SwitchDayNightComponent</title>
<polygon fill="#ffffb3" stroke="#000000" points="4410.9269,-190 4235.0731,-190 4235.0731,-154 4410.9269,-154 4410.9269,-190"/>
<text text-anchor="middle" x="4323" y="-167.8" font-family="Times,serif" font-size="14.00" fill="#000000">SwitchDayNightComponent</text>
</g>
<!-- SwitchDayNightComponent&#45;&gt;AppModule -->
<g id="edge34" class="edge">
<title>SwitchDayNightComponent&#45;&gt;AppModule</title>
<path fill="none" stroke="#000000" d="M4323,-190.027C4323,-206.3976 4323,-228 4323,-228 4323,-228 5002.3386,-228 5002.3386,-228"/>
<polygon fill="#000000" stroke="#000000" points="5002.3387,-231.5001 5012.3386,-228 5002.3386,-224.5001 5002.3387,-231.5001"/>
</g>
<!-- TabApiKeyComponent -->
<g id="node36" class="node">
<title>TabApiKeyComponent</title>
<polygon fill="#ffffb3" stroke="#000000" points="4217.9186,-190 4070.0814,-190 4070.0814,-154 4217.9186,-154 4217.9186,-190"/>
<text text-anchor="middle" x="4144" y="-167.8" font-family="Times,serif" font-size="14.00" fill="#000000">TabApiKeyComponent</text>
</g>
<!-- TabApiKeyComponent&#45;&gt;AppModule -->
<g id="edge35" class="edge">
<title>TabApiKeyComponent&#45;&gt;AppModule</title>
<path fill="none" stroke="#000000" d="M4144,-190.0336C4144,-207.0597 4144,-230 4144,-230 4144,-230 5002.2347,-230 5002.2347,-230"/>
<polygon fill="#000000" stroke="#000000" points="5002.2347,-233.5001 5012.2347,-230 5002.2347,-226.5001 5002.2347,-233.5001"/>
</g>
<!-- TabLoggingComponent -->
<g id="node37" class="node">
<title>TabLoggingComponent</title>
<polygon fill="#ffffb3" stroke="#000000" points="4052.0435,-190 3901.9565,-190 3901.9565,-154 4052.0435,-154 4052.0435,-190"/>
<text text-anchor="middle" x="3977" y="-167.8" font-family="Times,serif" font-size="14.00" fill="#000000">TabLoggingComponent</text>
</g>
<!-- TabLoggingComponent&#45;&gt;AppModule -->
<g id="edge36" class="edge">
<title>TabLoggingComponent&#45;&gt;AppModule</title>
<path fill="none" stroke="#000000" d="M3977,-190.0225C3977,-207.3734 3977,-231 3977,-231 3977,-231 5002.1109,-231 5002.1109,-231"/>
<polygon fill="#000000" stroke="#000000" points="5002.1109,-234.5001 5012.1109,-231 5002.1108,-227.5001 5002.1109,-234.5001"/>
</g>
<!-- TabProductionComponent -->
<g id="node38" class="node">
<title>TabProductionComponent</title>
<polygon fill="#ffffb3" stroke="#000000" points="3883.0392,-190 3718.9608,-190 3718.9608,-154 3883.0392,-154 3883.0392,-190"/>
<text text-anchor="middle" x="3801" y="-167.8" font-family="Times,serif" font-size="14.00" fill="#000000">TabProductionComponent</text>
</g>
<!-- TabProductionComponent&#45;&gt;AppModule -->
<g id="edge37" class="edge">
<title>TabProductionComponent&#45;&gt;AppModule</title>
<path fill="none" stroke="#000000" d="M3828.4231,-190.302C3828.4231,-208.2699 3828.4231,-233 3828.4231,-233 3828.4231,-233 5002.1674,-233 5002.1674,-233"/>
<polygon fill="#000000" stroke="#000000" points="5002.1675,-236.5001 5012.1674,-233 5002.1674,-229.5001 5002.1675,-236.5001"/>
</g>
<!-- TabProductionComponent&#45;&gt;AppModule -->
<g id="edge38" class="edge">
<title>TabProductionComponent&#45;&gt;AppModule</title>
<path fill="none" stroke="#000000" d="M3773.5769,-190.2667C3773.5769,-208.5552 3773.5769,-234 3773.5769,-234 3773.5769,-234 5002.126,-234 5002.126,-234"/>
<polygon fill="#000000" stroke="#000000" points="5002.126,-237.5001 5012.126,-234 5002.126,-230.5001 5002.126,-237.5001"/>
</g>
<!-- TabTestComponent -->
<g id="node39" class="node">
<title>TabTestComponent</title>
<polygon fill="#ffffb3" stroke="#000000" points="3700.7022,-190 3573.2978,-190 3573.2978,-154 3700.7022,-154 3700.7022,-190"/>
<text text-anchor="middle" x="3637" y="-167.8" font-family="Times,serif" font-size="14.00" fill="#000000">TabTestComponent</text>
</g>
<!-- TabTestComponent&#45;&gt;AppModule -->
<g id="edge39" class="edge">
<title>TabTestComponent&#45;&gt;AppModule</title>
<path fill="none" stroke="#000000" d="M3637,-190.1686C3637,-209.0898 3637,-236 3637,-236 3637,-236 5001.9764,-236 5001.9764,-236"/>
<polygon fill="#000000" stroke="#000000" points="5001.9765,-239.5001 5011.9764,-236 5001.9764,-232.5001 5001.9765,-239.5001"/>
</g>
<!-- TableAddOrderComponent -->
<g id="node40" class="node">
<title>TableAddOrderComponent</title>
<polygon fill="#ffffb3" stroke="#000000" points="3554.9538,-190 3385.0462,-190 3385.0462,-154 3554.9538,-154 3554.9538,-190"/>
<text text-anchor="middle" x="3470" y="-167.8" font-family="Times,serif" font-size="14.00" fill="#000000">TableAddOrderComponent</text>
</g>
<!-- TableAddOrderComponent&#45;&gt;AppModule -->
<g id="edge40" class="edge">
<title>TableAddOrderComponent&#45;&gt;AppModule</title>
<path fill="none" stroke="#000000" d="M3470,-190.1061C3470,-209.3391 3470,-237 3470,-237 3470,-237 5002.0398,-237 5002.0398,-237"/>
<polygon fill="#000000" stroke="#000000" points="5002.0399,-240.5001 5012.0398,-237 5002.0398,-233.5001 5002.0399,-240.5001"/>
</g>
<!-- TableAsksComponent -->
<g id="node41" class="node">
<title>TableAsksComponent</title>
<polygon fill="#ffffb3" stroke="#000000" points="3366.7007,-190 3225.2993,-190 3225.2993,-154 3366.7007,-154 3366.7007,-190"/>
<text text-anchor="middle" x="3296" y="-167.8" font-family="Times,serif" font-size="14.00" fill="#000000">TableAsksComponent</text>
</g>
<!-- TableAsksComponent&#45;&gt;AppModule -->
<g id="edge41" class="edge">
<title>TableAsksComponent&#45;&gt;AppModule</title>
<path fill="none" stroke="#000000" d="M3296,-190.308C3296,-210.1455 3296,-239 3296,-239 3296,-239 5002.2775,-239 5002.2775,-239"/>
<polygon fill="#000000" stroke="#000000" points="5002.2776,-242.5001 5012.2775,-239 5002.2775,-235.5001 5002.2776,-242.5001"/>
</g>
<!-- TableBidsComponent -->
<g id="node42" class="node">
<title>TableBidsComponent</title>
<polygon fill="#ffffb3" stroke="#000000" points="3207.3767,-190 3068.6233,-190 3068.6233,-154 3207.3767,-154 3207.3767,-190"/>
<text text-anchor="middle" x="3138" y="-167.8" font-family="Times,serif" font-size="14.00" fill="#000000">TableBidsComponent</text>
</g>
<!-- TableBidsComponent&#45;&gt;AppModule -->
<g id="edge42" class="edge">
<title>TableBidsComponent&#45;&gt;AppModule</title>
<path fill="none" stroke="#000000" d="M3138,-190.2228C3138,-210.3652 3138,-240 3138,-240 3138,-240 5002.1997,-240 5002.1997,-240"/>
<polygon fill="#000000" stroke="#000000" points="5002.1998,-243.5001 5012.1997,-240 5002.1997,-236.5001 5002.1998,-243.5001"/>
</g>
<!-- TableComponent -->
<g id="node43" class="node">
<title>TableComponent</title>
<polygon fill="#ffffb3" stroke="#000000" points="3050.705,-190 2937.295,-190 2937.295,-154 3050.705,-154 3050.705,-190"/>
<text text-anchor="middle" x="2994" y="-167.8" font-family="Times,serif" font-size="14.00" fill="#000000">TableComponent</text>
</g>
<!-- TableComponent&#45;&gt;AppModule -->
<g id="edge43" class="edge">
<title>TableComponent&#45;&gt;AppModule</title>
<path fill="none" stroke="#000000" d="M2994,-190.0267C2994,-210.7672 2994,-242 2994,-242 2994,-242 5001.9172,-242 5001.9172,-242"/>
<polygon fill="#000000" stroke="#000000" points="5001.9173,-245.5001 5011.9172,-242 5001.9172,-238.5001 5001.9173,-245.5001"/>
</g>
<!-- TableOrderbookComponent -->
<g id="node44" class="node">
<title>TableOrderbookComponent</title>
<polygon fill="#ffffb3" stroke="#000000" points="2918.8473,-190 2745.1527,-190 2745.1527,-154 2918.8473,-154 2918.8473,-190"/>
<text text-anchor="middle" x="2832" y="-167.8" font-family="Times,serif" font-size="14.00" fill="#000000">TableOrderbookComponent</text>
</g>
<!-- TableOrderbookComponent&#45;&gt;AppModule -->
<g id="edge44" class="edge">
<title>TableOrderbookComponent&#45;&gt;AppModule</title>
<path fill="none" stroke="#000000" d="M2832,-190.2843C2832,-211.3211 2832,-243 2832,-243 2832,-243 5002.0856,-243 5002.0856,-243"/>
<polygon fill="#000000" stroke="#000000" points="5002.0856,-246.5001 5012.0856,-243 5002.0856,-239.5001 5002.0856,-246.5001"/>
</g>
<!-- TableOrdersComponent -->
<g id="node45" class="node">
<title>TableOrdersComponent</title>
<polygon fill="#ffffb3" stroke="#000000" points="2726.7921,-190 2575.2079,-190 2575.2079,-154 2726.7921,-154 2726.7921,-190"/>
<text text-anchor="middle" x="2651" y="-167.8" font-family="Times,serif" font-size="14.00" fill="#000000">TableOrdersComponent</text>
</g>
<!-- TableOrdersComponent&#45;&gt;AppModule -->
<g id="edge45" class="edge">
<title>TableOrdersComponent&#45;&gt;AppModule</title>
<path fill="none" stroke="#000000" d="M2651,-190.0449C2651,-211.6623 2651,-245 2651,-245 2651,-245 5002.2914,-245 5002.2914,-245"/>
<polygon fill="#000000" stroke="#000000" points="5002.2915,-248.5001 5012.2914,-245 5002.2914,-241.5001 5002.2915,-248.5001"/>
</g>
<!-- TableSignalsComponent -->
<g id="node46" class="node">
<title>TableSignalsComponent</title>
<polygon fill="#ffffb3" stroke="#000000" points="2557.4284,-190 2402.5716,-190 2402.5716,-154 2557.4284,-154 2557.4284,-190"/>
<text text-anchor="middle" x="2480" y="-167.8" font-family="Times,serif" font-size="14.00" fill="#000000">TableSignalsComponent</text>
</g>
<!-- TableSignalsComponent&#45;&gt;AppModule -->
<g id="edge46" class="edge">
<title>TableSignalsComponent&#45;&gt;AppModule</title>
<path fill="none" stroke="#000000" d="M2480,-190.2921C2480,-212.2057 2480,-246 2480,-246 2480,-246 5002.2635,-246 5002.2635,-246"/>
<polygon fill="#000000" stroke="#000000" points="5002.2635,-249.5001 5012.2635,-246 5002.2634,-242.5001 5002.2635,-249.5001"/>
</g>
<!-- TableTradesComponent -->
<g id="node47" class="node">
<title>TableTradesComponent</title>
<polygon fill="#ffffb3" stroke="#000000" points="2384.7921,-190 2233.2079,-190 2233.2079,-154 2384.7921,-154 2384.7921,-190"/>
<text text-anchor="middle" x="2309" y="-167.8" font-family="Times,serif" font-size="14.00" fill="#000000">TableTradesComponent</text>
</g>
<!-- TableTradesComponent&#45;&gt;AppModule -->
<g id="edge47" class="edge">
<title>TableTradesComponent&#45;&gt;AppModule</title>
<path fill="none" stroke="#000000" d="M2309,-190.0109C2309,-212.4852 2309,-248 2309,-248 2309,-248 5002.2536,-248 5002.2536,-248"/>
<polygon fill="#000000" stroke="#000000" points="5002.2536,-251.5001 5012.2536,-248 5002.2535,-244.5001 5002.2536,-251.5001"/>
</g>
<!-- TradesViewComponent -->
<g id="node48" class="node">
<title>TradesViewComponent</title>
<polygon fill="#ffffb3" stroke="#000000" points="2214.738,-190 2065.262,-190 2065.262,-154 2214.738,-154 2214.738,-190"/>
<text text-anchor="middle" x="2140" y="-167.8" font-family="Times,serif" font-size="14.00" fill="#000000">TradesViewComponent</text>
</g>
<!-- TradesViewComponent&#45;&gt;AppModule -->
<g id="edge48" class="edge">
<title>TradesViewComponent&#45;&gt;AppModule</title>
<path fill="none" stroke="#000000" d="M2140,-190.2479C2140,-213.0179 2140,-249 2140,-249 2140,-249 5002.2469,-249 5002.2469,-249"/>
<polygon fill="#000000" stroke="#000000" points="5002.247,-252.5001 5012.2469,-249 5002.2469,-245.5001 5002.247,-252.5001"/>
</g>
<!-- AppComponent  -->
<g id="node52" class="node">
<title>AppComponent </title>
<polygon fill="#80b1d3" stroke="#000000" points="5108.439,-326 4999.561,-326 4999.561,-290 5108.439,-290 5108.439,-326"/>
<text text-anchor="middle" x="5054" y="-303.8" font-family="Times,serif" font-size="14.00" fill="#000000">AppComponent </text>
</g>
<!-- AppModule&#45;&gt;AppComponent  -->
<g id="edge52" class="edge">
<title>AppModule&#45;&gt;AppComponent </title>
<path fill="none" stroke="#000000" stroke-dasharray="1,5" d="M5054,-258.2228C5054,-258.2228 5054,-279.7269 5054,-279.7269"/>
<polygon fill="#000000" stroke="#000000" points="5050.5001,-279.7269 5054,-289.7269 5057.5001,-279.727 5050.5001,-279.7269"/>
</g>
<!-- FgGlobalScopeModule -->
<g id="node50" class="node">
<title>FgGlobalScopeModule</title>
<polygon fill="#8dd3c7" stroke="#000000" points="8675.147,-190 8672.147,-194 8651.147,-194 8648.147,-190 8528.853,-190 8528.853,-154 8675.147,-154 8675.147,-190"/>
<text text-anchor="middle" x="8602" y="-167.8" font-family="Times,serif" font-size="14.00" fill="#000000">FgGlobalScopeModule</text>
</g>
<!-- FgGlobalScopeModule&#45;&gt;AppModule -->
<g id="edge50" class="edge">
<title>FgGlobalScopeModule&#45;&gt;AppModule</title>
<path fill="none" stroke="#000000" d="M8602,-190.2267C8602,-214.9318 8602,-256 8602,-256 8602,-256 5105.6928,-256 5105.6928,-256"/>
<polygon fill="#000000" stroke="#000000" points="5105.6929,-252.5001 5095.6928,-256 5105.6928,-259.5001 5105.6929,-252.5001"/>
</g>
<!-- FgMaterialModule -->
<g id="node51" class="node">
<title>FgMaterialModule</title>
<polygon fill="#8dd3c7" stroke="#000000" points="8814.7534,-190 8811.7534,-194 8790.7534,-194 8787.7534,-190 8693.2466,-190 8693.2466,-154 8814.7534,-154 8814.7534,-190"/>
<text text-anchor="middle" x="8754" y="-167.8" font-family="Times,serif" font-size="14.00" fill="#000000">FgMaterialModule</text>
</g>
<!-- FgMaterialModule&#45;&gt;AppModule -->
<g id="edge51" class="edge">
<title>FgMaterialModule&#45;&gt;AppModule</title>
<path fill="none" stroke="#000000" d="M8733.7078,-190.0263C8733.7078,-214.9773 8733.7078,-257 8733.7078,-257 8733.7078,-257 5105.9588,-257 5105.9588,-257"/>
<polygon fill="#000000" stroke="#000000" points="5105.9588,-253.5001 5095.9588,-257 5105.9588,-260.5001 5105.9588,-253.5001"/>
</g>
<!-- FgAngularMaterialDemoComponent  -->
<g id="node58" class="node">
<title>FgAngularMaterialDemoComponent </title>
<polygon fill="#fb8072" stroke="#000000" points="9082.62,-258 8855.38,-258 8855.38,-222 9082.62,-222 9082.62,-258"/>
<text text-anchor="middle" x="8969" y="-235.8" font-family="Times,serif" font-size="14.00" fill="#000000">FgAngularMaterialDemoComponent </text>
</g>
<!-- FgMaterialModule&#45;&gt;FgAngularMaterialDemoComponent  -->
<g id="edge58" class="edge">
<title>FgMaterialModule&#45;&gt;FgAngularMaterialDemoComponent </title>
<path fill="none" stroke="#000000" stroke-dasharray="5,2" d="M8774.2922,-190.1871C8774.2922,-205.1824 8774.2922,-224 8774.2922,-224 8774.2922,-224 8845.1743,-224 8845.1743,-224"/>
<polygon fill="#000000" stroke="#000000" points="8845.1743,-227.5001 8855.1743,-224 8845.1743,-220.5001 8845.1743,-227.5001"/>
</g>
<!-- FgAppService -->
<g id="node53" class="node">
<title>FgAppService</title>
<ellipse fill="#fdb462" stroke="#000000" cx="1974" cy="-172" rx="66.6344" ry="18"/>
<text text-anchor="middle" x="1974" y="-167.8" font-family="Times,serif" font-size="14.00" fill="#000000">FgAppService</text>
</g>
<!-- FgAppService&#45;&gt;AppModule -->
<g id="edge53" class="edge">
<title>FgAppService&#45;&gt;AppModule</title>
<path fill="none" stroke="#000000" d="M1974,-190.3228C1974,-213.6602 1974,-251 1974,-251 1974,-251 5002.2126,-251 5002.2126,-251"/>
<polygon fill="#000000" stroke="#000000" points="5002.2127,-254.5001 5012.2126,-251 5002.2126,-247.5001 5002.2127,-254.5001"/>
</g>
<!-- FgComponentBaseService -->
<g id="node54" class="node">
<title>FgComponentBaseService</title>
<ellipse fill="#fdb462" stroke="#000000" cx="1775" cy="-172" rx="114.046" ry="18"/>
<text text-anchor="middle" x="1775" y="-167.8" font-family="Times,serif" font-size="14.00" fill="#000000">FgComponentBaseService</text>
</g>
<!-- FgComponentBaseService&#45;&gt;AppModule -->
<g id="edge54" class="edge">
<title>FgComponentBaseService&#45;&gt;AppModule</title>
<path fill="none" stroke="#000000" d="M1775,-190.1532C1775,-213.7566 1775,-252 1775,-252 1775,-252 5002.243,-252 5002.243,-252"/>
<polygon fill="#000000" stroke="#000000" points="5002.2431,-255.5001 5012.243,-252 5002.243,-248.5001 5002.2431,-255.5001"/>
</g>
<!-- FgEventService -->
<g id="node55" class="node">
<title>FgEventService</title>
<ellipse fill="#fdb462" stroke="#000000" cx="1570" cy="-172" rx="72.9315" ry="18"/>
<text text-anchor="middle" x="1570" y="-167.8" font-family="Times,serif" font-size="14.00" fill="#000000">FgEventService</text>
</g>
<!-- FgEventService&#45;&gt;AppModule -->
<g id="edge55" class="edge">
<title>FgEventService&#45;&gt;AppModule</title>
<path fill="none" stroke="#000000" d="M1570,-190.1985C1570,-214.3563 1570,-254 1570,-254 1570,-254 5002.1377,-254 5002.1377,-254"/>
<polygon fill="#000000" stroke="#000000" points="5002.1377,-257.5001 5012.1377,-254 5002.1376,-250.5001 5002.1377,-257.5001"/>
</g>
<!-- PbDataService -->
<g id="node56" class="node">
<title>PbDataService</title>
<ellipse fill="#fdb462" stroke="#000000" cx="1411" cy="-172" rx="68.3343" ry="18"/>
<text text-anchor="middle" x="1411" y="-167.8" font-family="Times,serif" font-size="14.00" fill="#000000">PbDataService</text>
</g>
<!-- PbDataService&#45;&gt;AppModule -->
<g id="edge56" class="edge">
<title>PbDataService&#45;&gt;AppModule</title>
<path fill="none" stroke="#000000" d="M1411,-190.0098C1411,-214.4207 1411,-255 1411,-255 1411,-255 5002.1442,-255 5002.1442,-255"/>
<polygon fill="#000000" stroke="#000000" points="5002.1443,-258.5001 5012.1442,-255 5002.1442,-251.5001 5002.1443,-258.5001"/>
</g>
<!-- FgAngularMaterialDemoComponent -->
<g id="node57" class="node">
<title>FgAngularMaterialDemoComponent</title>
<polygon fill="#ffffb3" stroke="#000000" points="9330.6203,-258 9107.3797,-258 9107.3797,-222 9330.6203,-222 9330.6203,-258"/>
<text text-anchor="middle" x="9219" y="-235.8" font-family="Times,serif" font-size="14.00" fill="#000000">FgAngularMaterialDemoComponent</text>
</g>
<!-- FgAngularMaterialDemoComponent&#45;&gt;FgMaterialModule -->
<g id="edge57" class="edge">
<title>FgAngularMaterialDemoComponent&#45;&gt;FgMaterialModule</title>
<path fill="none" stroke="#000000" d="M9219,-221.7772C9219,-201.6348 9219,-172 9219,-172 9219,-172 8824.7906,-172 8824.7906,-172"/>
<polygon fill="#000000" stroke="#000000" points="8824.7907,-168.5001 8814.7906,-172 8824.7906,-175.5001 8824.7907,-168.5001"/>
</g>
</g>
</svg>
